<svg width="316" height="134" viewBox="0 0 316 134" fill="none" xmlns="http://www.w3.org/2000/svg">
<path d="M273.302 68.9468C273.302 68.9468 300.023 62.25 313.007 88.2002C321.584 105.323 306.339 128.305 278.224 128.305C278.224 128.305 200.459 139.72 146.841 128.305C146.841 128.305 116.98 136.879 96.6126 128.305C76.2451 119.731 82.5613 101.391 97.7678 95.5947C97.7678 95.5947 90.4094 75.9353 106.432 62.25C122.455 48.5646 133.518 53.3716 133.518 53.3716C133.518 53.3716 135.188 23.9207 159.799 13.8247C187.626 2.40965 202.355 17.7693 207.817 25.2398C207.817 25.2398 217.047 16.7672 228.235 23.4768C238.105 29.3872 235.38 41.2335 233.107 43.859C233.132 43.8083 267.915 31.5815 273.302 68.9468Z" fill="#F9F9F9"/>
<path d="M204.59 134C185.139 134 164.634 132.732 146.828 128.927C144.48 129.574 115.925 137.12 96.3615 128.863C87.6846 125.198 82.9632 119.427 83.0762 112.603C83.2018 105.462 88.7645 98.5373 96.9642 95.2016C95.8969 91.7644 91.4141 74.2232 106.018 61.7428C119.906 49.8711 130.09 51.596 132.953 52.4585C133.467 47.5754 137.184 22.3608 159.548 13.1399C185.918 2.321 201.062 15.1566 207.918 24.2125C210.09 22.5256 218.629 16.8562 228.549 22.8047C230.452 23.8933 232.083 25.4064 233.319 27.2286C234.555 29.0507 235.363 31.1339 235.681 33.3192C236.176 36.4768 235.766 39.7113 234.501 42.6416C238.783 41.462 250.737 39.0395 260.607 45.0894C267.639 49.4145 272.072 57.1513 273.779 68.1098C278.061 67.298 301.631 64.0512 313.535 87.8325C317.302 95.3411 316.724 104.118 311.99 111.931C305.523 122.56 292.891 128.901 278.187 128.901C253.786 132.173 229.205 133.876 204.59 134ZM146.828 127.658H146.966C199.844 138.972 277.345 127.76 278.124 127.658C292.477 127.658 304.707 121.545 310.948 111.297C315.456 103.89 315.971 95.5821 312.442 88.4667C299.885 63.2901 273.704 69.4415 273.44 69.543C273.355 69.5671 273.266 69.5716 273.179 69.5562C273.092 69.5409 273.01 69.506 272.938 69.4542C272.863 69.4077 272.799 69.3448 272.751 69.2702C272.704 69.1956 272.673 69.1112 272.662 69.023C271.092 58.1026 266.823 50.4418 259.979 46.1929C248.502 39.1536 233.484 44.2904 233.333 44.3411C233.203 44.3901 233.06 44.3929 232.927 44.3491C232.795 44.3054 232.681 44.2176 232.605 44.1001C232.52 43.9892 232.475 43.8532 232.475 43.7133C232.475 43.5733 232.52 43.4373 232.605 43.3264C233.785 41.982 235.116 37.8218 234.426 33.5348C234.131 31.5337 233.388 29.6267 232.255 27.9586C231.121 26.2906 229.626 24.9054 227.883 23.9081C217.21 17.5664 208.295 25.519 208.207 25.5951C208.143 25.659 208.066 25.7072 207.981 25.7358C207.896 25.7644 207.806 25.7727 207.717 25.76C207.63 25.7532 207.545 25.727 207.469 25.6831C207.393 25.6392 207.328 25.5788 207.277 25.5063C200.836 16.7294 186.131 3.61471 160 14.3322C136.054 24.1491 134.12 53.0292 134.108 53.321C134.1 53.4234 134.069 53.5226 134.017 53.6106C133.964 53.6987 133.892 53.7732 133.806 53.8283C133.716 53.8721 133.618 53.8949 133.518 53.8949C133.418 53.8949 133.319 53.8721 133.229 53.8283C133.128 53.8283 122.304 49.3891 106.859 62.6305C91.414 75.872 98.2953 95.0748 98.358 95.2777C98.4152 95.4342 98.4091 95.6071 98.341 95.759C98.2728 95.911 98.1481 96.0296 97.9939 96.0894C89.9574 99.1461 84.4826 105.767 84.357 112.578C84.2566 118.856 88.7018 124.208 96.914 127.658C116.817 136.042 146.414 127.658 146.715 127.658C146.757 127.655 146.8 127.66 146.841 127.671L146.828 127.658Z" fill="black"/>
<path d="M193.892 63.3154C193.892 63.3154 190.413 54.7542 179.062 54.7542C168.79 54.7542 166.643 64.4189 165.375 66.7526C165.375 66.7526 159.41 64.0384 153.797 67.0317C152.198 67.885 150.881 69.1923 150.009 70.7925C149.136 72.3926 148.747 74.2157 148.888 76.0369" fill="#F9F9F9"/>
<path d="M148.887 76.6712C148.734 76.6696 148.586 76.6124 148.471 76.51C148.356 76.4076 148.281 76.2667 148.26 76.1131C148.123 74.168 148.544 72.2245 149.473 70.515C150.402 68.8054 151.798 67.4024 153.496 66.4737C155.287 65.5977 157.236 65.0987 159.224 65.0071C161.212 64.9156 163.198 65.2333 165.061 65.9411C165.174 65.6874 165.299 65.383 165.438 65.0405C166.882 61.5018 169.895 54.1201 179.062 54.1201C190.702 54.1201 194.444 62.9985 194.482 63.0746C194.513 63.152 194.528 63.2348 194.527 63.3181C194.525 63.4015 194.508 63.4839 194.475 63.5604C194.443 63.637 194.395 63.7063 194.336 63.7644C194.277 63.8225 194.207 63.8682 194.13 63.899C193.977 63.9621 193.805 63.9616 193.652 63.8974C193.5 63.8333 193.378 63.7108 193.314 63.5566C193.176 63.2268 189.836 55.3885 179.062 55.3885C170.737 55.3885 168.049 61.9838 166.605 65.5352C166.342 66.182 166.128 66.6893 165.927 67.0698C165.848 67.2085 165.721 67.3133 165.571 67.3647C165.421 67.416 165.257 67.4104 165.111 67.3489C165.111 67.3489 159.347 64.8122 154.086 67.6026C152.602 68.4006 151.38 69.6162 150.566 71.102C149.753 72.5878 149.383 74.28 149.503 75.9736C149.52 76.14 149.472 76.3067 149.369 76.4374C149.265 76.568 149.115 76.652 148.95 76.6712H148.887Z" fill="black"/>
<path d="M28.7546 46.6617C28.7546 46.6617 10.9111 42.2606 2.23423 59.3451C-3.49176 70.608 6.69196 85.7139 25.4647 85.7139C25.4647 85.7139 77.3878 93.2478 113.188 85.7139C113.188 85.7139 133.128 91.3453 146.702 85.7139C160.277 80.0824 156.082 67.9571 145.936 64.1521C145.936 64.1521 149.352 51.2023 141.755 39.4195C140.154 36.9033 137.845 34.9284 135.124 33.7485C132.403 32.5687 129.394 32.2379 126.486 32.7988C126.486 32.7988 125.431 7.43192 108.24 2.09221C86.1024 -4.75683 73.9222 14.0653 72.453 17.8704C72.453 17.8704 67.7567 10.8692 60.4359 15.524C53.1152 20.1788 54.057 28.423 55.5638 30.1099C55.5638 30.0845 32.3459 22.094 28.7546 46.6617Z" fill="#F9F9F9"/>
<path d="M74.6379 89.6965C58.1465 89.6075 41.6769 88.4723 25.3265 86.2973C15.4442 86.2973 6.90542 82.0357 2.58582 74.8823C1.07268 72.5521 0.190629 69.8621 0.0275894 67.0803C-0.13545 64.2985 0.426232 61.5222 1.65661 59.028C9.49217 43.605 24.8242 45.3172 28.2146 45.9133C29.3699 38.8106 32.3207 33.7627 37.0045 30.9089C43.4211 26.9644 51.1939 28.3722 54.3583 29.1205C53.8833 27.5525 53.7631 25.8967 54.0067 24.2754C54.2773 22.3689 54.9655 20.5474 56.0212 18.9434C57.0769 17.3395 58.4736 15.9936 60.1094 15.0039C61.9802 13.6745 64.2807 13.112 66.5462 13.4298C68.8118 13.7477 70.8735 14.9222 72.3148 16.7162C75.0899 11.3004 87.4711 -4.97244 108.441 1.4961C124.213 6.36652 126.724 27.8776 127.076 32.0758C130.011 31.6499 133.006 32.0845 135.704 33.3279C138.402 34.5713 140.69 36.5711 142.295 39.0897C146.853 46.4381 148.427 55.2796 146.69 63.7716C152.152 66.0292 155.919 70.6714 155.919 75.3642C155.919 78.0151 154.852 82.9742 146.916 86.2592C133.769 91.7258 115.134 86.8681 113.138 86.3227C101.296 88.8087 87.6092 89.6965 74.6379 89.6965ZM23.4932 46.8139C19.1825 46.7012 14.9322 47.8554 11.2586 50.1362C7.585 52.4171 4.64622 55.7264 2.79926 59.6622C1.66758 61.9653 1.15435 64.5282 1.3108 67.0945C1.46726 69.6608 2.28795 72.1406 3.69084 74.2861C7.77186 81.059 15.9213 85.1051 25.4646 85.1051C26.0674 85.1812 77.7771 92.5502 113.05 85.1051C113.148 85.0731 113.253 85.0731 113.351 85.1051C113.552 85.1051 133.254 90.6097 146.464 85.1051C151.838 82.8728 154.751 79.4229 154.689 75.4022C154.613 71.0392 151.009 66.7649 145.723 64.7862C145.576 64.7315 145.454 64.623 145.382 64.4822C145.31 64.3413 145.293 64.1783 145.334 64.0253C145.334 63.8984 148.586 51.2023 141.228 39.7999C139.709 37.3797 137.503 35.4793 134.897 34.3476C132.291 33.216 129.407 32.906 126.624 33.4582C126.533 33.4782 126.439 33.4784 126.348 33.4588C126.257 33.4391 126.171 33.4 126.096 33.3441C126.022 33.2883 125.962 33.2157 125.92 33.1319C125.879 33.0482 125.857 32.9557 125.858 32.8621C125.858 32.6211 124.602 7.85046 108.065 2.73904C86.5921 -3.89438 74.5248 14.2937 73.0431 18.1494C72.9994 18.2551 72.9288 18.3472 72.8383 18.4163C72.7479 18.4853 72.6409 18.529 72.5283 18.5426C72.4151 18.5579 72.3 18.541 72.1957 18.494C72.0915 18.4469 72.0023 18.3715 71.9381 18.2762C71.7623 18.0099 67.4803 11.833 60.7623 16.0946C59.2767 16.9796 58.0083 18.1922 57.0516 19.6417C56.0949 21.0912 55.4747 22.7402 55.2373 24.4657C54.8681 26.2552 55.1489 28.1191 56.0284 29.7167C56.1172 29.8256 56.1657 29.9624 56.1657 30.1035C56.1657 30.2446 56.1172 30.3814 56.0284 30.4903C55.9554 30.6118 55.8426 30.7037 55.7096 30.7501C55.5765 30.7964 55.4317 30.7943 55.3001 30.744C55.1996 30.744 45.1666 27.3322 37.5696 32.0124C33.1244 34.752 30.3367 39.7112 29.3071 46.7632C29.2941 46.8493 29.2641 46.9318 29.2188 47.0059C29.1735 47.08 29.1138 47.1441 29.0434 47.1944C28.9699 47.2424 28.8874 47.2751 28.8011 47.2904C28.7149 47.3056 28.6264 47.3031 28.5411 47.2832C26.8819 46.9257 25.1897 46.7471 23.4932 46.7505V46.8139Z" fill="black"/>
<path d="M124.765 45.127C124.611 45.1246 124.464 45.0652 124.35 44.96C124.237 44.8547 124.166 44.711 124.15 44.5562C123.673 40.0409 121.438 36.7559 118.01 35.5256C116.41 34.97 114.687 34.8812 113.039 35.2693C111.391 35.6574 109.884 36.5067 108.693 37.7199C108.573 37.8369 108.413 37.9023 108.247 37.9023C108.08 37.9023 107.92 37.8369 107.801 37.7199C107.742 37.6609 107.695 37.5908 107.664 37.5135C107.632 37.4362 107.615 37.3533 107.615 37.2696C107.615 37.1859 107.632 37.103 107.664 37.0257C107.695 36.9484 107.742 36.8783 107.801 36.8193C109.157 35.4321 110.873 34.4584 112.752 34.0099C114.63 33.5613 116.596 33.6558 118.424 34.2827C122.329 35.6778 124.866 39.356 125.393 44.4294C125.411 44.5958 125.363 44.7624 125.259 44.8931C125.156 45.0238 125.005 45.1078 124.841 45.127H124.765Z" fill="black"/>
<path d="M61.7417 53.9165H61.5785C61.4181 53.8692 61.2825 53.7606 61.2004 53.6137C61.1183 53.4668 61.0963 53.2932 61.139 53.1301C61.6618 51.255 62.6961 49.5661 64.1238 48.2564C65.5515 46.9466 67.3151 46.0688 69.2131 45.7231C73.3067 45.0128 77.2873 46.9914 80.1754 51.1008C80.2235 51.169 80.2579 51.2461 80.2764 51.3277C80.2949 51.4094 80.2972 51.4939 80.2832 51.5765C80.2692 51.659 80.2391 51.738 80.1948 51.8087C80.1504 51.8794 80.0926 51.9406 80.0247 51.9887C79.8873 52.0837 79.7187 52.1209 79.5546 52.0925C79.3906 52.0641 79.2439 51.9723 79.1457 51.8365C76.5589 48.1203 73.0053 46.3446 69.4266 46.9787C67.7625 47.2826 66.2163 48.0524 64.9642 49.2005C63.7121 50.3486 62.8043 51.8289 62.3444 53.4726C62.3041 53.602 62.2239 53.7149 62.1154 53.7948C62.0069 53.8747 61.876 53.9173 61.7417 53.9165Z" fill="black"/>
<path d="M50.7043 62.3636C50.5377 62.3636 50.378 62.2968 50.2603 62.1778C50.1425 62.0589 50.0764 61.8977 50.0764 61.7295C50.1082 60.2362 50.4696 58.769 51.1344 57.4349C51.7991 56.1008 52.7505 54.9334 53.9189 54.0179C55.0487 53.1596 56.3669 52.5892 57.7616 52.3552C59.1563 52.1211 60.5862 52.2303 61.9302 52.6735C62.0089 52.6954 62.0824 52.7329 62.1466 52.7838C62.2108 52.8347 62.2643 52.8981 62.3041 52.9701C62.3438 53.0421 62.3689 53.1213 62.378 53.2032C62.3872 53.2852 62.38 53.3681 62.3571 53.4472C62.313 53.6081 62.2079 53.7451 62.0645 53.8282C61.9211 53.9113 61.751 53.9339 61.5912 53.8911C60.4327 53.5007 59.1975 53.4007 57.9922 53.5995C56.7869 53.7984 55.6476 54.2902 54.6722 55.0326C53.6557 55.826 52.8281 56.8394 52.2501 57.9983C51.6721 59.1572 51.3584 60.4321 51.3321 61.7295C51.3321 61.8977 51.2659 62.0589 51.1482 62.1778C51.0304 62.2968 50.8708 62.3636 50.7043 62.3636Z" fill="black"/>
</svg>
