<svg width="286" height="130" viewBox="0 0 286 130" fill="none" xmlns="http://www.w3.org/2000/svg">
<path d="M60.7392 70.2783C61.1635 75.6229 51.1778 80.7841 38.4197 81.8135C25.6616 82.8429 14.9827 79.3316 14.5443 73.9871C14.1058 68.6425 21.1354 61.6198 33.8794 60.6045C46.6233 59.5892 60.3007 64.9338 60.7392 70.2783Z" fill="#606060"/>
<path d="M52.1819 62.3953C46.2989 60.2759 40.0317 59.4252 33.7945 59.8993C20.8384 60.9428 13.3278 68.0501 13.8228 74.001C14.0067 76.2996 15.8172 78.3161 18.9714 79.8391H19.1269C19.9336 80.2273 20.7652 80.5618 21.6163 80.8404C25.6481 82.0998 29.8525 82.7231 34.0774 82.6877C35.4918 82.6877 37.0335 82.6877 38.5328 82.5043C44.2143 82.1557 49.7752 80.7194 54.9118 78.2738C59.3813 75.9612 61.7293 73.0985 61.503 70.2076C61.2767 67.3168 57.8255 64.4965 52.1819 62.3953ZM15.2514 73.9305C15.0675 71.6037 16.5668 68.6847 19.721 66.231C22.0199 65.555 24.4534 65.4725 26.7931 65.9913C23.2146 68.318 20.117 73.6203 18.9572 78.2597C16.6941 77.0329 15.3787 75.524 15.2514 73.9305ZM38.3206 81.1083C32.848 81.6516 27.3217 81.1442 22.0406 79.6135C21.3758 79.402 20.7676 79.1482 20.1736 78.8943C21.4183 73.5216 25.3504 67.8386 28.7591 66.5271C34.5158 68.3603 40.6119 73.028 45.8877 79.9378C43.3977 80.5131 40.8685 80.9043 38.3206 81.1083ZM54.1622 77.0329C52.0043 78.1136 49.7381 78.9644 47.4012 79.5712C41.8567 72.1678 35.3504 67.1476 29.141 65.1874C29.0279 65.1016 28.8865 65.0614 28.745 65.0747C26.8148 64.475 24.7963 64.208 22.7761 64.285C26.2458 62.5618 30.0252 61.5455 33.8935 61.2955C34.9401 61.2955 36.001 61.1826 37.0759 61.1826C42.0424 61.1727 46.9725 62.0268 51.6444 63.7068C56.6091 65.5541 59.8057 68.0924 59.9896 70.3346C60.1734 72.5768 58.1225 75.0305 54.2045 77.0329H54.1622Z" fill="black"/>
<path d="M285.207 107.705V102.149C285.349 102.628 284.953 103.15 284.642 103.559C283.995 103.983 283.289 104.311 282.548 104.532L194.741 123.442C192.392 123.859 189.98 123.768 187.669 123.174C151.545 115.94 71.4316 105.759 71.4316 105.759L70.286 104.871C69.8382 104.531 69.4344 104.138 69.0837 103.7L71.4883 107.409L71.6297 107.606C71.982 108.149 72.4272 108.627 72.9451 109.016C72.9451 109.016 155.519 123.118 189.324 129.14C191.953 129.526 194.632 129.407 197.216 128.787L283.892 108.946C284.67 108.664 285.122 108.255 285.207 107.705Z" fill="#7F7F7F"/>
<path d="M192.11 130C191.119 130.007 190.13 129.927 189.154 129.76C155.745 123.837 73.6098 109.778 72.7895 109.637C72.6758 109.624 72.568 109.58 72.4783 109.51C71.9286 109.086 71.451 108.577 71.0639 108.001L68.5179 104.081C68.4251 103.926 68.3926 103.743 68.4265 103.566C68.4605 103.39 68.5584 103.231 68.7018 103.122C68.8547 103.022 69.0394 102.983 69.2198 103.012C69.4002 103.04 69.5634 103.135 69.6777 103.277C69.9902 103.665 70.3516 104.011 70.7527 104.306L71.7428 105.082C76.1558 105.646 152.959 115.503 187.824 122.483C190.05 123.066 192.376 123.163 194.642 122.765L282.463 103.771C283.075 103.577 283.663 103.317 284.217 102.995C284.366 102.844 284.486 102.667 284.571 102.473V102.149C284.572 101.979 284.634 101.814 284.745 101.685C284.857 101.556 285.01 101.47 285.179 101.444C285.348 101.423 285.519 101.463 285.661 101.556C285.803 101.649 285.908 101.789 285.957 101.951C286.014 102.178 286.014 102.416 285.957 102.642V107.705C285.965 107.742 285.965 107.781 285.957 107.818C285.869 108.269 285.64 108.68 285.301 108.992C284.963 109.304 284.534 109.5 284.076 109.552L197.386 129.407C195.656 129.807 193.886 130.005 192.11 130ZM73.1996 108.283C77.4429 109.016 156.735 122.582 189.408 128.378C191.935 128.736 194.506 128.621 196.99 128.039L283.694 108.184C284.019 108.1 284.415 107.945 284.5 107.648V104.419C283.927 104.718 283.325 104.959 282.704 105.138L194.896 124.133C192.436 124.588 189.906 124.496 187.485 123.865C153.1 116.956 77.9238 107.296 71.7003 106.506L72.1671 107.211C72.4497 107.623 72.7986 107.985 73.1996 108.283Z" fill="black"/>
<path d="M285.207 102.149C285.207 101.684 284.755 100.739 283.128 100.57C283.128 100.57 193.737 88.8934 161.983 83.154C158.603 82.5618 155.156 82.4431 151.743 82.8015L69.791 100.034C69.4997 100.02 69.2112 100.095 68.965 100.251C68.7187 100.407 68.5266 100.634 68.4151 100.903C68.3036 101.172 68.2781 101.468 68.3421 101.752C68.4061 102.035 68.5565 102.292 68.7726 102.487L68.9564 102.741C69.2997 103.186 69.7045 103.58 70.1587 103.912L71.3044 104.8C71.3044 104.8 155.519 116.829 186.82 123.132C189.353 123.765 191.985 123.904 194.571 123.541L282.548 104.518C285.349 103.63 285.25 102.642 285.207 102.149Z" fill="#7F7F7F"/>
<path d="M192.28 124.43C190.377 124.392 188.482 124.17 186.622 123.767C155.703 117.562 72.0541 105.59 71.1489 105.435C71.0254 105.418 70.9084 105.369 70.8094 105.294L69.6637 104.405C69.1672 104.036 68.7203 103.605 68.3341 103.122L68.1362 102.812C67.9044 102.506 67.751 102.148 67.6893 101.77C67.6277 101.391 67.6597 101.003 67.7826 100.64C67.9376 100.275 68.182 99.9548 68.4933 99.7085C68.8047 99.4621 69.1731 99.2975 69.5647 99.2298L151.601 82.0116C155.108 81.6253 158.652 81.744 162.124 82.3642C193.496 88.0049 282.35 99.6529 283.241 99.7657C285.617 100.076 285.9 101.669 285.929 101.98C286.014 102.939 285.745 104.151 282.76 105.04L194.741 124.077C193.938 124.295 193.112 124.414 192.28 124.43ZM71.5874 104.095C76.0428 104.729 156.707 116.307 186.962 122.427C189.39 123.054 191.918 123.198 194.401 122.85L282.393 103.813C284.585 103.164 284.528 102.558 284.5 102.262C284.5 102.262 284.387 101.5 283.086 101.317C282.195 101.204 193.312 89.5843 161.898 83.9013C158.629 83.3388 155.299 83.2155 151.997 83.5346L70.0314 100.753C69.8712 100.772 69.7173 100.827 69.5805 100.912C69.4436 100.997 69.3272 101.111 69.2394 101.246C69.2089 101.402 69.2134 101.562 69.2525 101.716C69.2916 101.87 69.3645 102.013 69.4657 102.135L69.6213 102.389C69.9326 102.755 70.2836 103.086 70.668 103.376L71.5874 104.095Z" fill="black"/>
<path d="M243.411 108.324C243.411 108.07 243.142 107.563 242.237 107.436C242.237 107.436 191.403 99.7362 173.68 96.3376C171.816 95.9881 169.912 95.8979 168.023 96.0697L123.497 105.758C122.719 105.941 122.535 106.477 122.945 107.168L123.044 107.323C123.242 107.566 123.47 107.784 123.723 107.972L124.359 108.465C124.359 108.465 171.346 115.685 188.815 119.38C190.199 119.734 191.638 119.829 193.058 119.662L241.997 109.593C243.51 109.156 243.411 108.606 243.411 108.324Z" fill="#7F7F7F"/>
<path d="M191.912 120.412C190.807 120.388 189.707 120.251 188.631 120.003C171.375 116.35 124.685 109.173 124.218 109.088C124.093 109.077 123.974 109.028 123.878 108.947L123.185 108.496C122.883 108.274 122.612 108.013 122.379 107.72L122.252 107.537C122.093 107.323 121.989 107.074 121.95 106.811C121.91 106.547 121.936 106.279 122.025 106.028C122.134 105.788 122.301 105.579 122.511 105.419C122.721 105.259 122.967 105.153 123.228 105.111L167.782 95.4235C169.779 95.2337 171.793 95.3239 173.765 95.6914C191.276 99.0476 241.799 106.705 242.308 106.789C242.73 106.8 243.136 106.956 243.456 107.231C243.776 107.506 243.99 107.883 244.062 108.298C244.175 109.271 243.553 109.906 242.096 110.315L193.171 120.327C192.755 120.398 192.333 120.426 191.912 120.412ZM124.614 107.72C127.825 108.214 172.167 115.067 188.913 118.607C190.223 118.949 191.585 119.044 192.93 118.889L241.813 108.891C242.605 108.665 242.732 108.453 242.732 108.453C242.732 108.453 242.591 108.242 242.166 108.186C241.742 108.129 191.106 100.43 173.567 97.0735C171.787 96.7381 169.969 96.648 168.164 96.8055L123.61 106.479C123.534 106.5 123.462 106.534 123.397 106.578C123.397 106.578 123.397 106.578 123.511 106.761L123.595 106.902C123.75 107.082 123.926 107.243 124.119 107.382L124.614 107.72Z" fill="black"/>
<path d="M216.297 123.202C216.093 123.204 215.894 123.14 215.731 123.019C215.618 122.941 215.525 122.838 215.459 122.718C215.393 122.598 215.355 122.464 215.349 122.328V121.171C215.343 120.933 215.42 120.701 215.567 120.513C215.714 120.325 215.922 120.194 216.155 120.142L219.239 119.437C219.374 119.402 219.515 119.398 219.652 119.425C219.79 119.452 219.919 119.509 220.031 119.592C220.141 119.672 220.233 119.776 220.299 119.895C220.365 120.015 220.404 120.147 220.413 120.283V121.453C220.409 121.69 220.327 121.918 220.178 122.102C220.029 122.286 219.823 122.415 219.592 122.469L216.509 123.174C216.441 123.196 216.369 123.206 216.297 123.202ZM216.792 121.468V121.693L219.027 121.171V120.96L216.792 121.468ZM216.792 121.143V121.242C216.794 121.223 216.794 121.204 216.792 121.185V121.143Z" fill="black"/>
<path d="M224.161 121.44C223.964 121.443 223.771 121.383 223.609 121.271C223.498 121.188 223.405 121.082 223.337 120.96C223.269 120.839 223.226 120.705 223.213 120.566V119.41C223.208 119.17 223.287 118.935 223.437 118.747C223.587 118.559 223.798 118.43 224.034 118.38L227.103 117.675C227.238 117.639 227.38 117.635 227.517 117.661C227.654 117.688 227.784 117.746 227.895 117.83C228.007 117.913 228.099 118.019 228.165 118.141C228.231 118.262 228.269 118.397 228.277 118.535V119.692C228.274 119.928 228.191 120.156 228.042 120.34C227.894 120.524 227.687 120.654 227.457 120.707L224.373 121.426L224.161 121.44ZM224.656 119.706V119.931L226.891 119.41V119.198L224.656 119.706ZM224.656 119.311V119.41C224.658 119.396 224.658 119.381 224.656 119.367V119.311Z" fill="black"/>
<path d="M232.69 119.253H232.563C232.218 119.188 231.91 118.997 231.698 118.719C231.486 118.44 231.386 118.092 231.417 117.744C231.429 117.555 231.478 117.37 231.564 117.2C231.649 117.031 231.767 116.88 231.912 116.757C232.161 116.551 232.481 116.45 232.803 116.475C233.15 116.537 233.462 116.726 233.676 117.005C233.891 117.284 233.993 117.633 233.963 117.984C233.949 118.174 233.897 118.36 233.81 118.529C233.722 118.699 233.601 118.849 233.454 118.971C233.242 119.154 232.97 119.254 232.69 119.253ZM232.69 117.575C232.64 117.597 232.598 117.632 232.568 117.677C232.538 117.722 232.521 117.775 232.52 117.829C232.507 117.892 232.515 117.959 232.543 118.017C232.571 118.076 232.618 118.123 232.676 118.153C232.725 118.13 232.768 118.094 232.8 118.05C232.833 118.005 232.853 117.954 232.86 117.899C232.874 117.716 232.761 117.575 232.69 117.575Z" fill="black"/>
<path d="M236.834 105.942L223.27 108.494L214.783 107.084L225.349 105.463C225.441 105.449 225.529 105.417 225.609 105.369C225.689 105.321 225.758 105.258 225.813 105.184C225.869 105.109 225.908 105.024 225.931 104.934C225.953 104.844 225.957 104.751 225.943 104.659C225.929 104.568 225.897 104.48 225.849 104.401C225.801 104.322 225.737 104.254 225.662 104.2C225.587 104.146 225.502 104.108 225.412 104.087C225.321 104.067 225.228 104.065 225.137 104.081L211.177 106.196C211.022 106.221 210.881 106.301 210.78 106.422L193.496 103.601L188.305 102.741L195.731 100.781C195.91 100.725 196.06 100.604 196.152 100.441C196.244 100.279 196.271 100.088 196.226 99.9065C196.176 99.7276 196.058 99.5754 195.896 99.483C195.735 99.3906 195.543 99.3654 195.363 99.413L184.925 102.233L177.853 101.063L186.58 99.3284C186.671 99.3099 186.757 99.2737 186.834 99.2218C186.911 99.17 186.977 99.1036 187.028 99.0263C187.08 98.949 187.115 98.8625 187.133 98.7716C187.15 98.6807 187.15 98.5871 187.131 98.4964C187.115 98.4047 187.079 98.3174 187.028 98.2397C186.976 98.162 186.91 98.0954 186.832 98.044C186.754 97.9926 186.666 97.9575 186.574 97.9407C186.482 97.9239 186.388 97.9259 186.297 97.9465L174.345 100.33C174.254 100.348 174.167 100.384 174.09 100.436C174.013 100.488 173.948 100.554 173.896 100.632C173.845 100.709 173.81 100.796 173.792 100.886C173.774 100.977 173.775 101.071 173.793 101.162C173.787 101.331 173.842 101.497 173.949 101.629C174.055 101.761 174.206 101.85 174.373 101.881L189.338 104.349L183.001 105.59L175.816 104.179C175.631 104.146 175.439 104.187 175.283 104.292C175.127 104.397 175.019 104.559 174.981 104.743C174.948 104.927 174.989 105.115 175.095 105.269C175.201 105.422 175.364 105.527 175.547 105.561L193.935 109.115L186.41 110.525L178.051 108.96C177.865 108.927 177.674 108.967 177.518 109.072C177.362 109.178 177.254 109.34 177.216 109.524C177.183 109.707 177.224 109.896 177.33 110.049C177.436 110.202 177.598 110.308 177.782 110.342L190.512 112.739L184.444 114.051C184.352 114.071 184.266 114.109 184.189 114.163C184.131 114.203 184.079 114.25 184.034 114.304C184.034 114.304 184.034 114.389 184.034 114.431V114.544C184.027 114.591 184.027 114.638 184.034 114.685C184.027 114.732 184.027 114.779 184.034 114.826C184.047 114.906 184.076 114.983 184.119 115.052L184.303 115.235L184.458 115.306L199.592 118.732H199.748C199.909 118.733 200.066 118.679 200.192 118.579C200.318 118.479 200.406 118.339 200.441 118.182C200.462 118.092 200.464 117.999 200.448 117.908C200.432 117.818 200.398 117.731 200.348 117.653C200.298 117.576 200.233 117.509 200.157 117.457C200.08 117.405 199.994 117.369 199.904 117.35L187.881 114.615L193.977 113.303C193.977 113.303 194.048 113.303 194.09 113.303L210.922 116.462H211.049C211.213 116.465 211.372 116.41 211.499 116.306C211.626 116.203 211.712 116.058 211.742 115.898C211.763 115.807 211.765 115.713 211.748 115.621C211.731 115.53 211.696 115.442 211.644 115.365C211.593 115.287 211.526 115.22 211.448 115.169C211.37 115.118 211.283 115.083 211.191 115.066L200.681 113.106L206.919 111.512L221.431 114.333H221.572C221.737 114.329 221.895 114.27 222.021 114.165C222.147 114.06 222.233 113.915 222.266 113.754C222.299 113.57 222.258 113.379 222.153 113.224C222.047 113.068 221.884 112.96 221.7 112.922L214.416 111.512L223.284 109.82L234.415 111.653H234.529C234.697 111.653 234.861 111.593 234.99 111.485C235.119 111.377 235.206 111.227 235.236 111.061C235.265 110.876 235.22 110.688 235.112 110.535C235.004 110.382 234.84 110.278 234.656 110.243L227.301 109.03L237.103 107.155C237.193 107.138 237.279 107.103 237.356 107.053C237.433 107.002 237.499 106.937 237.551 106.861C237.602 106.785 237.638 106.699 237.655 106.609C237.673 106.519 237.673 106.427 237.654 106.337C237.586 106.185 237.467 106.063 237.317 105.99C237.166 105.918 236.996 105.901 236.834 105.942ZM197.4 112.725L190.186 111.315L197.655 109.905L203.68 111.075L197.499 112.64L197.4 112.725ZM202.563 106.619L195.377 108.029L186.665 106.351L193.284 105.054L202.563 106.619ZM199.027 108.762L206.396 107.352L219.126 109.468L210.554 111.117L199.027 108.762Z" fill="black"/>
<path d="M193.624 129.943C193.448 129.944 193.278 129.88 193.147 129.762C193.016 129.645 192.934 129.483 192.916 129.309L192.393 123.767C192.383 123.674 192.392 123.58 192.419 123.491C192.446 123.402 192.49 123.319 192.549 123.246C192.608 123.174 192.681 123.115 192.764 123.071C192.846 123.027 192.936 123 193.03 122.991C193.213 122.982 193.394 123.043 193.535 123.16C193.677 123.278 193.769 123.444 193.793 123.626L194.331 129.182C194.347 129.367 194.289 129.55 194.169 129.693C194.05 129.835 193.88 129.925 193.694 129.943H193.624Z" fill="black"/>
<path d="M191.077 124.248L189.536 125.743L187.669 127.506C188.039 127.008 188.197 126.385 188.107 125.771C188.043 125.208 187.87 124.662 187.598 124.164L128.574 17.1462C127.923 15.9222 126.985 14.873 125.84 14.0874C124.695 13.3018 123.377 12.8032 121.997 12.6338L4.72751 3.05867H3.44042C2.9584 3.03608 2.47689 3.11294 2.026 3.28435L5.6186 1.19724L5.81664 1.08449C6.32148 0.822153 6.88952 0.704987 7.45733 0.746063L125.986 10.0108C127.364 10.1776 128.682 10.6737 129.827 11.4568C130.972 12.24 131.911 13.2871 132.563 14.5092L190.681 121.682C191.123 122.461 191.264 123.373 191.077 124.248Z" fill="#7F7F7F"/>
<path d="M187.711 128.238C187.533 128.239 187.362 128.174 187.23 128.055C187.098 127.938 187.015 127.775 186.999 127.599C186.984 127.424 187.036 127.249 187.145 127.11C187.398 126.749 187.499 126.304 187.428 125.869C187.387 125.375 187.242 124.894 187.004 124.459L127.98 17.4554C127.386 16.3395 126.533 15.3813 125.492 14.6602C124.452 13.9391 123.253 13.476 121.997 13.3095L4.69917 3.73447H3.45448C3.05455 3.71202 2.65446 3.77451 2.28057 3.9178C2.11413 3.97995 1.93073 3.97984 1.76432 3.91763C1.59791 3.85541 1.45973 3.73522 1.37532 3.57929C1.29705 3.41701 1.28271 3.23141 1.33509 3.05908C1.38747 2.88675 1.50276 2.74028 1.65822 2.64861L5.46302 0.43464C6.07727 0.102641 6.77501 -0.0443121 7.47147 0.0116072L126.014 9.29053C127.502 9.47355 128.924 10.0145 130.156 10.867C131.388 11.7194 132.394 12.8577 133.086 14.1838L191.205 121.357C191.758 122.306 191.934 123.428 191.7 124.501C191.661 124.62 191.593 124.726 191.502 124.811L188.107 128.069C187.998 128.168 187.858 128.227 187.711 128.238ZM4.95376 2.36656L122.082 11.9275C123.586 12.1024 125.024 12.6409 126.271 13.4962C127.518 14.3514 128.537 15.4976 129.239 16.8349L188.249 123.824C188.527 124.34 188.718 124.897 188.814 125.474L190.455 123.895C190.525 123.218 190.376 122.536 190.031 121.949L131.926 14.776C131.329 13.6635 130.475 12.7087 129.435 11.9903C128.395 11.2718 127.198 10.8104 125.943 10.6442L7.38661 1.37943C6.96188 1.34063 6.5349 1.42388 6.15607 1.61922L4.95376 2.36656Z" fill="black"/>
<path d="M188.135 125.769C188.225 126.383 188.068 127.006 187.697 127.504C187.422 127.817 187.075 128.059 186.686 128.209C186.297 128.359 185.877 128.412 185.462 128.364L62.9874 107.212C61.6105 107.034 60.2963 106.53 59.1545 105.743C58.0128 104.955 57.0767 103.907 56.4245 102.685L1.26205 7.21663C0.399249 5.49622 0.639711 4.05782 1.71467 3.39504L1.96926 3.23995C2.42014 3.06854 2.90166 2.99177 3.38368 3.01436H4.67085L122.025 12.6035C123.405 12.7729 124.723 13.2715 125.868 14.0571C127.013 14.8427 127.951 15.892 128.602 17.116L187.626 124.134C187.902 124.64 188.075 125.196 188.135 125.769Z" fill="#7F7F7F"/>
<path d="M185.632 129.069H185.42L62.846 107.916C61.3584 107.731 59.9379 107.189 58.7063 106.337C57.4746 105.485 56.4685 104.348 55.7739 103.023L0.611515 7.56892C-0.406868 5.55238 -0.138142 3.69095 1.30457 2.80254L1.58747 2.64745C2.16427 2.40661 2.7873 2.29588 3.41204 2.32314H4.68497L121.997 11.8981C123.501 12.073 124.939 12.6116 126.186 13.4669C127.433 14.3221 128.452 15.4682 129.154 16.8055L188.249 123.823C188.567 124.404 188.769 125.041 188.843 125.699C188.946 126.488 188.738 127.287 188.263 127.927C187.942 128.306 187.537 128.606 187.081 128.804C186.625 129.002 186.129 129.093 185.632 129.069ZM3.34134 3.7333C2.97795 3.72653 2.61699 3.79364 2.28052 3.93066L2.09664 4.02938C1.347 4.49474 1.2763 5.60875 1.94107 6.92021L57.1035 102.36C57.6923 103.488 58.542 104.461 59.5824 105.196C60.6228 105.932 61.824 106.41 63.0865 106.591L185.646 127.743C185.937 127.768 186.229 127.726 186.501 127.621C186.773 127.515 187.018 127.35 187.216 127.137C187.342 126.961 187.432 126.762 187.481 126.552C187.529 126.341 187.535 126.123 187.499 125.91C187.457 125.416 187.313 124.936 187.075 124.5L128.051 17.4965C127.456 16.3806 126.603 15.4224 125.563 14.7013C124.522 13.9803 123.324 13.5172 122.068 13.3507L4.76992 3.77556H3.3555L3.34134 3.7333Z" fill="black"/>
<path d="M89.2391 70.6042C86.7073 70.6042 83.7511 68.8697 81.6295 65.8661C79.9547 63.6891 79.194 60.9485 79.5079 58.2229C79.5964 57.5976 79.8128 56.9971 80.1437 56.4585C80.4746 55.92 80.9129 55.455 81.4315 55.0924C84.2603 53.2168 88.7158 54.9655 91.6295 59.0832C93.3029 61.2607 94.0635 64.0007 93.7511 66.7262C93.657 67.3499 93.4383 67.9484 93.1079 68.4861C92.7774 69.0239 92.342 69.4899 91.8275 69.8568C91.0586 70.3573 90.1573 70.6176 89.2391 70.6042ZM83.9916 55.7692C83.3656 55.7509 82.7489 55.9231 82.2235 56.2628C81.8629 56.5227 81.5592 56.853 81.3306 57.2336C81.1021 57.6142 80.9535 58.0372 80.894 58.4768C80.6519 60.829 81.3311 63.1834 82.7893 65.0481C85.1656 68.4184 88.9562 70.0825 91.0354 68.6864C91.396 68.4265 91.6998 68.0962 91.9283 67.7156C92.1569 67.335 92.3055 66.912 92.365 66.4724C92.607 64.1202 91.9279 61.7657 90.4696 59.901C88.6875 57.3486 86.0849 55.7692 84.0199 55.7692H83.9916Z" fill="black"/>
</svg>
