<svg width="39" height="101" viewBox="0 0 39 101" fill="none" xmlns="http://www.w3.org/2000/svg">
<g clip-path="url(#clip0_40000016_30759)">
<path d="M17.2219 42.0267L17.6472 41.4416L18.0672 40.8639L18.4707 40.2862L18.8552 39.7048L19.2178 39.1161L19.5505 38.5201L19.8558 37.8911L19.9867 37.5913L20.1121 37.2732L20.2294 36.9478L20.3357 36.6187L20.4312 36.2823L20.5157 35.9349L20.5893 35.5802L20.6493 35.2182L20.6957 34.8416L20.7311 34.454L20.7502 34.0555L20.7556 33.6423L20.7447 33.2766L20.712 32.9073L20.6575 32.5197L20.5839 32.1212L20.4939 31.7117L20.3875 31.3021L20.1203 30.4173L19.8013 29.5141L19.4387 28.5853L19.0488 27.6347L18.6398 26.6657L18.228 25.6857L18.0235 25.1885L17.8245 24.6912L17.6309 24.1902L17.4427 23.6856L17.2628 23.181L17.0937 22.6728L16.9356 22.1609L16.7911 21.649L16.6629 21.1334L16.5511 20.6178L16.4584 20.0949L16.3903 19.5721L16.3439 19.0492L16.3248 18.519L16.3357 17.9924L16.3739 17.4659L16.4475 16.9357L16.5566 16.4165L16.7011 15.9009L16.8865 15.3927L17.1101 14.899L17.3691 14.4164L17.6718 13.9484L18.0126 13.4949L18.3916 13.0562L18.817 12.632L19.2751 12.2298L19.5314 12.025L19.7931 11.8276L20.0658 11.6338L20.3494 11.4436L20.6438 11.2572L20.9438 11.078C21.2792 10.8769 21.6718 11.078 21.8218 11.5277C21.9717 11.9775 21.8218 12.504 21.4864 12.7051L21.1974 12.877L20.9301 13.0489L20.6738 13.2207L20.4312 13.3926L20.2021 13.5681L19.9922 13.7363L19.5805 14.0983L19.226 14.453L18.9151 14.8113L18.6425 15.1696L18.4107 15.528L18.2171 15.89L18.0535 16.252L17.9226 16.6103L17.819 16.9759L17.74 17.3452L17.6881 17.7182L17.6609 18.1021L17.6527 18.497L17.6663 18.8993L17.7045 19.3124L17.759 19.7366L17.8354 20.1644L17.9308 20.6032L18.0426 21.0493L18.1708 21.5027L18.3126 21.9634L18.468 22.4278L18.6343 22.8958L18.8115 23.3712L18.9969 23.8502L19.1905 24.3292L19.3896 24.8082L19.7986 25.7808L20.2103 26.7571L20.6111 27.7334L20.9929 28.7097L21.3391 29.6896L21.6309 30.6513L21.7618 31.1559L21.8708 31.6495L21.9608 32.1395L22.029 32.6331L22.0726 33.1304L22.089 33.6204L22.0835 34.1286L22.059 34.6222L22.0181 35.0976L21.9608 35.562L21.8872 36.0154L21.7972 36.4541L21.6936 36.882L21.5764 37.2988L21.4482 37.701L21.3092 38.0923L21.1592 38.4762L20.9929 38.8601L20.6548 39.5622L20.2785 40.2423L19.8804 40.8895L19.4687 41.5147L19.046 42.1217L18.6179 42.7141L18.1899 43.3028L17.7699 43.8805L17.3637 44.4729L16.9656 45.0469L16.6057 45.6539L16.243 46.2609L15.9295 46.8752L15.6486 47.5151L15.4005 48.2025L15.2996 48.5316L15.2042 48.8826L15.1196 49.2446L15.046 49.6176L14.986 49.9978L14.9397 50.3927L14.9015 50.8315L14.8797 51.2593L14.8742 51.6798L14.8824 52.0894L14.9042 52.4879L14.9397 52.8828L14.986 53.2704L15.0433 53.6507L15.1142 54.0273L15.196 54.3966L15.2887 54.7623L15.3868 55.1096L15.6241 55.8373L15.8913 56.5357L16.1912 57.2267L16.5184 57.9105L16.8674 58.5906L17.2382 59.2671L17.6227 59.9435L18.0153 60.6236L18.4134 61.3074L18.8088 61.9985L19.2014 62.7042L19.5805 63.4209L19.9458 64.1558L20.2894 64.9127L20.6057 65.6952L20.892 66.5033L21.1374 67.3443L21.3364 68.2072L21.4618 68.9203L21.5491 69.6223L21.6009 70.3134L21.6227 70.9935L21.6145 71.6663L21.5791 72.3281L21.5246 72.979L21.4482 73.6225L21.3528 74.2587L21.2437 74.884L21.121 75.5056L20.9874 76.1236L20.7093 77.3266L20.4175 78.5222L20.1367 79.7069L19.8804 80.888L19.6677 82.0654L19.515 83.2793L19.5014 83.4622L19.4959 83.6596V83.8534L19.5096 84.0472L19.5286 84.2337L19.5532 84.4055L19.6268 84.8078L19.7222 85.1954L19.8368 85.5976L20.1012 86.4751L20.3494 87.4331L20.4012 87.36L20.8538 86.7311L21.4291 85.9157L22.0045 85.093L22.2989 84.6725L22.588 84.2556L22.8688 83.8498L23.136 83.4622L23.3869 83.0965L23.6159 82.7601L23.7222 82.6065L23.8231 82.4603L23.9158 82.325L24.0004 82.2007L24.0767 82.0873L24.1449 81.9886L24.2049 81.9008L24.2539 81.8277L24.2921 81.7692L24.3221 81.7253L24.3385 81.6997L24.3439 81.6924C24.5921 81.3304 25.012 81.3048 25.2846 81.6376C25.5546 81.9703 25.5737 82.5334 25.3255 82.8991L25.3201 82.9064L25.3037 82.932L25.2737 82.9759L25.2355 83.0344L25.1865 83.1075L25.1265 83.1952L25.0583 83.294L24.982 83.4073L24.8974 83.5316L24.8047 83.6669L24.7038 83.8132L24.5975 83.9704L24.3685 84.3068L24.1176 84.6725L23.8504 85.0637L23.5696 85.4732L23.2805 85.8937L22.986 86.3216L22.4135 87.1479L21.8409 87.978L21.3855 88.6215L20.9329 89.2614L20.9029 89.3016L20.8974 89.3089L20.8865 89.3235L20.8674 89.3455L20.8429 89.3747L20.8129 89.4113L20.7775 89.4552L20.7366 89.5064L20.6793 89.5795L20.6084 89.6599L20.5321 89.7367L20.4475 89.8099L20.3521 89.8793L20.2403 89.9415L20.1067 89.9854L19.9458 90L19.8449 89.989H19.8204L19.7986 89.9817H19.7686L19.7577 89.9744H19.7495L19.6704 89.9561L19.4114 89.872L19.1251 89.7404L18.8443 89.5795L18.5661 89.3894L18.2935 89.1773L18.0235 88.9469L17.7536 88.6983L17.4891 88.435L17.2246 88.1608L16.9629 87.8756L16.7011 87.5831L16.1994 86.9944L15.7113 86.4057L15.2478 85.8462L14.8142 85.3306L14.4216 84.8919L14.0562 84.5299C13.7454 84.2191 13.68 83.6304 13.9117 83.2099C14.1435 82.793 14.5825 82.7053 14.896 83.0161L15.2941 83.4146L15.7331 83.9046L16.1858 84.4458L16.652 85.0125L17.1292 85.5939L17.6145 86.168L17.8517 86.4386L18.0917 86.7018L18.3289 86.9541L18.5634 87.1881L18.7924 87.4039L18.8742 87.4734L18.787 87.1443L18.5307 86.2996L18.3971 85.8316L18.2771 85.3343L18.1817 84.826L18.1408 84.5299L18.1135 84.241L18.0971 83.9448L18.0917 83.6413L18.0999 83.3269L18.1271 82.9832L18.2935 81.6851L18.5252 80.4017L18.7952 79.1585L19.0842 77.9445L19.376 76.7561L19.6486 75.5787L19.7713 75.0047L19.8831 74.4306L19.984 73.8565L20.0685 73.2861L20.1367 72.7194L20.1858 72.1526L20.2158 71.5822L20.2212 71.0154L20.2021 70.4414L20.1585 69.8636L20.0876 69.2822L19.9867 68.6972L19.8177 67.9549L19.6077 67.2419L19.3596 66.5362L19.0787 65.8415L18.7679 65.1577L18.4298 64.4776L18.0726 63.7975L17.6963 63.121L17.3091 62.4409L16.9138 61.7572L16.5157 61.0697L16.123 60.3713L15.7359 59.662L15.3623 58.9343L15.0078 58.1884L14.6752 57.4205L14.3725 56.6234L14.1108 55.8117L13.9881 55.3766L13.879 54.9414L13.7836 54.499L13.699 54.0492L13.6282 53.5885L13.5736 53.1205L13.5327 52.6451L13.5082 52.1588L13.5 51.6652L13.5082 51.1643L13.5354 50.6524L13.5818 50.1331L13.6391 49.6505L13.7127 49.1788L13.8027 48.7254L13.9063 48.2829L14.0235 47.8515L14.1571 47.42L14.4407 46.6375L14.7733 45.8806L15.1414 45.1603L15.5341 44.4985L15.9267 43.8403L16.3575 43.215L16.7774 42.608L17.211 42.0157L17.2219 42.0267Z" fill="#5A37E8"/>
</g>
<defs>
<clipPath id="clip0_40000016_30759">
<rect width="79" height="16" fill="white" transform="matrix(0 -1 -1 0 27.5 90)"/>
</clipPath>
</defs>
</svg>
