<svg width="152" height="56" viewBox="0 0 152 56" fill="none" xmlns="http://www.w3.org/2000/svg">
<path d="M63.1291 31.4172L62.2404 30.7791L61.3629 30.1493L60.4853 29.5439L59.6022 28.9673L58.708 28.4233L57.8026 27.9243L56.8473 27.4662L56.3919 27.2699L55.9087 27.0818L55.4143 26.9059L54.9145 26.7464L54.4035 26.6032L53.8758 26.4765L53.3371 26.366L52.7872 26.276L52.2151 26.2065L51.6264 26.1533L51.021 26.1247L50.3934 26.1165L49.8379 26.1329L49.277 26.182L48.6882 26.2638L48.0828 26.3742L47.4607 26.5092L46.8387 26.6687L45.4946 27.0695L44.1227 27.548L42.7119 28.092L41.2678 28.6769L39.796 29.2904L38.3074 29.908L37.5521 30.2147L36.7967 30.5133L36.0358 30.8037L35.2693 31.0859L34.5028 31.3558L33.7308 31.6094L32.9532 31.8466L32.1756 32.0634L31.3925 32.2556L30.6094 32.4233L29.8151 32.5624L29.0209 32.6646L28.2266 32.7341L27.4212 32.7628L26.6214 32.7464L25.8216 32.6892L25.0163 32.5787L24.2276 32.4151L23.4445 32.1984L22.6724 31.9202L21.9226 31.5849L21.1895 31.1963L20.4785 30.7423L19.7898 30.2311L19.1233 29.6626L18.479 29.0245L17.868 28.3374L17.557 27.9529L17.2571 27.5603L16.9627 27.1513L16.6739 26.7259L16.3906 26.2842L16.1185 25.8343C15.813 25.3313 16.1185 24.7423 16.8017 24.5174C17.4848 24.2924 18.2846 24.5174 18.5901 25.0204L18.8511 25.454L19.1122 25.8548L19.3732 26.2392L19.6343 26.6032L19.9009 26.9468L20.1564 27.2617L20.7062 27.8793L21.245 28.411L21.7893 28.8773L22.3336 29.2863L22.8779 29.6339L23.4278 29.9243L23.9777 30.1697L24.522 30.366L25.0774 30.5215L25.6384 30.6401L26.2049 30.7178L26.7881 30.7587L27.3879 30.7709L27.9989 30.7505L28.6265 30.6932L29.2708 30.6114L29.9206 30.4969L30.5871 30.3538L31.2647 30.1861L31.9535 29.9938L32.6533 29.7812L33.3587 29.548L34.0696 29.2985L34.7917 29.0327L35.5192 28.7546L36.2468 28.4642L36.9744 28.1656L38.4519 27.5521L39.9348 26.9345L41.4178 26.3333L42.9008 25.7607L44.3893 25.2413L45.85 24.8036L46.6165 24.6073L47.3663 24.4437L48.1106 24.3088L48.8604 24.2065L49.6158 24.1411L50.36 24.1165L51.1321 24.1247L51.8819 24.1615L52.6039 24.2229L53.3093 24.3088L53.998 24.4192L54.6645 24.5542L55.3144 24.7096L55.9475 24.8854L56.5585 25.0777L57.1528 25.2863L57.736 25.5112L58.3192 25.7607L59.3856 26.2679L60.4187 26.8323L61.4017 27.4294L62.3515 28.047L63.2735 28.681L64.1733 29.3231L65.0675 29.9652L65.9451 30.5951L66.8448 31.2045L67.7169 31.8016L68.6389 32.3415L69.5608 32.8855L70.4939 33.3558L71.4659 33.7771L72.5101 34.1493L73.01 34.3006L73.5432 34.4438L74.0931 34.5705L74.6596 34.681L75.2372 34.771L75.8371 34.8405L76.5036 34.8977L77.1534 34.9305L77.7922 34.9386L78.4142 34.9264L79.0196 34.8937L79.6195 34.8405L80.2082 34.771L80.7859 34.6851L81.3579 34.5787L81.9189 34.456L82.4743 34.317L83.002 34.1697L84.1073 33.8139L85.1681 33.4131L86.2178 32.9632L87.2565 32.4724L88.2896 31.9489L89.3171 31.3926L90.3446 30.8159L91.3777 30.227L92.4163 29.6298L93.4661 29.0368L94.538 28.4478L95.6266 27.8793L96.743 27.3313L97.8927 26.8159L99.0813 26.3415L100.309 25.912L101.586 25.5439L102.897 25.2454L103.98 25.0572L105.047 24.9263L106.096 24.8486L107.129 24.8159L108.151 24.8282L109.157 24.8814L110.145 24.9632L111.123 25.0777L112.089 25.2208L113.039 25.3844L113.983 25.5685L114.922 25.7689L116.749 26.1861L118.565 26.6237L120.365 27.045L122.159 27.4294L123.947 27.7484L125.791 27.9775L126.069 27.9979L126.369 28.0061H126.663L126.958 27.9857L127.241 27.957L127.502 27.9202L128.113 27.8098L128.702 27.6666L129.313 27.4949L130.646 27.0981L132.101 26.7259L131.99 26.6482L131.035 25.9693L129.796 25.1063L128.546 24.2433L127.908 23.8016L127.274 23.3681L126.658 22.9468L126.069 22.546L125.514 22.1697L125.003 21.8261L124.769 21.6666L124.547 21.5153L124.342 21.3762L124.153 21.2494L123.981 21.1349L123.831 21.0327L123.697 20.9427L123.586 20.8691L123.498 20.8118L123.431 20.7668L123.392 20.7423L123.381 20.7341C122.831 20.3619 122.792 19.7321 123.298 19.3231C123.803 18.9182 124.658 18.8895 125.214 19.2617L125.225 19.2699L125.264 19.2944L125.33 19.3394L125.419 19.3967L125.53 19.4703L125.664 19.5603L125.814 19.6625L125.986 19.7771L126.175 19.9038L126.38 20.0429L126.602 20.1942L126.841 20.3537L127.352 20.6973L127.908 21.0736L128.502 21.4744L129.124 21.8957L129.763 22.3292L130.412 22.7709L131.668 23.6298L132.929 24.4887L133.906 25.1717L134.878 25.8507L134.939 25.8957L134.95 25.9039L134.972 25.9202L135.006 25.9488L135.05 25.9857L135.106 26.0306L135.172 26.0838L135.25 26.1452L135.361 26.2311L135.483 26.3374L135.6 26.4519L135.711 26.5787L135.817 26.7219L135.911 26.8895L135.978 27.09L136 27.3313L135.983 27.4826V27.5194L135.972 27.5521V27.5971L135.961 27.6135V27.6257L135.933 27.7444L135.806 28.1329L135.606 28.5624L135.361 28.9836L135.072 29.4008L134.75 29.8098L134.4 30.2147L134.023 30.6196L133.623 31.0163L133.206 31.4131L132.773 31.8057L132.329 32.1984L131.434 32.9509L130.54 33.683L129.69 34.3783L128.907 35.0286L128.241 35.6176L127.691 36.1656C127.219 36.6319 126.325 36.7301 125.686 36.3824C125.053 36.0348 124.919 35.3763 125.392 34.9059L125.997 34.3088L126.741 33.6503L127.563 32.9714L128.424 32.272L129.307 31.5562L130.179 30.8282L130.59 30.4724L130.99 30.1125L131.373 29.7566L131.729 29.4049L132.057 29.0613L132.162 28.9386L131.662 29.0695L130.379 29.454L129.668 29.6544L128.913 29.8343L128.141 29.9775L127.691 30.0388L127.252 30.0797L126.802 30.1043L126.341 30.1125L125.864 30.1002L125.342 30.0593L123.37 29.8098L121.42 29.4621L119.532 29.0572L117.688 28.6237L115.883 28.1861L114.094 27.7771L113.222 27.593L112.35 27.4253L111.478 27.274L110.612 27.1472L109.751 27.045L108.89 26.9713L108.024 26.9264L107.163 26.9182L106.291 26.9468L105.413 27.0122L104.53 27.1186L103.641 27.2699L102.514 27.5235L101.431 27.8384L100.359 28.2106L99.3035 28.6319L98.2649 29.0981L97.2318 29.6053L96.1987 30.1411L95.1712 30.7055L94.1381 31.2863L93.0995 31.8793L92.0553 32.4765L90.9944 33.0654L89.9169 33.6462L88.8116 34.2065L87.6786 34.7382L86.5122 35.2372L85.3014 35.6912L84.0684 36.0838L83.4074 36.2679L82.7465 36.4315L82.0744 36.5746L81.3913 36.7014L80.6914 36.8078L79.9805 36.8896L79.2585 36.9509L78.5197 36.9877L77.7699 37L77.009 36.9877L76.2314 36.9468L75.4427 36.8773L74.7096 36.7914L73.9931 36.681L73.3044 36.546L72.6323 36.3906L71.9769 36.2147L71.3215 36.0143L70.1329 35.589L68.9832 35.09L67.889 34.5378L66.8837 33.9489L65.884 33.3599L64.9342 32.7137L64.0122 32.0838L63.1124 31.4335L63.1291 31.4172Z" fill="#5A37E8"/>
</svg>
