<svg width="40" height="40" viewBox="0 0 40 40" fill="none" xmlns="http://www.w3.org/2000/svg">
<path d="M21.6667 31.6667V15.0001C21.6667 14.5581 21.8423 14.1341 22.1548 13.8216C22.4674 13.509 22.8913 13.3334 23.3333 13.3334H33.3333C33.7754 13.3334 34.1993 13.509 34.5118 13.8216C34.8244 14.1341 35 14.5581 35 15.0001V20.8334M30 13.3334V8.33341C30 7.89139 29.8244 7.46746 29.5118 7.1549C29.1993 6.84234 28.7754 6.66675 28.3333 6.66675H6.66667C6.22464 6.66675 5.80072 6.84234 5.48816 7.1549C5.17559 7.46746 5 7.89139 5 8.33341V28.3334C5 28.7754 5.17559 29.1994 5.48816 29.5119C5.80072 29.8245 6.22464 30.0001 6.66667 30.0001H21.6667M31.6667 26.6667L28.3333 31.6667H35L31.6667 36.6667M26.6667 15.0001H30" stroke="#5A37E8" stroke-width="3.5" stroke-linecap="round" stroke-linejoin="round"/>
</svg>
