<svg width="386" height="187" viewBox="0 0 386 187" fill="none" xmlns="http://www.w3.org/2000/svg">
<path d="M314.686 0.375H62.1429C58.4201 0.375 55.4022 3.39399 55.4022 7.11811V169.492C55.4022 173.216 58.4201 176.235 62.1429 176.235H314.686C318.409 176.235 321.427 173.216 321.427 169.492V7.11811C321.427 3.39399 318.409 0.375 314.686 0.375Z" fill="#FFFDD6"/>
<path d="M314.69 176.61H62.1463C58.2217 176.61 55.0311 173.418 55.0311 169.492V7.11773C55.0311 3.19174 58.2217 0 62.1463 0H314.69C318.614 0 321.805 3.19174 321.805 7.11773V169.492C321.805 173.418 318.614 176.61 314.69 176.61ZM62.1463 0.749235C58.6336 0.749235 55.7801 3.60382 55.7801 7.11773V169.492C55.7801 173.006 58.6336 175.86 62.1463 175.86H314.69C318.202 175.86 321.056 173.006 321.056 169.492V7.11773C321.056 3.60382 318.202 0.749235 314.69 0.749235H62.1463Z" fill="black"/>
<path d="M55.4022 13.6134H129.07V176.265H58.8175C56.9376 176.265 55.4022 174.736 55.4022 172.848V13.6134Z" fill="#FFF476"/>
<path d="M129.066 176.631H58.8134C56.7313 176.631 55.0311 174.938 55.0311 172.848V13.6129C55.0311 13.4106 55.1959 13.2457 55.3981 13.2457H129.066C129.268 13.2457 129.433 13.4106 129.433 13.6129V176.264C129.433 176.467 129.268 176.631 129.066 176.631ZM55.7726 13.98V172.855C55.7726 174.534 57.1357 175.905 58.8209 175.905H128.707V13.98H55.7726Z" fill="black"/>
<path d="M252.973 32.2397H147.594C146.766 32.2397 146.096 32.9106 146.096 33.7382V41.9798C146.096 42.8074 146.766 43.4783 147.594 43.4783H252.973C253.8 43.4783 254.471 42.8074 254.471 41.9798V33.7382C254.471 32.9106 253.8 32.2397 252.973 32.2397Z" fill="#FFF476"/>
<path d="M252.976 43.8525H147.597C146.563 43.8525 145.725 43.0134 145.725 41.9794V33.7378C145.725 32.7039 146.563 31.8647 147.597 31.8647H252.976C254.01 31.8647 254.849 32.7039 254.849 33.7378V41.9794C254.849 43.0134 254.01 43.8525 252.976 43.8525ZM147.597 32.614C146.975 32.614 146.474 33.116 146.474 33.7378V41.9794C146.474 42.6013 146.975 43.1033 147.597 43.1033H252.976C253.598 43.1033 254.1 42.6013 254.1 41.9794V33.7378C254.1 33.116 253.598 32.614 252.976 32.614H147.597Z" fill="black"/>
<path d="M268.612 54.7242H147.706C146.821 54.7242 146.103 55.4421 146.103 56.3276V64.3594C146.103 65.2449 146.821 65.9628 147.706 65.9628H268.612C269.497 65.9628 270.214 65.2449 270.214 64.3594V56.3276C270.214 55.4421 269.497 54.7242 268.612 54.7242Z" fill="#FFF476"/>
<path d="M268.609 66.337H147.712C146.618 66.337 145.734 65.4529 145.734 64.359V56.3272C145.734 55.2333 146.618 54.3492 147.712 54.3492H268.609C269.703 54.3492 270.587 55.2333 270.587 56.3272V64.359C270.587 65.4529 269.703 66.337 268.609 66.337ZM147.712 55.0985C147.038 55.0985 146.483 55.6529 146.483 56.3272V64.359C146.483 65.0333 147.038 65.5878 147.712 65.5878H268.609C269.283 65.5878 269.838 65.0333 269.838 64.359V56.3272C269.838 55.6529 269.283 55.0985 268.609 55.0985H147.712Z" fill="black"/>
<path d="M243.304 77.2075H147.526C146.736 77.2075 146.096 77.8482 146.096 78.6386V87.015C146.096 87.8054 146.736 88.446 147.526 88.446H243.304C244.094 88.446 244.734 87.8054 244.734 87.015V78.6386C244.734 77.8482 244.094 77.2075 243.304 77.2075Z" fill="#FFF476"/>
<path d="M243.307 88.8209H147.53C146.533 88.8209 145.725 88.0118 145.725 87.0153V78.6313C145.725 77.6349 146.533 76.8257 147.53 76.8257H243.307C244.303 76.8257 245.112 77.6349 245.112 78.6313V87.0153C245.112 88.0118 244.303 88.8209 243.307 88.8209ZM147.53 77.5824C146.945 77.5824 146.474 78.0544 146.474 78.6388V87.0228C146.474 87.6072 146.945 88.0792 147.53 88.0792H243.307C243.891 88.0792 244.363 87.6072 244.363 87.0228V78.6388C244.363 78.0544 243.891 77.5824 243.307 77.5824H147.53Z" fill="black"/>
<path d="M209.863 99.6851H147.257C146.615 99.6851 146.096 100.205 146.096 100.846V109.762C146.096 110.404 146.615 110.924 147.257 110.924H209.863C210.504 110.924 211.023 110.404 211.023 109.762V100.846C211.023 100.205 210.504 99.6851 209.863 99.6851Z" fill="#FFF476"/>
<path d="M209.866 111.305H147.26C146.414 111.305 145.725 110.616 145.725 109.769V100.846C145.725 99.9994 146.414 99.3101 147.26 99.3101H209.866C210.712 99.3101 211.401 99.9994 211.401 100.846V109.769C211.401 110.616 210.712 111.305 209.866 111.305ZM147.26 100.067C146.826 100.067 146.474 100.419 146.474 100.853V109.777C146.474 110.211 146.826 110.564 147.26 110.564H209.866C210.3 110.564 210.652 110.211 210.652 109.777V100.853C210.652 100.419 210.3 100.067 209.866 100.067H147.26Z" fill="black"/>
<path d="M55.4022 13.614V7.11811C55.4022 3.39442 58.4205 0.375 62.1429 0.375H314.686C318.409 0.375 321.427 3.39442 321.427 7.11811V13.614H55.4022Z" fill="#FFF476"/>
<path d="M321.43 13.9882H55.4056C55.1959 13.9882 55.0311 13.8234 55.0311 13.6136V7.11773C55.0311 3.19174 58.2217 0 62.1463 0H314.69C318.614 0 321.805 3.19174 321.805 7.11773V13.6136C321.805 13.8234 321.64 13.9882 321.43 13.9882ZM55.7801 13.239H321.056V7.11773C321.056 3.60382 318.202 0.749235 314.69 0.749235H62.1463C58.6336 0.749235 55.7801 3.60382 55.7801 7.11773V13.239Z" fill="black"/>
<path d="M302.289 10.5707H296.626C296.417 10.5707 296.252 10.4058 296.252 10.1961V4.53184C296.252 4.32206 296.417 4.15723 296.626 4.15723H302.289C302.498 4.15723 302.663 4.32206 302.663 4.53184V10.1961C302.663 10.4058 302.498 10.5707 302.289 10.5707ZM297.001 9.82144H301.914V4.90646H297.001V9.82144Z" fill="black"/>
<path d="M311.891 7.36363L314.46 4.79376C314.61 4.64391 314.61 4.41165 314.46 4.2618C314.31 4.11195 314.078 4.11195 313.928 4.2618L311.36 6.83168L308.791 4.2618C308.641 4.11195 308.409 4.11195 308.259 4.2618C308.109 4.41165 308.109 4.64391 308.259 4.79376L310.828 7.36363L308.259 9.93351C308.109 10.0834 308.109 10.3156 308.259 10.4655C308.334 10.5404 308.431 10.5778 308.521 10.5778C308.611 10.5778 308.716 10.5404 308.783 10.4655L311.352 7.89559L313.921 10.4655C313.996 10.5404 314.093 10.5778 314.183 10.5778C314.273 10.5778 314.378 10.5404 314.445 10.4655C314.595 10.3156 314.595 10.0834 314.445 9.93351L311.876 7.36363H311.891Z" fill="black"/>
<path d="M290.39 8.38367H284.728C284.518 8.38367 284.353 8.5485 284.353 8.75828C284.353 8.96807 284.518 9.1329 284.728 9.1329H290.39C290.6 9.1329 290.765 8.96807 290.765 8.75828C290.765 8.5485 290.6 8.38367 290.39 8.38367Z" fill="black"/>
<path d="M71.9737 6.98236L68.3862 4.24016C68.3862 4.24016 68.3712 4.24016 68.3637 4.23267C68.3413 4.21768 68.3188 4.21019 68.2963 4.19521C68.2738 4.18771 68.2514 4.18022 68.2289 4.17273C68.2064 4.17273 68.184 4.17273 68.1615 4.17273C68.139 4.17273 68.1166 4.17273 68.0941 4.17273C68.0716 4.17273 68.0492 4.18771 68.0267 4.19521C68.0042 4.2027 67.9817 4.21768 67.9593 4.22518C67.9593 4.22518 67.9443 4.22517 67.9368 4.23267L64.3493 6.97487C64.1845 7.10224 64.1545 7.3345 64.2819 7.49933C64.3568 7.59673 64.4691 7.64918 64.5814 7.64918C64.6638 7.64918 64.7387 7.6267 64.8061 7.57425L64.9559 7.45438V10.1966C64.9559 10.4064 65.1207 10.5712 65.3304 10.5712H70.9926C71.2023 10.5712 71.3671 10.4064 71.3671 10.1966V7.45438L71.5169 7.57425C71.5843 7.6267 71.6666 7.64918 71.7415 7.64918C71.8539 7.64918 71.9662 7.59673 72.0411 7.49933C72.1685 7.3345 72.1385 7.10224 71.9737 6.97487V6.98236ZM70.6181 9.82196H65.7049V6.88496L68.1615 5.00438L70.6181 6.88496V9.82196Z" fill="black"/>
<path d="M91.128 45.5685C89.4727 45.5685 88.1246 44.2198 88.1246 42.564C88.1246 40.9082 89.4727 39.5596 91.128 39.5596C92.7832 39.5596 94.1313 40.9082 94.1313 42.564C94.1313 42.6315 94.1313 42.6914 94.1238 42.7588H96.6703C96.6703 42.6914 96.6778 42.6315 96.6778 42.564C96.6778 39.4997 94.1837 37.0122 91.128 37.0122C88.0722 37.0122 85.5781 39.5072 85.5781 42.564C85.5781 45.6209 88.0722 48.1159 91.128 48.1159H114.645V45.561H91.128V45.5685Z" fill="#F4322E"/>
<path d="M114.834 48.3105H91.1296C87.9615 48.3105 85.3926 45.7331 85.3926 42.5638C85.3926 39.3946 87.969 36.8247 91.1296 36.8247C94.2903 36.8247 96.8667 39.4021 96.8667 42.5638C96.8667 42.6088 96.8667 42.6463 96.8667 42.6912V42.946H93.9233L93.9383 42.7437C93.9383 42.6538 93.9457 42.6088 93.9457 42.5638C93.9457 41.0129 92.68 39.7467 91.1296 39.7467C89.5793 39.7467 88.3135 41.0129 88.3135 42.5638C88.3135 44.1148 89.5793 45.381 91.1296 45.381H114.834V48.3105ZM91.1296 37.1993C88.1712 37.1993 85.7671 39.6044 85.7671 42.5638C85.7671 45.5233 88.1712 47.9359 91.1296 47.9359H114.46V45.7556H91.1296C89.3696 45.7556 87.9391 44.3246 87.9391 42.5638C87.9391 40.8031 89.3696 39.3721 91.1296 39.3721C92.8897 39.3721 94.3202 40.8031 94.3202 42.5638H96.4922C96.4922 39.5969 94.0881 37.1918 91.1296 37.1918V37.1993Z" fill="black"/>
<path d="M91.1246 49.7189C87.185 49.7189 83.9794 46.5122 83.9794 42.5712C83.9794 38.6303 87.185 35.4235 91.1246 35.4235C95.0641 35.4235 98.2697 38.6303 98.2697 42.5712C98.2697 42.6387 98.2622 42.6986 98.2622 42.766H100.809C100.809 42.6986 100.816 42.6387 100.816 42.5712C100.816 37.2217 96.4647 32.8687 91.1171 32.8687C85.7694 32.8687 81.418 37.2217 81.418 42.5712C81.418 47.9208 85.7694 52.2738 91.1171 52.2738H114.635V49.7189H91.1171H91.1246Z" fill="#F4322E"/>
<path d="M114.831 52.4536H91.1266C85.6741 52.4536 81.2402 48.0182 81.2402 42.5637C81.2402 37.1093 85.6741 32.6738 91.1266 32.6738C96.579 32.6738 101.013 37.1093 101.013 42.5637C101.013 42.6012 101.013 42.6461 101.013 42.6836V42.9458H98.0769V42.6611C98.0769 42.6611 98.0919 42.6012 98.0919 42.5637C98.0919 38.7276 94.9687 35.6033 91.134 35.6033C87.2993 35.6033 84.1762 38.7276 84.1762 42.5637C84.1762 46.3998 87.2993 49.5241 91.134 49.5241H114.839V52.4536H114.831ZM91.1266 33.0559C85.8838 33.0559 81.6147 37.3266 81.6147 42.5712C81.6147 47.8159 85.8838 52.0865 91.1266 52.0865H114.457V49.9062H91.1266C87.0822 49.9062 83.7942 46.6171 83.7942 42.5712C83.7942 38.5254 87.0822 35.2362 91.1266 35.2362C95.171 35.2362 98.4589 38.5254 98.4589 42.5712H100.631C100.631 37.3191 96.3618 33.0559 91.1191 33.0559H91.1266Z" fill="black"/>
<path d="M78.7952 32.8691H76.2487H72.5039V35.4165H76.2487V52.2668H78.7952V35.4165H78.8027V32.8691H78.7952Z" fill="#F4322E"/>
<path d="M78.9845 52.4539H76.0635V35.6037H72.3262V32.6816L78.9994 32.6966V52.4614L78.9845 52.4539ZM76.438 52.0793H78.61V33.0563H72.6932V35.229H76.4305V52.0793H76.438Z" fill="black"/>
<path d="M69.8359 39.507H72.4873V52.2665H75.0412V39.507V36.9521H69.8359V39.507Z" fill="#F4322E"/>
<path d="M75.2305 52.4535H72.3095V39.694H69.6582V36.772H75.238V52.461L75.2305 52.4535ZM72.684 52.0788H74.856V37.1391H70.0252V39.3119H72.6765V52.0713L72.684 52.0788Z" fill="black"/>
<path d="M309.85 40.0762C309.85 40.0762 299.207 37.4763 294.032 47.5535C290.616 54.1992 296.683 63.1226 307.888 63.1226C307.888 63.1226 338.857 67.5806 360.21 63.1226C360.21 63.1226 372.104 66.4567 380.208 63.1226C388.311 59.7885 385.802 52.6708 379.751 50.4231C379.751 50.4231 381.788 42.7734 377.257 35.813C373.849 30.5759 368.142 31.902 368.142 31.902C368.142 31.902 367.52 16.8948 357.267 13.763C344.063 9.72465 336.798 20.8433 335.921 23.091C335.921 23.091 333.12 18.9477 328.754 21.6974C324.387 24.4471 324.949 29.3171 325.855 30.3136C325.855 30.3136 312.007 25.571 309.865 40.0762H309.85Z" fill="#F9F9F9"/>
<path d="M337.219 65.4605C321.798 65.4605 308.047 63.5199 307.837 63.49H307.822C301.928 63.49 296.835 60.9651 294.259 56.7469C292.409 53.7125 292.199 50.296 293.704 47.3739C298.378 38.2707 307.523 39.2822 309.545 39.6268C310.242 35.4311 311.994 32.4567 314.765 30.7634C318.593 28.4333 323.229 29.2275 325.116 29.707C324.876 28.9877 324.757 27.9688 324.914 26.8449C325.094 25.5412 325.805 23.0987 328.554 21.368C332.209 19.0678 334.868 21.3155 335.834 22.3795C337.489 19.1727 344.874 9.56754 357.381 13.3961C366.788 16.2732 368.294 28.9802 368.496 31.4602C369.927 31.2729 374.615 31.0556 377.574 35.596C381.67 41.882 380.532 48.6177 380.195 50.1761C383.468 51.5022 385.67 54.2219 385.722 57.0166C385.752 58.5825 385.086 61.5045 380.352 63.4525C372.503 66.6817 361.396 63.8121 360.205 63.49C353.127 64.9585 344.964 65.4455 337.227 65.4455L337.219 65.4605ZM306.714 40.1288C303.261 40.1288 297.696 41.2452 294.371 47.7186C292.993 50.4008 293.188 53.5476 294.903 56.3573C297.344 60.3582 302.198 62.7482 307.89 62.7482C308.249 62.7932 339.092 67.1462 360.138 62.7557C360.198 62.7407 360.257 62.7482 360.317 62.7557C360.437 62.7857 372.188 66.0149 380.068 62.7707C383.273 61.4521 385.011 59.4216 384.973 57.0391C384.928 54.4617 382.779 51.9368 379.626 50.768C379.446 50.7005 379.341 50.5057 379.393 50.3184C379.416 50.2435 381.333 42.7437 376.944 36.008C373.724 31.0631 368.451 32.2094 368.226 32.2619C368.114 32.2843 368.002 32.2619 367.912 32.1944C367.822 32.127 367.77 32.0221 367.762 31.9097C367.762 31.7599 367.028 17.1348 357.149 14.1079C344.342 10.1894 337.144 20.9334 336.261 23.2111C336.208 23.3385 336.096 23.4284 335.954 23.4509C335.811 23.4659 335.676 23.4059 335.602 23.286C335.497 23.1287 332.95 19.4799 328.943 21.9973C326.577 23.4808 325.85 25.5038 325.648 26.9423C325.438 28.4932 325.798 29.692 326.12 30.0516C326.232 30.179 326.247 30.3663 326.157 30.5087C326.067 30.651 325.887 30.711 325.723 30.6585C325.663 30.636 319.671 28.6431 315.147 31.4077C312.496 33.0261 310.833 35.9556 310.219 40.1213C310.204 40.2262 310.144 40.3161 310.062 40.3761C309.972 40.436 309.867 40.451 309.762 40.4285C309.62 40.3911 308.429 40.1213 306.714 40.1213V40.1288Z" fill="black"/>
<path d="M367.123 39.1696C366.936 39.1696 366.771 39.0273 366.749 38.8325C366.464 36.1652 365.131 34.2172 363.086 33.4979C361.169 32.8236 358.989 33.3256 357.529 34.7941C357.379 34.944 357.147 34.944 356.997 34.7941C356.847 34.6443 356.847 34.412 356.997 34.2622C358.66 32.5989 361.154 32.0219 363.333 32.7937C365.663 33.6178 367.176 35.7906 367.49 38.7576C367.513 38.9599 367.363 39.1472 367.161 39.1696C367.146 39.1696 367.131 39.1696 367.123 39.1696Z" fill="black"/>
<path d="M329.544 44.3617C329.544 44.3617 329.476 44.3617 329.439 44.3467C329.237 44.2867 329.124 44.0844 329.177 43.8821C329.821 41.612 331.708 39.8962 333.993 39.5066C336.427 39.087 338.809 40.2484 340.531 42.6834C340.651 42.8557 340.614 43.088 340.441 43.2078C340.277 43.3277 340.037 43.2902 339.917 43.1179C338.367 40.9227 336.255 39.8737 334.12 40.2484C332.12 40.593 330.458 42.099 329.896 44.0919C329.851 44.2568 329.701 44.3617 329.536 44.3617H329.544Z" fill="black"/>
<path d="M322.943 49.3591C322.733 49.3591 322.568 49.1943 322.568 48.9845C322.568 47.2687 323.467 45.4781 324.86 44.4217C325.804 43.7099 327.399 42.9906 329.639 43.6275C329.841 43.6874 329.953 43.8897 329.901 44.092C329.848 44.2943 329.639 44.4067 329.436 44.3542C327.489 43.8073 326.118 44.4142 325.31 45.0285C324.096 45.9426 323.317 47.501 323.317 48.992C323.317 49.2018 323.153 49.3666 322.943 49.3666V49.3591Z" fill="black"/>
<path d="M66.0084 149.943L65.986 150.07C65.4467 151.314 56.7063 152.303 45.9886 152.303C35.2709 152.303 26.5305 151.314 25.9912 150.07L25.9688 149.943C25.9688 148.647 34.9264 147.598 45.9886 147.598C57.0508 147.598 66.0084 148.654 66.0084 149.943Z" fill="#3A3A38"/>
<path d="M45.9864 152.67C39.3207 152.67 26.4909 152.153 25.6445 150.213C25.6371 150.183 25.6221 150.16 25.6221 150.13L25.5996 150.003C25.5996 147.246 45.1551 147.216 45.9864 147.216C46.8178 147.216 66.3807 147.246 66.3807 149.936C66.3807 149.958 66.3807 149.98 66.3807 150.003L66.3583 150.13C66.3583 150.13 66.3433 150.19 66.3358 150.213C65.4895 152.153 52.6672 152.67 45.9939 152.67H45.9864ZM26.3486 149.943C26.8878 150.76 34.0779 151.921 45.9864 151.921C57.895 151.921 65.0775 150.76 65.6168 149.943C65.1075 149.126 57.91 147.965 45.9864 147.965C34.0629 147.965 26.8654 149.126 26.3486 149.943Z" fill="black"/>
<path d="M65.981 150.07L63.9363 161.459C63.9363 161.826 63.3072 162.163 62.1763 162.478C59.2778 163.257 53.1213 163.804 45.9837 163.804C38.8461 163.804 32.6971 163.257 29.7911 162.478C28.6601 162.17 28.0235 161.826 28.0235 161.459L25.9863 150.07C26.5256 151.314 35.266 152.303 45.9837 152.303C56.7014 152.303 65.4418 151.314 65.981 150.07Z" fill="#F3F3E9"/>
<path d="M45.9846 164.179C39.1166 164.179 32.728 163.655 29.6947 162.838C28.2791 162.456 27.65 162.029 27.65 161.459L25.6203 150.131C25.5903 149.944 25.6952 149.764 25.8824 149.704C26.0622 149.644 26.2569 149.741 26.3318 149.914C26.7138 150.73 33.9338 151.922 45.9846 151.922C58.0355 151.922 65.2555 150.738 65.6375 149.914C65.7198 149.741 65.9146 149.651 66.0943 149.711C66.2741 149.771 66.3864 149.944 66.349 150.131L64.3043 161.527C64.3043 162.029 63.7051 162.441 62.2746 162.838C59.2413 163.655 52.8526 164.179 45.9846 164.179ZM26.5191 150.888L28.3989 161.384C28.3989 161.437 28.5263 161.736 29.8969 162.111C32.8628 162.913 39.184 163.422 45.9846 163.422C52.7852 163.422 59.1065 162.905 62.0724 162.111C63.4355 161.729 63.5553 161.444 63.5553 161.437L65.4427 150.888C62.2971 152.281 51.7891 152.671 45.9771 152.671C40.1652 152.671 29.6572 152.281 26.5116 150.888H26.5191Z" fill="black"/>
<path d="M62.1789 162.478L58.2692 184.266C58.2692 185.569 52.7719 186.626 45.9937 186.626C39.2156 186.626 33.7182 185.569 33.7182 184.266L29.8086 162.478C32.7071 163.257 38.8636 163.804 46.0012 163.804C53.1388 163.804 59.2878 163.257 62.1938 162.478H62.1789Z" fill="#F3F3E9"/>
<path d="M45.9876 187C41.6136 187 33.3375 186.43 33.3375 184.265L29.4354 162.545C29.4129 162.418 29.4579 162.29 29.5478 162.2C29.6377 162.11 29.7724 162.08 29.8998 162.118C32.8657 162.92 39.187 163.429 45.995 163.429C52.8031 163.429 59.1169 162.912 62.0828 162.118C62.2101 162.088 62.3374 162.118 62.4348 162.2C62.5321 162.29 62.5696 162.418 62.5471 162.545L58.6375 184.333C58.6375 186.43 50.369 187 45.9876 187ZM30.2668 162.979L34.0715 184.198C34.0715 184.955 38.1684 186.243 45.9801 186.243C53.7918 186.243 57.8811 184.954 57.8811 184.258L61.6933 162.972C58.4803 163.706 52.4361 164.171 45.9726 164.171C39.509 164.171 33.4649 163.706 30.2518 162.972L30.2668 162.979Z" fill="black"/>
<path d="M28.5568 70.5011C28.5568 70.5011 33.118 76.495 34.3538 83.1482C35.5896 89.8089 38.5405 89.8089 39.0124 89.6141C39.4842 89.4193 42.2479 76.1054 28.5568 70.4937V70.5011Z" fill="#5DA276"/>
<path d="M38.6598 90.0491C38.3228 90.0491 37.8659 89.9592 37.3641 89.682C36.2631 89.0751 34.7802 87.4567 33.9938 83.2236C32.788 76.7352 28.3091 70.7938 28.2642 70.7338C28.1593 70.599 28.1593 70.4116 28.2642 70.2768C28.369 70.1419 28.5488 70.097 28.7061 70.1569C38.892 74.3301 39.9555 82.7066 39.9406 86.1156C39.9406 87.2694 39.7383 89.7419 39.1616 89.9667C39.0568 90.0116 38.8845 90.0491 38.6673 90.0491H38.6598ZM29.6273 71.3931C30.9979 73.4535 33.7915 78.1063 34.7203 83.0887C35.4542 87.0297 36.75 88.4907 37.7087 89.0227C38.203 89.2999 38.5999 89.3148 38.7797 89.2924C39.0493 88.6255 39.7009 85.0142 38.3827 80.9459C37.0121 76.7202 34.0687 73.5135 29.6273 71.3857V71.3931Z" fill="black"/>
<path d="M42.0987 142.998C42.0987 142.998 42.0538 142.998 42.0238 142.998C41.8216 142.96 41.6868 142.766 41.7242 142.556C41.7692 142.323 46.1431 119.127 41.3947 100.179C40.084 94.9419 38.6684 89.7796 38.6535 89.7272C38.601 89.5249 38.7134 89.3226 38.9156 89.2702C39.1178 89.2177 39.32 89.3301 39.3725 89.5324C39.3875 89.5848 40.803 94.762 42.1212 100.007C46.907 119.12 42.5031 142.473 42.4582 142.713C42.4208 142.893 42.2635 143.02 42.0912 143.02L42.0987 142.998Z" fill="black"/>
<path d="M48.0527 88.8576C48.0527 88.8576 50.337 84.9541 51.6627 85.4336C52.9884 85.9131 58.5083 91.3301 62.7849 88.8576C67.0614 86.3852 69.0612 77.4468 72.5813 76.4953C76.1014 75.5437 83.8982 65.1743 83.8982 65.1743C83.8982 65.1743 64.4026 74.8769 59.1748 75.6336C53.9471 76.3978 48.7193 79.9118 48.0527 88.8576Z" fill="#5DA276"/>
<path d="M60.3444 89.8768C57.5208 89.8768 54.6448 87.8763 52.9147 86.6626C52.3155 86.243 51.7912 85.8834 51.5441 85.786C50.9 85.5537 49.4021 87.2994 48.3835 89.0451C48.2936 89.195 48.1138 89.2624 47.949 89.21C47.7843 89.1575 47.6719 89.0002 47.6869 88.8279C48.4658 78.361 55.1915 75.8361 59.1311 75.2667C64.239 74.525 83.5473 64.9348 83.742 64.8374C83.8993 64.7624 84.0865 64.7999 84.1989 64.9348C84.3112 65.0696 84.3112 65.2644 84.2064 65.3993C83.8843 65.8263 76.2898 75.8811 72.6873 76.8551C71.0696 77.2896 69.714 79.7471 68.276 82.3395C66.763 85.0742 65.1977 87.8988 62.9808 89.18C62.1344 89.667 61.2432 89.8693 60.3444 89.8693V89.8768ZM51.4392 85.0217C51.559 85.0217 51.6789 85.0442 51.7912 85.0817C52.1358 85.2016 52.6376 85.5537 53.3416 86.0482C55.6409 87.6516 59.4906 90.3338 62.6063 88.5356C64.6435 87.3593 66.1564 84.6246 67.6169 81.9798C69.1298 79.2376 70.5678 76.6528 72.4851 76.1358C75.114 75.424 80.4091 69.0181 82.6036 66.2309C77.945 68.5086 63.6773 75.3641 59.2284 76.0084C55.7083 76.5179 49.8364 78.6907 48.5931 87.3444C49.3571 86.2804 50.473 85.0217 51.4392 85.0217Z" fill="black"/>
<path d="M46.3086 103.55C46.3461 106.517 46.1962 111.103 46.9304 114.294Z" fill="#5DC077"/>
<path d="M46.928 114.669C46.7557 114.669 46.6059 114.549 46.5609 114.377C45.9466 111.725 45.9466 108.158 45.9391 105.296C45.9391 104.674 45.9391 104.09 45.9316 103.558C45.9316 103.348 46.0964 103.183 46.2987 103.176C46.501 103.176 46.6733 103.341 46.6733 103.543C46.6733 104.082 46.6808 104.667 46.6808 105.296C46.6808 108.121 46.6883 111.635 47.2801 114.212C47.3251 114.414 47.1977 114.617 46.9954 114.662C46.9655 114.662 46.9355 114.669 46.913 114.669H46.928Z" fill="black"/>
<path d="M48.0515 88.8579C48.0515 88.8579 47.4297 91.0307 46.9277 94.4547Z" fill="#5DC077"/>
<path d="M46.9297 94.8291C46.9297 94.8291 46.8922 94.8291 46.8773 94.8291C46.675 94.7991 46.5326 94.6118 46.5626 94.402C47.0645 90.993 47.6938 88.7752 47.7013 88.7528C47.7612 88.5505 47.9635 88.4381 48.1658 88.498C48.368 88.558 48.4804 88.7603 48.4205 88.9626C48.4205 88.985 47.7987 91.1578 47.3043 94.5144C47.2743 94.7017 47.117 94.8366 46.9372 94.8366L46.9297 94.8291Z" fill="black"/>
<path d="M0.371094 111.874C0.371094 111.26 9.0591 95.1664 19.7693 98.5605C27.7532 101.093 30.3596 101.393 33.1757 102.269C36.7633 103.393 34.9807 109.784 25.8509 107.784C16.721 105.783 8.99919 108.57 5.02968 109.687C1.06016 110.803 0.371094 113.193 0.371094 111.874Z" fill="#5DA276"/>
<path d="M0.486845 112.638C0.426928 112.638 0.367011 112.623 0.299604 112.593C1.82808e-05 112.459 0 112.091 0 111.874C0 111.282 3.66244 104.502 9.04001 100.568C12.7099 97.8785 16.3574 97.0843 19.885 98.2007C24.9405 99.804 27.8615 100.516 29.996 101.033C31.2543 101.34 32.2504 101.58 33.2915 101.909C34.7969 102.381 35.5758 103.745 35.1863 105.221C34.5872 107.491 31.3816 109.379 25.7793 108.151C17.6306 106.367 10.6053 108.443 6.40364 109.679C5.94677 109.814 5.5199 109.941 5.13043 110.046C2.92848 110.668 1.79753 111.664 1.19087 112.204C0.913757 112.451 0.704045 112.638 0.486845 112.638ZM16.7768 98.4629C14.9419 98.4629 13.0769 98.9948 11.197 100.059C5.88687 103.056 1.90988 109.469 0.958696 111.417C1.64025 110.833 2.86106 109.904 4.9357 109.319C5.31767 109.214 5.74457 109.087 6.19395 108.952C10.463 107.693 17.6082 105.588 25.9366 107.409C31.067 108.533 33.9506 106.959 34.4599 105.019C34.7445 103.932 34.1902 102.966 33.0668 102.614C32.0482 102.299 31.067 102.052 29.8163 101.752C27.6742 101.228 24.7458 100.516 19.6603 98.9049C18.7166 98.6052 17.7505 98.4554 16.7843 98.4554L16.7768 98.4629Z" fill="black"/>
<path d="M41.9416 149.988C41.9416 149.988 41.9191 149.988 41.9116 149.988C41.7019 149.973 41.5521 149.793 41.5671 149.584C43.1249 128.635 34.0325 106.563 33.9427 106.338C33.8603 106.151 33.9502 105.926 34.1449 105.851C34.3321 105.768 34.5568 105.858 34.6317 106.053C34.7216 106.278 43.8889 128.515 42.3161 149.644C42.3011 149.838 42.1363 149.988 41.9416 149.988Z" fill="black"/>
<path d="M47.5297 145.268C46.5261 146.482 50.7353 150.475 52.3381 149.906C53.9409 149.336 64.711 147.62 69.0625 151.973C73.4139 156.327 72.6275 156.499 73.6236 157.48C74.6197 158.462 72.8747 148.654 67.5945 146.122C61.8724 143.38 53.4391 138.135 47.5222 145.268H47.5297Z" fill="#5DA276"/>
<path d="M73.7477 157.922C73.6429 157.922 73.5005 157.885 73.3657 157.743C73.0062 157.39 72.8489 157.121 72.6542 156.783C72.2722 156.124 71.6955 155.128 68.797 152.228C64.6403 148.07 54.0349 149.688 52.4621 150.25C51.1065 150.737 48.6949 148.827 47.6313 147.298C46.77 146.062 46.9423 145.38 47.2344 145.02C52.7917 138.322 60.4835 142.158 66.0933 144.961C66.67 145.245 67.2242 145.522 67.756 145.777C72.4295 148.025 74.3169 155.502 74.257 157.173C74.257 157.33 74.2345 157.757 73.905 157.885C73.8675 157.9 73.8076 157.915 73.7402 157.915L73.7477 157.922ZM59.2178 148.714C62.8652 148.714 66.9845 149.366 69.3213 151.711C72.2872 154.678 72.8939 155.727 73.2983 156.424C73.3732 156.551 73.4331 156.656 73.5005 156.761C73.2908 154.746 71.4708 148.4 67.4339 146.467C66.9021 146.212 66.3404 145.927 65.7637 145.642C60.0716 142.803 52.9864 139.274 47.8111 145.515C47.6388 145.725 47.811 146.264 48.2454 146.886C49.3165 148.415 51.4286 149.838 52.215 149.561C53.0988 149.246 55.9673 148.722 59.2253 148.722L59.2178 148.714Z" fill="black"/>
<path d="M43.9192 150.745C43.7095 150.745 43.5447 150.58 43.5447 150.37C43.5447 150.161 43.7095 149.996 43.9192 149.996C47.2671 149.996 47.9112 147.973 47.9337 147.883C47.9936 147.688 48.1958 147.568 48.398 147.628C48.5927 147.688 48.7126 147.89 48.6527 148.093C48.6227 148.198 47.8513 150.745 43.9192 150.745Z" fill="black"/>
<path d="M30.461 117.366C30.461 117.366 17.9233 124.251 17.2867 126.634C16.6501 129.016 15.991 120.385 16.0734 119.988C16.3655 118.557 21.6307 108.705 32.648 111.814C32.648 111.814 40.1526 107.041 49.1027 116.287C49.1027 116.287 51.1174 117.83 49.9116 118.557C48.7058 119.284 38.2727 117.418 39.0366 121.794C39.0366 121.794 33.0299 117.044 30.461 117.366Z" fill="#5DA276"/>
<path d="M17.0687 127.428C17.0687 127.428 16.9938 127.428 16.9489 127.413C15.9153 127.166 15.6831 119.981 15.6981 119.914C15.8779 119.03 17.7727 115.148 21.7572 112.721C24.9703 110.765 28.6177 110.323 32.5873 111.41C33.7182 110.795 40.9981 107.394 49.3566 116.025C49.5438 116.167 50.7047 117.097 50.6523 118.011C50.6373 118.258 50.5324 118.61 50.0905 118.88C49.6711 119.134 48.7424 119.142 46.9973 119.127C44.5332 119.112 40.8109 119.082 39.6874 120.408C39.3953 120.76 39.2905 121.187 39.3879 121.727C39.4178 121.877 39.3429 122.034 39.2081 122.116C39.0733 122.199 38.9085 122.184 38.7812 122.086C37.1634 120.805 32.5423 117.554 30.5575 117.726C25.5769 120.468 18.0723 125.098 17.6304 126.724C17.5855 126.904 17.4432 127.421 17.0537 127.421L17.0687 127.428ZM28.4829 111.582C26.2136 111.582 24.094 112.174 22.1467 113.365C18.4318 115.628 16.5969 119.284 16.4321 120.071C16.3797 120.618 16.7242 124.634 17.0687 126.192C18.5666 123.525 29.0371 117.718 30.2729 117.044C30.3104 117.022 30.3628 117.007 30.4078 116.999C32.6022 116.722 36.9987 119.809 38.6314 121.03C38.6913 120.618 38.8486 120.251 39.1182 119.936C40.4663 118.34 44.2411 118.37 47.0048 118.385C48.1432 118.393 49.4464 118.4 49.7011 118.243C49.8958 118.123 49.9033 118.018 49.9033 117.981C49.9258 117.591 49.3041 116.939 48.8547 116.595C40.2042 107.656 33.1265 111.949 32.8269 112.137C32.737 112.197 32.6247 112.211 32.5273 112.182C31.1268 111.784 29.7786 111.59 28.4679 111.59L28.4829 111.582Z" fill="black"/>
<path d="M16.1747 120.176C16.0399 120.176 15.9051 120.101 15.8377 119.974C15.7403 119.786 15.8152 119.562 16.0024 119.472C24.3309 115.224 31.139 116.977 31.4236 117.052C31.6258 117.104 31.7382 117.306 31.6857 117.509C31.6333 117.711 31.4236 117.823 31.2289 117.771C31.1615 117.748 24.3983 116.025 16.3395 120.131C16.287 120.161 16.2271 120.168 16.1672 120.168L16.1747 120.176Z" fill="black"/>
<path d="M32.6406 111.814C32.6406 111.814 35.5391 113.83 36.9547 116.954Z" fill="#5DC077"/>
<path d="M36.9542 117.322C36.8119 117.322 36.6771 117.239 36.6097 117.105C35.254 114.108 32.4529 112.145 32.4229 112.122C32.2507 112.002 32.2133 111.77 32.3256 111.598C32.4455 111.425 32.6776 111.388 32.8499 111.5C32.9697 111.583 35.8532 113.613 37.2912 116.79C37.3736 116.977 37.2912 117.202 37.104 117.284C37.0515 117.307 36.9991 117.314 36.9467 117.314L36.9542 117.322Z" fill="black"/>
<path d="M39.3673 152.011C39.3673 152.011 39.3074 152.011 39.2774 151.996C39.0751 151.943 38.9553 151.741 39.0077 151.539C42.1317 139.154 38.7006 122.034 38.6706 121.862C38.6331 121.659 38.7605 121.465 38.9628 121.42C39.1575 121.382 39.3598 121.51 39.4047 121.712C39.4422 121.884 42.9033 139.169 39.7344 151.719C39.6894 151.891 39.5396 152.003 39.3748 152.003L39.3673 152.011Z" fill="black"/>
<path d="M31.9065 144.586C31.577 145.575 28.1018 141.686 23.7803 142.211C21.3761 142.503 24.6341 136.599 33.0524 134.838C41.4708 133.077 44.2719 134.793 43.508 135.977C42.744 137.161 33.9512 138.404 31.9065 144.586Z" fill="#5DA276"/>
<path d="M31.6728 145.118C31.2983 145.118 30.8265 144.84 30.0775 144.413C28.5946 143.559 26.3626 142.278 23.8236 142.578C23.0672 142.675 22.7151 142.255 22.6477 141.836C22.3631 140.105 26.1604 135.894 32.9685 134.471C39.7316 133.055 43.0271 133.857 43.7985 134.973C44.0606 135.355 44.0681 135.79 43.821 136.179C43.5439 136.606 42.8173 136.906 41.3194 137.49C38.4509 138.607 33.6575 140.48 32.257 144.705C32.197 144.885 32.0697 145.02 31.905 145.08C31.8301 145.11 31.7551 145.125 31.6728 145.125V145.118ZM24.5801 141.776C27.0142 141.776 29.1338 142.997 30.452 143.754C30.8564 143.986 31.3582 144.271 31.5904 144.346C33.1407 139.865 38.0839 137.94 41.0498 136.779C42.0235 136.396 43.0345 136.007 43.1918 135.76C43.2742 135.632 43.2743 135.512 43.1844 135.385C42.705 134.688 39.9863 133.759 33.1257 135.19C26.3851 136.599 23.2095 140.622 23.3892 141.701C23.3967 141.761 23.4117 141.858 23.7337 141.821C24.0184 141.783 24.303 141.768 24.5801 141.768V141.776Z" fill="black"/>
<path d="M40.7705 153.21C40.7256 153.21 40.6807 153.21 40.6432 153.188C39.8718 152.903 38.3214 150.693 37.153 148.887C35.4754 146.295 35.3181 140.113 35.3106 139.851C35.3106 139.641 35.4679 139.477 35.6776 139.469C35.8499 139.469 36.0521 139.626 36.0596 139.836C36.0596 139.896 36.2168 146.07 37.7822 148.482C39.692 151.434 40.6432 152.386 40.9053 152.483C41.1001 152.558 41.1975 152.768 41.1226 152.963C41.0627 153.113 40.9203 153.21 40.7705 153.21Z" fill="black"/>
<path d="M15.9546 154.454C16.4639 156.304 12.0825 151.906 13.1235 138.293C14.1646 124.687 21.0925 131.235 21.0925 131.235C21.0925 131.235 26.6199 122.866 29.2263 122.724C31.8326 122.581 38.049 124.619 37.0829 126.627C36.1242 128.635 22.6503 139.447 19.4223 144.339C16.2317 149.179 15.655 153.367 15.9546 154.446V154.454Z" fill="#5DA276"/>
<path d="M15.9019 155.232C15.8195 155.232 15.7297 155.21 15.6398 155.165C14.6062 154.626 11.895 149.411 12.7413 138.27C13.1233 133.25 14.3665 130.298 16.4262 129.504C18.3136 128.777 20.2459 130.073 21.0099 130.68C22.1932 128.934 26.7095 122.491 29.196 122.356C31.398 122.229 36.079 123.57 37.2624 125.33C37.6743 125.945 37.5695 126.462 37.4197 126.791C36.9928 127.683 34.6635 129.833 30.9037 133.265C26.732 137.071 21.5417 141.814 19.7367 144.548C16.4787 149.486 16.0817 153.517 16.3139 154.356C16.3513 154.491 16.4636 154.91 16.1865 155.135C16.1041 155.202 16.0068 155.232 15.9019 155.232ZM17.5946 130.043C17.295 130.043 16.9879 130.096 16.6884 130.208C14.9433 130.882 13.8423 133.692 13.4828 138.33C12.7787 147.53 14.5613 152.273 15.4975 153.876C15.4675 152.108 16.3438 148.31 19.1 144.144C20.9574 141.327 26.1852 136.554 30.3869 132.718C33.4502 129.916 36.3486 127.279 36.7306 126.477C36.798 126.334 36.8655 126.102 36.6333 125.758C35.6971 124.364 31.4205 122.993 29.2335 123.113C27.2488 123.225 22.9047 129.174 21.3918 131.459C21.3319 131.549 21.2346 131.609 21.1222 131.624C21.0099 131.639 20.905 131.602 20.8226 131.527C20.8001 131.512 19.2348 130.051 17.5871 130.051L17.5946 130.043Z" fill="black"/>
<path d="M16.7305 139.409C16.7305 139.409 17.8239 135.37 20.9995 131.332Z" fill="#5DC077"/>
<path d="M16.7317 139.783C16.7317 139.783 16.6643 139.783 16.6344 139.768C16.4321 139.716 16.3198 139.506 16.3722 139.311C16.4171 139.147 17.5181 135.153 20.7087 131.1C20.8361 130.935 21.0757 130.912 21.233 131.04C21.3903 131.167 21.4202 131.407 21.2929 131.564C18.1997 135.49 17.0987 139.469 17.0912 139.506C17.0463 139.671 16.8965 139.783 16.7317 139.783Z" fill="black"/>
<path d="M42.669 156.911C42.5791 156.911 42.4892 156.881 42.4218 156.814C42.2645 156.679 42.2495 156.439 42.3919 156.282C42.4892 156.17 44.7361 153.502 42.4218 148.512C40.7891 144.991 39.4184 143.23 38.1976 141.679C36.138 139.042 34.7749 137.296 34.1457 129.437C34.1308 129.227 34.2805 129.047 34.4902 129.032C34.7 129.025 34.8797 129.167 34.8947 129.377C35.5089 137.012 36.812 138.683 38.7893 141.222C39.9652 142.728 41.4331 144.609 43.0958 148.205C45.6273 153.667 43.0584 156.664 42.9461 156.792C42.8712 156.874 42.7663 156.919 42.669 156.919V156.911Z" fill="black"/>
<path d="M61.5563 121.959C60.8074 122.378 65.9303 127.668 68.7839 129.571C71.6374 131.474 78.0036 128.717 82.6696 132.141C87.3282 135.565 90.1817 136.614 91.6048 139.371C91.6048 139.371 88.182 128.245 81.6211 124.821C75.0601 121.397 63.0767 121.112 61.5563 121.966V121.959Z" fill="#5DA276"/>
<path d="M91.5977 139.738C91.4629 139.738 91.3281 139.663 91.2682 139.536C90.332 137.723 88.7217 136.666 86.2876 135.078C85.1641 134.344 83.8909 133.512 82.4379 132.441C79.8764 130.553 76.7308 130.62 73.9596 130.68C71.7726 130.725 69.8852 130.762 68.5671 129.886C66.0655 128.215 61.055 123.322 61.0999 122.086C61.0999 121.891 61.2047 121.727 61.362 121.637C62.9274 120.753 75.1205 121.007 81.7788 124.484C88.3996 127.938 91.8075 138.802 91.9498 139.259C92.0097 139.446 91.9123 139.641 91.7325 139.716C91.6876 139.738 91.6352 139.746 91.5902 139.746L91.5977 139.738ZM75.465 129.901C77.9441 129.901 80.588 130.14 82.8798 131.834C84.3178 132.89 85.5835 133.722 86.6995 134.449C88.2274 135.453 89.4407 136.247 90.3919 137.153C89.0138 133.737 85.973 127.503 81.4418 125.143C75.0456 121.801 63.7063 121.607 61.8863 122.221C62.2758 123.24 66.2827 127.451 68.9865 129.256C70.1099 130.006 71.885 129.968 73.9446 129.923C74.4389 129.916 74.9483 129.901 75.465 129.901Z" fill="black"/>
<path d="M43.6196 152.588C43.6196 152.588 43.6047 152.588 43.5972 152.588C43.3875 152.573 43.2301 152.4 43.2451 152.191C44.5558 128.844 61.9093 123.068 62.0816 123.015C62.2838 122.955 62.486 123.06 62.5534 123.263C62.6134 123.457 62.5085 123.667 62.3063 123.735C62.134 123.787 45.2673 129.429 43.9866 152.243C43.9791 152.445 43.8068 152.595 43.6121 152.595L43.6196 152.588Z" fill="black"/>
<path d="M51.7627 124.814C51.7627 124.814 55.8521 119.202 50.8116 111.5C45.771 103.798 43.0148 96.0882 42.543 94.4774C42.543 94.4774 53.7625 91.9075 62.413 106.083C62.413 106.083 68.6893 107.132 71.1609 107.799C73.6325 108.466 78.2911 108.848 80.5754 114.834C80.5754 114.834 76.1041 117.209 66.8843 117.404C57.6646 117.599 52.8113 123.967 51.7627 124.821V124.814Z" fill="#5DA276"/>
<path d="M51.7586 125.188C51.6687 125.188 51.5714 125.151 51.5039 125.083C51.3691 124.956 51.3467 124.746 51.459 124.589C51.6163 124.364 55.3236 119.082 50.5003 111.694C45.632 104.255 42.7935 96.6499 42.1793 94.567C42.1494 94.4696 42.1643 94.3647 42.2168 94.2748C42.2692 94.1849 42.3591 94.125 42.4564 94.1025C42.5688 94.08 53.9605 91.6525 62.641 105.731C63.6746 105.903 68.9923 106.809 71.2541 107.424C71.5313 107.499 71.8383 107.566 72.1679 107.649C74.8192 108.263 78.8261 109.2 80.9232 114.691C80.9907 114.871 80.9233 115.066 80.751 115.156C80.5638 115.253 76.0999 117.576 66.8952 117.771C59.046 117.936 54.4024 122.686 52.6498 124.476C52.3652 124.769 52.1555 124.978 52.0057 125.106C51.9383 125.166 51.8559 125.188 51.7661 125.188H51.7586ZM43.0182 94.7693C43.8271 97.2717 46.5758 104.345 51.122 111.29C54.4624 116.392 53.8632 120.655 53.0318 123.023C55.3087 120.828 59.8399 117.164 66.8652 117.022C74.5795 116.864 78.946 115.148 80.0919 114.639C78.1072 109.799 74.4372 108.945 71.9956 108.375C71.6586 108.3 71.344 108.226 71.0594 108.143C68.6328 107.491 62.4089 106.45 62.3489 106.442C62.2441 106.427 62.1467 106.36 62.0943 106.27C54.6047 94.0051 45.0853 94.4996 43.0257 94.7693H43.0182Z" fill="black"/>
<path d="M53.1914 122.724C57.3781 113.995 56.9961 112.879 61.5573 107.455Z" fill="#5DC077"/>
<path d="M53.1845 123.098C53.1321 123.098 53.0722 123.083 53.0197 123.06C52.8325 122.97 52.7576 122.746 52.84 122.558C54.0308 120.071 54.8547 118.19 55.5213 116.684C57.199 112.871 57.9629 111.132 61.2583 107.214C61.3932 107.057 61.6253 107.034 61.7901 107.169C61.9549 107.304 61.9699 107.536 61.8351 107.701C58.607 111.537 57.903 113.133 56.2103 116.991C55.5437 118.505 54.7124 120.393 53.5216 122.888C53.4542 123.023 53.3193 123.098 53.1845 123.098Z" fill="black"/>
<path d="M56.7177 120.551C56.7177 120.551 54.8449 127.668 53.871 129.429Z" fill="#5DC077"/>
<path d="M53.8801 129.804C53.8202 129.804 53.7528 129.789 53.7003 129.759C53.5205 129.661 53.4531 129.429 53.5505 129.249C54.4944 127.549 56.3448 120.528 56.3598 120.461C56.4122 120.258 56.622 120.139 56.8168 120.191C57.019 120.243 57.1389 120.446 57.0865 120.648C57.0116 120.94 55.1911 127.833 54.2097 129.609C54.1423 129.736 54.015 129.804 53.8801 129.804Z" fill="black"/>
<path d="M41.9414 152.67C41.9414 152.67 41.874 152.67 41.8365 152.655C41.6418 152.595 41.522 152.393 41.5819 152.191C48.2777 128.717 47.0194 119.479 47.0119 119.389C46.9819 119.187 47.1242 118.992 47.3265 118.962C47.5287 118.932 47.7234 119.074 47.7534 119.277C47.8133 119.651 49.064 128.725 42.3084 152.4C42.2634 152.565 42.1137 152.67 41.9489 152.67H41.9414Z" fill="black"/>
<path d="M38.3529 166.269C40.2179 166.561 49.0481 151.749 47.2656 150.018C45.483 148.288 27.5154 152.281 26.3021 158.492C25.658 161.774 36.0686 165.91 38.3529 166.269Z" fill="#5DA276"/>
<path d="M38.394 166.643C38.394 166.643 38.3341 166.643 38.3041 166.643C36.2295 166.321 28.5601 163.317 26.4705 160.335C26.0062 159.668 25.8264 159.024 25.9462 158.424C26.7326 154.386 33.728 151.786 36.7013 150.849C41.1502 149.456 46.4154 148.662 47.5389 149.748C48.3103 150.497 47.771 152.752 45.9286 156.454C44.1835 159.953 40.1091 166.643 38.4015 166.643H38.394ZM38.4165 165.894H38.424C39.3302 165.894 43.6592 159.87 46.0335 154.446C47.5613 150.962 47.0745 150.347 47.0146 150.287C46.4154 149.703 42.1837 149.913 36.9185 151.561C31.0017 153.419 27.167 156.034 26.6727 158.559C26.5978 158.956 26.7326 159.406 27.0772 159.9C29.017 162.672 36.4766 165.594 38.4165 165.894Z" fill="black"/>
<path d="M60.5836 133.49C60.5836 133.49 55.4457 129.137 53.8803 129.421C52.315 129.706 45.462 131.205 46.7502 133.49C48.0309 135.775 49.6936 142.406 61.4823 151.823C61.4823 151.823 63.6468 155.465 64.216 158.529C64.7853 161.594 65.2122 154.176 68.4926 151.464C71.7731 148.752 76.1246 143.117 73.271 137.408C70.4175 131.699 67.2119 129.249 65.3545 129.406C63.497 129.564 61.1453 132.77 60.5761 133.49H60.5836Z" fill="#5DA276"/>
<path d="M64.5151 159.638C64.5151 159.638 64.4926 159.638 64.4776 159.638C64.0732 159.616 63.9533 159.151 63.8485 158.604C63.3317 155.847 61.4668 152.55 61.1897 152.078C51.176 144.069 48.3899 137.948 47.0492 134.996C46.802 134.449 46.5998 134.014 46.4126 133.677C46.158 133.228 46.1355 132.756 46.3452 132.313C47.2739 130.335 52.7189 129.257 53.7974 129.062C55.3178 128.785 59.1899 131.864 60.5156 132.958C61.3844 131.849 63.4965 129.197 65.3165 129.039C67.2937 128.882 70.6491 131.347 73.6 137.251C76.3337 142.728 72.6863 148.489 68.7242 151.764C66.9866 153.202 66.0579 156.117 65.5037 157.862C65.0993 159.144 64.9345 159.646 64.5076 159.646L64.5151 159.638ZM54.0595 129.789C54.0146 129.789 53.9771 129.789 53.9472 129.796C51.4906 130.238 47.6334 131.362 47.0342 132.628C46.9294 132.853 46.9444 133.07 47.0717 133.31C47.2739 133.677 47.4761 134.119 47.7382 134.689C49.1538 137.813 51.7977 143.619 61.7139 151.539C61.7514 151.569 61.7813 151.599 61.8038 151.636C61.8937 151.786 63.9608 155.285 64.5675 158.357C64.6424 158.132 64.7248 157.877 64.7997 157.63C65.3764 155.809 66.35 152.76 68.2599 151.179C72.0047 148.085 75.4799 142.66 72.9409 137.581C70.1623 132.021 67.1065 129.654 65.3913 129.781C63.8485 129.908 61.7439 132.613 61.0474 133.497L60.8751 133.722C60.8152 133.804 60.7178 133.849 60.6204 133.864C60.5231 133.864 60.4182 133.842 60.3433 133.774C58.4784 132.194 55.2054 129.781 54.067 129.781L54.0595 129.789Z" fill="black"/>
<path d="M65.3624 142.623C65.3624 142.623 63.1829 135.513 60.584 133.49Z" fill="#5DC077"/>
<path d="M65.3559 142.997C65.1986 142.997 65.0488 142.893 64.9964 142.735C64.9739 142.668 62.8244 135.715 60.3453 133.789C60.1805 133.662 60.1506 133.43 60.2779 133.265C60.4052 133.1 60.6374 133.07 60.8022 133.197C63.4685 135.265 65.618 142.218 65.7079 142.518C65.7678 142.713 65.6555 142.922 65.4608 142.982C65.4233 142.99 65.3858 142.997 65.3484 142.997H65.3559Z" fill="black"/>
</svg>
