<svg width="146" height="20" viewBox="0 0 146 20" fill="none" xmlns="http://www.w3.org/2000/svg">
<path d="M7.6299 5.16503L9.04004 5.3162V8.516C8.52803 8.30604 7.84394 8.20526 6.98778 8.21366C5.68675 8.21366 4.6795 8.60418 3.96604 9.38524C3.24418 10.1747 2.88325 11.1573 2.88325 12.3331V18.065H0V5.41698H2.88325V7.84832H3.05951C3.17703 7.57958 3.38267 7.26883 3.67645 6.9161C3.91148 6.60536 4.18847 6.32821 4.50743 6.08466C4.84318 5.82431 5.29225 5.60595 5.85463 5.42958C6.41701 5.25321 7.00876 5.16503 7.6299 5.16503Z" fill="black"/>
<path d="M11.2439 5.41698H14.1271V11.8166C14.1271 13.1183 14.4713 14.0884 15.1596 14.7266C15.8563 15.3733 16.767 15.6966 17.8917 15.6966C19.1004 15.6966 20.0237 15.3397 20.6617 14.6258C21.308 13.9036 21.6311 12.9672 21.6311 11.8166V5.41698H24.5144V18.065H21.6311V16.0242H21.4549C21.3541 16.2425 21.1527 16.5071 20.8505 16.8178C20.6323 17.053 20.3469 17.2881 19.9944 17.5233C19.6502 17.7501 19.1928 17.939 18.622 18.0902C18.0512 18.2414 17.4469 18.317 16.8089 18.317C15.189 18.317 13.8585 17.834 12.8177 16.8682C11.7685 15.9108 11.2439 14.4789 11.2439 12.5724V5.41698Z" fill="black"/>
<path d="M39.5732 9.49861H36.5893C36.5893 8.86873 36.371 8.38582 35.9346 8.04989C35.4897 7.70555 34.6755 7.53338 33.492 7.53338C31.4775 7.53338 30.4702 8.01629 30.4702 8.98211C30.4702 9.39363 30.7095 9.70018 31.1879 9.90174C31.6496 10.1201 32.2413 10.2461 32.9632 10.2797C33.7354 10.3301 34.5076 10.4098 35.2798 10.519C36.1024 10.6282 36.8705 10.7794 37.5839 10.9725C38.2974 11.1741 38.8891 11.552 39.3592 12.1063C39.8292 12.6774 40.0643 13.3997 40.0643 14.2731C40.0643 15.2221 39.7747 16.0074 39.1955 16.6289C38.5996 17.2672 37.8441 17.7039 36.9292 17.939C35.9975 18.191 34.8937 18.317 33.6179 18.317C31.6873 18.317 30.1387 17.9684 28.972 17.2714C27.8052 16.5827 27.2219 15.4699 27.2219 13.933V13.5299H30.2184V13.933C30.2184 15.2767 31.3516 15.9486 33.6179 15.9486C35.9094 15.9486 37.0635 15.3985 37.0803 14.2983C37.0803 13.7608 36.7487 13.3871 36.0856 13.1771C35.4141 12.9588 34.6167 12.8202 33.6934 12.7614C32.7533 12.7026 31.8174 12.6018 30.8857 12.4591C29.9372 12.3163 29.1356 11.9677 28.4809 11.4135C27.8178 10.8592 27.4863 10.0655 27.4863 9.0325C27.4863 7.75594 28.0319 6.79012 29.123 6.13505C30.2226 5.48837 31.6873 5.16503 33.5172 5.16503C35.389 5.16503 36.8663 5.51776 37.9491 6.22323C39.0318 6.9287 39.5732 8.02049 39.5732 9.49861Z" fill="black"/>
<path d="M56.0422 18.065H53.159V11.6654C53.159 10.3637 52.8148 9.39363 52.1266 8.75535C51.4383 8.11707 50.5276 7.79793 49.3944 7.79793C48.1857 7.79793 47.2624 8.15487 46.6245 8.86873C45.9782 9.591 45.655 10.5232 45.655 11.6654V18.065H42.7718V0H45.655V7.4578H45.8313C45.9236 7.25624 46.1292 6.99169 46.4482 6.66415C46.658 6.43739 46.9392 6.20223 47.2918 5.95868C47.6443 5.74032 48.106 5.55556 48.6767 5.40438C49.2475 5.24481 49.8477 5.16503 50.4772 5.16503C52.1056 5.16503 53.4402 5.64374 54.481 6.60116C55.5218 7.56698 56.0422 9.00731 56.0422 10.9221V18.065Z" fill="black"/>
<path d="M83.3094 18.317C81.2194 18.317 79.5113 17.7291 78.1851 16.5533C76.8588 15.3775 76.1957 13.7734 76.1957 11.741C76.1957 9.71697 76.8588 8.11287 78.1851 6.9287C79.5113 5.75292 81.2194 5.16503 83.3094 5.16503C84.4846 5.16503 85.5422 5.35399 86.4823 5.73192C87.4307 6.10985 88.161 6.58016 88.673 7.14286C89.7222 8.29344 90.2468 9.35584 90.2468 10.3301H87.1999C87.1328 10.0865 86.9859 9.79256 86.7592 9.44822C86.541 9.13748 86.3102 8.87713 86.0668 8.66717C85.7814 8.42362 85.3911 8.21785 84.8958 8.04989C84.409 7.88192 83.8802 7.79793 83.3094 7.79793C82.0755 7.79793 81.0809 8.16327 80.3255 8.89393C79.5616 9.62459 79.1797 10.5736 79.1797 11.741C79.1797 12.9168 79.5574 13.87 80.3129 14.6007C81.0683 15.3313 82.0672 15.6966 83.3094 15.6966C83.8886 15.6966 84.4174 15.6169 84.8958 15.4573C85.3827 15.2893 85.773 15.071 86.0668 14.8022C86.6375 14.2815 86.9817 13.8196 87.0992 13.4165L87.1999 13.1645H90.2468C90.2468 14.1219 89.7222 15.1759 88.673 16.3265C88.1526 16.8976 87.4224 17.3721 86.4823 17.7501C85.5422 18.128 84.4846 18.317 83.3094 18.317Z" fill="black"/>
<path d="M92.9669 0H95.8502V18.065H92.9669V0Z" fill="black"/>
<path d="M105.797 18.317C103.707 18.317 101.999 17.7291 100.673 16.5533C99.3466 15.3775 98.6835 13.7734 98.6835 11.741C98.6835 9.71697 99.3466 8.11287 100.673 6.9287C101.999 5.75292 103.707 5.16503 105.797 5.16503C107.896 5.16503 109.608 5.75292 110.934 6.9287C112.252 8.11287 112.911 9.71697 112.911 11.741C112.911 13.7818 112.252 15.3859 110.934 16.5533C109.608 17.7291 107.896 18.317 105.797 18.317ZM108.794 14.6007C109.549 13.87 109.927 12.9168 109.927 11.741C109.927 10.5736 109.549 9.62459 108.794 8.89393C108.022 8.16327 107.023 7.79793 105.797 7.79793C104.555 7.79793 103.556 8.16327 102.801 8.89393C102.045 9.62459 101.668 10.5736 101.668 11.741C101.668 12.9168 102.045 13.87 102.801 14.6007C103.556 15.3313 104.555 15.6966 105.797 15.6966C107.023 15.6966 108.022 15.3313 108.794 14.6007Z" fill="black"/>
<path d="M115.757 5.41698H118.64V11.8166C118.64 13.1183 118.984 14.0884 119.673 14.7266C120.369 15.3733 121.28 15.6966 122.405 15.6966C123.613 15.6966 124.537 15.3397 125.175 14.6258C125.821 13.9036 126.144 12.9672 126.144 11.8166V5.41698H129.027V18.065H126.144V16.0242H125.968C125.867 16.2425 125.666 16.5071 125.364 16.8178C125.145 17.053 124.86 17.2881 124.507 17.5233C124.163 17.7501 123.706 17.939 123.135 18.0902C122.564 18.2414 121.96 18.317 121.322 18.317C119.702 18.317 118.372 17.834 117.331 16.8682C116.282 15.9108 115.757 14.4789 115.757 12.5724V5.41698Z" fill="black"/>
<path d="M138.597 18.317C136.717 18.317 135.126 17.7249 133.825 16.5407C132.524 15.3565 131.873 13.7566 131.873 11.741C131.873 9.74217 132.524 8.14227 133.825 6.9413C135.126 5.75712 136.717 5.16503 138.597 5.16503C139.503 5.16503 140.326 5.3246 141.064 5.64374C141.786 5.95448 142.29 6.27782 142.575 6.61376L142.978 7.07987H143.117V0H146V18.065H143.117V16.4147H142.978C142.869 16.5827 142.655 16.8052 142.336 17.0824C142.076 17.3007 141.795 17.4939 141.493 17.6619C140.67 18.0986 139.705 18.317 138.597 18.317ZM138.987 7.79793C137.745 7.79793 136.746 8.16327 135.99 8.89393C135.235 9.62459 134.857 10.5736 134.857 11.741C134.857 12.9168 135.235 13.87 135.99 14.6007C136.746 15.3313 137.745 15.6966 138.987 15.6966C140.213 15.6966 141.211 15.3313 141.984 14.6007C142.739 13.87 143.117 12.9168 143.117 11.741C143.117 10.5736 142.739 9.62459 141.984 8.89393C141.211 8.16327 140.213 7.79793 138.987 7.79793Z" fill="black"/>
<path d="M64.4588 11.6151H60.591L68.3266 3.23003V11.6151H72.1945L64.4588 20V11.6151Z" fill="#5A37E8"/>
</svg>
