<svg width="141" height="28" viewBox="0 0 141 28" fill="none" xmlns="http://www.w3.org/2000/svg">
<g clip-path="url(#clip0_40000001_4239)">
<path d="M21.1883 21.3393C20.3991 21.2865 19.4892 21.1475 18.7715 20.9388C18.637 20.8996 18.0804 20.6942 17.9388 20.6289C15.4401 19.4666 13.6995 16.9291 13.6995 13.9853C13.6995 9.94762 16.9704 6.65875 20.9934 6.65875C24.9808 6.65875 28.2296 9.89152 28.2855 13.8836H30.9205C30.8647 8.43299 26.4344 4.01565 20.9934 4.01565C15.52 4.01565 11.065 8.48713 11.065 13.9853C11.065 17.7758 13.1876 21.0725 16.2955 22.7567C16.8567 23.0548 17.6621 23.3621 17.9355 23.4462C18.8215 23.711 19.9087 23.8872 20.8765 23.9609C21.2052 23.9857 22.3528 23.9987 22.6873 24H40.8333V21.3641H22.7179C22.4769 21.3641 21.4241 21.3549 21.1883 21.3393ZM22.7179 17.2005C22.5263 17.2005 21.5241 17.194 21.339 17.1783C21.0253 17.1516 20.5706 17.1046 20.2783 17.0374C19.9484 16.9487 19.6385 16.8313 19.4989 16.7543C18.5201 16.2227 17.8531 15.1829 17.8531 13.9853C17.8531 12.243 19.2579 10.8302 20.9934 10.8302C22.6925 10.8302 24.074 12.1876 24.1293 13.8836H26.661C26.6078 10.7852 24.0929 8.28818 20.9934 8.28818C17.8595 8.28818 15.3193 10.8387 15.3193 13.9853C15.3193 16.2044 16.5859 18.1209 18.4305 19.0595C18.7143 19.2265 19.2482 19.4013 19.4002 19.4411C19.9211 19.5787 20.6206 19.6727 21.1883 19.7144C21.3981 19.732 22.4256 19.7399 22.6425 19.7412V19.7451H40.8327V17.2005H22.7179ZM9.44126 23.9902H6.78866V6.66462H2.91239V4H9.44126V23.9902ZM0 7.99596V10.5582H2.91239V23.9902H5.46107V7.99596H0Z" fill="#B4A4F4"/>
<path d="M36.1462 4.18608C35.1908 4.18608 34.3984 4.95122 34.3984 5.9114C34.3984 6.87157 35.1908 7.66737 36.1462 7.66737C37.1309 7.66737 37.8927 6.87157 37.8927 5.9114C37.8927 4.95122 37.1309 4.18608 36.1462 4.18608ZM36.1462 7.38428C35.357 7.38428 34.677 6.76134 34.677 5.9114C34.677 5.10451 35.357 4.46591 36.1462 4.46591C36.9347 4.46591 37.6115 5.10451 37.6115 5.9114C37.6115 6.76134 36.9347 7.38428 36.1462 7.38428Z" fill="#B4A4F4"/>
<path d="M36.8117 6.38419C36.8117 6.19046 36.7831 6.01043 36.5623 5.93933C36.839 5.84279 36.8663 5.6608 36.8663 5.55056C36.8663 5.10504 36.4636 5.04829 36.2979 5.04829H35.5361V6.77361H35.8537V6.06587H36.1037C36.4636 6.06587 36.4934 6.23221 36.4934 6.38419C36.4934 6.67838 36.4934 6.73382 36.5623 6.77361H36.8806C36.8117 6.70382 36.839 6.64968 36.8117 6.38419ZM36.2284 5.81409H35.8537V5.27072H36.1745C36.3967 5.27072 36.5473 5.34117 36.5473 5.55056C36.5473 5.6608 36.4934 5.81409 36.2284 5.81409Z" fill="#B4A4F4"/>
</g>
<path d="M54.8138 9.91602C54.0521 9.11914 53.6712 8.08203 53.6712 6.79883C53.6712 5.52148 54.0521 4.48438 54.8138 3.68164C55.5697 2.87891 56.5892 2.48047 57.8724 2.48047C59.1556 2.48047 60.1751 2.87891 60.9369 3.68164C61.6927 4.48438 62.0736 5.52148 62.0736 6.79883C62.0736 8.08203 61.6927 9.11914 60.9369 9.91602C60.1751 10.7188 59.1556 11.1172 57.8724 11.1172C56.5892 11.1172 55.5697 10.7188 54.8138 9.91602ZM60.0931 9.16016C60.6263 8.54492 60.8958 7.75977 60.8958 6.79883C60.8958 5.83789 60.6263 5.04688 60.0931 4.43164C59.5599 3.81641 58.8158 3.51172 57.8724 3.51172C56.929 3.51172 56.1849 3.81641 55.6517 4.43164C55.1185 5.04688 54.849 5.83789 54.849 6.79883C54.849 7.75977 55.1185 8.54492 55.6517 9.16016C56.1849 9.77539 56.929 10.0859 57.8724 10.0859C58.8158 10.0859 59.5599 9.77539 60.0931 9.16016ZM64.5052 10.2617C63.8841 9.70508 63.5736 8.97266 63.5736 8.05859C63.5736 7.15039 63.8841 6.41211 64.5052 5.85547C65.1205 5.29883 65.9525 5.01758 66.9896 5V2.59766H68.0208V5C69.058 5.01758 69.89 5.29883 70.5111 5.85547C71.1322 6.41211 71.4427 7.15039 71.4427 8.05859C71.4427 8.97266 71.1322 9.70508 70.5169 10.2617C69.8958 10.8184 69.0638 11.0996 68.0208 11.1172V13.4023H66.9896V11.1172C65.9525 11.0996 65.1205 10.8184 64.5052 10.2617ZM69.7787 9.54688C70.183 9.1543 70.388 8.66211 70.388 8.05859C70.388 7.46094 70.183 6.96289 69.7787 6.57031C69.3685 6.17773 68.7826 5.97852 68.0208 5.96094V10.1621C68.7826 10.1445 69.3685 9.93945 69.7787 9.54688ZM65.2376 6.57031C64.8333 6.96289 64.6283 7.46094 64.6283 8.05859C64.6283 8.66211 64.8333 9.1543 65.2435 9.54688C65.6478 9.93945 66.2337 10.1445 66.9896 10.1621V5.96094C66.2279 5.97852 65.6419 6.17773 65.2376 6.57031ZM78.7494 11H77.7122V6.29492H77.6888L74.308 11H73.0013V5.11719H74.0326V9.82227H74.056L77.4369 5.11719H78.7494V11ZM85.8275 12.5V11H80.5482V5.11719H81.5794V10.0625H84.9369V5.11719H85.9681V10.0625H86.8587V12.5H85.8275ZM93.808 11H92.7708V6.29492H92.7474L89.3665 11H88.0599V5.11719H89.0912V9.82227H89.1146L92.4955 5.11719H93.808V11ZM95.3665 9.35352C95.3665 8.75 95.6244 8.30469 96.1341 8.01758C96.6439 7.73047 97.3001 7.58984 98.0912 7.58984C98.4896 7.58984 98.8646 7.63672 99.2162 7.73633C99.5677 7.83594 99.8197 7.92969 99.972 8.02344L100.201 8.16992V7.24414C100.201 6.47656 99.6556 5.96094 98.4369 5.96094C97.2591 5.96094 96.6732 6.2832 96.6732 6.92188H95.6419C95.6478 6.27148 95.9115 5.79102 96.433 5.47461C96.9544 5.1582 97.6224 5 98.4369 5C99.263 5 99.931 5.19336 100.447 5.57422C100.962 5.96094 101.226 6.51758 101.232 7.24414V9.38281C101.232 9.99219 101.384 10.1738 101.736 10.1738C101.876 10.1738 101.999 10.1504 102.046 10.1094L102.07 10.0977V11.0234C101.947 11.0879 101.771 11.1172 101.542 11.1172C101.161 11.1172 100.839 11.0117 100.675 10.8652C100.505 10.7246 100.394 10.5664 100.347 10.4727L100.318 10.4023H100.271C100.242 10.4316 100.212 10.4902 99.972 10.6484C99.849 10.7305 99.7201 10.8008 99.5736 10.8652C99.2806 10.9941 98.7533 11.1172 98.1732 11.1172C97.3412 11.1172 96.6673 10.9766 96.1458 10.6895C95.6244 10.4082 95.3665 9.96289 95.3665 9.35352ZM98.3255 8.55078C97.054 8.55078 96.4212 8.82031 96.4212 9.35352C96.4212 9.89258 97.054 10.1621 98.3255 10.1621C98.7005 10.1621 99.0404 10.1211 99.3509 10.0391C99.6615 9.96289 99.8665 9.89258 99.9779 9.82812C100.089 9.76953 100.16 9.72266 100.201 9.68164V9.00781C100.16 8.9668 100.089 8.91992 99.9779 8.86133C99.8665 8.80859 99.6615 8.73828 99.3568 8.66211C99.0462 8.58594 98.7064 8.55078 98.3255 8.55078ZM103.769 8.62109L104.326 5.11719H108.796V11H107.765V6.05469H105.199L104.806 8.62109C104.671 9.56445 104.466 10.2207 104.197 10.5781C103.927 10.9355 103.552 11.1172 103.077 11.1172C102.884 11.1172 102.667 11.0762 102.574 11.0469L102.486 11.0117V10.0273C102.615 10.0742 102.749 10.0977 102.884 10.0977C103.189 10.0977 103.394 9.94531 103.523 9.63477C103.652 9.33008 103.693 9.08398 103.769 8.62109ZM111.638 7.0625H112.98C114.743 7.0625 115.622 7.71875 115.622 9.03125C115.622 10.3438 114.743 11 112.98 11H110.607V5.11719H111.638V7.0625ZM114.216 9.83984C114.445 9.66992 114.562 9.40039 114.562 9.03125C114.562 8.66211 114.445 8.39258 114.216 8.22266C113.988 8.05273 113.572 7.96484 112.98 7.96484H111.638V10.0977H112.98C113.572 10.0977 113.988 10.0098 114.216 9.83984ZM122.929 11H121.892V8.45703H118.212V11H117.181V5.11719H118.212V7.51953H121.892V5.11719H122.929V11ZM130.663 11V5.11719H131.695V11H130.663ZM125.759 7.0625H126.931C128.695 7.0625 129.574 7.71875 129.574 9.03125C129.574 10.3438 128.695 11 126.931 11H124.728V5.11719H125.759V7.0625ZM128.173 9.83984C128.402 9.66992 128.519 9.40039 128.519 9.03125C128.519 8.66211 128.402 8.39258 128.173 8.22266C127.939 8.05273 127.523 7.96484 126.931 7.96484H125.759V10.0977H126.931C127.523 10.0977 127.939 10.0098 128.173 9.83984ZM137.595 3.92188C137.308 4.16211 136.898 4.2793 136.37 4.2793C135.843 4.2793 135.433 4.16211 135.146 3.92188C134.859 3.6875 134.712 3.36523 134.712 2.96094H135.544C135.544 3.38867 135.82 3.59961 136.37 3.59375C136.921 3.59375 137.197 3.38281 137.197 2.96094H138.029C138.029 3.36523 137.882 3.6875 137.595 3.92188ZM139.253 11H138.216V6.29492H138.193L134.812 11H133.505V5.11719H134.536V9.82227H134.56L137.941 5.11719H139.253V11ZM59.3724 25H58.3412V20.0547H54.7669V25H53.7357V19.1172H59.3724V25ZM60.9369 23.3535C60.9369 22.75 61.1947 22.3047 61.7044 22.0176C62.2142 21.7305 62.8705 21.5898 63.6615 21.5898C64.0599 21.5898 64.4349 21.6367 64.7865 21.7363C65.138 21.8359 65.39 21.9297 65.5423 22.0234L65.7708 22.1699V21.2441C65.7708 20.4766 65.2259 19.9609 64.0072 19.9609C62.8294 19.9609 62.2435 20.2832 62.2435 20.9219H61.2122C61.2181 20.2715 61.4818 19.791 62.0033 19.4746C62.5247 19.1582 63.1927 19 64.0072 19C64.8333 19 65.5013 19.1934 66.0169 19.5742C66.5326 19.9609 66.7962 20.5176 66.8021 21.2441V23.3828C66.8021 23.9922 66.9544 24.1738 67.306 24.1738C67.4466 24.1738 67.5697 24.1504 67.6165 24.1094L67.64 24.0977V25.0234C67.5169 25.0879 67.3412 25.1172 67.1126 25.1172C66.7318 25.1172 66.4095 25.0117 66.2455 24.8652C66.0755 24.7246 65.9642 24.5664 65.9173 24.4727L65.888 24.4023H65.8412C65.8119 24.4316 65.7826 24.4902 65.5423 24.6484C65.4193 24.7305 65.2904 24.8008 65.1439 24.8652C64.8509 24.9941 64.3236 25.1172 63.7435 25.1172C62.9115 25.1172 62.2376 24.9766 61.7162 24.6895C61.1947 24.4082 60.9369 23.9629 60.9369 23.3535ZM63.8958 22.5508C62.6244 22.5508 61.9915 22.8203 61.9915 23.3535C61.9915 23.8926 62.6244 24.1621 63.8958 24.1621C64.2708 24.1621 64.6107 24.1211 64.9212 24.0391C65.2318 23.9629 65.4369 23.8926 65.5482 23.8281C65.6595 23.7695 65.7298 23.7227 65.7708 23.6816V23.0078C65.7298 22.9668 65.6595 22.9199 65.5482 22.8613C65.4369 22.8086 65.2318 22.7383 64.9271 22.6621C64.6165 22.5859 64.2767 22.5508 63.8958 22.5508ZM69.8138 27.4023H68.7826V19.1172H69.8138V19.9961H69.8607C69.89 19.9492 69.9193 19.8672 70.1947 19.6445C70.3294 19.5332 70.4759 19.4336 70.6341 19.3457C70.9447 19.1699 71.5247 19 72.1165 19C73.0013 19 73.7455 19.2812 74.3431 19.8438C74.9349 20.4121 75.2337 21.1504 75.2337 22.0586C75.2337 22.9727 74.9349 23.7109 74.3431 24.2734C73.7455 24.8359 73.0013 25.1172 72.1165 25.1172C71.5247 25.1172 70.9622 24.9707 70.6283 24.7656C70.2943 24.5605 70.0423 24.3555 69.9427 24.2324L69.8607 24.1211H69.8138V27.4023ZM73.5872 23.5645C73.9798 23.1719 74.179 22.668 74.179 22.0586C74.179 21.4551 73.9798 20.9512 73.5872 20.5527C73.1888 20.1602 72.6556 19.9609 71.9935 19.9609C71.3314 19.9609 70.7982 20.1602 70.4056 20.5527C70.013 20.9512 69.8138 21.4551 69.8138 22.0586C69.8138 22.6855 70.0189 23.1895 70.4232 23.5762C70.8275 23.9688 71.349 24.1621 71.9935 24.1621C72.6556 24.1621 73.1888 23.9629 73.5872 23.5645ZM78.2044 20.0547H75.8314V19.1172H81.6146V20.0547H79.2357V25.0117L78.2044 25V20.0547ZM88.4408 25H87.4037V22.457H83.724V25H82.6927V19.1172H83.724V21.5195H87.4037V19.1172H88.4408V25ZM96.4505 22.0586L96.4154 22.5508H91.1009C91.1009 22.8848 91.3001 23.2363 91.6986 23.6055C92.0912 23.9746 92.6244 24.1621 93.2865 24.1621C93.7787 24.1621 94.2298 24.0391 94.4876 23.8867C94.7396 23.7344 94.9505 23.5586 95.0267 23.4648L95.0736 23.3828H96.2865C96.2689 23.4297 96.2455 23.4883 96.2103 23.5645C96.1693 23.6406 96.0755 23.7812 95.9232 23.9805C95.7708 24.1797 95.5951 24.3555 95.39 24.5137C95.1849 24.6719 94.8978 24.8066 94.5287 24.9297C94.1595 25.0586 93.7435 25.1172 93.2865 25.1172C92.3197 25.1172 91.5287 24.8418 90.9193 24.2852C90.304 23.7285 89.9994 22.9902 89.9994 22.0586C89.9994 21.1387 90.304 20.3945 90.9134 19.8379C91.5169 19.2812 92.2904 19 93.2279 19C94.1595 19 94.933 19.2812 95.5423 19.8379C96.1458 20.3945 96.4505 21.1387 96.4505 22.0586ZM94.7865 20.5176C94.3997 20.1484 93.8783 19.9609 93.2279 19.9609C92.5716 19.9609 92.0501 20.1484 91.6693 20.5176C91.2826 20.8867 91.0892 21.2559 91.0892 21.6133H95.3607C95.3607 21.2559 95.1673 20.8867 94.7865 20.5176ZM91.4583 17.582C91.4583 17.248 91.7044 17.043 92.0853 17.043C92.4662 17.043 92.6947 17.248 92.6947 17.582C92.6947 17.9629 92.4896 18.1562 92.0853 18.1621C91.6693 18.1562 91.4583 17.9629 91.4583 17.582ZM93.7435 17.582C93.7435 17.248 93.9837 17.043 94.3646 17.043C94.7455 17.043 94.9798 17.248 94.9798 17.582C94.9798 17.9629 94.7747 18.1562 94.3646 18.1621C93.9486 18.1562 93.7435 17.9629 93.7435 17.582ZM99.0521 27.4023H98.0208V19.1172H99.0521V19.9961H99.099C99.1283 19.9492 99.1576 19.8672 99.433 19.6445C99.5677 19.5332 99.7142 19.4336 99.8724 19.3457C100.183 19.1699 100.763 19 101.355 19C102.24 19 102.984 19.2812 103.581 19.8438C104.173 20.4121 104.472 21.1504 104.472 22.0586C104.472 22.9727 104.173 23.7109 103.581 24.2734C102.984 24.8359 102.24 25.1172 101.355 25.1172C100.763 25.1172 100.201 24.9707 99.8665 24.7656C99.5326 24.5605 99.2806 24.3555 99.181 24.2324L99.099 24.1211H99.0521V27.4023ZM102.826 23.5645C103.218 23.1719 103.417 22.668 103.417 22.0586C103.417 21.4551 103.218 20.9512 102.826 20.5527C102.427 20.1602 101.894 19.9609 101.232 19.9609C100.57 19.9609 100.036 20.1602 99.6439 20.5527C99.2513 20.9512 99.0521 21.4551 99.0521 22.0586C99.0521 22.6855 99.2572 23.1895 99.6615 23.5762C100.066 23.9688 100.587 24.1621 101.232 24.1621C101.894 24.1621 102.427 23.9629 102.826 23.5645ZM110.296 17.9922L108.497 19.4102V18.1387L110.396 16.5977H111.427V25H110.296V17.9922ZM117.544 24.0859C118.025 24.0859 118.458 24.0039 118.839 23.8398C119.22 23.6758 119.501 23.4766 119.695 23.2422C120.076 22.7734 120.333 22.2754 120.404 21.9531L120.451 21.7012H121.611C121.611 22.3398 121.3 23.0957 120.691 23.834C120.386 24.2031 119.958 24.5137 119.413 24.7539C118.863 24.9941 118.242 25.1172 117.544 25.1172C116.261 25.1172 115.242 24.7188 114.486 23.916C113.724 23.1191 113.343 22.082 113.343 20.7988C113.343 19.5215 113.724 18.4844 114.486 17.6816C115.242 16.8789 116.261 16.4805 117.544 16.4805C118.242 16.4805 118.863 16.6035 119.413 16.8438C119.958 17.0898 120.386 17.3945 120.691 17.7637C121.3 18.4961 121.611 19.2637 121.611 19.9023H120.451C120.433 19.8379 120.445 19.7676 120.333 19.4336C120.216 19.0996 120.081 18.8301 119.777 18.4609C119.472 18.0918 119.126 17.834 118.523 17.6465C118.224 17.5586 117.896 17.5117 117.544 17.5117C116.601 17.5117 115.857 17.8164 115.324 18.4316C114.79 19.0469 114.521 19.8379 114.521 20.7988C114.521 21.7598 114.79 22.5449 115.324 23.1602C115.857 23.7754 116.601 24.0859 117.544 24.0859Z" fill="#B4A4F4"/>
<defs>
<clipPath id="clip0_40000001_4239">
<rect width="40.8333" height="20" fill="white" transform="translate(0 4)"/>
</clipPath>
</defs>
</svg>
