<svg width="569" height="361" viewBox="0 0 569 361" fill="none" xmlns="http://www.w3.org/2000/svg">
<rect width="569" height="361" fill="white"/>
<g opacity="0.61">
<path d="M117.997 234.068L109.547 240.832H330.615L352.959 197.037L171.157 194.457L117.997 234.068Z" fill="#FCFFED"/>
<path d="M330.615 241.847H109.547C109.12 241.847 108.734 241.583 108.592 241.176C108.45 240.77 108.592 240.323 108.917 240.039L117.388 233.275C117.388 233.275 117.388 233.275 117.408 233.254L170.567 193.644C170.75 193.502 170.994 193.42 171.197 193.441L353 196.02C353.345 196.02 353.67 196.203 353.853 196.508C354.036 196.813 354.056 197.178 353.893 197.503L331.549 241.298C331.366 241.644 331.021 241.847 330.635 241.847H330.615ZM112.431 239.815H329.985L351.314 198.031L171.482 195.472L118.627 234.859L112.431 239.815Z" fill="black"/>
<path d="M114.381 226.694C114.381 226.694 99.8372 233.275 97.0137 235.977C97.0137 235.977 212.677 233.6 238.19 235.977C263.703 238.353 317.188 235.977 317.188 235.977C317.188 235.977 338.699 213.226 348.47 205.812C358.24 198.398 367.97 188.322 367.97 188.322C367.97 188.322 164.392 202.988 152.529 197.016C152.529 197.016 120.536 222.712 114.381 226.673V226.694Z" fill="#FCFFED"/>
<path d="M269.937 238.049C258.196 238.049 246.577 237.785 238.086 236.993C212.938 234.657 98.1894 236.993 97.0316 236.993C96.605 236.993 96.2394 236.749 96.0769 236.363C95.9144 235.977 96.0159 235.53 96.3206 235.246C99.1645 232.524 112.673 226.349 113.912 225.8C120.107 221.778 151.593 196.489 151.918 196.245C152.222 196.001 152.649 195.94 153.015 196.123C162.196 200.734 297.603 192.385 367.907 187.307C368.334 187.267 368.72 187.51 368.902 187.896C369.085 188.282 369.004 188.729 368.72 189.034C368.618 189.135 358.847 199.251 349.117 206.625C339.509 213.897 318.16 236.445 317.957 236.668C317.774 236.851 317.531 236.973 317.266 236.993C316.901 236.993 293.236 238.049 269.978 238.049H269.937ZM190.289 233.926C211.252 233.926 229.798 234.19 238.289 234.982C262.259 237.216 311.721 235.205 316.738 234.982C319.42 232.158 338.616 212.008 347.878 205C354.947 199.637 362.057 192.792 365.348 189.521C340.566 191.289 168.818 203.273 152.73 198.175C148.647 201.445 120.757 223.81 114.948 227.547C114.907 227.568 114.867 227.588 114.826 227.629C111.718 229.03 104.487 232.443 100.363 234.901C112.429 234.677 154.822 233.926 190.309 233.926H190.289Z" fill="black"/>
<path d="M367.968 181.254C367.968 181.254 323.503 222.49 315.154 231.671C315.154 231.671 263.234 233.398 234.795 229.112C206.357 224.826 117.02 226.979 99.7129 227.974C99.7129 227.974 150.374 193.868 171.154 188.343C171.154 188.343 359.396 185.093 367.968 181.254Z" fill="#FCFFED"/>
<path d="M291.102 233.012C273.653 233.012 250.456 232.484 234.652 230.107C206.112 225.801 115.292 228.076 99.7728 228.99C99.3259 229.051 98.8993 228.746 98.7571 228.299C98.6149 227.853 98.7571 227.385 99.143 227.121C101.215 225.72 150.19 192.853 170.889 187.348C170.97 187.348 171.052 187.308 171.133 187.308C236.175 186.19 360.918 183.286 367.54 180.32C367.987 180.117 368.536 180.279 368.8 180.686C369.084 181.092 369.003 181.661 368.637 181.986C368.19 182.392 324.111 223.302 315.884 232.342C315.701 232.545 315.437 232.667 315.173 232.667C314.95 232.667 304.793 232.992 291.082 232.992L291.102 233.012ZM170.767 225.496C196.362 225.496 221.855 226.126 234.957 228.096C261.628 232.118 309.668 230.818 314.686 230.656C322.384 222.348 355.17 191.756 364.676 182.9C337.375 186.414 180.01 189.176 171.295 189.339C153.806 194.072 114.622 219.341 103.368 226.756C115.739 226.207 143.304 225.476 170.767 225.476V225.496Z" fill="black"/>
<path d="M187.848 158.462L114.721 191.856C114.721 191.856 108.85 214.993 145.637 217.634C182.424 220.295 238.184 221.412 258.497 222.997C278.81 224.581 326.424 222.997 326.424 222.997C326.424 222.997 358.478 180.786 365.689 175.383C365.689 175.383 361.505 179.445 231.237 178.247C220.389 178.145 187.726 183.447 187.848 158.441V158.462Z" fill="#FCFFED"/>
<path d="M285.086 224.723C274.99 224.723 265.179 224.541 258.415 224.033C249.375 223.322 233.45 222.712 215.006 222.022C192.031 221.148 165.97 220.153 145.555 218.67C131.6 217.654 121.992 213.653 116.995 206.726C111.795 199.535 113.643 191.938 113.724 191.633C113.806 191.329 114.009 191.085 114.293 190.963L187.42 157.568C187.725 157.426 188.091 157.446 188.395 157.649C188.68 157.832 188.863 158.157 188.863 158.503C188.842 163.906 190.447 168.212 193.636 171.259C201.213 178.552 216.042 177.881 225.853 177.434C227.965 177.333 229.793 177.272 231.256 177.272C353.48 178.389 364.53 174.814 365.18 174.55C365.607 174.286 366.155 174.367 366.48 174.753C366.826 175.159 366.806 175.769 366.42 176.134C366.399 176.155 366.359 176.175 366.318 176.216C359.29 181.497 327.561 223.22 327.256 223.647C327.073 223.891 326.789 224.033 326.484 224.053C326.159 224.053 305.115 224.744 285.106 224.744L285.086 224.723ZM115.613 192.568C115.329 194.233 114.72 200.084 118.681 205.548C123.312 211.946 132.412 215.664 145.718 216.618C166.092 218.081 192.133 219.076 215.087 219.97C233.551 220.681 249.497 221.29 258.577 222.001C277.509 223.464 320.857 222.164 325.915 222.001C329.003 217.939 352.566 187.083 362.357 177.089C353.257 178.349 324.148 180.116 231.236 179.263C229.814 179.263 228.026 179.324 225.934 179.425C215.777 179.892 200.441 180.563 192.214 172.681C188.924 169.533 187.136 165.267 186.872 160.006L115.613 192.547V192.568Z" fill="black"/>
</g>
<g opacity="0.61">
<path d="M117.997 234.068L109.547 240.832H330.615L352.959 197.037L171.157 194.457L117.997 234.068Z" fill="#FCFFED"/>
<path d="M330.615 241.847H109.547C109.12 241.847 108.734 241.583 108.592 241.176C108.45 240.77 108.592 240.323 108.917 240.039L117.388 233.275C117.388 233.275 117.388 233.275 117.408 233.254L170.567 193.644C170.75 193.502 170.994 193.42 171.197 193.441L353 196.02C353.345 196.02 353.67 196.203 353.853 196.508C354.036 196.813 354.056 197.178 353.893 197.503L331.549 241.298C331.366 241.644 331.021 241.847 330.635 241.847H330.615ZM112.431 239.815H329.985L351.314 198.031L171.482 195.472L118.627 234.859L112.431 239.815Z" fill="black"/>
<path d="M114.381 226.694C114.381 226.694 99.8372 233.275 97.0137 235.977C97.0137 235.977 212.677 233.6 238.19 235.977C263.703 238.353 317.188 235.977 317.188 235.977C317.188 235.977 338.699 213.226 348.47 205.812C358.24 198.398 367.97 188.322 367.97 188.322C367.97 188.322 164.392 202.988 152.529 197.016C152.529 197.016 120.536 222.712 114.381 226.673V226.694Z" fill="#FCFFED"/>
<path d="M269.937 238.049C258.196 238.049 246.577 237.785 238.086 236.993C212.938 234.657 98.1894 236.993 97.0316 236.993C96.605 236.993 96.2394 236.749 96.0769 236.363C95.9144 235.977 96.0159 235.53 96.3206 235.246C99.1645 232.524 112.673 226.349 113.912 225.8C120.107 221.778 151.593 196.489 151.918 196.245C152.222 196.001 152.649 195.94 153.015 196.123C162.196 200.734 297.603 192.385 367.907 187.307C368.334 187.267 368.72 187.51 368.902 187.896C369.085 188.282 369.004 188.729 368.72 189.034C368.618 189.135 358.847 199.251 349.117 206.625C339.509 213.897 318.16 236.445 317.957 236.668C317.774 236.851 317.531 236.973 317.266 236.993C316.901 236.993 293.236 238.049 269.978 238.049H269.937ZM190.289 233.926C211.252 233.926 229.798 234.19 238.289 234.982C262.259 237.216 311.721 235.205 316.738 234.982C319.42 232.158 338.616 212.008 347.878 205C354.947 199.637 362.057 192.792 365.348 189.521C340.566 191.289 168.818 203.273 152.73 198.175C148.647 201.445 120.757 223.81 114.948 227.547C114.907 227.568 114.867 227.588 114.826 227.629C111.718 229.03 104.487 232.443 100.363 234.901C112.429 234.677 154.822 233.926 190.309 233.926H190.289Z" fill="black"/>
<path d="M367.968 181.254C367.968 181.254 323.503 222.49 315.154 231.671C315.154 231.671 263.234 233.398 234.795 229.112C206.357 224.826 117.02 226.979 99.7129 227.974C99.7129 227.974 150.374 193.868 171.154 188.343C171.154 188.343 359.396 185.093 367.968 181.254Z" fill="#FCFFED"/>
<path d="M291.102 233.012C273.653 233.012 250.456 232.484 234.652 230.107C206.112 225.801 115.292 228.076 99.7728 228.99C99.3259 229.051 98.8993 228.746 98.7571 228.299C98.6149 227.853 98.7571 227.385 99.143 227.121C101.215 225.72 150.19 192.853 170.889 187.348C170.97 187.348 171.052 187.308 171.133 187.308C236.175 186.19 360.918 183.286 367.54 180.32C367.987 180.117 368.536 180.279 368.8 180.686C369.084 181.092 369.003 181.661 368.637 181.986C368.19 182.392 324.111 223.302 315.884 232.342C315.701 232.545 315.437 232.667 315.173 232.667C314.95 232.667 304.793 232.992 291.082 232.992L291.102 233.012ZM170.767 225.496C196.362 225.496 221.855 226.126 234.957 228.096C261.628 232.118 309.668 230.818 314.686 230.656C322.384 222.348 355.17 191.756 364.676 182.9C337.375 186.414 180.01 189.176 171.295 189.339C153.806 194.072 114.622 219.341 103.368 226.756C115.739 226.207 143.304 225.476 170.767 225.476V225.496Z" fill="black"/>
<path d="M187.848 158.462L114.721 191.856C114.721 191.856 108.85 214.993 145.637 217.634C182.424 220.295 238.184 221.412 258.497 222.997C278.81 224.581 326.424 222.997 326.424 222.997C326.424 222.997 358.478 180.786 365.689 175.383C365.689 175.383 361.505 179.445 231.237 178.247C220.389 178.145 187.726 183.447 187.848 158.441V158.462Z" fill="#FCFFED"/>
<path d="M285.086 224.723C274.99 224.723 265.179 224.541 258.415 224.033C249.375 223.322 233.45 222.712 215.006 222.022C192.031 221.148 165.97 220.153 145.555 218.67C131.6 217.654 121.992 213.653 116.995 206.726C111.795 199.535 113.643 191.938 113.724 191.633C113.806 191.329 114.009 191.085 114.293 190.963L187.42 157.568C187.725 157.426 188.091 157.446 188.395 157.649C188.68 157.832 188.863 158.157 188.863 158.503C188.842 163.906 190.447 168.212 193.636 171.259C201.213 178.552 216.042 177.881 225.853 177.434C227.965 177.333 229.793 177.272 231.256 177.272C353.48 178.389 364.53 174.814 365.18 174.55C365.607 174.286 366.155 174.367 366.48 174.753C366.826 175.159 366.806 175.769 366.42 176.134C366.399 176.155 366.359 176.175 366.318 176.216C359.29 181.497 327.561 223.22 327.256 223.647C327.073 223.891 326.789 224.033 326.484 224.053C326.159 224.053 305.115 224.744 285.106 224.744L285.086 224.723ZM115.613 192.568C115.329 194.233 114.72 200.084 118.681 205.548C123.312 211.946 132.412 215.664 145.718 216.618C166.092 218.081 192.133 219.076 215.087 219.97C233.551 220.681 249.497 221.29 258.577 222.001C277.509 223.464 320.857 222.164 325.915 222.001C329.003 217.939 352.566 187.083 362.357 177.089C353.257 178.349 324.148 180.116 231.236 179.263C229.814 179.263 228.026 179.324 225.934 179.425C215.777 179.892 200.441 180.563 192.214 172.681C188.924 169.533 187.136 165.267 186.872 160.006L115.613 192.547V192.568Z" fill="black"/>
</g>
<path d="M332.907 196.407L268.047 212.394C266.015 212.902 263.862 212.312 262.359 210.87L228.335 178.024C224.069 173.941 223.094 172.946 222.403 169.533C221.672 165.856 220.981 162.464 220.027 157.061C219.295 152.917 221.022 150.032 226.425 149.139L292.93 161.53C294.738 161.164 296.627 161.631 298.049 162.809L334.735 188.343C334.735 193.848 335.385 195.534 332.886 196.387L332.907 196.407Z" fill="#7F7F7F"/>
<path d="M266.586 213.591C264.778 213.591 263.011 212.901 261.67 211.601L227.646 178.754C223.441 174.732 222.181 173.534 221.43 169.735C220.739 166.323 220.048 162.788 219.053 157.243C218.627 154.887 218.972 152.936 220.028 151.413C221.227 149.727 223.319 148.63 226.264 148.143C226.386 148.143 226.508 148.143 226.61 148.143L292.932 160.513C294.984 160.148 297.096 160.696 298.701 162.057L335.325 187.55C335.589 187.733 335.752 188.058 335.752 188.383C335.752 189.439 335.772 190.353 335.793 191.145C335.874 194.578 335.935 196.468 333.193 197.382C333.172 197.382 333.132 197.382 333.111 197.402L268.251 213.388C267.683 213.531 267.114 213.591 266.525 213.591H266.586ZM226.427 150.174C224.131 150.58 222.527 151.393 221.694 152.591C220.942 153.668 220.719 155.069 221.044 156.898C222.019 162.423 222.73 165.937 223.4 169.349C224.01 172.417 224.741 173.189 229.047 177.292L263.072 210.138C264.331 211.357 266.119 211.845 267.805 211.418L332.603 195.452C333.782 195.046 333.863 194.7 333.782 191.206C333.782 190.536 333.741 189.784 333.741 188.931L297.482 163.682C296.223 162.626 294.659 162.24 293.135 162.565C293.013 162.585 292.871 162.585 292.749 162.565L226.406 150.194L226.427 150.174Z" fill="black"/>
<path d="M333.224 190.495L268.06 206.563C266.029 207.071 263.875 206.482 262.372 205.04L228.348 172.193C225.89 169.553 225.605 167.907 224.793 163.255L293.979 149.869C294.731 153.79 295.015 154.704 298.062 157.019L334.037 186.981C335.317 188.037 334.849 190.109 333.224 190.516V190.495Z" fill="#7F7F7F"/>
<path d="M266.58 207.742C264.773 207.742 263.005 207.051 261.665 205.751L227.64 172.905C224.938 170 224.593 168.07 223.781 163.398C223.679 162.85 224.045 162.322 224.593 162.22L293.78 148.834C294.044 148.773 294.328 148.834 294.552 148.996C294.775 149.159 294.937 149.382 294.978 149.646C295.689 153.364 295.872 154.034 298.695 156.167L334.69 186.169C335.584 186.901 335.97 188.079 335.706 189.196C335.442 190.313 334.589 191.187 333.471 191.471L268.307 207.539C267.738 207.681 267.169 207.742 266.58 207.742ZM225.954 164.028C226.624 167.867 226.99 169.228 229.082 171.483L263.066 204.289C264.326 205.507 266.113 205.995 267.799 205.568L332.964 189.501C333.35 189.399 333.614 189.115 333.715 188.749C333.817 188.383 333.675 187.997 333.37 187.733L297.395 157.772C294.348 155.456 293.8 154.298 293.15 151.028L225.934 164.028H225.954Z" fill="black"/>
<path d="M325.32 186.351L266.453 200.509L244.027 179.18L301.92 166.627L325.32 186.351Z" fill="#7F7F7F"/>
<path d="M266.454 201.525C266.19 201.525 265.946 201.423 265.763 201.241L243.338 179.912C243.074 179.648 242.952 179.262 243.053 178.896C243.155 178.53 243.439 178.266 243.825 178.185L301.738 165.632C302.043 165.571 302.368 165.632 302.611 165.855L325.992 185.579C326.276 185.823 326.418 186.209 326.317 186.595C326.235 186.96 325.931 187.265 325.565 187.346L266.698 201.505C266.698 201.505 266.535 201.525 266.454 201.525ZM246.1 179.749L266.738 199.392L323.107 185.823L301.636 167.704L246.1 179.749Z" fill="black"/>
<path d="M255.018 190.658C254.551 190.658 254.144 190.333 254.023 189.866C253.901 189.317 254.246 188.769 254.794 188.647L313.174 175.321C313.723 175.199 314.271 175.545 314.393 176.093C314.515 176.642 314.17 177.19 313.621 177.312L255.241 190.637C255.241 190.637 255.099 190.658 255.018 190.658Z" fill="black"/>
<path d="M249.35 185.274C248.883 185.274 248.456 184.949 248.355 184.482C248.233 183.933 248.578 183.385 249.126 183.263L307.263 170.323C307.791 170.201 308.359 170.547 308.481 171.095C308.603 171.644 308.258 172.192 307.709 172.314L249.573 185.253C249.573 185.253 249.431 185.274 249.35 185.274Z" fill="black"/>
<path d="M260.812 196.143C260.345 196.143 259.938 195.818 259.817 195.35C259.695 194.802 260.02 194.254 260.568 194.132L319.192 180.38C319.74 180.238 320.289 180.583 320.411 181.131C320.532 181.68 320.207 182.228 319.659 182.35L261.035 196.102C261.035 196.102 260.873 196.122 260.812 196.122V196.143Z" fill="black"/>
<path d="M285.699 196.915C285.455 196.915 285.211 196.834 285.008 196.651L262.237 175.85C261.831 175.464 261.79 174.835 262.176 174.408C262.562 173.982 263.192 173.961 263.618 174.347L286.389 195.148C286.796 195.534 286.836 196.164 286.45 196.59C286.247 196.814 285.983 196.915 285.699 196.915Z" fill="black"/>
<path d="M306.574 191.876C306.331 191.876 306.107 191.794 305.904 191.632L282.788 171.4C282.361 171.034 282.321 170.384 282.686 169.958C283.052 169.531 283.702 169.49 284.128 169.856L307.245 190.088C307.671 190.454 307.712 191.104 307.346 191.53C307.143 191.754 306.859 191.876 306.574 191.876Z" fill="black"/>
<path d="M240.582 176.824C240.318 176.824 240.074 176.722 239.891 176.539L236.621 173.411C236.357 173.147 236.235 172.761 236.336 172.396C236.438 172.03 236.743 171.766 237.108 171.685L263.82 166.078C264.145 166.017 264.47 166.098 264.714 166.322L268.066 169.328C268.35 169.592 268.472 169.978 268.37 170.344C268.269 170.71 267.984 170.994 267.598 171.075L240.805 176.783C240.805 176.783 240.663 176.804 240.602 176.804L240.582 176.824ZM239.404 173.289L240.887 174.711L265.201 169.531L263.719 168.191L239.404 173.289Z" fill="black"/>
<path d="M225.132 165.184L223.161 153.829C222.775 151.635 224.238 149.522 226.432 149.136L287.656 138.066C289.849 137.66 291.962 139.122 292.368 141.316L294.298 151.493" fill="#7F7F7F"/>
<path d="M225.128 166.201C224.641 166.201 224.214 165.855 224.133 165.368L222.163 154.013C221.695 151.27 223.524 148.63 226.266 148.142L287.49 137.072C290.232 136.584 292.873 138.392 293.38 141.134L295.31 151.311C295.412 151.86 295.046 152.388 294.498 152.489C293.949 152.591 293.421 152.225 293.32 151.677L291.39 141.5C291.085 139.854 289.501 138.758 287.855 139.062L226.632 150.133C224.986 150.438 223.889 152.002 224.174 153.647L226.144 165.002C226.246 165.551 225.88 166.079 225.311 166.18C225.25 166.18 225.189 166.18 225.128 166.18V166.201Z" fill="black"/>
<path d="M287.436 152.102L233.24 162.644L231.615 153.422L285.811 143.164L287.436 152.102Z" fill="#90D3A6"/>
<path d="M233.239 163.661C233.036 163.661 232.833 163.6 232.67 163.478C232.447 163.316 232.284 163.092 232.244 162.808L230.619 153.586C230.517 153.037 230.883 152.509 231.431 152.408L285.626 142.149C285.891 142.109 286.175 142.149 286.398 142.312C286.622 142.474 286.784 142.698 286.825 142.962L288.45 151.9C288.552 152.448 288.186 152.976 287.637 153.078L233.462 163.62C233.462 163.62 233.34 163.62 233.259 163.62L233.239 163.661ZM232.792 154.236L234.072 161.447L286.256 151.29L284.997 144.343L232.792 154.236Z" fill="black"/>
<path d="M539.374 268.327C539.016 268.327 538.691 268.105 538.572 267.763C538.418 267.32 538.64 266.825 539.084 266.671C557.33 260.185 567.077 252.743 567.281 245.164C567.281 244.704 567.674 244.328 568.135 244.328H568.152C568.63 244.328 568.988 244.738 568.988 245.199C568.749 253.665 558.884 261.431 539.647 268.275C539.545 268.31 539.46 268.327 539.357 268.327H539.374Z" fill="#9E9E9E"/>
<path d="M467.666 194.809C467.666 194.809 467.563 194.809 467.512 194.809C454.847 192.471 441.192 190.303 426.923 188.374C426.462 188.306 426.138 187.879 426.189 187.418C426.257 186.958 426.667 186.616 427.145 186.684C441.448 188.613 455.137 190.781 467.819 193.136C468.28 193.222 468.587 193.666 468.502 194.126C468.434 194.536 468.075 194.826 467.666 194.826V194.809Z" fill="#9E9E9E"/>
<path d="M324.905 291.916C311.199 291.916 297.22 291.728 283.036 291.335C207.217 289.27 136.092 281.811 82.7356 270.324C28.9864 258.751 -0.388694 244.328 0.00388456 229.701C0.225777 221.832 8.79423 214.544 25.5044 208.058C25.9482 207.887 26.4432 208.109 26.6139 208.553C26.7846 208.996 26.5627 209.491 26.1189 209.662C10.3475 215.79 1.8985 222.737 1.71075 229.769C1.33524 243.287 31.0005 257.454 83.094 268.668C136.348 280.138 207.371 287.58 283.07 289.646C391.08 292.599 491.581 283.586 539.083 266.688C539.526 266.518 540.021 266.757 540.175 267.2C540.329 267.644 540.107 268.139 539.663 268.293C497.486 283.296 417.452 291.933 324.905 291.933V291.916Z" fill="#9E9E9E"/>
<path d="M547.785 219.881V228.016C547.785 232.498 532.609 236.152 513.882 236.152C495.156 236.152 479.994 232.498 479.994 228.016V219.881C479.994 221.36 481.651 222.75 484.55 223.949C490.408 226.375 501.354 228.016 513.882 228.016C526.411 228.016 537.372 226.375 543.244 223.949C546.129 222.75 547.785 221.36 547.785 219.881Z" fill="#D4D6C8"/>
<path d="M513.882 236.891C497.093 236.891 479.254 233.785 479.254 228.016V219.88C479.254 219.466 479.579 219.141 479.994 219.141C480.408 219.141 480.733 219.466 480.733 219.88C480.733 220.96 482.227 222.188 484.83 223.268C490.806 225.738 501.93 227.276 513.882 227.276C525.834 227.276 536.972 225.738 542.963 223.268C545.551 222.188 547.045 220.96 547.045 219.88C547.045 219.466 547.371 219.141 547.785 219.141C548.199 219.141 548.524 219.466 548.524 219.88V228.016C548.524 233.785 530.671 236.891 513.882 236.891ZM480.733 222.602V228.016C480.733 231.521 494.342 235.412 513.882 235.412C533.422 235.412 547.045 231.521 547.045 228.016V222.602C546.217 223.327 545.048 223.992 543.525 224.628C537.371 227.173 526.011 228.755 513.882 228.755C501.752 228.755 490.407 227.173 484.268 224.628C482.745 224.007 481.561 223.327 480.733 222.602Z" fill="black"/>
<path d="M547.785 219.88C547.785 221.359 546.129 222.749 543.244 223.947C537.372 226.373 526.426 228.015 513.882 228.015C501.339 228.015 490.408 226.373 484.55 223.947C481.651 222.749 479.994 221.359 479.994 219.88C479.994 215.383 495.171 211.744 513.882 211.744C532.594 211.744 547.785 215.383 547.785 219.88Z" fill="#D4D6C8"/>
<path d="M513.882 228.754C501.752 228.754 490.407 227.171 484.268 224.627C480.94 223.252 479.254 221.654 479.254 219.879C479.254 214.11 497.093 211.004 513.882 211.004C530.671 211.004 548.524 214.11 548.524 219.879C548.524 221.654 546.838 223.252 543.525 224.627C537.371 227.171 526.011 228.754 513.882 228.754ZM513.882 212.483C494.342 212.483 480.733 216.373 480.733 219.879C480.733 220.959 482.227 222.187 484.83 223.266C490.806 225.737 501.93 227.275 513.882 227.275C525.834 227.275 536.972 225.737 542.963 223.266C545.551 222.187 547.045 220.959 547.045 219.879C547.045 216.373 533.422 212.483 513.882 212.483Z" fill="black"/>
<path d="M536.782 135.149L543.373 128.088L492.791 80.8695L486.199 87.9303L536.782 135.149Z" fill="#D4D6C8"/>
<path d="M536.765 135.862C536.573 135.862 536.395 135.788 536.262 135.67L485.688 88.454C485.393 88.1729 485.378 87.7144 485.659 87.4037L492.241 80.348C492.374 80.2001 492.567 80.1261 492.759 80.1113C492.951 80.1113 493.144 80.1705 493.291 80.3036L543.865 127.519C544.161 127.8 544.176 128.259 543.895 128.57L537.312 135.625C537.179 135.773 536.987 135.847 536.794 135.862H536.765ZM487.227 87.8623L536.721 134.072L542.297 128.096L492.803 81.8864L487.227 87.8623Z" fill="black"/>
<path d="M455.409 131.66C453.9 132.429 446.282 120.507 438.428 105.02C430.706 89.8287 425.618 76.8562 426.86 75.658C426.949 75.6284 427.053 75.5841 427.141 75.5545C444.33 69.3715 460.645 68.1585 471.857 71.8417L485.229 98.1861C481.531 109.339 470.748 121.661 455.409 131.66Z" fill="#D4D6C8"/>
<path d="M455.232 132.474C454.433 132.474 452.865 131.395 448.679 124.827C445.454 119.768 441.579 112.86 437.763 105.346C436.328 102.506 423.784 77.5965 426.343 75.1114C426.417 75.0375 426.506 74.9783 426.609 74.9487L426.876 74.8452C444.02 68.677 460.483 67.3161 472.08 71.1176C472.272 71.1768 472.42 71.3099 472.509 71.4874L485.881 97.8318C485.969 98.0093 485.984 98.2164 485.925 98.3939C482.094 109.917 471.118 122.268 455.809 132.267C455.779 132.267 455.764 132.297 455.735 132.312C455.602 132.386 455.439 132.46 455.217 132.46L455.232 132.474ZM427.349 76.2652C427.053 77.8479 430.825 88.4537 439.079 104.695C447.289 120.848 453.59 130.137 455.187 130.936C469.994 121.233 480.615 109.34 484.416 98.2608L471.311 72.4637C460.039 68.884 444.064 70.2597 427.379 76.2652H427.349Z" fill="black"/>
<path d="M482.524 92.8613L474.182 76.4423L490.586 69.9043L497.479 83.4833L482.524 92.8613Z" fill="#D4D6C8"/>
<path d="M482.524 93.6015C482.524 93.6015 482.39 93.6015 482.331 93.5719C482.124 93.5128 481.961 93.3796 481.873 93.2021L473.53 76.7831C473.441 76.6056 473.427 76.3837 473.5 76.1915C473.574 75.9992 473.722 75.8364 473.915 75.7625L490.319 69.2245C490.674 69.0913 491.073 69.2245 491.251 69.5795L498.144 83.1436C498.321 83.4839 498.203 83.898 497.878 84.1051L482.923 93.4832C482.805 93.5571 482.671 93.6015 482.524 93.6015ZM475.216 76.8275L482.819 91.7969L496.517 83.2028L490.23 70.8368L475.216 76.8275Z" fill="black"/>
<path d="M544.81 132.298L528.436 220.236H518.658L535.343 130.656H535.358C535.817 128.038 538.287 126.307 540.89 126.751C543.494 127.195 545.254 129.665 544.795 132.283H544.81V132.298Z" fill="#D4D6C8"/>
<path d="M528.422 220.99H518.644C518.422 220.99 518.215 220.886 518.082 220.723C517.949 220.561 517.89 220.339 517.92 220.117L534.605 130.537C534.605 130.537 534.634 130.434 534.649 130.389C535.241 127.475 538.051 125.552 541.01 126.041C543.968 126.543 545.965 129.324 545.536 132.268C545.536 132.327 545.536 132.386 545.536 132.445L529.161 220.383C529.102 220.738 528.792 220.99 528.437 220.99H528.422ZM519.532 219.511H527.801L544.042 132.327C544.042 132.327 544.042 132.224 544.042 132.179C544.427 129.975 542.947 127.875 540.743 127.505C538.539 127.12 536.439 128.614 536.069 130.803C536.069 130.863 536.04 130.907 536.025 130.966L519.532 219.511Z" fill="black"/>
<path d="M540.02 133.066C540.739 133.066 541.322 132.483 541.322 131.765C541.322 131.046 540.739 130.463 540.02 130.463C539.302 130.463 538.719 131.046 538.719 131.765C538.719 132.483 539.302 133.066 540.02 133.066Z" fill="#D4D6C8"/>
<path d="M540.02 133.805C538.896 133.805 537.979 132.888 537.979 131.764C537.979 130.64 538.896 129.723 540.02 129.723C541.144 129.723 542.061 130.64 542.061 131.764C542.061 132.888 541.144 133.805 540.02 133.805ZM540.02 131.187C539.709 131.187 539.458 131.439 539.458 131.749C539.458 132.06 539.709 132.311 540.02 132.311C540.33 132.311 540.582 132.06 540.582 131.749C540.582 131.439 540.33 131.187 540.02 131.187Z" fill="black"/>
</svg>
