<svg width="569" height="361" viewBox="0 0 569 361" fill="none" xmlns="http://www.w3.org/2000/svg">
<path d="M488.201 143.911C493.555 143.911 497.896 138.539 497.896 131.912C497.896 125.285 493.555 119.912 488.201 119.912C482.846 119.912 478.506 125.285 478.506 131.912C478.506 138.539 482.846 143.911 488.201 143.911Z" fill="#EEE4D9"/>
<path d="M488.201 144.781C482.38 144.781 477.652 139.012 477.652 131.929C477.652 124.845 482.38 119.076 488.201 119.076C494.021 119.076 498.749 124.845 498.749 131.929C498.749 139.012 494.021 144.781 488.201 144.781ZM488.201 120.783C483.319 120.783 479.359 125.784 479.359 131.929C479.359 138.073 483.319 143.074 488.201 143.074C493.082 143.074 497.042 138.073 497.042 131.929C497.042 125.784 493.082 120.783 488.201 120.783Z" fill="black"/>
<path d="M495.711 145.908C493.544 147.546 490.966 148.502 488.201 148.502C485.436 148.502 482.773 147.512 480.571 145.823C474.649 147.956 470.381 153.606 470.381 160.263V162.567H505.645V160.263C505.645 153.691 501.497 148.093 495.694 145.891L495.711 145.908Z" fill="#F9F8DE"/>
<path d="M505.662 163.42H470.398C469.92 163.42 469.545 163.045 469.545 162.567V160.263C469.545 153.452 473.863 147.325 480.298 145.003C480.571 144.901 480.878 144.952 481.1 145.123C485.316 148.366 490.932 148.4 495.199 145.208C495.438 145.037 495.745 144.986 496.018 145.089C502.3 147.461 506.516 153.555 506.516 160.246V162.55C506.516 163.028 506.14 163.403 505.662 163.403V163.42ZM471.252 161.713H504.809V160.263C504.809 154.425 501.224 149.1 495.831 146.864C491.154 150.141 485.077 150.107 480.452 146.778C474.939 148.946 471.252 154.323 471.252 160.263V161.713Z" fill="black"/>
<path d="M495.711 145.908C493.544 147.546 490.966 148.502 488.201 148.502C485.436 148.502 482.773 147.512 480.571 145.823C474.649 147.956 470.381 153.606 470.381 160.263V162.567H505.645V160.263C505.645 153.691 501.497 148.093 495.694 145.891L495.711 145.908Z" fill="#EEE4D9"/>
<path d="M505.662 163.42H470.398C469.92 163.42 469.545 163.045 469.545 162.567V160.263C469.545 153.452 473.863 147.325 480.298 145.003C480.571 144.901 480.878 144.952 481.1 145.123C485.316 148.366 490.932 148.4 495.199 145.208C495.438 145.037 495.745 144.986 496.018 145.089C502.3 147.461 506.516 153.555 506.516 160.246V162.55C506.516 163.028 506.14 163.403 505.662 163.403V163.42ZM471.252 161.713H504.809V160.263C504.809 154.425 501.224 149.1 495.831 146.864C491.154 150.141 485.077 150.107 480.452 146.778C474.939 148.946 471.252 154.323 471.252 160.263V161.713Z" fill="black"/>
<path d="M474.529 131.912C474.529 124.657 478.403 118.513 483.729 116.482C482.073 112.795 478.898 110.303 475.263 110.303C469.903 110.303 465.568 115.679 465.568 122.302C465.568 128.925 469.613 133.909 474.7 134.267C474.614 133.499 474.546 132.714 474.546 131.895L474.529 131.912Z" fill="#EEE4D9"/>
<path d="M474.682 135.138C474.682 135.138 474.648 135.138 474.614 135.138C469.05 134.728 464.697 129.112 464.697 122.319C464.697 115.526 469.425 109.466 475.246 109.466C479.103 109.466 482.636 112.027 484.497 116.14C484.599 116.362 484.599 116.601 484.497 116.823C484.412 117.045 484.224 117.215 484.019 117.301C478.933 119.247 475.365 125.272 475.365 131.929C475.365 132.611 475.416 133.328 475.519 134.199C475.553 134.455 475.468 134.711 475.297 134.882C475.143 135.052 474.904 135.138 474.682 135.138ZM475.246 111.173C470.364 111.173 466.404 116.174 466.404 122.319C466.404 127.781 469.545 132.372 473.727 133.277C473.692 132.799 473.675 132.355 473.675 131.912C473.675 124.811 477.209 118.564 482.568 116.055C480.93 113.017 478.199 111.173 475.263 111.173H475.246Z" fill="black"/>
<path d="M475.604 138.859C475.485 138.859 475.365 138.893 475.246 138.893C472.43 138.893 469.818 137.903 467.616 136.213C461.693 138.346 457.426 143.996 457.426 150.653V152.957H467.292C469.323 148.28 473.129 144.559 477.857 142.614C476.97 141.504 476.202 140.241 475.587 138.859H475.604Z" fill="#EEE4D9"/>
<path d="M467.309 153.811H457.443C456.965 153.811 456.59 153.435 456.59 152.957V150.653C456.59 143.843 460.908 137.715 467.343 135.394C467.616 135.291 467.923 135.342 468.145 135.513C470.279 137.152 472.737 138.022 475.246 138.022C475.28 138.022 475.553 137.988 475.587 137.988C475.963 137.988 476.253 138.176 476.389 138.5C476.97 139.797 477.687 141.009 478.54 142.085C478.711 142.289 478.762 142.58 478.694 142.836C478.625 143.092 478.438 143.313 478.199 143.416C473.693 145.276 470.023 148.878 468.094 153.299C467.958 153.606 467.65 153.811 467.309 153.811ZM458.297 152.104H466.763C468.777 147.768 472.208 144.321 476.56 142.272C476.014 141.487 475.519 140.634 475.092 139.746C472.412 139.712 469.801 138.824 467.514 137.186C462.001 139.371 458.314 144.73 458.314 150.67V152.121L458.297 152.104Z" fill="black"/>
<path d="M539.373 279.948C539.014 279.948 538.69 279.726 538.571 279.385C538.417 278.941 538.639 278.446 539.083 278.292C557.329 271.806 567.075 264.364 567.28 256.786C567.28 256.325 567.673 255.949 568.133 255.949H568.15C568.628 255.949 568.987 256.359 568.987 256.82C568.748 265.286 558.882 273.052 539.646 279.897C539.543 279.931 539.458 279.948 539.356 279.948H539.373Z" fill="#9E9E9E"/>
<path d="M467.668 214.217C467.668 214.217 467.565 214.217 467.514 214.217C454.849 211.878 441.194 209.711 426.925 207.782C426.464 207.713 426.14 207.287 426.191 206.826C426.259 206.365 426.669 206.024 427.147 206.092C441.45 208.021 455.139 210.188 467.821 212.544C468.282 212.629 468.589 213.073 468.504 213.534C468.436 213.944 468.077 214.234 467.668 214.234V214.217Z" fill="#9E9E9E"/>
<path d="M151.095 199.572C150.652 199.572 150.276 199.23 150.242 198.787C150.208 198.309 150.566 197.899 151.027 197.865C165.843 196.772 181.426 195.953 197.369 195.407C197.829 195.407 198.239 195.765 198.256 196.226C198.256 196.704 197.898 197.097 197.437 197.114C181.512 197.66 165.945 198.479 151.164 199.572C151.147 199.572 151.112 199.572 151.095 199.572Z" fill="#9E9E9E"/>
<path d="M324.905 303.537C311.199 303.537 297.22 303.349 283.036 302.957C207.217 300.891 136.092 293.432 82.7356 281.945C28.9864 270.372 -0.388694 255.949 0.00388456 241.322C0.225777 233.453 8.79423 226.165 25.5044 219.679C25.9482 219.508 26.4432 219.73 26.6139 220.174C26.7846 220.617 26.5627 221.112 26.1189 221.283C10.3475 227.411 1.8985 234.358 1.71075 241.39C1.33524 254.908 31.0005 269.075 83.094 280.289C136.348 291.76 207.371 299.201 283.07 301.267C391.08 304.22 491.581 295.207 539.083 278.309C539.526 278.139 540.021 278.378 540.175 278.821C540.329 279.265 540.107 279.76 539.663 279.914C497.486 294.917 417.452 303.554 324.905 303.554V303.537Z" fill="#9E9E9E"/>
<path d="M55.8699 214.37H48.189V141.794H54.5385L55.8699 214.37Z" fill="#FCFFED"/>
<path d="M55.8696 214.37L70.139 210.769L63.0043 165.349L55.8696 168.336V214.37Z" fill="#FCFFED"/>
<path d="M54.6406 147.256C54.6406 147.256 58.6176 208.925 68.5686 214.37L138.84 195.065C138.84 195.065 130.306 191.225 122.915 133.192L54.6406 147.239V147.256Z" fill="#FCFFED"/>
<path d="M131.45 127.883C131.45 127.883 137.851 193.649 158.896 186.395L89.8194 205.529C89.8194 205.529 62.8851 209.403 54.5386 141.794L131.45 127.9V127.883Z" fill="#FCFFED"/>
<path d="M54.5386 141.794L131.45 127.9C131.45 127.9 133.686 146.113 134.522 148.024L58.9252 165.81C58.9252 165.81 56.5697 158.658 54.5556 141.777L54.5386 141.794Z" fill="#B3A3F3"/>
<path d="M159.715 186.139C159.579 185.695 159.118 185.439 158.674 185.575L157.377 185.934C155.192 186.378 153.144 185.968 151.147 184.688C141.093 178.236 135.802 152.087 133.583 137.612C133.122 134.267 132.644 130.7 132.303 127.866V127.832C132.303 127.798 132.303 127.781 132.269 127.747C132.252 127.661 132.235 127.593 132.201 127.525C132.201 127.508 132.167 127.491 132.149 127.474C132.098 127.405 132.064 127.354 131.996 127.303C131.996 127.303 131.996 127.286 131.979 127.269C131.962 127.252 131.928 127.252 131.893 127.235C131.808 127.184 131.706 127.149 131.603 127.132C131.603 127.132 131.569 127.132 131.552 127.132C131.518 127.132 131.501 127.132 131.467 127.132H123.632L48.0523 141.043C48.0182 141.043 47.9841 141.077 47.9499 141.077C47.8987 141.077 47.8646 141.112 47.8134 141.129C47.7622 141.163 47.711 141.197 47.6598 141.231C47.6256 141.265 47.5915 141.282 47.5573 141.333C47.5232 141.385 47.4891 141.419 47.4549 141.47C47.4379 141.504 47.4037 141.555 47.3867 141.589C47.3696 141.641 47.3525 141.709 47.3525 141.777C47.3525 141.811 47.3354 141.845 47.3354 141.88V214.455C47.3354 214.933 47.711 215.309 48.1889 215.309H55.8698C55.8698 215.309 56.0063 215.309 56.0746 215.275L65.8037 212.817C66.5547 213.926 67.3399 214.746 68.1763 215.189C68.2957 215.258 68.4494 215.292 68.5859 215.292C68.6542 215.292 68.7395 215.292 68.8078 215.258L139.079 195.953C139.404 195.868 139.643 195.578 139.677 195.236C139.728 194.895 139.54 194.553 139.233 194.383C139.165 194.349 138.738 194.058 138.055 193.12L157.804 187.658C158.265 187.555 158.725 187.436 159.186 187.282C159.613 187.129 159.852 186.668 159.715 186.224V186.139ZM49.0423 213.517V142.648H53.702L54.9993 213.517H49.0423ZM55.4943 142.477L130.699 128.89C130.886 130.648 131.364 134.66 132.167 139.797C132.627 142.921 133.088 145.84 133.464 147.393L59.5566 164.786C57.9692 158.419 56.5866 151.045 55.4943 142.477ZM56.7232 213.261V176.631C58.4983 189.945 61.161 204.231 64.8991 211.195L56.7232 213.261ZM68.7054 213.431C62.5436 209.25 58.4471 179.755 56.5184 159.648C57.4059 163.881 58.0546 165.912 58.1058 166.066C58.1058 166.066 58.1058 166.066 58.1228 166.083C63.5336 187.163 71.1633 197.148 77.3421 201.876C82.5651 205.87 87.02 206.399 88.9829 206.399C89.5974 206.399 89.9558 206.348 90.0412 206.331L136.314 193.512C136.621 193.956 136.895 194.332 137.134 194.639L68.7054 213.431ZM89.6998 204.658C89.6998 204.658 84.5792 205.29 78.298 200.459C72.4434 195.936 65.2063 186.429 59.9662 166.441L133.839 149.048C136.741 163.42 141.879 180.745 150.225 186.104C150.993 186.599 151.778 186.975 152.564 187.265L89.6998 204.675V204.658Z" fill="black"/>
<path d="M143.381 184.619C143.381 184.619 135.563 184.227 129.06 156.9C129.009 156.678 128.872 156.49 128.685 156.371C128.497 156.251 128.258 156.217 128.036 156.268L100.607 162.823L71.5216 169.77C71.0608 169.872 70.7877 170.333 70.8901 170.794C71.112 171.733 76.3862 194.058 89.4266 201.091C89.5461 201.159 89.6997 201.193 89.8363 201.193C89.9046 201.193 89.9899 201.193 90.0582 201.159L143.637 186.292C144.046 186.173 144.302 185.78 144.234 185.353C144.166 184.927 143.807 184.619 143.381 184.619ZM130.357 188.204L118.614 191.464C116.992 190.081 115.508 188.596 114.159 187.043L125.834 183.988C127.182 185.524 128.685 186.958 130.357 188.204ZM104.669 195.339C102.808 194.075 101.102 192.556 99.5483 190.884L112.316 187.538C113.63 189.091 115.081 190.593 116.651 192.01L104.669 195.339ZM79.578 188.084L92.8574 184.944C93.9328 186.651 95.1276 188.34 96.4419 189.945L83.1795 193.427C81.8482 191.771 80.6534 189.962 79.578 188.101V188.084ZM75.7717 180.182L88.6586 177.177C89.5632 179.14 90.6556 181.257 91.9187 183.39L78.7246 186.514C77.581 184.363 76.591 182.196 75.7717 180.164V180.182ZM100.214 164.666C100.59 165.963 101.443 168.694 102.911 172.108L89.6656 175.198C88.1977 171.886 87.276 169.172 86.8493 167.875L100.214 164.683V164.666ZM132.61 173.73L122.472 176.136C121.294 174.054 120.321 171.954 119.519 169.975L130.255 167.483C131.04 169.855 131.825 171.92 132.593 173.73H132.61ZM120.713 176.546L108.646 179.413C107.349 177.28 106.273 175.198 105.369 173.269L117.812 170.367C118.597 172.33 119.553 174.429 120.713 176.546ZM104.635 171.681C103.15 168.285 102.262 165.554 101.887 164.257L114.91 161.15C115.217 162.516 115.917 165.332 117.197 168.78L104.652 171.698L104.635 171.681ZM103.628 173.678C104.515 175.607 105.591 177.69 106.871 179.84L93.6938 182.964C92.4137 180.847 91.3213 178.731 90.3825 176.768L103.611 173.678H103.628ZM94.6496 184.483L107.81 181.359C108.8 182.93 109.909 184.5 111.138 186.053L98.3023 189.416C96.971 187.845 95.7591 186.173 94.6667 184.483H94.6496ZM112.964 185.575C111.735 184.056 110.609 182.486 109.602 180.933L121.601 178.082C122.506 179.601 123.513 181.086 124.639 182.52L112.964 185.575ZM123.393 177.655L133.327 175.3C134.112 176.99 134.88 178.423 135.614 179.635L126.483 182.025C125.339 180.625 124.315 179.157 123.393 177.655ZM129.76 165.827L118.904 168.353C117.607 164.888 116.873 162.055 116.583 160.723L127.626 158.078C128.326 160.945 129.043 163.488 129.76 165.81V165.827ZM85.1936 168.234C85.5862 169.514 86.4908 172.228 87.9587 175.556L75.1573 178.543C73.9113 175.232 73.1261 172.501 72.7847 171.203L85.1936 168.234ZM89.9558 199.384C87.9075 198.223 86.0641 196.653 84.4085 194.809L97.6879 191.327C99.1728 192.983 100.811 194.536 102.569 195.885L89.9387 199.384H89.9558ZM132.508 187.572C130.75 186.395 129.162 184.995 127.746 183.459L136.621 181.137C138.158 183.322 139.557 184.585 140.684 185.319L132.508 187.589V187.572Z" fill="black"/>
<path d="M410.607 220.925L210.221 207.645C207.354 207.474 203.991 205.836 204.179 203.02L213.498 63.6712C213.686 60.9403 216.007 58.8408 218.79 58.892L415.642 62.2033C421.275 62.0668 423.016 65.3781 422.982 69.321L416.137 216.06C416.001 218.928 413.509 221.112 410.607 220.942V220.925Z" fill="#383838"/>
<path d="M410.948 221.795C410.811 221.795 410.692 221.795 410.555 221.795L210.17 208.499C208.343 208.379 205.851 207.679 204.4 206.024C203.615 205.136 203.257 204.078 203.325 202.968L212.645 63.62C212.849 60.4794 215.495 58.0386 218.687 58.0386H218.789L415.642 61.3499C418.253 61.2816 420.336 61.9473 421.752 63.3299C423.152 64.6953 423.852 66.7265 423.835 69.3209L416.99 216.094C416.922 217.699 416.222 219.166 415.01 220.242C413.884 221.249 412.45 221.795 410.948 221.795ZM410.658 220.088C411.853 220.174 412.996 219.764 413.867 218.979C414.72 218.211 415.232 217.169 415.283 216.026L422.128 69.2868C422.128 67.1874 421.616 65.5829 420.558 64.5588C419.499 63.5176 417.827 62.9885 415.659 63.0738L218.755 59.7625C216.417 59.7625 214.488 61.4694 214.334 63.7566L205.015 203.088C204.964 203.754 205.186 204.368 205.663 204.914C206.568 205.955 208.377 206.689 210.255 206.809L410.641 220.105L410.658 220.088Z" fill="black"/>
<path d="M407.159 220.925L208.992 207.56C206.159 207.389 203.991 205.836 204.179 203.02L213.345 63.6712C213.515 60.9403 215.803 58.8408 218.534 58.892L414.345 62.2375C417.23 62.2887 419.5 64.7124 419.38 67.597L412.604 216.06C412.467 218.928 410.027 221.112 407.159 220.942V220.925Z" fill="#757575"/>
<path d="M407.5 221.795C407.364 221.795 407.244 221.795 407.108 221.795L208.941 208.43C207.029 208.311 205.442 207.628 204.452 206.502C203.633 205.563 203.24 204.351 203.325 202.985L212.491 63.62C212.696 60.4794 215.308 58.0386 218.448 58.0386H218.551L414.362 61.384C415.984 61.4182 417.503 62.0838 418.612 63.2616C419.722 64.4564 420.302 65.9926 420.234 67.6311L413.457 216.094C413.389 217.716 412.672 219.201 411.477 220.276C410.368 221.266 408.968 221.795 407.5 221.795ZM407.227 220.088C408.371 220.139 409.48 219.781 410.351 219.013C411.204 218.245 411.716 217.187 411.768 216.026L418.544 67.5629C418.595 66.4022 418.185 65.2927 417.383 64.4393C416.581 63.5859 415.506 63.108 414.345 63.0909L218.534 59.7454H218.465C216.212 59.7454 214.352 61.4864 214.215 63.7224L205.049 203.054C204.981 203.975 205.22 204.743 205.749 205.341C206.432 206.126 207.61 206.604 209.078 206.689L407.244 220.054L407.227 220.088Z" fill="black"/>
<path d="M407.347 211.298L209.436 198.821L218.346 64.0637L414.123 68.1431L407.347 211.298Z" fill="#FFFEF3"/>
<path d="M217.168 81.9687L218.346 64.0637L414.123 68.1431L413.218 87.3112L217.168 81.9687Z" fill="#FFF476"/>
<path d="M217.168 81.9688L262.571 83.1977L255.897 201.739L209.436 198.821L217.168 81.9688Z" fill="#FFF476"/>
<path d="M413.389 88.1648L216.895 82.8223C216.895 81.8324 216.895 81.7982 216.912 81.1155L413.406 86.458C413.406 87.1407 413.406 87.3285 413.389 88.1648Z" fill="#A5A5A5"/>
<path d="M255.009 201.739L261.717 84.0169C261.751 83.5561 262.11 83.1635 262.622 83.2147C263.1 83.2488 263.458 83.6414 263.424 84.1193L256.716 201.842C255.112 201.756 256.136 201.808 255.009 201.739Z" fill="#A5A5A5"/>
<path d="M125.697 238.215C125.697 236.73 127.404 238.915 128.838 239.034C132.968 239.359 350.064 254.396 350.064 254.396L407.978 220.31C409.702 220.31 409.702 220.788 409.702 223.365C409.702 225.584 408.405 226.83 407.159 227.65L353.188 261.872C351.396 262.948 349.313 263.425 347.214 263.272L127.251 246.357C126.414 246.289 125.68 245.657 125.68 244.821V238.198L125.697 238.215Z" fill="#383838"/>
<path d="M347.982 264.16C347.709 264.16 347.436 264.16 347.163 264.125L127.182 247.21C125.868 247.108 124.827 246.067 124.827 244.821V238.198C124.827 237.447 125.151 237.123 125.441 236.969C126.107 236.611 126.772 237.02 127.472 237.481C127.933 237.771 128.496 238.147 128.889 238.164C132.9 238.488 341.138 252.911 349.843 253.509L407.534 219.559C407.671 219.474 407.825 219.44 407.961 219.44C410.539 219.44 410.539 220.822 410.539 223.348C410.539 226.387 408.354 227.855 407.62 228.35L353.632 262.589C351.891 263.63 349.945 264.16 347.965 264.16H347.982ZM126.551 238.915V244.838C126.551 245.213 126.96 245.504 127.336 245.521L347.299 262.436C349.228 262.572 351.106 262.128 352.761 261.155L406.715 226.933C407.705 226.267 408.849 225.26 408.849 223.365C408.849 222.41 408.849 221.42 408.712 221.232C408.712 221.232 408.61 221.181 408.2 221.164L350.491 255.13C350.337 255.216 350.15 255.267 349.996 255.25C347.828 255.096 132.832 240.212 128.752 239.888C127.933 239.82 127.165 239.325 126.551 238.932V238.915Z" fill="black"/>
<path d="M215.547 241.8C215.547 241.8 215.598 244.906 215.547 246.084C215.495 247.261 216.639 248.883 218.636 249.071C220.633 249.259 246.987 251.068 246.987 251.068C246.987 251.068 250.64 251.546 250.725 248.217C250.81 244.889 250.725 243.233 250.725 243.233L215.547 241.782V241.8Z" fill="#7F7F7F"/>
<path d="M247.431 251.938C247.106 251.938 246.902 251.921 246.867 251.904C245.843 251.836 220.531 250.112 218.551 249.924C216.161 249.702 214.625 247.739 214.693 246.049C214.744 244.906 214.693 241.834 214.693 241.799C214.693 241.56 214.778 241.339 214.949 241.168C215.12 240.997 215.359 240.912 215.581 240.929L250.759 242.38C251.203 242.397 251.544 242.738 251.578 243.182C251.578 243.25 251.681 244.923 251.578 248.234C251.544 249.412 251.135 250.334 250.384 250.982C249.428 251.802 248.165 251.921 247.431 251.921V251.938ZM216.417 242.687C216.417 243.711 216.434 245.316 216.417 246.118C216.383 246.783 217.134 248.064 218.721 248.217C220.684 248.405 246.782 250.18 247.055 250.214C247.482 250.265 248.626 250.265 249.291 249.685C249.667 249.361 249.872 248.866 249.889 248.183C249.94 246.22 249.94 244.838 249.923 244.052L216.434 242.687H216.417Z" fill="black"/>
<path d="M126.755 236.372L201.055 206.28C202.506 205.699 204.076 205.443 205.629 205.563L405.196 219.832C409.685 220.122 409.719 220.464 408.268 221.317L353.171 254.294C351.379 255.369 349.296 255.847 347.197 255.693L127.25 239.649C125.441 239.512 125.066 237.037 126.738 236.372H126.755Z" fill="#757575"/>
<path d="M347.982 256.564C347.709 256.564 347.436 256.564 347.163 256.53L127.216 240.485C126.005 240.4 125.066 239.529 124.878 238.334C124.69 237.14 125.322 236.013 126.448 235.569L200.748 205.477C202.318 204.846 204.025 204.573 205.698 204.692L405.264 218.962C408.644 219.166 409.736 219.388 409.958 220.31C410.163 221.18 409.293 221.693 408.729 222.034L353.632 255.011C351.908 256.035 349.962 256.564 347.982 256.564ZM127.08 237.157C126.499 237.396 126.534 237.925 126.551 238.078C126.568 238.232 126.704 238.744 127.336 238.795L347.282 254.84C349.211 254.976 351.089 254.533 352.761 253.56L407.381 220.873C406.869 220.805 406.169 220.754 405.162 220.686L205.579 206.416C204.162 206.314 202.711 206.536 201.38 207.082L127.08 237.174V237.157Z" fill="black"/>
<path d="M189.568 241.799L215.546 229.356L310.09 236.662L290.461 249.071L189.568 241.799Z" fill="#565656"/>
<path d="M290.461 249.924C290.461 249.924 290.427 249.924 290.392 249.924L189.5 242.653C189.107 242.619 188.8 242.346 188.715 241.953C188.646 241.577 188.834 241.185 189.192 241.031L215.171 228.588C215.307 228.52 215.461 228.503 215.598 228.503L310.141 235.808C310.499 235.842 310.824 236.098 310.909 236.457C310.994 236.815 310.841 237.191 310.533 237.379L290.904 249.805C290.768 249.89 290.614 249.941 290.444 249.941L290.461 249.924ZM192.828 241.168L290.239 248.2L307.461 237.31L215.7 230.227L192.828 241.185V241.168Z" fill="black"/>
<path d="M185.779 223.348L213.84 210.769L378.091 222.102L352.061 236.747L185.779 223.348Z" fill="#565656"/>
<path d="M378.142 221.249L213.908 209.915C213.771 209.915 213.635 209.915 213.498 209.984L185.437 222.563C185.079 222.717 184.874 223.109 184.942 223.485C185.011 223.86 185.335 224.168 185.71 224.185L351.993 237.584C351.993 237.584 352.044 237.584 352.061 237.584C352.215 237.584 352.351 237.549 352.488 237.481L378.518 222.836C378.842 222.648 379.013 222.273 378.927 221.897C378.842 221.539 378.535 221.266 378.159 221.232L378.142 221.249ZM302.938 223.024L312.052 218.398L339.311 220.276L330.145 224.936L302.921 223.024H302.938ZM282.746 225.84L287.149 223.69C287.149 223.69 287.2 223.656 287.218 223.638L321.782 226.062L317.241 228.366L282.746 225.84ZM283.855 223.399L279.349 225.601L250.213 223.468L254.48 221.351L283.855 223.399ZM213.993 211.622L233.605 212.971L229.508 215.275C229.099 215.497 228.945 216.026 229.184 216.436C229.338 216.709 229.628 216.879 229.935 216.879C230.072 216.879 230.225 216.845 230.345 216.777L236.268 213.466C236.387 213.397 236.472 213.312 236.541 213.192L308.724 218.176L299.609 222.802L263.953 220.31L267.793 218.364C267.793 218.364 267.845 218.313 267.879 218.296C267.93 218.262 267.981 218.228 268.015 218.176C268.049 218.142 268.084 218.091 268.101 218.057C268.135 218.006 268.152 217.972 268.186 217.92C268.203 217.869 268.22 217.818 268.22 217.767C268.22 217.733 268.237 217.699 268.254 217.664C268.254 217.647 268.254 217.63 268.254 217.613C268.254 217.562 268.254 217.494 268.237 217.443C268.237 217.391 268.22 217.34 268.186 217.289C268.186 217.272 268.186 217.255 268.186 217.238C268.186 217.204 268.135 217.187 268.118 217.152C268.084 217.101 268.049 217.05 267.998 217.016C267.964 216.982 267.93 216.948 267.879 216.93C267.828 216.896 267.776 216.862 267.725 216.845C267.674 216.828 267.64 216.811 267.589 216.811C267.554 216.811 267.52 216.777 267.469 216.777L249.888 215.633C249.462 215.599 249.018 215.958 248.984 216.436C248.95 216.913 249.308 217.306 249.786 217.34L264.26 218.279L260.659 220.105L243.18 218.876L246.287 217.187C246.697 216.965 246.85 216.453 246.628 216.026C246.406 215.616 245.877 215.463 245.468 215.684L240.006 218.654L222.305 217.408C221.845 217.374 221.435 217.733 221.401 218.194C221.367 218.671 221.725 219.064 222.186 219.098L251.134 221.129L247.345 223.007C247.226 223.058 247.14 223.161 247.055 223.246L237.326 222.529C236.899 222.495 236.455 222.853 236.404 223.314C236.37 223.792 236.728 224.185 237.189 224.236L297.015 228.605L292.15 231.08L227.597 225.874L230.567 224.543C230.993 224.355 231.181 223.843 230.993 223.417C230.806 222.99 230.294 222.785 229.867 222.99L224.064 225.601L189.124 222.785L213.959 211.656L213.993 211.622ZM351.856 235.86L295.428 231.319L300.326 228.827L317.275 230.073C317.275 230.073 317.344 230.107 317.378 230.107C317.395 230.107 317.429 230.107 317.446 230.107L343.766 232.036C343.766 232.036 343.8 232.036 343.834 232.036C344.278 232.036 344.653 231.695 344.688 231.251C344.722 230.773 344.363 230.381 343.902 230.329L320.57 228.623L325.127 226.301L356.328 228.486C356.328 228.486 356.363 228.486 356.397 228.486C356.84 228.486 357.216 228.145 357.25 227.701C357.284 227.223 356.926 226.83 356.465 226.796L333.508 225.192L342.486 220.634C342.486 220.634 342.571 220.566 342.605 220.532L375.206 222.785L351.891 235.911L351.856 235.86Z" fill="black"/>
<path d="M211.228 217.869L205.066 220.993C204.64 221.198 204.486 221.727 204.691 222.136C204.845 222.427 205.135 222.597 205.459 222.597C205.596 222.597 205.715 222.563 205.852 222.512L212.013 219.388C212.44 219.183 212.594 218.654 212.389 218.245C212.184 217.818 211.655 217.664 211.245 217.869H211.228Z" fill="black"/>
<path d="M223.04 215.241C222.818 214.831 222.289 214.677 221.879 214.899L215.615 218.364C215.205 218.586 215.052 219.115 215.274 219.525C215.427 219.815 215.717 219.969 216.025 219.969C216.161 219.969 216.315 219.935 216.434 219.866L222.698 216.401C223.108 216.179 223.262 215.65 223.04 215.241Z" fill="black"/>
<path d="M375.65 107.657L304.184 105.353C303.211 105.319 302.477 104.499 302.528 103.527L302.733 100.574C302.801 99.652 303.57 98.9522 304.491 98.9863L375.924 101.376C376.879 101.41 377.63 102.229 377.562 103.185L377.374 106.036C377.323 106.957 376.538 107.657 375.616 107.64L375.65 107.657Z" fill="#A5A5A5"/>
<path d="M354.144 127.713L347.862 127.542L348.204 121.193L354.451 121.415L354.144 127.713Z" fill="#A5A5A5"/>
<path d="M353.308 144.491L347.026 144.338L347.368 137.988L353.615 138.193L353.308 144.491Z" fill="#A5A5A5"/>
<path d="M352.505 161.287L346.224 161.116L346.565 154.767L352.813 154.988L352.505 161.287Z" fill="#A5A5A5"/>
<path d="M351.635 178.082L345.354 177.912L345.678 171.562L351.942 171.784L351.635 178.082Z" fill="#A5A5A5"/>
<path d="M312.548 122.746L299.661 147.7L276.26 133.362C280.971 124.982 289.693 119.349 299.661 119.349C304.321 119.349 308.707 120.578 312.548 122.746Z" fill="#586BF8"/>
<path d="M326.783 147.7C326.783 161.389 317.514 172.808 305.157 175.471C303.381 175.846 301.538 176.051 299.66 176.051C298.773 176.051 297.902 176 297.032 175.915C293.601 175.573 290.341 174.549 287.388 172.962C286.842 172.689 286.296 172.364 285.767 172.04C283.445 170.589 281.363 168.78 279.554 166.715C277.778 164.666 276.276 162.345 275.15 159.819L299.66 147.7L312.547 122.746C321.03 127.542 326.783 136.913 326.783 147.7Z" fill="#B3A3F3"/>
<path d="M299.661 147.7L275.15 159.819C274.962 159.426 274.792 159.034 274.638 158.641C273.29 155.279 272.539 151.575 272.539 147.7C272.539 142.46 273.904 137.561 276.26 133.363L299.661 147.7Z" fill="#8F7DF4"/>
<path d="M400.792 229.664C400.519 229.664 400.229 229.527 400.075 229.271C399.819 228.878 399.939 228.349 400.331 228.093L403.404 226.13C403.796 225.874 404.325 225.994 404.581 226.386C404.837 226.779 404.718 227.308 404.325 227.564L401.253 229.527C401.116 229.612 400.946 229.664 400.792 229.664Z" fill="black"/>
<path d="M396.525 232.412C396.252 232.412 395.962 232.275 395.808 232.019C395.552 231.627 395.672 231.097 396.064 230.841L397.873 229.681C398.266 229.425 398.795 229.544 399.051 229.937C399.307 230.329 399.188 230.858 398.795 231.114L396.986 232.275C396.849 232.36 396.679 232.412 396.525 232.412Z" fill="black"/>
<path d="M387.189 238.386C386.915 238.386 386.625 238.249 386.472 237.993C386.216 237.601 386.335 237.071 386.728 236.815L393.538 232.463C393.931 232.207 394.46 232.326 394.716 232.719C394.972 233.112 394.852 233.641 394.46 233.897L387.649 238.249C387.513 238.335 387.342 238.386 387.189 238.386Z" fill="black"/>
<path d="M391.387 122.404L365.809 121.769C364.744 121.743 363.859 122.585 363.833 123.65L363.774 126.022C363.747 127.087 364.589 127.971 365.654 127.998L391.232 128.632C392.297 128.658 393.182 127.816 393.208 126.751L393.267 124.379C393.293 123.315 392.451 122.43 391.387 122.404Z" fill="#A5A5A5"/>
<path d="M390.379 139.562L364.813 138.575C363.748 138.534 362.852 139.364 362.811 140.428L362.718 142.833C362.677 143.897 363.507 144.794 364.571 144.835L390.138 145.821C391.202 145.862 392.098 145.033 392.14 143.968L392.232 141.563C392.273 140.499 391.444 139.603 390.379 139.562Z" fill="#A5A5A5"/>
<path d="M389.525 156.49L363.962 155.396C362.898 155.35 361.998 156.176 361.953 157.24L361.85 159.645C361.804 160.709 362.63 161.609 363.694 161.654L389.257 162.748C390.321 162.794 391.221 161.968 391.266 160.904L391.369 158.499C391.415 157.435 390.589 156.535 389.525 156.49Z" fill="#A5A5A5"/>
<path d="M388.655 173.284L363.092 172.19C362.028 172.145 361.128 172.97 361.083 174.035L360.98 176.439C360.934 177.503 361.76 178.403 362.824 178.449L388.387 179.542C389.451 179.588 390.351 178.762 390.396 177.698L390.499 175.293C390.545 174.229 389.719 173.329 388.655 173.284Z" fill="#A5A5A5"/>
<path d="M250.056 140.472L223.646 139.236C222.817 139.197 222.114 139.837 222.075 140.666L222.036 141.501C221.997 142.33 222.638 143.033 223.466 143.072L249.877 144.308C250.705 144.347 251.409 143.707 251.447 142.878L251.486 142.043C251.525 141.214 250.885 140.511 250.056 140.472Z" fill="#A5A5A5"/>
<path d="M240.202 151.554L222.862 150.742C222.175 150.71 221.592 151.241 221.559 151.928L221.496 153.275C221.464 153.963 221.995 154.546 222.683 154.578L240.023 155.39C240.71 155.422 241.293 154.891 241.325 154.204L241.389 152.857C241.421 152.169 240.89 151.586 240.202 151.554Z" fill="#A5A5A5"/>
<path d="M242.617 163.449L222.378 162.501C221.644 162.467 221.02 163.034 220.986 163.769L220.931 164.945C220.897 165.68 221.464 166.303 222.199 166.337L242.437 167.285C243.171 167.319 243.795 166.752 243.829 166.017L243.884 164.841C243.919 164.106 243.351 163.483 242.617 163.449Z" fill="#A5A5A5"/>
<path d="M237.336 174.182L221.514 173.441C220.855 173.41 220.295 173.919 220.264 174.579L220.197 176.028C220.166 176.687 220.675 177.246 221.334 177.277L237.157 178.018C237.816 178.049 238.375 177.539 238.406 176.88L238.474 175.431C238.505 174.772 237.995 174.212 237.336 174.182Z" fill="#A5A5A5"/>
<path d="M236.626 107.759C235.431 107.708 234.51 106.65 234.578 105.421C234.646 104.192 235.67 103.202 236.865 103.236C238.06 103.27 238.999 104.329 238.93 105.592C238.93 105.643 238.93 105.694 238.93 105.745L240.808 105.814C240.808 105.814 240.808 105.711 240.808 105.66C240.927 103.322 239.204 101.376 236.968 101.308C234.732 101.239 232.871 103.066 232.752 105.353C232.632 107.64 234.322 109.586 236.524 109.688L254.19 110.508L254.309 108.51L236.626 107.759Z" fill="#F4322E"/>
<path d="M236.473 110.883C233.639 110.747 231.489 108.254 231.625 105.302C231.762 102.349 234.185 100.01 237.036 100.096C239.92 100.164 242.156 102.69 241.986 105.694C241.986 105.745 241.986 105.797 241.986 105.848L243.88 105.916C243.88 105.916 243.88 105.814 243.88 105.762C244.102 101.666 241.047 98.2352 237.121 98.1499C233.264 98.0645 230.004 101.256 229.799 105.233C229.594 109.21 232.513 112.59 236.336 112.795L253.968 113.734L254.087 111.754L241.201 111.122L236.421 110.883H236.473Z" fill="#F4322E"/>
<path d="M228.331 97.9621L226.556 97.9279L223.961 97.8767L223.876 99.7543L226.453 99.8225L225.856 112.231L227.631 112.334L228.246 99.8567L228.331 97.9621Z" fill="#F4322E"/>
<path d="M221.913 102.69L223.722 102.758L223.279 112.095L225.02 112.197L225.48 102.81L225.566 100.932L221.998 100.83L221.913 102.69Z" fill="#F4322E"/>
<path d="M535.618 259.363C536.215 259.517 539.936 261.309 548.01 255.335H555.4L552.652 202.712C552.652 202.712 552.464 197.114 545.159 196.841L487.228 187.931C487.228 187.931 484.344 187.641 482.483 187.931C480.64 188.221 477.653 189.928 476.799 192.01C475.946 194.092 475.075 210.069 475.075 211.503C475.075 212.407 475.621 213.329 476.424 214.233L476.355 215.445L475.075 238.966C475.075 238.966 474.649 243.899 478.557 245.111C482.466 246.323 537.086 259.756 537.086 259.756C537.086 259.756 541.353 260.114 541.848 256.478C542.343 252.843 543.111 212.407 543.111 212.407" fill="#423F47"/>
<path d="M537.888 260.575C537.051 260.575 536.266 260.456 535.532 260.217L479.172 246.118C479.069 246.118 475.314 245.418 474.734 242.312C474.239 239.734 474.256 238.471 474.341 236.986L475.502 215.565L476.611 215.633C475.263 214.336 474.222 212.954 474.222 211.486C474.222 210.359 475.058 193.99 475.997 191.669C477.021 189.177 480.401 187.368 482.346 187.077C484.275 186.787 487.177 187.077 487.296 187.077L545.278 196.004C553.181 196.312 553.488 202.627 553.488 202.695L556.237 255.301C556.237 255.54 556.168 255.762 555.998 255.932C555.844 256.103 555.605 256.205 555.383 256.205H548.265C544.271 259.124 540.789 260.592 537.854 260.592L537.888 260.575ZM477.192 216.145L476.048 237.071C475.98 238.283 475.929 239.427 476.406 241.987C476.782 243.933 479.496 244.445 479.53 244.445L535.839 258.51C535.839 258.51 536.044 258.561 536.044 258.578C539.577 259.704 544.237 257.059 547.497 254.635C547.651 254.533 547.822 254.464 548.009 254.464H554.513L551.816 202.729C551.816 202.525 551.526 197.899 545.142 197.66L487.109 188.733C487.109 188.733 484.326 188.477 482.637 188.733C481.083 188.972 478.352 190.474 477.601 192.283C476.833 194.144 475.946 209.796 475.946 211.451C475.946 212.988 478.489 215.019 480.349 216.504L481.066 217.067C488.935 223.468 498.852 231.524 500.815 233.112C510.356 230.364 534.03 223.468 535.891 222.495C537.529 221.641 537.7 218.296 537.837 215.872C537.854 215.48 537.871 215.104 537.905 214.763C537.939 214.217 537.956 213.517 537.99 212.715C538.075 209.369 538.212 204.778 539.799 202.798C541.523 200.664 544.049 199.23 546.405 199.025C547.907 198.889 549.238 199.299 550.228 200.186C550.587 200.493 550.604 201.04 550.297 201.398C549.989 201.756 549.443 201.774 549.085 201.466C548.283 200.749 547.258 200.681 546.542 200.732C544.664 200.886 542.53 202.115 541.131 203.873C539.902 205.392 539.765 210.001 539.697 212.766C539.68 213.585 539.646 214.302 539.612 214.882C539.595 215.224 539.56 215.582 539.543 215.958C539.39 218.808 539.185 222.717 536.676 224.014C534.252 225.277 502.231 234.494 500.866 234.887C500.593 234.955 500.303 234.904 500.098 234.733C500.098 234.733 488.764 225.533 479.991 218.398L479.291 217.835C478.608 217.289 477.891 216.709 477.226 216.111L477.192 216.145Z" fill="black"/>
<path d="M544.118 207.645C544.118 207.645 544.084 207.645 544.066 207.645C543.384 207.594 539.646 206.928 539.236 206.843C538.775 206.757 538.468 206.314 538.553 205.853C538.639 205.392 539.082 205.085 539.543 205.17C541.114 205.46 543.742 205.904 544.203 205.938C545.227 205.853 551.304 203.685 551.901 202.371C552.089 201.944 552.601 201.756 553.028 201.944C553.454 202.132 553.642 202.644 553.454 203.071C552.43 205.358 545.313 207.645 544.135 207.645H544.118Z" fill="black"/>
<path d="M528.295 203.566C528.295 203.566 528.193 203.566 528.142 203.566L481.954 195.134C481.493 195.048 481.186 194.605 481.271 194.144C481.356 193.683 481.8 193.376 482.261 193.461L528.449 201.893C528.91 201.978 529.217 202.422 529.132 202.883C529.063 203.293 528.705 203.583 528.295 203.583V203.566Z" fill="black"/>
<path d="M548.487 252.109C548.009 252.109 547.634 251.733 547.634 251.255L547.531 219.388C547.531 218.91 547.907 218.535 548.385 218.535C548.863 218.535 549.238 218.91 549.238 219.388L549.341 251.255C549.341 251.733 548.965 252.109 548.487 252.109Z" fill="black"/>
<path d="M505.15 242.158L497.265 240.468L497.179 228.264L506.055 229.305L505.15 242.158Z" fill="#C9C9C9"/>
<path d="M505.15 243.011C505.15 243.011 505.031 243.011 504.979 242.994L497.094 241.305C496.701 241.219 496.428 240.878 496.411 240.468L496.326 228.264C496.326 228.025 496.428 227.786 496.616 227.615C496.804 227.445 497.06 227.376 497.282 227.411L506.157 228.452C506.618 228.503 506.942 228.913 506.908 229.356L506.004 242.209C505.987 242.448 505.867 242.687 505.662 242.824C505.509 242.943 505.338 242.994 505.15 242.994V243.011ZM498.118 239.785L504.365 241.117L505.15 230.056L498.033 229.22L498.101 239.768L498.118 239.785Z" fill="black"/>
<path d="M505.696 235.228C505.696 235.228 505.611 235.228 505.56 235.228L497.042 233.88C496.582 233.811 496.257 233.367 496.325 232.907C496.394 232.446 496.838 232.121 497.298 232.19L505.816 233.538C506.276 233.606 506.601 234.05 506.533 234.511C506.464 234.938 506.106 235.228 505.696 235.228Z" fill="black"/>
<path d="M504.587 192.659L498.903 194.263C498.903 194.263 498.869 187.436 502.214 185.712C504.962 184.312 511.022 183.561 512.421 183.561C512.421 183.561 505.201 185.49 504.587 192.642V192.659Z" fill="#423F47"/>
<path d="M498.886 195.117C498.698 195.117 498.527 195.065 498.374 194.946C498.169 194.792 498.032 194.536 498.032 194.263C498.032 193.956 498.032 186.873 501.821 184.944C504.706 183.459 510.8 182.708 512.404 182.708C512.78 182.708 513.206 183.015 513.257 183.442C513.309 183.868 513.053 184.261 512.643 184.38C512.37 184.449 505.986 186.258 505.423 192.71C505.389 193.068 505.15 193.359 504.808 193.461L499.125 195.065C499.125 195.065 498.971 195.1 498.886 195.1V195.117ZM507.983 184.944C506.003 185.302 503.887 185.814 502.59 186.48C500.627 187.487 499.944 190.969 499.79 193.12L503.801 191.976C504.279 188.596 506.14 186.36 508 184.944H507.983Z" fill="black"/>
<path d="M522.355 197.95L528.295 195.953C528.295 195.953 528.62 190.269 525.871 187.624C523.123 184.978 520.188 184.5 514.367 183.783C509.776 183.22 502.214 182.435 499.825 188.87C499.825 188.87 501.054 186.053 503.563 185.524C507.096 184.79 516.842 185.797 520.136 188.887C523.089 191.652 522.372 197.95 522.372 197.95H522.355Z" fill="#423F47"/>
<path d="M522.355 198.804C522.168 198.804 521.98 198.735 521.826 198.616C521.604 198.428 521.485 198.155 521.519 197.865C521.519 197.814 522.134 191.959 519.539 189.518C516.535 186.685 507.079 185.678 503.734 186.378C501.702 186.804 500.61 189.211 500.61 189.228C500.422 189.655 499.944 189.842 499.501 189.672C499.074 189.501 498.852 189.023 499.023 188.579C501.702 181.359 510.339 182.435 514.47 182.947C520.324 183.664 523.533 184.176 526.469 187.009C529.473 189.911 529.166 195.765 529.166 196.004C529.149 196.346 528.91 196.653 528.585 196.772L522.646 198.769C522.56 198.804 522.458 198.821 522.373 198.821L522.355 198.804ZM506.96 184.449C511.534 184.534 518.003 185.729 520.7 188.255C523.089 190.491 523.328 194.622 523.277 196.738L527.442 195.339C527.442 193.905 527.22 190.133 525.257 188.238C522.714 185.78 519.88 185.336 514.231 184.637C512.285 184.398 509.52 184.056 506.942 184.449H506.96Z" fill="black"/>
</svg>
