<svg width="96" height="96" viewBox="0 0 96 96" fill="none" xmlns="http://www.w3.org/2000/svg">
<path d="M63.4313 76.6827C63.8835 76.799 66.6998 78.1554 72.8105 73.6338H78.4044L76.3244 33.8049C76.3244 33.8049 76.1823 29.5675 70.653 29.3608L26.8063 22.6171C26.8063 22.6171 24.623 22.3975 23.2149 22.6171C21.8196 22.8368 19.5588 24.1286 18.9128 25.7048C18.2669 27.2809 17.608 39.3729 17.608 40.4581C17.608 41.1428 18.0214 41.8405 18.6286 42.5252L18.5769 43.4424L17.608 61.2446C17.608 61.2446 17.2851 64.9782 20.2435 65.8954C23.2019 66.8127 64.5424 76.9798 64.5424 76.9798C64.5424 76.9798 67.7721 77.2511 68.1468 74.4994C68.5214 71.7477 69.1027 41.1428 69.1027 41.1428" fill="#423F47"/>
<path d="M65.1484 77.5994C64.5154 77.5994 63.9211 77.5089 63.3656 77.3281L20.7074 66.6571C20.6299 66.6571 17.7878 66.1274 17.3485 63.7762C16.9739 61.8254 16.9868 60.8694 17.0514 59.7455L17.9299 43.5323L18.7696 43.584C17.749 42.6021 16.9609 41.5557 16.9609 40.4447C16.9609 39.592 17.594 27.2028 18.3045 25.4458C19.0796 23.5597 21.6376 22.1903 23.1103 21.9707C24.5702 21.751 26.7664 21.9707 26.8568 21.9707L70.7423 28.7272C76.7237 28.9598 76.9563 33.7398 76.9563 33.7914L79.0362 73.6074C79.0362 73.7883 78.9845 73.9563 78.8553 74.0854C78.7391 74.2146 78.5582 74.2921 78.3903 74.2921H73.0031C69.9801 76.5013 67.3446 77.6123 65.1226 77.6123L65.1484 77.5994ZM19.2089 43.9715L18.3433 59.8101C18.2916 60.7273 18.2528 61.5929 18.6146 63.5307C18.8988 65.0035 20.9529 65.391 20.9787 65.391L63.5981 76.0362C63.5981 76.0362 63.7532 76.075 63.7532 76.0879C66.4274 76.9405 69.9542 74.9381 72.4218 73.1036C72.538 73.0261 72.6672 72.9744 72.8093 72.9744H77.7314L75.6902 33.8173C75.6902 33.6622 75.4706 30.1612 70.6389 29.9804L26.7147 23.2238C26.7147 23.2238 24.6089 23.03 23.33 23.2238C22.1544 23.4047 20.0873 24.5415 19.5189 25.9109C18.9375 27.3191 18.2658 39.1657 18.2658 40.4188C18.2658 41.5815 20.1907 43.1189 21.5989 44.2428L22.1414 44.6691C28.097 49.5137 35.6029 55.6114 37.0886 56.8129C44.3102 54.733 62.2287 49.5137 63.6369 48.7773C64.8771 48.1314 65.0063 45.5993 65.1097 43.7648C65.1226 43.4677 65.1355 43.1835 65.1613 42.9251C65.1872 42.5117 65.2001 41.982 65.2259 41.3748C65.2905 38.8427 65.3939 35.3675 66.5953 33.869C67.9001 32.2541 69.8121 31.1689 71.5949 31.0139C72.7318 30.9105 73.7394 31.2206 74.4887 31.8924C74.76 32.1249 74.773 32.5383 74.5404 32.8096C74.3079 33.0809 73.8945 33.0938 73.6232 32.8613C73.016 32.3187 72.2409 32.267 71.6983 32.3058C70.2772 32.422 68.6623 33.3522 67.603 34.6828C66.6728 35.8326 66.5695 39.3207 66.5178 41.4136C66.5049 42.0337 66.4791 42.5763 66.4532 43.0155C66.4403 43.2739 66.4145 43.5452 66.4015 43.8294C66.2853 45.9869 66.1303 48.9453 64.2312 49.9271C62.3967 50.8831 38.1609 57.8593 37.1273 58.1565C36.9206 58.2081 36.701 58.1694 36.546 58.0402C36.546 58.0402 27.9678 51.0769 21.3275 45.6768L20.7978 45.2505C20.2811 44.8371 19.7385 44.3978 19.2347 43.9457L19.2089 43.9715Z" fill="black"/>
<path d="M69.863 37.5379C69.863 37.5379 69.8371 37.5379 69.8242 37.5379C69.3075 37.4992 66.4782 36.9953 66.1682 36.9307C65.8194 36.8661 65.5868 36.5302 65.6514 36.1814C65.716 35.8326 66.0519 35.6001 66.4007 35.6647C67.5893 35.8843 69.5787 36.2202 69.9275 36.246C70.7027 36.1814 75.3018 34.5407 75.754 33.546C75.8961 33.223 76.2837 33.0809 76.6066 33.223C76.9296 33.3651 77.0717 33.7527 76.9296 34.0756C76.1545 35.8068 70.7673 37.5379 69.8759 37.5379H69.863Z" fill="black"/>
<path d="M57.8875 34.4498C57.8875 34.4498 57.81 34.4498 57.7712 34.4498L22.8127 28.0678C22.4639 28.0033 22.2313 27.6674 22.2959 27.3185C22.3605 26.9697 22.6964 26.7372 23.0453 26.8018L58.0037 33.1837C58.3526 33.2483 58.5851 33.5842 58.5205 33.933C58.4688 34.2431 58.1975 34.4627 57.8875 34.4627V34.4498Z" fill="black"/>
<path d="M73.1688 71.1907C72.807 71.1907 72.5228 70.9065 72.5228 70.5448L72.4453 46.4252C72.4453 46.0635 72.7295 45.7793 73.0913 45.7793C73.453 45.7793 73.7372 46.0635 73.7372 46.4252L73.8147 70.5448C73.8147 70.9065 73.5305 71.1907 73.1688 71.1907Z" fill="black"/>
<path d="M40.3691 63.6605L34.4005 62.3815L34.3359 53.1445L41.0538 53.9326L40.3691 63.6605Z" fill="#C9C9C9"/>
<path d="M40.3705 64.3065C40.3705 64.3065 40.28 64.3065 40.2413 64.2936L34.2728 63.0146C33.9756 62.95 33.7689 62.6916 33.756 62.3816L33.6914 53.1446C33.6914 52.9637 33.7689 52.7829 33.911 52.6537C34.0532 52.5245 34.2469 52.4728 34.4149 52.4986L41.1327 53.2867C41.4815 53.3254 41.727 53.6355 41.7011 53.9714L41.0164 63.6993C41.0035 63.8802 40.9131 64.0611 40.758 64.1644C40.6418 64.2548 40.5126 64.2936 40.3705 64.2936V64.3065ZM35.0479 61.8648L39.7762 62.8725L40.3705 54.5011L34.9833 53.868L35.035 61.8519L35.0479 61.8648Z" fill="black"/>
<path d="M40.7829 58.4139C40.7829 58.4139 40.7183 58.4139 40.6796 58.4139L34.2331 57.3933C33.8843 57.3416 33.6388 57.0057 33.6905 56.6569C33.7421 56.3081 34.078 56.0626 34.4269 56.1143L40.8734 57.1349C41.2222 57.1866 41.4677 57.5225 41.416 57.8713C41.3643 58.1942 41.093 58.4139 40.7829 58.4139Z" fill="black"/>
<path d="M39.9426 26.1944L35.6406 27.4087C35.6406 27.4087 35.6148 22.2412 38.1469 20.9364C40.2268 19.877 44.813 19.3086 45.8724 19.3086C45.8724 19.3086 40.4077 20.7684 39.9426 26.1814V26.1944Z" fill="#423F47"/>
<path d="M35.6303 28.0561C35.4882 28.0561 35.359 28.0173 35.2428 27.9269C35.0877 27.8106 34.9844 27.6168 34.9844 27.4101C34.9844 27.1776 34.9844 21.8163 37.8524 20.3564C40.0357 19.2325 44.6477 18.6641 45.8621 18.6641C46.1463 18.6641 46.4693 18.8966 46.508 19.2196C46.5468 19.5425 46.353 19.8397 46.0429 19.9301C45.8362 19.9818 41.0046 21.3512 40.5782 26.2345C40.5524 26.5058 40.3716 26.7254 40.1132 26.803L35.8112 28.0173C35.8112 28.0173 35.6949 28.0432 35.6303 28.0432V28.0561ZM42.5161 20.3564C41.0175 20.6277 39.4156 21.0153 38.4337 21.5191C36.9481 22.2813 36.4313 24.9168 36.315 26.5446L39.351 25.679C39.7127 23.1211 41.1208 21.4287 42.529 20.3564H42.5161Z" fill="black"/>
<path d="M53.3889 30.1991L57.8847 28.6875C57.8847 28.6875 58.1301 24.3855 56.0502 22.3831C53.9702 20.3807 51.7482 20.019 47.3429 19.4764C43.8677 19.05 38.1446 18.4558 36.3359 23.3262C36.3359 23.3262 37.2661 21.1946 39.1652 20.7941C41.8394 20.2386 49.2161 21.0008 51.7094 23.3391C53.9444 25.432 53.4018 30.1991 53.4018 30.1991H53.3889Z" fill="#423F47"/>
<path d="M53.3913 30.8458C53.2492 30.8458 53.1071 30.7941 52.9909 30.7037C52.8229 30.5616 52.7325 30.3549 52.7583 30.1353C52.7583 30.0965 53.2234 25.6653 51.2597 23.8179C48.986 21.6734 41.8289 20.9112 39.2968 21.4409C37.7595 21.7638 36.9327 23.5854 36.9327 23.5983C36.7906 23.9213 36.4289 24.0634 36.093 23.9342C35.77 23.805 35.602 23.4433 35.7312 23.1074C37.7595 17.6427 44.2965 18.4566 47.4228 18.8442C51.854 19.3868 54.2828 19.7743 56.5048 21.9189C58.7785 24.1151 58.546 28.5463 58.546 28.7271C58.533 28.9855 58.3522 29.218 58.1067 29.3085L53.611 30.82C53.5464 30.8458 53.4689 30.8587 53.4043 30.8587L53.3913 30.8458ZM41.7385 19.981C45.2008 20.0456 50.097 20.95 52.1382 22.8619C53.9469 24.5543 54.1277 27.6807 54.089 29.2826L57.2412 28.2233C57.2412 27.1381 57.0732 24.283 55.5876 22.849C53.6627 20.9887 51.5181 20.6528 47.2419 20.1231C45.7692 19.9423 43.6763 19.6839 41.7256 19.981H41.7385Z" fill="black"/>
</svg>
