<svg width="96" height="96" viewBox="0 0 96 96" fill="none" xmlns="http://www.w3.org/2000/svg">
<path d="M43.7668 26.741L6.05078 24.2676V58.633L43.7668 61.6854V26.741Z" fill="#D4D6C8"/>
<path d="M43.7662 61.9778C43.7662 61.9778 43.7487 61.9778 43.7428 61.9778L6.0268 58.9254C5.87476 58.9137 5.75781 58.7851 5.75781 58.633V24.2676C5.75781 24.1857 5.7929 24.1097 5.85137 24.0512C5.90985 23.9927 5.99171 23.9635 6.06773 23.9752L43.7838 26.4428C43.9358 26.4545 44.0586 26.5832 44.0586 26.7352V61.6796C44.0586 61.7614 44.0235 61.8374 43.965 61.8959C43.9124 61.9485 43.8423 61.9719 43.7662 61.9719V61.9778ZM6.34256 58.364L43.4739 61.3696V27.0159L6.34256 24.5833V58.364Z" fill="black"/>
<path d="M6.05078 24.2682L30.9024 16.9355L68.0688 19.1927L43.7668 26.7417L6.05078 24.2682Z" fill="#D4D6C8"/>
<path d="M43.7665 27.0338C43.7665 27.0338 43.7548 27.0338 43.749 27.0338L6.03293 24.5604C5.89259 24.5487 5.77564 24.4434 5.76394 24.3031C5.7464 24.1627 5.83411 24.0282 5.97445 23.9873L30.8261 16.6546C30.8612 16.6429 30.8963 16.6371 30.9255 16.6429L68.0919 18.8942C68.2323 18.9 68.3492 19.0111 68.3667 19.1515C68.3843 19.2918 68.2966 19.4263 68.1621 19.4672L43.8601 27.0163C43.8601 27.0163 43.8016 27.028 43.7724 27.028L43.7665 27.0338ZM7.71114 24.0867L43.7314 26.4432L66.4546 19.3854L30.9314 17.2335L7.71114 24.0867Z" fill="black"/>
<path d="M43.7656 61.6868V26.7424L68.0676 19.1934V51.5765L43.7656 61.6868Z" fill="#D4D6C8"/>
<path d="M43.765 61.9788C43.7066 61.9788 43.6539 61.9613 43.6013 61.932C43.5194 61.8794 43.4727 61.7858 43.4727 61.6864V26.7421C43.4727 26.6134 43.5545 26.5023 43.6773 26.4614L67.9793 18.9123C68.067 18.8831 68.1664 18.9006 68.2425 18.9591C68.3185 19.0117 68.3594 19.0994 68.3594 19.193V51.5762C68.3594 51.6931 68.2892 51.7984 68.1781 51.8452L43.8761 61.9554C43.841 61.9729 43.8001 61.9788 43.765 61.9788ZM44.0574 26.9526V61.2479L67.7747 51.3774V19.5848L44.0574 26.9526Z" fill="black"/>
<path d="M22.8631 25.6658C22.7345 25.6658 22.6175 25.5839 22.5824 25.4553C22.5356 25.2974 22.6292 25.1395 22.7812 25.0927L48.1592 17.7074C48.317 17.6606 48.4749 17.7542 48.5217 17.9062C48.5685 18.0583 48.4749 18.222 48.3229 18.2688L22.945 25.6541C22.945 25.6541 22.8923 25.6658 22.8631 25.6658Z" fill="black"/>
<path d="M21.8442 55.6105L9.62891 54.7334V45.6406L21.8442 46.5177V55.6105Z" fill="#FFF476"/>
<path d="M21.8436 55.903C21.8436 55.903 21.8319 55.903 21.8202 55.903L9.60492 55.0259C9.45289 55.0142 9.33594 54.8856 9.33594 54.7335V45.6349C9.33594 45.553 9.37102 45.477 9.4295 45.4186C9.48797 45.3659 9.56399 45.3367 9.6517 45.3425L21.867 46.2197C22.0191 46.2313 22.136 46.36 22.136 46.512V55.6107C22.136 55.6925 22.1009 55.7685 22.0424 55.827C21.9898 55.8796 21.9196 55.903 21.8436 55.903ZM9.92068 54.4587L21.5513 55.2949V46.7869L9.92068 45.9507V54.4587Z" fill="black"/>
<path d="M16.7982 48.827C16.7982 48.827 16.7865 48.827 16.7748 48.827L11.5823 48.4527C11.4186 48.441 11.3016 48.3007 11.3133 48.137C11.325 47.9733 11.4653 47.8563 11.6291 47.868L16.8216 48.2422C16.9853 48.2539 17.1023 48.3943 17.0906 48.558C17.0789 48.71 16.9502 48.827 16.7982 48.827Z" fill="black"/>
<path d="M19.8662 51.2894C19.8662 51.2894 19.8545 51.2894 19.8428 51.2894L11.5862 50.6988C11.4225 50.6871 11.3055 50.5468 11.3172 50.3831C11.3289 50.2193 11.4692 50.1024 11.633 50.1141L19.8896 50.7047C20.0533 50.7164 20.1702 50.8567 20.1586 51.0204C20.1469 51.1725 20.0182 51.2894 19.8662 51.2894Z" fill="black"/>
<path d="M18.4589 53.2838C18.4589 53.2838 18.4472 53.2838 18.4355 53.2838L11.5823 52.7926C11.4186 52.7809 11.3016 52.6405 11.3133 52.4768C11.325 52.3131 11.4653 52.1961 11.6291 52.2078L18.4823 52.699C18.646 52.7107 18.763 52.8511 18.7513 53.0148C18.7396 53.1668 18.6109 53.2838 18.4589 53.2838Z" fill="black"/>
<path d="M20.0385 37.9562C20.0385 37.9562 21.208 37.4416 21.5004 37.3831C21.7927 37.3247 22.8687 38.1492 22.8687 38.1492L24.313 38.1258L26.9385 39.2309V25.6356L18.8047 25.0977V38.0848L20.0443 37.9503L20.0385 37.9562Z" fill="white"/>
<path d="M26.9301 39.5236C26.8891 39.5236 26.8541 39.5178 26.819 39.5002L24.2519 38.4184L22.872 38.4418C22.8135 38.4535 22.7433 38.4243 22.6907 38.3834C22.217 38.0208 21.6732 37.6875 21.5329 37.6758C21.3692 37.7109 20.5973 38.0325 20.1587 38.2255C20.1295 38.2372 20.1003 38.243 20.071 38.2489L18.8314 38.3834C18.7437 38.3951 18.6676 38.3658 18.6033 38.3132C18.539 38.2606 18.5039 38.1787 18.5039 38.0968V25.1097C18.5039 25.0278 18.539 24.9518 18.5975 24.8933C18.6559 24.8348 18.7261 24.8114 18.8197 24.8173L26.9535 25.3552C27.1055 25.3669 27.2283 25.4956 27.2283 25.6476V39.2429C27.2283 39.3423 27.1815 39.4301 27.0997 39.4885C27.0529 39.5178 26.9944 39.5353 26.9359 39.5353L26.9301 39.5236ZM24.3046 37.8337C24.3455 37.8337 24.3806 37.8395 24.4157 37.8571L26.6319 38.7927V25.9108L19.0828 25.4137V37.7635L19.9541 37.67C20.2231 37.553 21.1411 37.1554 21.4335 37.0969C21.7025 37.0384 22.217 37.2957 22.9597 37.8571L24.2987 37.8337H24.3046Z" fill="black"/>
<path d="M46.5448 19.7596L51.7549 18.1983L44.1824 17.7422L38.832 19.2918L46.5448 19.7596Z" fill="white"/>
<path d="M46.5425 20.0513C46.5425 20.0513 46.5308 20.0513 46.525 20.0513L38.8122 19.5835C38.6719 19.5777 38.5549 19.4666 38.5374 19.3262C38.5198 19.1859 38.6075 19.0514 38.7479 19.0105L44.0983 17.4609C44.1334 17.4551 44.1626 17.4492 44.1977 17.4492L51.7643 17.9053C51.9046 17.9112 52.0216 18.0223 52.0391 18.1626C52.0567 18.3029 51.969 18.4374 51.8345 18.4784L46.6303 20.0396C46.6303 20.0396 46.5776 20.0513 46.5484 20.0513H46.5425ZM40.5314 19.104L46.5075 19.4666L50.0861 18.3965L44.2094 18.0398L40.5314 19.104Z" fill="black"/>
<path d="M28.6089 22.2559L18.7969 25.1036L26.9307 25.6357L36.4913 22.7704L28.6089 22.2559Z" fill="white"/>
<path d="M26.9332 25.9294C26.9332 25.9294 26.9215 25.9294 26.9156 25.9294L18.7818 25.3914C18.6415 25.3797 18.5245 25.2745 18.5128 25.1283C18.5011 24.9821 18.583 24.8535 18.7233 24.8184L28.5354 21.9707C28.5704 21.959 28.5997 21.959 28.6348 21.959L36.5171 22.4736C36.6575 22.4853 36.7744 22.5905 36.7861 22.7308C36.8036 22.8712 36.7159 23.0057 36.5814 23.0466L27.0209 25.9119C27.0209 25.9119 26.9682 25.9236 26.939 25.9236L26.9332 25.9294ZM20.4776 24.9178L26.8981 25.3388L34.8506 22.9531L28.6406 22.5437L20.4776 24.9119V24.9178Z" fill="black"/>
<path d="M89.635 69.4569L52.4102 78.9123V53.0548L89.635 46.4238V69.4569Z" fill="#D4D6C8"/>
<path d="M52.4096 79.2055C52.3452 79.2055 52.2809 79.1821 52.2283 79.1412C52.1581 79.0886 52.1172 79.0009 52.1172 78.9132V53.0557C52.1172 52.9154 52.2166 52.7926 52.3569 52.7692L89.5876 46.144C89.6754 46.1324 89.7572 46.1499 89.8274 46.2084C89.8917 46.261 89.9326 46.3487 89.9326 46.4306V69.4637C89.9326 69.5982 89.8391 69.7151 89.7104 69.7444L52.4797 79.1997C52.4797 79.1997 52.4329 79.2114 52.4096 79.2114V79.2055ZM52.7019 53.3013V78.5389L89.3479 69.2356V46.7814L52.7019 53.3072V53.3013Z" fill="black"/>
<path d="M36.9414 69.1646L52.4079 78.9123V53.0548L36.9414 46.4238V69.1646Z" fill="#D4D6C8"/>
<path d="M52.4093 79.2053C52.3567 79.2053 52.2982 79.1877 52.2514 79.1585L36.7907 69.4108C36.703 69.3582 36.6562 69.2646 36.6562 69.1652V46.4245C36.6562 46.3251 36.703 46.2315 36.7849 46.1789C36.8668 46.1262 36.972 46.1145 37.0597 46.1555L52.5204 52.7806C52.6256 52.8274 52.6958 52.9327 52.6958 53.0496V78.907C52.6958 79.0123 52.6373 79.1117 52.5438 79.1643C52.497 79.1877 52.4502 79.1994 52.4034 79.1994L52.4093 79.2053ZM37.241 69.0073L52.1169 78.3866V53.2484L37.241 46.8689V69.0015V69.0073Z" fill="black"/>
<path d="M89.6328 46.4247L52.4079 53.0557L36.9414 46.4247L72.6752 41.0977L89.6328 46.4247Z" fill="#D4D6C8"/>
<path d="M52.408 53.3478C52.3671 53.3478 52.332 53.342 52.2911 53.3244L36.8304 46.6993C36.7076 46.6467 36.6375 46.5239 36.655 46.3952C36.6726 46.2666 36.772 46.1613 36.9006 46.1438L72.6344 40.8167C72.6812 40.8109 72.7221 40.8167 72.763 40.8284L89.7206 46.1555C89.8493 46.1964 89.9311 46.3192 89.9253 46.4537C89.9194 46.5882 89.82 46.6993 89.6855 46.7227L52.4548 53.3478C52.4548 53.3478 52.4197 53.3478 52.4022 53.3478H52.408ZM38.0058 46.5648L52.4431 52.7514L88.4108 46.3484L72.6578 41.4015L38.0116 46.5648H38.0058Z" fill="black"/>
<path d="M44.1976 49.8266C44.0573 49.8266 43.9345 49.7272 43.9111 49.5868C43.8819 49.429 43.9871 49.2769 44.1509 49.2477L79.6741 43.0202C79.832 42.9851 79.984 43.0962 80.0133 43.2599C80.0425 43.4178 79.9373 43.5698 79.7735 43.5991L44.2503 49.8266C44.2503 49.8266 44.2152 49.8266 44.1976 49.8266Z" fill="black"/>
<path d="M64.8799 73.5677L55.7695 75.7254V68.3927L64.8799 66.5156V73.5677Z" fill="#FFF476"/>
<path d="M55.7728 76.0242C55.7085 76.0242 55.6442 76.0008 55.5916 75.9598C55.5214 75.9072 55.4805 75.8195 55.4805 75.7318V68.3991C55.4805 68.2587 55.5799 68.1418 55.7144 68.1126L64.8247 66.2355C64.9124 66.2121 65.0001 66.2355 65.0703 66.294C65.1405 66.3466 65.1755 66.4343 65.1755 66.522V73.5741C65.1755 73.7086 65.082 73.8255 64.9533 73.8606L55.843 76.0183C55.843 76.0183 55.7962 76.0242 55.7728 76.0242ZM56.0652 68.6388V75.3634L64.5908 73.3402V66.8787L56.0652 68.633V68.6388Z" fill="black"/>
<path d="M59.309 58.2422L55.6719 58.9147V56.0202L59.309 55.377V58.2422Z" fill="#282828"/>
<path d="M57.6175 70.2459C57.483 70.2459 57.3602 70.1524 57.331 70.012C57.2959 69.8541 57.4011 69.6963 57.559 69.667L62.506 68.6203C62.6639 68.5911 62.8217 68.6905 62.851 68.8484C62.8861 69.0063 62.7808 69.1641 62.6229 69.1934L57.676 70.2401C57.676 70.2401 57.635 70.2459 57.6175 70.2459Z" fill="black"/>
<path d="M57.6178 71.8537C57.4833 71.8537 57.3605 71.7602 57.3313 71.6257C57.2962 71.4678 57.3956 71.3099 57.5535 71.2748L61.4011 70.4211C61.5648 70.386 61.7169 70.4854 61.7519 70.6433C61.787 70.8012 61.6876 70.9591 61.5297 70.9942L57.6821 71.8479C57.6821 71.8479 57.6412 71.8537 57.6178 71.8537Z" fill="black"/>
<path d="M57.6178 73.632C57.4833 73.632 57.3605 73.5385 57.3313 73.404C57.2962 73.2461 57.3956 73.0882 57.5535 73.0531L63.2781 71.7608C63.436 71.7199 63.5939 71.8251 63.629 71.983C63.6641 72.1409 63.5646 72.2988 63.4068 72.3339L57.6821 73.6262C57.6821 73.6262 57.6412 73.632 57.6178 73.632Z" fill="black"/>
</svg>
