<svg width="96" height="96" viewBox="0 0 96 96" fill="none" xmlns="http://www.w3.org/2000/svg">
<path d="M64.8133 70.2282L34.7845 77.6157C34.2931 77.7597 33.8695 77.5818 33.5433 77.3658L22.6484 70.3425C22.0426 69.9189 21.7334 69.4403 21.6275 69.0252C21.5386 68.6693 21.4496 68.106 21.7546 67.4409L27.3207 54.949L50.5719 53.5215L48.0388 62.1205C47.9626 62.3747 47.9202 62.5229 47.8694 62.7136C47.7169 63.2558 47.916 63.7514 48.8606 63.9759L49.7375 64.2173L65.4826 68.8769C65.4318 69.237 65.3004 70.0842 64.8218 70.2239L64.8133 70.2282Z" fill="#565656"/>
<path d="M34.4263 77.8825C34.1002 77.8825 33.7698 77.7723 33.4224 77.5478L22.5275 70.5246C21.7777 69.9951 21.5066 69.4486 21.4134 69.0801C21.3584 68.8556 21.1847 68.1694 21.5532 67.3561L27.1193 54.8684C27.1532 54.7964 27.2209 54.7498 27.3014 54.7413L50.5485 53.3138C50.6162 53.3053 50.684 53.3392 50.7264 53.3943C50.7687 53.4493 50.7814 53.5214 50.7645 53.5849L48.2314 62.1839C48.1551 62.4381 48.117 62.5863 48.062 62.7727C48.0026 62.993 48.0154 63.1709 48.1001 63.3192C48.2187 63.5225 48.4898 63.675 48.8964 63.7724L49.7818 64.0139L65.5311 68.6734C65.6328 68.7031 65.6963 68.8005 65.6794 68.9064C65.6328 69.2368 65.4972 70.2408 64.8703 70.4271H64.8618L34.833 77.8189C34.6974 77.857 34.5619 77.8782 34.4263 77.8782V77.8825ZM27.4539 55.1564L21.9429 67.5297C21.6676 68.1397 21.7438 68.6438 21.8285 68.9742C21.9344 69.3978 22.2691 69.8214 22.7647 70.173L33.6554 77.192C34.0409 77.4462 34.3797 77.5139 34.7229 77.4165L64.7559 70.0247C64.883 69.9866 65.1033 69.8002 65.2346 69.0335L49.6674 64.429L48.7948 64.1875C48.278 64.0647 47.9179 63.8444 47.7358 63.5394C47.5875 63.2895 47.5621 62.9972 47.6553 62.6626C47.7104 62.472 47.7485 62.3237 47.8247 62.0653L50.2731 53.7543L27.4539 55.1564Z" fill="black"/>
<path d="M65.1456 69.3002L34.511 76.6877C34.3966 76.7131 34.278 76.6877 34.1848 76.6326L23.0823 69.5162C22.7858 69.3383 22.4724 69.0121 22.4215 68.5207C22.3834 68.1819 22.4978 67.8599 22.6164 67.5931L28.7586 53.5254H50.5611L48.028 62.1244C47.9518 62.3786 47.9094 62.5268 47.8586 62.7175C47.7061 63.2597 47.9052 63.7553 48.8498 63.9798L49.7266 64.2212L65.1583 68.4784C65.5819 68.597 65.5734 69.1985 65.1456 69.3002Z" fill="#757575"/>
<path d="M34.4151 76.9088C34.2922 76.9088 34.1736 76.875 34.072 76.8114L22.9695 69.695C22.7704 69.5764 22.2833 69.2205 22.2112 68.547C22.1689 68.1488 22.3002 67.7845 22.423 67.5092L28.5652 53.4415C28.5991 53.3653 28.6753 53.3145 28.7601 53.3145H50.5626C50.6304 53.3145 50.694 53.3441 50.7321 53.3992C50.7702 53.4542 50.7829 53.522 50.766 53.5856L48.2328 62.1846C48.1566 62.4387 48.1185 62.587 48.0634 62.7734C48.0041 62.9937 48.0168 63.1716 48.1015 63.3198C48.2201 63.5232 48.4912 63.6756 48.8979 63.7731L65.2149 68.2717C65.5029 68.3522 65.6893 68.6021 65.6851 68.8986C65.6808 69.1909 65.4818 69.4366 65.1979 69.5044L34.5634 76.8919C34.5168 76.9046 34.4659 76.9088 34.4193 76.9088H34.4151ZM28.8956 53.7381L22.8085 67.6786C22.7068 67.9032 22.5967 68.2039 22.6306 68.5004C22.6814 68.9833 23.0373 69.246 23.1898 69.3349L34.2965 76.4556C34.3431 76.4852 34.4024 76.4937 34.4617 76.481L65.092 69.0935C65.2403 69.0596 65.253 68.9325 65.253 68.8944C65.253 68.8139 65.2149 68.7165 65.0963 68.6826L48.7878 64.184C48.271 64.0611 47.9109 63.8409 47.7288 63.5359C47.5805 63.2859 47.5551 62.9937 47.6483 62.659C47.7034 62.4684 47.7415 62.3201 47.8177 62.0617L50.2704 53.7338H28.8914L28.8956 53.7381Z" fill="black"/>
<path d="M24.7111 68.2811C24.6094 68.2811 24.5205 68.2091 24.5035 68.1074C24.4824 67.993 24.5586 67.8829 24.673 67.8617L46.5137 63.8121C46.628 63.7909 46.7382 63.8672 46.7594 63.9816C46.7805 64.0959 46.7043 64.2061 46.5899 64.2273L24.7492 68.2768C24.7492 68.2768 24.7238 68.2768 24.7111 68.2768V68.2811Z" fill="black"/>
<path d="M82.6496 47.4644L31.911 58.1348C30.0514 58.5838 28.8527 57.7366 28.0055 56.254L11.6715 25.5644C10.8836 24.0648 12.2264 22.0146 13.5989 21.9341L62.355 18.1895C63.2107 18.1217 64.0409 18.4945 64.5662 19.1765L83.9924 44.4695C84.8353 45.3633 83.5688 47.278 82.6453 47.4644H82.6496Z" fill="#565656"/>
<path d="M30.953 58.4696C29.661 58.4696 28.6275 57.7707 27.8226 56.3559L11.4845 25.662C11.0948 24.9207 11.1498 23.9761 11.6285 23.1289C12.0944 22.3029 12.8442 21.7649 13.5855 21.7183L62.3416 17.9779C63.2693 17.9017 64.1673 18.3041 64.7349 19.0454L84.1611 44.3384C84.4915 44.6858 84.572 45.228 84.3772 45.8422C84.0976 46.719 83.3393 47.5366 82.6912 47.6679L31.9527 58.3425C31.6011 58.4273 31.2707 58.4696 30.9488 58.4696H30.953ZM62.5534 18.3931C62.4941 18.3931 62.4348 18.3931 62.3713 18.4015L13.6109 22.1461C13.0179 22.18 12.3867 22.6502 11.997 23.3407C11.5904 24.0608 11.5395 24.8529 11.8572 25.4671L28.1912 56.1568C29.1019 57.7495 30.2668 58.3171 31.8595 57.9317L82.6023 47.257C83.0937 47.1596 83.746 46.4267 83.9705 45.7151C84.0764 45.3889 84.1357 44.9314 83.8349 44.6138L64.3961 19.3038C63.9513 18.7235 63.2735 18.3931 62.5492 18.3931H62.5534Z" fill="black"/>
<path d="M83.2363 46.4901L31.5531 56.8725C30.4518 57.0927 29.3377 56.5675 28.8082 55.5763L12.2286 24.4206C11.6525 23.3405 12.3769 22.0273 13.5926 21.9341L62.3529 18.1895C63.2086 18.1217 64.0388 18.4945 64.5641 19.1765L83.9903 44.4695C84.5621 45.2151 84.1555 46.3037 83.232 46.4901H83.2363Z" fill="#757575"/>
<path d="M31.0616 57.1311C30.0576 57.1311 29.1045 56.5761 28.6216 55.6739L12.042 24.5183C11.737 23.9464 11.7413 23.2687 12.0547 22.7053C12.364 22.1377 12.9358 21.7734 13.5797 21.7225L62.34 17.9779C63.2677 17.9017 64.1657 18.3041 64.7333 19.0454L84.1595 44.3384C84.473 44.7451 84.5535 45.2788 84.3713 45.7617C84.1892 46.2446 83.7825 46.5919 83.2742 46.6936L31.5911 57.0718C31.4131 57.1056 31.2352 57.1226 31.0573 57.1226L31.0616 57.1311ZM62.5518 18.3931C62.4925 18.3931 62.4332 18.3931 62.3697 18.4015L13.6093 22.1461C13.1095 22.1843 12.6647 22.4681 12.4233 22.9086C12.1818 23.3491 12.1776 23.8744 12.4148 24.3192L28.9944 55.4748C29.4731 56.3771 30.5109 56.8642 31.5106 56.6651L83.1937 46.287C83.5538 46.2149 83.8461 45.965 83.9774 45.6219C84.1045 45.2788 84.0494 44.8976 83.8249 44.6053L64.3945 19.3038C63.9497 18.7235 63.2719 18.3931 62.5476 18.3931H62.5518Z" fill="black"/>
<path d="M77.503 42.9913L32.2416 50.7474L18.3984 24.9757L60.7794 20.9219L77.503 42.9913Z" fill="#FFFEF3"/>
<path d="M61.1569 25.7337L25.1173 29.8595L24.0625 27.8771L59.9582 24.1113L61.1569 25.7337Z" fill="#FFF476"/>
<path d="M25.1142 30.0712C25.038 30.0712 24.966 30.0289 24.9278 29.9611L23.8731 27.9786C23.8392 27.9151 23.8392 27.8431 23.8731 27.7796C23.907 27.716 23.9663 27.6737 24.0383 27.6694L59.934 23.9036C60.0102 23.8952 60.0822 23.929 60.1246 23.9884L61.3233 25.6107C61.3699 25.67 61.3784 25.7505 61.3488 25.8225C61.3191 25.8945 61.2556 25.9411 61.1793 25.9496L25.1396 30.0797C25.1396 30.0797 25.1227 30.0797 25.1142 30.0797V30.0712ZM24.3941 28.0549L25.2328 29.6349L60.7642 25.5641L59.8535 24.3357L24.3899 28.0549H24.3941Z" fill="#757575"/>
<path d="M27.3291 33.9765C27.2528 33.9765 27.1808 33.9341 27.1427 33.8621L26.0879 31.8797C26.054 31.8161 26.054 31.7441 26.0879 31.6806C26.1218 31.617 26.1811 31.5747 26.2531 31.5704L36.7117 30.431C36.788 30.4225 36.8685 30.4564 36.9108 30.5242L38.1308 32.3668C38.1732 32.4261 38.1774 32.5066 38.1477 32.5744C38.1181 32.6421 38.0546 32.6887 37.9825 32.6972L27.3587 33.9765C27.3587 33.9765 27.3418 33.9765 27.3333 33.9765H27.3291ZM26.6089 31.9602L27.4477 33.5402L37.5886 32.3202L36.627 30.8715L26.6089 31.9644V31.9602Z" fill="#757575"/>
<path d="M37.458 37.0576C37.458 37.0576 37.4665 37.0407 37.4707 37.0322C37.4792 37.0152 37.4877 36.9983 37.4919 36.9814C37.4919 36.9729 37.4919 36.9644 37.4919 36.9517C37.4919 36.939 37.4961 36.9221 37.4919 36.9093C37.4919 36.9093 37.4919 36.9009 37.4919 36.8966C37.4919 36.8882 37.4877 36.8797 37.4834 36.8755C37.4792 36.8543 37.4707 36.8373 37.4623 36.8204L36.1915 34.9311C36.1406 34.8591 36.0517 34.8252 35.9712 34.8422L28.4523 35.647C28.3803 35.6555 28.321 35.6979 28.2871 35.7572C28.2532 35.8207 28.2532 35.8927 28.2871 35.9562L29.3419 37.9429C29.38 38.0149 29.452 38.0573 29.5283 38.0573C29.5367 38.0573 29.5452 38.0573 29.5537 38.0573L37.314 37.1508C37.3479 37.1508 37.3775 37.1339 37.403 37.1169C37.4072 37.1169 37.4114 37.1084 37.4157 37.1C37.4284 37.0873 37.4453 37.0745 37.4538 37.0576H37.458ZM28.8039 36.0325L35.9077 35.27L36.9116 36.7653L29.6426 37.6168L28.8039 36.0325Z" fill="#757575"/>
<path fill-rule="evenodd" clip-rule="evenodd" d="M40.7455 44.2545C40.7455 44.2545 39.5467 41.7468 39.5086 41.1114C39.4704 40.476 40.8853 41.2512 41.1309 41.1114C41.3766 40.9716 42.2027 41.9247 42.6051 42.1365C43.0075 42.3483 42.6517 37.7607 42.9694 36.4561C43.2871 35.1514 44.2402 36.2104 44.7358 36.4561C45.2314 36.7017 49.6791 36.8415 50.1705 36.7738C50.6619 36.706 50.8398 37.5447 51.2295 37.8497C51.6192 38.1547 52.5342 37.8751 53.3814 38.2267C54.2286 38.5783 56.8041 38.752 57.3717 38.5783C57.9393 38.4046 57.0201 36.7356 56.982 35.8207C56.9439 34.9057 57.4903 33.2833 57.5538 33.2113C57.6174 33.1393 58.0198 34.0458 58.4434 34.1178C58.867 34.1898 59.9387 35.2954 59.9387 35.2954C59.9387 35.2954 60.1759 33.2494 60.3369 32.6013C60.4978 31.9532 61.2645 32.309 61.739 31.8007C62.2134 31.2924 62.493 29.742 63.1157 28.916L71.1174 39.9296L40.1016 44.8263C40.1016 44.8263 40.8217 44.4155 40.7497 44.263L40.7455 44.2545Z" fill="#B3A3F3"/>
<path d="M40.0987 45.0292C40.0097 45.0292 39.9293 44.9742 39.8996 44.8895C39.8657 44.792 39.9038 44.6861 39.9928 44.6353C40.2088 44.5125 40.4333 44.3557 40.5181 44.2668C40.2893 43.7839 39.332 41.7379 39.2981 41.1237C39.2854 40.9203 39.3743 40.8102 39.4506 40.7509C39.7005 40.5518 40.1453 40.6831 40.5774 40.8102C40.7426 40.8568 40.9883 40.9288 41.056 40.9203C41.3144 40.7721 41.666 41.0813 42.1531 41.5134C42.2887 41.632 42.4285 41.7548 42.5429 41.8438C42.6064 41.4456 42.6064 40.4629 42.6064 39.6453C42.6064 38.366 42.6064 37.0487 42.7631 36.4048C42.8648 35.9897 43.0385 35.7397 43.2926 35.6423C43.6993 35.4898 44.1483 35.8033 44.5041 36.0532C44.627 36.1379 44.7413 36.2184 44.826 36.2608C45.2539 36.4726 49.6085 36.6335 50.138 36.5573C50.5785 36.4895 50.8284 36.9004 51.0275 37.2308C51.1334 37.4045 51.2393 37.5824 51.3579 37.6756C51.4935 37.7815 51.7773 37.79 52.1077 37.7984C52.5016 37.8111 52.993 37.8281 53.4632 38.0229C54.285 38.3618 56.8223 38.5185 57.3095 38.366C57.4111 38.1881 57.2205 37.5909 57.085 37.1503C56.9367 36.6844 56.7884 36.2015 56.7715 35.816C56.7376 34.9137 57.2586 33.2066 57.3984 33.0584C57.4408 33.0118 57.517 32.9779 57.5806 32.9864C57.7119 32.9948 57.7754 33.088 57.911 33.2913C58.0338 33.4777 58.2965 33.8674 58.4786 33.8971C58.8175 33.9522 59.4063 34.4689 59.779 34.829C59.8595 34.1894 60.012 33.0118 60.1306 32.5373C60.2535 32.0502 60.6474 31.974 60.9609 31.9104C61.1939 31.8638 61.4141 31.8215 61.5793 31.6436C61.7784 31.4275 61.9606 30.9489 62.1512 30.4405C62.363 29.8729 62.6044 29.229 62.9433 28.78C62.9857 28.725 63.0492 28.708 63.1128 28.6953C63.1805 28.6953 63.2441 28.7292 63.2822 28.7843L71.284 39.7978C71.3263 39.8571 71.3348 39.9334 71.3094 40.0054C71.2797 40.0731 71.2204 40.124 71.1484 40.1325L40.1326 45.025C40.1326 45.025 40.1114 45.025 40.0987 45.025V45.0292ZM39.7895 41.0686C39.7556 41.0686 39.7259 41.0686 39.709 41.0813C39.7429 41.5346 40.4588 43.1696 40.9332 44.1609C40.9586 44.2159 41.0052 44.3134 40.8866 44.4786L70.7375 39.7682L63.117 29.2799C62.8925 29.6611 62.7103 30.1525 62.5451 30.593C62.3291 31.1649 62.147 31.6605 61.8886 31.9358C61.6302 32.2154 61.304 32.2789 61.0414 32.3298C60.711 32.3933 60.5924 32.4357 60.5373 32.6432C60.3763 33.2702 60.1433 35.2907 60.1433 35.3077C60.1349 35.3882 60.0798 35.4559 59.9993 35.4856C59.9231 35.511 59.8383 35.4898 59.779 35.4305C59.2877 34.9222 58.6226 34.3503 58.4024 34.3165C58.0719 34.2614 57.8008 33.8971 57.6102 33.6175C57.4535 34.1131 57.1654 35.1552 57.1909 35.8033C57.2036 36.1295 57.3476 36.5869 57.4831 37.0232C57.6865 37.6713 57.8601 38.2263 57.6949 38.5482C57.6399 38.6541 57.5467 38.7303 57.4323 38.7685C56.8054 38.9633 54.1918 38.7812 53.298 38.4126C52.8998 38.2474 52.4677 38.2347 52.0907 38.222C51.6883 38.2093 51.3367 38.1966 51.0953 38.0102C50.9174 37.8704 50.7861 37.6586 50.6632 37.4511C50.4811 37.1503 50.3498 36.9512 50.1973 36.9809C49.7186 37.0487 45.203 36.9258 44.6354 36.642C44.5211 36.5869 44.394 36.4937 44.2584 36.4006C43.9958 36.2142 43.6357 35.9643 43.4366 36.0363C43.2969 36.0871 43.2164 36.3201 43.1698 36.5022C43.0258 37.0953 43.0258 38.4465 43.0258 39.6411C43.0258 41.6489 43.0003 42.1742 42.7589 42.3182C42.6784 42.3648 42.5852 42.369 42.5005 42.3225C42.3268 42.2293 42.1023 42.0344 41.8693 41.8268C41.666 41.6489 41.3314 41.3524 41.2 41.3143C41.0433 41.3821 40.8273 41.327 40.4503 41.2169C40.2766 41.166 39.9462 41.0686 39.7852 41.0686H39.7895Z" fill="#565656"/>
</svg>
