<svg width="96" height="96" viewBox="0 0 96 96" fill="none" xmlns="http://www.w3.org/2000/svg">
<path d="M84.099 75.7578H12.0069C11.03 75.7578 10.6146 75.2876 10.6192 75.0868L10.5781 73.0098L85.5278 73.0372L85.4867 75.0868C85.4593 75.2511 85.0805 75.7578 84.099 75.7578Z" fill="#757575"/>
<path d="M84.1007 75.9851H12.0086C11.155 75.9851 10.7396 75.6519 10.5981 75.5104C10.4611 75.3734 10.3881 75.2182 10.3926 75.0813L10.3516 73.018C10.3516 72.9586 10.3744 72.8993 10.4155 72.8536C10.4566 72.808 10.5159 72.7852 10.5798 72.7852L85.5295 72.8125C85.5888 72.8125 85.6482 72.8354 85.6938 72.881C85.7349 72.9267 85.7623 72.986 85.7577 73.0454L85.7167 75.095C85.671 75.3962 85.2008 75.9897 84.1007 75.9897V75.9851ZM10.8126 73.2416L10.8491 75.0858C10.8674 75.1862 11.2006 75.5332 12.0086 75.5332H84.1007C84.9407 75.5332 85.2419 75.1269 85.2647 75.0493L85.2967 73.269L10.8126 73.2416Z" fill="black"/>
<path d="M84.1037 73.5533H12.0116C10.9891 73.5533 10.5828 73.4392 10.6239 72.8823L19.1692 59.1741C19.4568 58.7542 19.4523 58.5898 20.21 58.5898H75.9008C76.6585 58.5898 76.7453 58.7177 76.9826 59.1331L85.4869 72.8777C85.6969 73.2475 85.0806 73.5487 84.0992 73.5487L84.1037 73.5533Z" fill="#757575"/>
<path d="M84.1021 73.7813H12.01C11.2842 73.7813 10.8186 73.7265 10.5675 73.4572C10.4306 73.3111 10.3758 73.1148 10.394 72.8637C10.394 72.8272 10.4077 72.7907 10.426 72.7588L19.0672 58.9045C19.3228 58.5074 19.4826 58.3613 20.2038 58.3613H75.8946C76.7254 58.3613 76.8988 58.5348 77.1727 59.0232L85.6724 72.7633C85.7683 72.9322 85.7728 73.1102 85.6815 73.2654C85.4944 73.5896 84.9009 73.7813 84.0884 73.7813H84.1021ZM10.8505 72.9505C10.8505 73.0692 10.8825 73.1194 10.9053 73.1468C11.0468 73.302 11.5444 73.3202 12.01 73.3202H84.1021C84.8097 73.3202 85.2296 73.1513 85.2981 73.0326L76.7893 59.2515C76.5747 58.8726 76.5428 58.8132 75.9037 58.8132H20.213C19.6743 58.8132 19.6423 58.8635 19.4598 59.1465L19.3639 59.2926L10.8505 72.9413V72.9505Z" fill="black"/>
<path d="M75.9 20.1445H20.2093C19.453 20.1445 18.8398 20.7577 18.8398 21.514V57.9321C18.8398 58.6884 19.453 59.3015 20.2093 59.3015H75.9C76.6563 59.3015 77.2695 58.6884 77.2695 57.9321V21.514C77.2695 20.7577 76.6563 20.1445 75.9 20.1445Z" fill="#757575"/>
<path d="M75.9017 59.5295H20.211C19.33 59.5295 18.6133 58.8128 18.6133 57.9318V21.5137C18.6133 20.6327 19.33 19.916 20.211 19.916H75.9017C76.7827 19.916 77.4994 20.6327 77.4994 21.5137V57.9318C77.4994 58.8128 76.7827 59.5295 75.9017 59.5295ZM20.211 20.3725C19.581 20.3725 19.0698 20.8838 19.0698 21.5137V57.9318C19.0698 58.5617 19.581 59.073 20.211 59.073H75.9017C76.5317 59.073 77.0429 58.5617 77.0429 57.9318V21.5137C77.0429 20.8838 76.5317 20.3725 75.9017 20.3725H20.211Z" fill="black"/>
<path d="M75.4726 22.1855H20.6172V56.4993H75.4726V22.1855Z" fill="#FFFEF3"/>
<path d="M32.2894 33.6738H20.6172V56.4979H32.2894V33.6738Z" fill="#FFF476"/>
<path d="M65.2027 46.1016H55.5664V48.1055H65.2027V46.1016Z" fill="#FFF476"/>
<path d="M65.2044 48.3335H55.5681C55.4403 48.3335 55.3398 48.2331 55.3398 48.1052V46.1013C55.3398 45.9735 55.4403 45.873 55.5681 45.873H65.2044C65.3322 45.873 65.4327 45.9735 65.4327 46.1013V48.1052C65.4327 48.2331 65.3322 48.3335 65.2044 48.3335ZM55.7963 47.877H64.9762V46.3295H55.7963V47.877Z" fill="#A5A5A5"/>
<path d="M75.4726 33.9037H20.6172V33.4473H75.4726C75.4726 33.8627 75.4726 33.7988 75.4726 33.9037Z" fill="#A5A5A5"/>
<path d="M75.4687 24.6596H20.6133V24.2031H75.4687V24.6596Z" fill="#A5A5A5"/>
<path d="M32.0586 56.4987V33.7888C32.0586 33.661 32.159 33.5605 32.2868 33.5605C32.4146 33.5605 32.5151 33.661 32.5151 33.7888V56.4987C32.3507 56.4987 32.5014 56.4987 32.0586 56.4987Z" fill="#A5A5A5"/>
<path d="M67.3347 50.0449H42.6345C42.5067 50.0449 42.4062 49.9445 42.4062 49.8166V37.2634C42.4062 37.1356 42.5067 37.0352 42.6345 37.0352H67.3347C67.4625 37.0352 67.5629 37.1356 67.5629 37.2634V49.8166C67.5629 49.9445 67.4625 50.0449 67.3347 50.0449ZM42.8627 49.5884H67.1065V37.4916H42.8627V49.5884Z" fill="#A5A5A5"/>
<path d="M75.4726 22.1855H20.6172V24.2032H75.4726V22.1855Z" fill="#FFF476"/>
<path d="M54.2242 39.166H45.058C44.8059 39.166 44.6016 39.3704 44.6016 39.6225V39.7366C44.6016 39.9887 44.8059 40.1931 45.058 40.1931H54.2242C54.4763 40.1931 54.6807 39.9887 54.6807 39.7366V39.6225C54.6807 39.3704 54.4763 39.166 54.2242 39.166Z" fill="#A5A5A5"/>
<path d="M29.8629 36.2363H22.9792C22.7598 36.2363 22.582 36.4141 22.582 36.6335V36.8663C22.582 37.0856 22.7598 37.2634 22.9792 37.2634H29.8629C30.0823 37.2634 30.2601 37.0856 30.2601 36.8663V36.6335C30.2601 36.4141 30.0823 36.2363 29.8629 36.2363Z" fill="#A5A5A5"/>
<path d="M28.8632 39.1445H22.9518C22.7476 39.1445 22.582 39.3101 22.582 39.5143V39.8019C22.582 40.0061 22.7476 40.1716 22.9518 40.1716H28.8632C29.0674 40.1716 29.233 40.0061 29.233 39.8019V39.5143C29.233 39.3101 29.0674 39.1445 28.8632 39.1445Z" fill="#A5A5A5"/>
<path d="M29.233 42.0566H22.9655C22.7537 42.0566 22.582 42.2283 22.582 42.4401V42.7003C22.582 42.9121 22.7537 43.0837 22.9655 43.0837H29.233C29.4447 43.0837 29.6164 42.9121 29.6164 42.7003V42.4401C29.6164 42.2283 29.4447 42.0566 29.233 42.0566Z" fill="#A5A5A5"/>
<path d="M27.4618 44.9629H22.9107C22.7292 44.9629 22.582 45.11 22.582 45.2916V45.6613C22.582 45.8428 22.7292 45.99 22.9107 45.99H27.4618C27.6433 45.99 27.7905 45.8428 27.7905 45.6613V45.2916C27.7905 45.11 27.6433 44.9629 27.4618 44.9629Z" fill="#A5A5A5"/>
<path d="M61.9049 39.166H57.226C56.9739 39.166 56.7695 39.3704 56.7695 39.6225V39.7366C56.7695 39.9887 56.9739 40.1931 57.226 40.1931H61.9049C62.1571 40.1931 62.3614 39.9887 62.3614 39.7366V39.6225C62.3614 39.3704 62.1571 39.166 61.9049 39.166Z" fill="#A5A5A5"/>
<path d="M49.737 41.4082H45.058C44.8059 41.4082 44.6016 41.6126 44.6016 41.8647V41.9788C44.6016 42.2309 44.8059 42.4353 45.058 42.4353H49.737C49.9891 42.4353 50.1935 42.2309 50.1935 41.9788V41.8647C50.1935 41.6126 49.9891 41.4082 49.737 41.4082Z" fill="#A5A5A5"/>
<path d="M49.737 43.6543H45.058C44.8059 43.6543 44.6016 43.8587 44.6016 44.1108V44.2249C44.6016 44.477 44.8059 44.6814 45.058 44.6814H49.737C49.9891 44.6814 50.1935 44.477 50.1935 44.2249V44.1108C50.1935 43.8587 49.9891 43.6543 49.737 43.6543Z" fill="#A5A5A5"/>
<path d="M31.0023 29.7125C30.596 29.7125 30.2628 29.3792 30.2628 28.973C30.2628 28.5667 30.596 28.2335 31.0023 28.2335C31.4085 28.2335 31.7418 28.5667 31.7418 28.973C31.7418 28.9912 31.7418 29.0049 31.7418 29.0186H32.3717C32.3717 29.0186 32.3717 28.9867 32.3717 28.973C32.3717 28.2198 31.7555 27.6035 31.0023 27.6035C30.2491 27.6035 29.6328 28.2198 29.6328 28.973C29.6328 29.7262 30.2491 30.3424 31.0023 30.3424H36.7996V29.7125H31.0023Z" fill="#F4322E"/>
<path d="M31.0013 30.7341C30.029 30.7341 29.2393 29.9443 29.2393 28.972C29.2393 27.9997 30.029 27.21 31.0013 27.21C31.9736 27.21 32.7634 27.9997 32.7634 28.972C32.7634 28.9903 32.7634 29.004 32.7634 29.0177H33.3933C33.3933 29.0177 33.3933 28.9857 33.3933 28.972C33.3933 27.6528 32.3206 26.5801 31.0013 26.5801C29.6821 26.5801 28.6094 27.6528 28.6094 28.972C28.6094 30.2913 29.6821 31.364 31.0013 31.364H36.7987V30.7341H31.0013Z" fill="#F4322E"/>
<path d="M27.9622 26.5801H27.3322H26.4102V27.21H27.3322V31.3594H27.9622V27.21H27.9668V26.5801H27.9622Z" fill="#F4322E"/>
<path d="M25.7539 28.2139H26.4067V31.3591H27.0366V28.2139V27.584H25.7539V28.2139Z" fill="#F4322E"/>
<path d="M79.7104 67.6179H16.4375L20.1578 61.6836H75.9901L79.7104 67.6179Z" fill="#565656"/>
<path d="M79.7094 67.8458H16.4365C16.3543 67.8458 16.2767 67.8002 16.2357 67.7271C16.1946 67.6541 16.1991 67.5674 16.2402 67.4943L19.9605 61.5601C20.0016 61.4916 20.0747 61.4551 20.1523 61.4551H75.9845C76.0621 61.4551 76.1352 61.4962 76.1762 61.5601L79.8966 67.4943C79.9422 67.5628 79.9422 67.6541 79.9011 67.7271C79.8601 67.8002 79.7825 67.8458 79.7003 67.8458H79.7094ZM16.8473 67.3893H79.294L75.8613 61.9116H20.2801L16.8473 67.3893Z" fill="black"/>
<path d="M78.1066 65.4584H18.0017C17.8739 65.4584 17.7734 65.358 17.7734 65.2302C17.7734 65.1024 17.8739 65.002 18.0017 65.002H78.1066C78.2344 65.002 78.3348 65.1024 78.3348 65.2302C78.3348 65.358 78.2344 65.4584 78.1066 65.4584Z" fill="black"/>
<path d="M76.9889 63.5053H19.1618C19.034 63.5053 18.9336 63.4049 18.9336 63.2771C18.9336 63.1493 19.034 63.0488 19.1618 63.0488H76.9889C77.1167 63.0488 77.2172 63.1493 77.2172 63.2771C77.2172 63.4049 77.1167 63.5053 76.9889 63.5053Z" fill="black"/>
<path d="M38.9314 68.8379H57.6106L59.3224 73.5533H37.4844L38.9314 68.8379Z" fill="#565656"/>
<path d="M59.3223 73.7807H37.4888C37.4157 73.7807 37.3473 73.7441 37.3062 73.6894C37.2651 73.63 37.2514 73.557 37.2697 73.4885L38.7167 68.773C38.7441 68.6772 38.8354 68.6133 38.9358 68.6133H57.615C57.7109 68.6133 57.7976 68.6726 57.8296 68.7639L59.5414 73.4794C59.5688 73.5478 59.5551 73.6254 59.514 73.6894C59.4729 73.7487 59.3999 73.7852 59.3268 73.7852L59.3223 73.7807ZM37.7946 73.3242H58.9936L57.4461 69.0652H39.0956L37.79 73.3242H37.7946Z" fill="black"/>
</svg>
