<svg width="470" height="224" viewBox="0 0 470 224" fill="none" xmlns="http://www.w3.org/2000/svg">
<g clip-path="url(#clip0_40000002_74884)">
<path d="M156.104 53.267C162.72 50.8509 172.594 55.475 173.325 63.6762C174.063 71.8774 159.702 74.4008 152.847 73.8583C152.847 73.8583 109.791 78.514 90.3578 73.8267C90.3578 73.8267 71.4984 78.0409 62.7208 72.1676C62.7208 72.1676 49.7152 73.7699 47.0939 67.1459C44.4663 60.5219 52.1033 51.835 59.0346 50.6868C59.0346 50.6868 58.8582 41.5962 71.9836 37.912C71.9836 37.912 69.148 31.5024 75.7643 32.2342C75.7643 32.2342 74.3969 26.506 76.8166 24.2413C80.3515 20.9356 85.1467 21.2257 86.4069 21.7557C86.4069 21.7557 90.9438 11.8575 100.988 11.8827C111.032 11.908 117.037 15.8193 119.45 25.7048C119.45 25.7048 123.389 21.9702 128.171 24.0457C129.728 24.7207 131.876 26.3546 132.166 29.9253C132.166 29.9253 140.963 28.4112 145.896 33.3445C149.463 36.9089 150.061 41.4069 149.677 43.8988C149.677 43.8988 159.022 42.3343 160.238 52.6299C160.238 52.6299 159.192 52.5479 157.988 52.775C156.476 53.0652 156.098 53.267 156.098 53.267H156.104Z" fill="#F9F9F9"/>
<path d="M115.272 76.224C105.984 76.224 96.8411 75.7067 90.3635 74.1548C88.9017 74.4765 71.2962 78.1607 62.6509 72.5019C61.2584 72.6596 49.387 73.7762 46.8035 67.2658C45.8016 64.7424 46.186 61.6953 47.8747 58.6987C50.2061 54.5729 54.6358 51.2041 58.7316 50.4219C58.8387 48.87 59.9477 41.1041 71.5671 37.7101C71.252 36.8584 70.5778 34.581 71.649 33.1174C72.3359 32.1774 73.5898 31.7674 75.373 31.8872C75.1021 30.4804 74.453 26.0329 76.6017 24.0204C79.9288 20.9103 84.516 20.8535 86.2489 21.3708C87.0617 19.8 91.7687 11.5736 100.956 11.5736H100.994C111.283 11.5988 117.219 15.9139 119.639 25.1497C120.786 24.2602 124.27 22.0143 128.303 23.7618C129.689 24.3611 132.027 25.9067 132.449 29.572C134.138 29.3386 141.617 28.6257 146.123 33.13C149.5 36.5051 150.344 40.7445 150.048 43.5455C151.164 43.4446 154.27 43.3689 156.872 45.3245C158.876 46.8323 160.105 49.1917 160.527 52.3397C163.016 52.4532 165.618 53.2544 167.849 54.6739C171.264 56.844 173.325 60.0361 173.646 63.651C173.829 65.6823 173.136 67.4992 171.598 69.0637C167.433 73.2842 158.114 74.5964 152.827 74.18C152.581 74.2115 133.627 76.224 115.272 76.224ZM90.3635 73.5176C90.3635 73.5176 90.4139 73.5176 90.4391 73.5239C109.588 78.1418 152.386 73.5933 152.821 73.5491C157.893 73.9403 167.169 72.647 171.151 68.6158C172.556 67.1964 173.186 65.5435 173.022 63.7077C172.714 60.2885 170.76 57.2667 167.515 55.2038C164.591 53.3427 161.012 52.592 157.956 53.1093C157.521 53.1913 157.194 53.267 156.942 53.3364C156.696 53.4058 156.457 53.4815 156.223 53.5635C156.072 53.6203 155.896 53.5446 155.826 53.3932C155.757 53.2418 155.826 53.0652 155.965 52.9832C155.997 52.9705 156.198 52.8633 156.803 52.7119C157.124 52.6236 157.458 52.5479 157.792 52.4911C157.843 52.4785 157.893 52.4722 157.944 52.4595C158.738 52.3081 159.469 52.2892 159.891 52.2955C159.481 49.381 158.341 47.2045 156.507 45.8229C153.564 43.6086 149.784 44.2016 149.746 44.2079C149.645 44.2205 149.544 44.189 149.475 44.1196C149.406 44.0502 149.368 43.9493 149.387 43.8483C149.796 41.2176 149.072 36.9467 145.694 33.5653C140.93 28.8024 132.323 30.2218 132.241 30.2344C132.153 30.247 132.065 30.2281 131.995 30.1713C131.926 30.1145 131.882 30.0388 131.876 29.9505C131.586 26.3672 129.368 24.891 128.07 24.3296C123.527 22.3613 119.727 25.8941 119.689 25.9256C119.607 26.0013 119.488 26.0329 119.387 26.0013C119.28 25.9698 119.198 25.8815 119.173 25.7742C116.917 16.5322 111.145 12.2171 101.013 12.1918H100.981C91.2835 12.1918 86.7656 21.7809 86.7214 21.8818C86.6521 22.0395 86.4694 22.1089 86.3119 22.0395C85.2974 21.6169 80.5904 21.1563 77.0554 24.4684C74.7996 26.5754 76.0851 32.1017 76.0977 32.1585C76.1229 32.2595 76.0977 32.3604 76.0283 32.4424C75.959 32.5181 75.8582 32.556 75.7574 32.5496C73.9805 32.3541 72.7832 32.6695 72.1846 33.4833C71.0882 34.9848 72.2917 37.7542 72.298 37.7858C72.3358 37.8678 72.3358 37.9624 72.298 38.0507C72.2602 38.1327 72.1846 38.1958 72.0964 38.2211C59.3806 41.7854 59.3743 50.5922 59.3743 50.6868C59.3743 50.8445 59.2672 50.977 59.1097 51.0023C55.121 51.6583 50.7417 54.9577 48.4481 59.0079C46.8539 61.8341 46.4821 64.6856 47.4147 67.0324C49.9226 73.3536 62.5879 71.8774 62.714 71.8584C62.7896 71.8521 62.8652 71.8647 62.9282 71.9089C71.4978 77.6371 90.1367 73.5617 90.3194 73.5239C90.3446 73.5239 90.3635 73.5176 90.3887 73.5176H90.3635Z" fill="black"/>
<path d="M128.743 43.9113C128.743 43.9113 129.373 39.1988 124.439 36.953C120.015 34.9405 116.039 37.4766 115.302 38.4229C115.302 38.4229 113.62 36.1581 110.469 36.2906C107.319 36.4231 105.535 39.0537 105.535 39.0537" fill="#F9F9F9"/>
<path d="M128.744 44.2267C128.744 44.2267 128.719 44.2267 128.7 44.2267C128.53 44.2014 128.404 44.0437 128.429 43.8734C128.454 43.6904 128.958 39.3627 124.308 37.2431C120.048 35.3063 116.198 37.7856 115.549 38.6246C115.486 38.7003 115.367 38.7382 115.297 38.7445C115.196 38.7445 115.108 38.694 115.045 38.6183C115.033 38.5994 113.419 36.5049 110.483 36.6122C107.534 36.7384 105.814 39.2113 105.795 39.2366C105.694 39.3817 105.499 39.4195 105.36 39.3186C105.215 39.2176 105.178 39.0221 105.278 38.8833C105.354 38.7697 107.188 36.1201 110.464 35.9813C113.086 35.8741 114.73 37.3251 115.322 37.9559C116.507 36.8456 120.307 34.7322 124.579 36.669C129.67 38.9842 129.072 43.9049 129.065 43.9554C129.046 44.1131 128.908 44.2267 128.757 44.2267H128.744Z" fill="black"/>
<path d="M67.9535 53.8476C67.9535 53.8476 68.2433 51.0403 71.0221 49.5514C73.8009 48.0563 76.6743 49.4063 76.6743 49.4063" fill="#F9F9F9"/>
<path d="M67.9537 54.163C67.9537 54.163 67.9285 54.163 67.9222 54.163C67.7521 54.1441 67.626 53.9927 67.6449 53.8161C67.6575 53.6962 67.9852 50.8258 70.8775 49.2739C73.7634 47.722 76.6871 49.0657 76.8132 49.1225C76.9707 49.1982 77.04 49.3811 76.9644 49.5388C76.8888 49.6965 76.706 49.7659 76.5485 49.6902C76.5233 49.6776 73.776 48.4285 71.1799 49.8227C68.5901 51.2169 68.2751 53.8539 68.2751 53.8791C68.2562 54.0432 68.1238 54.163 67.96 54.163H67.9537Z" fill="black"/>
<path d="M329.894 28.6979H117.425C114.293 28.6979 111.754 31.2399 111.754 34.3756V171.095C111.754 174.231 114.293 176.773 117.425 176.773H329.894C333.026 176.773 335.565 174.231 335.565 171.095V34.3756C335.565 31.2399 333.026 28.6979 329.894 28.6979Z" fill="#FFFDD6"/>
<path d="M329.896 177.088H117.426C114.124 177.088 111.44 174.401 111.44 171.095V34.3755C111.44 31.0698 114.124 28.3824 117.426 28.3824H329.896C333.197 28.3824 335.882 31.0698 335.882 34.3755V171.095C335.882 174.401 333.197 177.088 329.896 177.088ZM117.426 29.0132C114.471 29.0132 112.07 31.4168 112.07 34.3755V171.095C112.07 174.054 114.471 176.457 117.426 176.457H329.896C332.851 176.457 335.252 174.054 335.252 171.095V34.3755C335.252 31.4168 332.851 29.0132 329.896 29.0132H117.426Z" fill="black"/>
<path d="M111.754 39.8452H173.732V176.798H114.627C113.045 176.798 111.754 175.511 111.754 173.921V39.8452Z" fill="#FFF476"/>
<path d="M173.727 177.107H114.622C112.87 177.107 111.44 175.681 111.44 173.921V39.8448C111.44 39.6745 111.579 39.5357 111.749 39.5357H173.727C173.897 39.5357 174.036 39.6745 174.036 39.8448V176.798C174.036 176.968 173.897 177.107 173.727 177.107ZM112.064 40.1539V173.927C112.064 175.341 113.211 176.495 114.629 176.495H173.425V40.1539H112.064Z" fill="black"/>
<path d="M277.974 55.5282H189.317C188.621 55.5282 188.057 56.0931 188.057 56.7899V63.7294C188.057 64.4262 188.621 64.9911 189.317 64.9911H277.974C278.67 64.9911 279.235 64.4262 279.235 63.7294V56.7899C279.235 56.0931 278.67 55.5282 277.974 55.5282Z" fill="#FFF476"/>
<path d="M277.976 65.3064H189.318C188.449 65.3064 187.743 64.5999 187.743 63.7293V56.7899C187.743 55.9193 188.449 55.2127 189.318 55.2127H277.976C278.845 55.2127 279.551 55.9193 279.551 56.7899V63.7293C279.551 64.5999 278.845 65.3064 277.976 65.3064ZM189.318 55.8436C188.795 55.8436 188.373 56.2662 188.373 56.7899V63.7293C188.373 64.2529 188.795 64.6756 189.318 64.6756H277.976C278.499 64.6756 278.921 64.2529 278.921 63.7293V56.7899C278.921 56.2662 278.499 55.8436 277.976 55.8436H189.318Z" fill="black"/>
<path d="M291.128 74.4602H189.408C188.664 74.4602 188.06 75.0646 188.06 75.8102V82.573C188.06 83.3186 188.664 83.9231 189.408 83.9231H291.128C291.873 83.9231 292.477 83.3186 292.477 82.573V75.8102C292.477 75.0646 291.873 74.4602 291.128 74.4602Z" fill="#FFF476"/>
<path d="M291.127 84.2384H189.413C188.493 84.2384 187.749 83.494 187.749 82.573V75.8102C187.749 74.8891 188.493 74.1447 189.413 74.1447H291.127C292.047 74.1447 292.79 74.8891 292.79 75.8102V82.573C292.79 83.494 292.047 84.2384 291.127 84.2384ZM189.413 74.7756C188.846 74.7756 188.38 75.2424 188.38 75.8102V82.573C188.38 83.1408 188.846 83.6076 189.413 83.6076H291.127C291.694 83.6076 292.16 83.1408 292.16 82.573V75.8102C292.16 75.2424 291.694 74.7756 291.127 74.7756H189.413Z" fill="black"/>
<path d="M269.84 93.3919H189.26C188.596 93.3919 188.057 93.9314 188.057 94.5968V101.65C188.057 102.315 188.596 102.855 189.26 102.855H269.84C270.504 102.855 271.043 102.315 271.043 101.65V94.5968C271.043 93.9314 270.504 93.3919 269.84 93.3919Z" fill="#FFF476"/>
<path d="M269.841 103.17H189.262C188.424 103.17 187.743 102.489 187.743 101.65V94.5908C187.743 93.7518 188.424 93.0704 189.262 93.0704H269.841C270.679 93.0704 271.36 93.7518 271.36 94.5908V101.65C271.36 102.489 270.679 103.17 269.841 103.17ZM189.262 93.7076C188.77 93.7076 188.373 94.105 188.373 94.5971V101.656C188.373 102.148 188.77 102.546 189.262 102.546H269.841C270.333 102.546 270.73 102.148 270.73 101.656V94.5971C270.73 94.105 270.333 93.7076 269.841 93.7076H189.262Z" fill="black"/>
<path d="M241.705 112.318H189.033C188.494 112.318 188.057 112.756 188.057 113.296V120.803C188.057 121.343 188.494 121.781 189.033 121.781H241.705C242.244 121.781 242.682 121.343 242.682 120.803V113.296C242.682 112.756 242.244 112.318 241.705 112.318Z" fill="#FFF476"/>
<path d="M241.706 122.102H189.035C188.323 122.102 187.743 121.522 187.743 120.809V113.296C187.743 112.583 188.323 112.002 189.035 112.002H241.706C242.418 112.002 242.998 112.583 242.998 113.296V120.809C242.998 121.522 242.418 122.102 241.706 122.102ZM189.035 112.64C188.669 112.64 188.373 112.936 188.373 113.302V120.816C188.373 121.181 188.669 121.478 189.035 121.478H241.706C242.072 121.478 242.368 121.181 242.368 120.816V113.302C242.368 112.936 242.072 112.64 241.706 112.64H189.035Z" fill="black"/>
<path d="M111.754 39.8451V34.3756C111.754 31.2402 114.293 28.6979 117.425 28.6979H329.894C333.026 28.6979 335.565 31.2402 335.565 34.3756V39.8451H111.754Z" fill="#FFF476"/>
<path d="M335.567 40.1605H111.755C111.579 40.1605 111.44 40.0217 111.44 39.8451V34.3755C111.44 31.0698 114.124 28.3824 117.426 28.3824H329.896C333.197 28.3824 335.882 31.0698 335.882 34.3755V39.8451C335.882 40.0217 335.743 40.1605 335.567 40.1605ZM112.07 39.5297H335.252V34.3755C335.252 31.4168 332.851 29.0132 329.896 29.0132H117.426C114.471 29.0132 112.07 31.4168 112.07 34.3755V39.5297Z" fill="black"/>
<path d="M319.462 37.2834H314.699C314.522 37.2834 314.384 37.1446 314.384 36.968V32.1987C314.384 32.022 314.522 31.8832 314.699 31.8832H319.462C319.639 31.8832 319.778 32.022 319.778 32.1987V36.968C319.778 37.1446 319.639 37.2834 319.462 37.2834ZM315.014 36.6525H319.147V32.5141H315.014V36.6525Z" fill="black"/>
<path d="M327.542 34.5833L329.704 32.4194C329.83 32.2933 329.83 32.0977 329.704 31.9715C329.577 31.8453 329.382 31.8453 329.256 31.9715L327.095 34.1354L324.934 31.9715C324.808 31.8453 324.612 31.8453 324.486 31.9715C324.36 32.0977 324.36 32.2933 324.486 32.4194L326.647 34.5833L324.486 36.7471C324.36 36.8733 324.36 37.0689 324.486 37.195C324.549 37.2581 324.631 37.2897 324.707 37.2897C324.782 37.2897 324.871 37.2581 324.927 37.195L327.089 35.0312L329.25 37.195C329.313 37.2581 329.395 37.2897 329.47 37.2897C329.546 37.2897 329.634 37.2581 329.691 37.195C329.817 37.0689 329.817 36.8733 329.691 36.7471L327.53 34.5833H327.542Z" fill="black"/>
<path d="M309.451 35.4417H304.688C304.511 35.4417 304.373 35.5804 304.373 35.7571C304.373 35.9337 304.511 36.0725 304.688 36.0725H309.451C309.628 36.0725 309.766 35.9337 309.766 35.7571C309.766 35.5804 309.628 35.4417 309.451 35.4417Z" fill="black"/>
<path d="M125.695 34.2621L122.676 31.9531C122.676 31.9531 122.664 31.9531 122.658 31.9468C122.639 31.9342 122.62 31.9279 122.601 31.9153C122.582 31.909 122.563 31.9027 122.544 31.8964C122.525 31.8964 122.506 31.8964 122.487 31.8964C122.469 31.8964 122.45 31.8964 122.431 31.8964C122.412 31.8964 122.393 31.909 122.374 31.9153C122.355 31.9216 122.336 31.9342 122.317 31.9405C122.317 31.9405 122.305 31.9405 122.298 31.9468L119.28 34.2558C119.141 34.363 119.116 34.5586 119.223 34.6974C119.286 34.7794 119.381 34.8235 119.475 34.8235C119.545 34.8235 119.608 34.8046 119.664 34.7605L119.791 34.6595V36.9685C119.791 37.1451 119.929 37.2839 120.106 37.2839H124.869C125.046 37.2839 125.184 37.1451 125.184 36.9685V34.6595L125.31 34.7605C125.367 34.8046 125.436 34.8235 125.499 34.8235C125.594 34.8235 125.688 34.7794 125.751 34.6974C125.859 34.5586 125.833 34.363 125.695 34.2558V34.2621ZM124.554 36.653H120.421V34.1801L122.487 32.5966L124.554 34.1801V36.653Z" fill="black"/>
<path d="M141.809 66.7516C140.417 66.7516 139.283 65.616 139.283 64.2218C139.283 62.8276 140.417 61.6921 141.809 61.6921C143.202 61.6921 144.336 62.8276 144.336 64.2218C144.336 64.2786 144.336 64.3291 144.33 64.3859H146.472C146.472 64.3291 146.478 64.2786 146.478 64.2218C146.478 61.6416 144.38 59.5472 141.809 59.5472C139.238 59.5472 137.14 61.6479 137.14 64.2218C137.14 66.7957 139.238 68.8965 141.809 68.8965H161.595V66.7453H141.809V66.7516Z" fill="#F4322E"/>
<path d="M161.753 69.0605H141.81C139.145 69.0605 136.983 66.8904 136.983 64.2218C136.983 61.5533 139.151 59.3895 141.81 59.3895C144.469 59.3895 146.637 61.5596 146.637 64.2218C146.637 64.2597 146.637 64.2912 146.637 64.3291V64.5436H144.16L144.173 64.3732C144.173 64.2975 144.179 64.2597 144.179 64.2218C144.179 62.916 143.114 61.8498 141.81 61.8498C140.506 61.8498 139.441 62.916 139.441 64.2218C139.441 65.5277 140.506 66.5939 141.81 66.5939H161.753V69.0605ZM141.81 59.7049C139.321 59.7049 137.298 61.73 137.298 64.2218C137.298 66.7137 139.321 68.7451 141.81 68.7451H161.438V66.9093H141.81C140.329 66.9093 139.126 65.7044 139.126 64.2218C139.126 62.7393 140.329 61.5344 141.81 61.5344C143.291 61.5344 144.494 62.7393 144.494 64.2218H146.322C146.322 61.7236 144.299 59.6986 141.81 59.6986V59.7049Z" fill="black"/>
<path d="M141.806 70.2459C138.492 70.2459 135.795 67.5459 135.795 64.2275C135.795 60.9092 138.492 58.2091 141.806 58.2091C145.121 58.2091 147.818 60.9092 147.818 64.2275C147.818 64.2843 147.812 64.3348 147.812 64.3916H149.954C149.954 64.3348 149.96 64.2843 149.96 64.2275C149.96 59.7232 146.299 56.0579 141.8 56.0579C137.301 56.0579 133.64 59.7232 133.64 64.2275C133.64 68.7319 137.301 72.3972 141.8 72.3972H161.586V70.2459H141.8H141.806Z" fill="#F4322E"/>
<path d="M161.751 72.5488H141.807C137.22 72.5488 133.49 68.8141 133.49 64.2215C133.49 59.6288 137.22 55.8942 141.807 55.8942C146.395 55.8942 150.125 59.6288 150.125 64.2215C150.125 64.253 150.125 64.2909 150.125 64.3224V64.5432H147.655V64.3035C147.655 64.3035 147.667 64.253 147.667 64.2215C147.667 60.9915 145.04 58.3608 141.814 58.3608C138.587 58.3608 135.96 60.9915 135.96 64.2215C135.96 67.4515 138.587 70.0822 141.814 70.0822H161.757V72.5488H161.751ZM141.807 56.2159C137.396 56.2159 133.805 59.8118 133.805 64.2278C133.805 68.6438 137.396 72.2397 141.807 72.2397H161.435V70.4039H141.807C138.405 70.4039 135.638 67.6344 135.638 64.2278C135.638 60.8212 138.405 58.0517 141.807 58.0517C145.21 58.0517 147.976 60.8212 147.976 64.2278H149.804C149.804 59.8055 146.212 56.2159 141.801 56.2159H141.807Z" fill="black"/>
<path d="M131.435 56.0582H129.293H126.142V58.2031H129.293V72.3912H131.435V58.2031H131.442V56.0582H131.435Z" fill="#F4322E"/>
<path d="M131.594 72.5489H129.136V58.3609H125.992V55.9005L131.606 55.9131V72.5552L131.594 72.5489ZM129.451 72.2334H131.278V56.2159H126.301V58.0454H129.445V72.2334H129.451Z" fill="black"/>
<path d="M123.896 61.6479H126.126V72.3915H128.275V61.6479V59.4967H123.896V61.6479Z" fill="#F4322E"/>
<path d="M128.433 72.5487H125.976V61.8052H123.745V59.3448H128.44V72.555L128.433 72.5487ZM126.291 72.2333H128.118V59.654H124.054V61.4835H126.285V72.227L126.291 72.2333Z" fill="black"/>
<path d="M53.6289 105.542C53.6289 105.542 61.1462 103.706 64.8009 110.829C67.2142 115.529 62.9231 121.837 55.0151 121.837C55.0151 121.837 33.1438 124.985 18.0651 121.837C18.0651 121.837 9.66558 124.19 3.94411 121.837C-1.77735 119.484 -0.00672381 114.45 4.26547 112.86C4.26547 112.86 2.19869 107.466 6.70403 103.706C11.2094 99.9465 14.3222 101.265 14.3222 101.265C14.3222 101.265 14.9019 92.3826 21.8269 89.6131C29.6529 86.484 34.6056 91.9473 35.2232 93.537C35.2232 93.537 37.8823 91.1082 40.9635 93.0513C44.0448 94.9943 42.9736 97.9404 42.3309 98.647C42.3309 98.647 52.1103 95.2908 53.6289 105.549V105.542Z" fill="#F9F9F9"/>
<path d="M34.3041 123.535C28.8347 123.535 23.0754 123.188 18.0723 122.153C17.1712 122.399 9.35148 124.399 3.81904 122.121C0.454214 120.734 -0.0183742 118.645 0.000529321 117.529C0.0320352 115.548 1.57582 113.624 3.87575 112.671C3.51659 111.46 2.48949 106.804 6.50334 103.461C10.2336 100.35 13.044 100.609 14.0459 100.849C14.2601 99.0761 15.5203 91.7897 21.7018 89.3167C24.8524 88.055 27.9778 88.0235 30.7503 89.2284C33.2392 90.3135 34.7704 92.0673 35.3312 93.0451C36.1693 92.4521 38.5196 91.1336 41.1283 92.7802C42.7288 93.7832 43.2014 95.026 43.3211 95.8903C43.4408 96.7546 43.2518 97.5494 43.0061 98.1235C44.4364 97.7829 47.5744 97.3287 50.1831 98.9184C52.1428 100.111 53.3841 102.211 53.8882 105.164C55.4194 104.912 61.7962 104.281 65.0791 110.671C66.144 112.753 65.9991 115.182 64.6821 117.346C62.8548 120.349 59.2379 122.14 55.0161 122.14C54.9027 122.159 45.1926 123.528 34.3041 123.528V123.535ZM18.066 121.516C18.066 121.516 18.1101 121.516 18.129 121.522C32.9809 124.626 54.7515 121.547 54.972 121.522C59.0173 121.522 62.4326 119.838 64.1465 117.03C65.35 115.062 65.4824 112.854 64.5183 110.974C61.0274 104.167 54.0016 105.782 53.7055 105.852C53.6172 105.87 53.529 105.852 53.4534 105.807C53.3778 105.757 53.3337 105.681 53.3148 105.593C52.88 102.666 51.7206 100.603 49.8617 99.4673C46.6859 97.5305 42.4768 98.931 42.4326 98.9436C42.3003 98.9878 42.1491 98.9436 42.0672 98.8175C41.9853 98.6976 41.9979 98.5399 42.0987 98.4327C42.3633 98.1361 42.8611 97.152 42.6973 95.9786C42.5524 94.9125 41.9097 94.0229 40.7943 93.3164C37.9525 91.5311 35.5329 93.676 35.432 93.7706C35.3564 93.84 35.2493 93.8715 35.1485 93.8463C35.0477 93.8211 34.9658 93.7517 34.928 93.6507C34.6507 92.9316 33.1447 90.957 30.4982 89.8088C27.8517 88.6607 24.9721 88.6922 21.9349 89.9034C15.2809 92.5657 14.6382 101.196 14.6319 101.284C14.6256 101.385 14.5688 101.48 14.4806 101.53C14.3924 101.581 14.2853 101.593 14.1908 101.549C14.1656 101.536 11.1851 100.376 6.90032 103.946C2.62182 107.511 4.47436 112.532 4.55628 112.741C4.58779 112.816 4.58148 112.905 4.54998 112.98C4.51217 113.056 4.44916 113.119 4.37355 113.144C2.16813 113.964 0.662153 115.731 0.630647 117.529C0.599141 119.188 1.82157 120.607 4.05849 121.528C9.60982 123.812 17.8896 121.541 17.9778 121.516C18.003 121.509 18.0345 121.503 18.0597 121.503L18.066 121.516Z" fill="black"/>
<path d="M19.4321 107.366C19.4321 107.366 20.56 104.211 23.6854 103.101C26.9116 101.953 30.0748 103.549 30.9192 104.148C30.9192 104.148 31.7824 101.827 34.2714 101.921C36.7603 102.016 37.5291 104.205 37.5291 104.205" fill="#F9F9F9"/>
<path d="M19.4352 107.681C19.3974 107.681 19.3659 107.681 19.328 107.662C19.1642 107.605 19.076 107.423 19.139 107.259C19.1894 107.126 20.3551 103.946 23.5813 102.805C26.5618 101.745 29.5423 102.943 30.7899 103.688C31.168 103 32.2014 101.524 34.287 101.606C36.965 101.707 37.822 104.079 37.8283 104.104C37.885 104.268 37.7968 104.445 37.633 104.508C37.4691 104.565 37.2927 104.483 37.2297 104.312C37.1982 104.23 36.4988 102.319 34.2555 102.237C32.0312 102.161 31.2436 104.167 31.2058 104.256C31.1743 104.35 31.0986 104.42 31.0041 104.445C30.9096 104.47 30.8088 104.457 30.7269 104.401C29.8195 103.757 26.7949 102.325 23.783 103.398C20.8466 104.445 19.7313 107.441 19.725 107.473C19.6809 107.599 19.5549 107.681 19.4289 107.681H19.4352Z" fill="black"/>
<path d="M362.604 225.844L444.67 225.145C444.67 225.145 444.953 217.631 444.365 217.849C443.777 218.067 362.974 210.932 362.974 210.932C362.974 210.932 361.922 218.803 362.604 225.851V225.844Z" fill="#586BF8"/>
<path d="M444.816 225.226C444.816 225.226 444.831 225.175 444.831 225.153C444.831 224.92 444.961 219.451 444.715 218.06C444.678 217.864 444.49 217.726 444.294 217.762C444.098 217.798 443.967 217.988 443.996 218.184C444.192 219.313 444.127 223.536 444.105 224.781C430.96 224.789 368.061 225.284 362.968 225.327C362.475 220.391 362.975 214.813 363.222 212.097C363.265 211.624 363.302 211.238 363.323 210.954C363.338 210.75 363.186 210.575 362.99 210.56C362.794 210.546 362.612 210.699 362.598 210.895C362.576 211.179 362.54 211.558 362.504 212.024C362.25 214.82 361.727 220.638 362.279 225.728C362.279 225.75 362.293 225.764 362.293 225.786C362.293 225.808 362.3 225.823 362.308 225.844C362.322 225.866 362.337 225.888 362.351 225.91C362.366 225.925 362.373 225.939 362.388 225.954C362.409 225.976 362.431 225.99 362.46 226.005C362.475 226.012 362.489 226.027 362.504 226.027C362.547 226.041 362.591 226.056 362.641 226.056C363.331 226.056 431.663 225.51 444.461 225.51C444.511 225.51 444.555 225.502 444.598 225.48C444.62 225.473 444.635 225.459 444.649 225.444C444.671 225.429 444.693 225.422 444.715 225.4C444.729 225.386 444.736 225.364 444.751 225.349C444.765 225.327 444.78 225.313 444.794 225.291C444.802 225.269 444.802 225.247 444.809 225.233L444.816 225.226Z" fill="black"/>
<path d="M392.655 115.391C392.655 115.391 390.449 117.772 389.542 123.073C389.542 123.073 399.01 134.643 422.138 124.223C422.138 124.223 423.27 119.272 421.413 115.58C421.413 115.58 407.795 120.575 392.655 115.391Z" fill="#B1AEA9"/>
<path d="M387.707 120.852C387.707 120.852 395.738 135.736 422.13 124.223C422.13 124.223 424.967 122.825 424.089 127.646C424.089 127.646 419.272 187.478 416.479 218.221C416.479 218.221 406.417 220.864 384.057 215.309C384.057 215.309 384.739 178.122 385.683 166.187C386.589 154.653 387.097 143.323 386.843 139.566C386.539 135.015 387.3 122.199 387.707 120.845V120.852Z" fill="#F9F9F9"/>
<path d="M408.471 219.16C396.109 219.16 384.109 215.708 383.964 215.665C383.812 215.621 383.703 215.483 383.703 215.323C383.515 202.194 387.323 121.383 387.36 120.568C387.367 120.415 387.476 120.276 387.621 120.233C387.773 120.189 387.933 120.247 388.02 120.378C399.076 136.667 424.54 122.65 424.794 122.512C424.91 122.446 425.055 122.453 425.171 122.526C425.287 122.599 425.346 122.73 425.338 122.861L416.85 218.257C416.836 218.425 416.712 218.563 416.545 218.585C413.919 218.992 411.184 219.16 408.478 219.16H408.471ZM384.429 215.039C386.649 215.65 402.732 219.888 416.154 217.908L424.562 123.458C420.666 125.453 398.75 135.786 388.042 121.638C387.599 131.118 384.305 201.99 384.429 215.031V215.039Z" fill="black"/>
<path d="M403.914 134.338C391.262 134.338 387.134 127.034 387.076 126.932C386.982 126.758 387.047 126.532 387.221 126.437C387.395 126.343 387.62 126.408 387.714 126.583C387.794 126.728 395.767 140.702 424.126 128.847C424.307 128.767 424.525 128.855 424.597 129.044C424.677 129.226 424.59 129.445 424.402 129.517C415.892 133.078 409.167 134.338 403.907 134.338H403.914Z" fill="black"/>
<path d="M421.412 115.586C421.412 115.586 426.868 126.319 412.228 142.215C412.228 142.215 409.681 144.523 407.628 170.854C405.575 197.184 405.662 219.764 405.662 219.764C405.662 219.764 435.037 222.924 446.325 216.975C446.325 216.975 446.115 211.958 445.955 210.247C445.955 210.247 448.988 209.249 449.88 207.152C451.092 204.298 449.227 194.868 448.668 193.317C448.668 193.317 458.905 192.851 464.789 186.917C469.823 181.834 471.964 178.019 466.24 159.407C460.516 140.795 454.146 132.778 454.146 132.778C454.146 132.778 457.534 131.169 454.871 124.776C452.209 118.383 456.163 113.977 452.535 110.315C448.908 106.652 445.164 104.344 440.579 103.208C440.579 103.208 433.695 111.538 421.42 115.579L421.412 115.586Z" fill="#586BF8"/>
<path d="M392.652 115.39C392.652 115.39 383.707 112.609 378.317 106.07C378.317 106.07 371.962 109.201 370.184 114.502C368.414 119.803 370.184 125.89 370.184 125.89C368.153 126.735 366.093 127.893 362.349 132.444C358.599 136.995 353.215 141.968 349.349 142.936C345.482 143.912 345.663 146.235 345.663 146.235C345.663 146.235 344.742 146.111 343.835 146.453C343.835 146.453 343.465 144.233 338.51 141C333.548 137.759 331.85 131.264 326.62 131.381C325.822 131.395 325.002 131.555 324.175 131.832C322.049 129.618 319.212 126.815 318.117 127.041C316.746 127.325 315.6 128.861 315.6 128.861C315.839 129.218 317.428 130.514 317.428 130.514C316.434 133.157 311.189 136.368 311.189 136.368C311.189 136.368 310.34 135.662 309.912 135.385C309.491 135.109 307.968 135.305 307.968 135.305C307.583 135.327 306.335 137.111 306.517 137.839C306.64 138.334 309.433 141.291 311.196 143.111C310.572 144.029 310.151 144.793 309.977 145.288C309.02 148.034 310.47 151.383 314.178 156.08C317.885 160.769 332.917 178.456 345.213 177.648C357.503 176.839 366.731 168.669 366.731 168.669C366.731 168.669 364.359 182.439 362.966 186.327C361.573 190.208 358.555 198.888 361.936 201.495C361.936 201.495 361.276 207.684 361.094 209.199C360.913 210.721 374.573 217.456 387.937 217.456C387.937 217.456 393.697 145.485 390.411 139.783C387.117 134.082 388.931 119.919 392.667 115.39H392.652Z" fill="#586BF8"/>
<path d="M426.012 206.854L385.421 208.507C384.217 208.558 383.209 207.619 383.158 206.41L380.974 152.33C380.924 151.121 381.859 150.109 383.064 150.058L423.654 148.405C424.858 148.354 425.867 149.293 425.918 150.502L426.585 167.017C426.585 167.017 417.074 167.454 413.795 169.784C411.93 171.109 411.51 173.439 411.299 174.211L407.302 174.648C407.302 174.648 403.537 186.619 403.087 189.437C402.731 191.687 412.38 190.776 412.38 190.776C414.121 197.228 427.738 195.553 427.738 195.553L428.101 204.575C428.152 205.784 427.216 206.796 426.012 206.847V206.854Z" fill="#7F7F7F"/>
<path d="M428.092 195.546C428.092 195.444 428.041 195.349 427.961 195.284C427.881 195.218 427.78 195.189 427.686 195.196C427.555 195.211 414.366 196.755 412.719 190.682C412.676 190.514 412.516 190.398 412.335 190.412C409.411 190.689 404.441 190.762 403.535 189.794C403.447 189.699 403.411 189.604 403.433 189.488C403.447 189.408 403.462 189.313 403.484 189.218C402.925 189.218 402.918 189.16 402.918 188.49C402.918 189.16 402.918 189.211 403.484 189.218C404.042 186.284 407.068 176.585 407.568 174.976L407.953 174.932C407.815 174.4 407.358 174.997 406.85 174.844C406.241 176.781 403.136 186.779 402.722 189.371C402.671 189.713 402.766 190.027 403.012 190.289C404.347 191.716 410.528 191.294 412.117 191.162C414.054 196.966 425.11 196.187 427.388 195.961L427.736 204.597C427.758 205.085 427.584 205.544 427.258 205.908C426.931 206.264 426.481 206.476 425.995 206.49L385.405 208.143C384.926 208.165 384.462 207.99 384.099 207.662C383.744 207.335 383.533 206.883 383.519 206.396L381.335 152.315C381.313 151.827 381.487 151.361 381.814 151.005C382.14 150.648 382.59 150.437 383.076 150.422L423.666 148.769C423.666 148.769 423.717 148.769 423.739 148.769C424.704 148.769 425.509 149.541 425.553 150.517L426.206 166.667C424.406 166.776 416.579 167.352 413.582 169.478C411.79 170.752 411.261 172.849 411.014 173.854L407.263 174.284C407.118 174.298 407.002 174.4 406.959 174.539C406.944 174.575 406.908 174.692 406.857 174.852C407.365 175.005 407.822 174.408 407.96 174.939L411.333 174.568C411.478 174.553 411.602 174.444 411.645 174.298L411.718 174.029C411.95 173.111 412.429 171.189 414.003 170.075C417.159 167.832 426.51 167.381 426.605 167.374C426.801 167.366 426.96 167.199 426.953 166.995L426.285 150.48C426.227 149.075 425.03 147.975 423.645 148.034L383.054 149.687C382.38 149.716 381.748 150.007 381.291 150.502C380.834 151.005 380.595 151.653 380.624 152.33L382.808 206.41C382.837 207.087 383.127 207.721 383.62 208.179C384.092 208.616 384.701 208.857 385.34 208.857C385.376 208.857 385.412 208.857 385.448 208.857L426.039 207.204C426.713 207.175 427.345 206.883 427.802 206.388C428.259 205.886 428.498 205.238 428.469 204.561L428.106 195.539L428.092 195.546Z" fill="black"/>
<path d="M404.166 187.653C404.166 187.653 404.877 178.529 404.166 178.413C404.166 178.413 401.518 178.107 400.771 176.884C400.024 175.66 398.109 172.202 396.041 171.59C393.973 170.978 384.687 167.381 383.323 166.194C383.323 166.194 382.315 166.005 382.126 167.549C381.938 169.092 382.917 170.76 385.043 171.714C387.168 172.668 388.039 172.959 388.039 172.959L389.004 174.619C389.004 174.619 382.206 174.845 380.175 174.954C378.143 175.063 377.237 176.651 377.121 177.27C376.896 178.464 377.795 179.126 377.788 179.316C377.781 180.284 376.018 181.216 376.025 181.719C376.032 182.221 375.88 182.833 377.186 183.918C378.492 185.003 377.977 185.986 377.715 187.529C377.454 189.073 379.529 189.612 379.79 189.918C380.538 190.799 379.979 192.153 380.291 192.699C380.603 193.245 382.576 194.673 388.96 193.304C395.983 191.796 398.783 190.857 400.495 188.723C401.322 187.689 404.166 187.668 404.166 187.668V187.653Z" fill="#423F47"/>
<path d="M404.783 187.317C403.086 187.193 401.497 187.536 400.633 188.205C400.336 188.438 400.118 188.671 399.908 188.904C399.241 189.633 398.479 190.455 394.51 191.628C390.76 192.735 385.776 193.601 383.643 193.528C382.127 193.477 381.162 193.215 380.763 192.771C380.458 192.429 380.501 191.963 380.538 191.468C380.56 191.176 380.589 190.87 380.538 190.587C380.393 189.727 379.783 189.436 379.246 189.181C378.884 189.014 378.543 188.846 378.289 188.519C377.962 188.103 378.042 187.616 378.202 186.851C378.303 186.378 378.412 185.839 378.376 185.256C378.325 184.426 377.766 183.946 377.273 183.523C376.816 183.13 376.417 182.795 376.381 182.213C376.352 181.696 376.816 181.266 377.273 180.844C377.817 180.334 378.564 179.642 377.926 178.776C377.534 178.252 377.382 177.764 377.476 177.312C377.592 176.752 378.086 176.213 378.949 175.71C380.066 175.055 383.142 175.091 385.602 175.113C387.444 175.135 388.902 175.142 389.519 174.909C389.708 174.836 389.802 174.625 389.73 174.443C389.657 174.254 389.447 174.159 389.265 174.232C389.243 174.239 389.207 174.247 389.178 174.254C388.932 173.868 388.511 173.103 388.351 172.805C388.308 172.718 388.228 172.652 388.133 172.623C388.097 172.616 384.673 171.618 383.149 169.863C382.192 168.756 382.402 167.329 382.91 166.776C383.222 166.434 383.454 166.608 383.548 166.674C384.876 167.65 391.942 170.955 395.287 171.749C397.644 172.31 398.921 174.509 399.857 176.111C400.198 176.701 400.474 177.167 400.75 177.472C401.801 178.616 404.391 178.827 404.5 178.834C404.507 178.834 404.522 178.834 404.529 178.834C404.718 178.834 404.877 178.688 404.892 178.499C404.906 178.302 404.761 178.12 404.558 178.106C403.891 178.055 401.997 177.749 401.279 176.97C401.054 176.73 400.786 176.271 400.481 175.739C399.538 174.123 398.116 171.676 395.454 171.043C392.08 170.235 385.094 166.907 383.977 166.084C383.454 165.698 382.838 165.771 382.38 166.281C381.669 167.052 381.35 168.895 382.605 170.344C384.1 172.062 387.082 173.06 387.793 173.285C387.916 173.519 388.17 173.985 388.402 174.37C387.684 174.414 386.668 174.407 385.616 174.4C382.932 174.378 379.878 174.349 378.586 175.099C377.534 175.71 376.925 176.409 376.773 177.188C376.635 177.851 376.831 178.536 377.353 179.235C377.563 179.511 377.469 179.701 376.787 180.327C376.265 180.807 375.619 181.412 375.67 182.271C375.721 183.167 376.301 183.662 376.816 184.099C377.251 184.47 377.629 184.79 377.665 185.315C377.694 185.795 377.592 186.269 377.505 186.72C377.346 187.492 377.179 188.286 377.73 188.985C378.093 189.451 378.543 189.662 378.949 189.851C379.479 190.099 379.754 190.252 379.834 190.718C379.87 190.914 379.849 191.154 379.827 191.409C379.776 191.977 379.718 192.684 380.226 193.259C380.777 193.878 381.858 194.198 383.621 194.264C383.715 194.264 383.817 194.264 383.926 194.264C386.291 194.264 391.006 193.426 394.721 192.334C398.885 191.103 399.719 190.208 400.452 189.407C400.648 189.188 400.837 188.985 401.09 188.788C401.635 188.366 402.919 187.921 404.74 188.045C404.95 188.06 405.11 187.907 405.124 187.71C405.139 187.506 404.986 187.339 404.79 187.324L404.783 187.317Z" fill="black"/>
<path d="M311.169 136.361C311.169 136.361 316.689 132.742 317.531 130.339C317.531 130.339 315.696 129.196 315.355 128.22C315.355 128.22 316.16 125.933 315.13 123.443C314.107 120.96 313.954 120.159 311.894 117.05C309.834 113.941 309.442 108.785 307.65 108.297C305.858 107.81 304.944 108.938 304.835 109.827C304.726 110.715 304.726 112.936 305.706 115.055C306.685 117.181 306.787 116.846 306.787 116.846L307.171 119.547C307.171 119.547 303.819 116.817 302.586 116.096C301.353 115.375 297.769 113.067 297.254 112.659C296.739 112.251 295.223 110.948 293.685 110.336C293.685 110.336 291.298 107.336 290.086 107.118C288.875 106.899 288.062 106.703 287.932 108.094C287.932 108.094 286.154 106.79 285.567 106.652C284.979 106.513 283.956 106.404 283.55 107.263C283.143 108.123 283.006 108.436 284.718 110.635L285.349 111.705C285.349 111.705 284.108 110.89 283.528 110.926C282.948 110.962 281.903 110.926 282.041 112.259C282.179 113.591 284.029 115.441 285.559 116.861C285.559 116.861 284.246 115.645 283.129 116.482C282.012 117.319 282.454 118.266 284.268 119.97C286.082 121.674 290.746 125.438 291.407 126.319C292.067 127.2 292.647 128.547 296.507 130.768C300.366 132.989 305.017 135.989 307.795 135.363C309.95 134.875 311.154 136.353 311.154 136.353" fill="#423F47"/>
<path d="M314.012 119.634L313.707 119.183C312.96 118.098 311.828 116.46 311.03 114.435C310.842 113.962 310.653 113.409 310.457 112.826C309.608 110.314 308.651 107.46 306.706 107.751C305.879 107.875 305.263 108.239 304.864 108.843C304.247 109.775 304.196 111.253 304.711 113.241C305.335 115.63 306.162 116.707 306.445 117.02C306.51 117.465 306.605 118.127 306.685 118.666C306.336 118.375 305.966 118.076 305.589 117.77L305.263 117.508C303.935 116.431 302.477 115.608 302.063 115.375C301.418 115.025 298.095 112.899 298.08 112.899C296.426 111.377 294.315 110.263 293.909 110.045L293.793 109.914C292.988 108.96 291.109 106.717 289.331 106.535C288.729 106.469 288.272 106.608 287.96 106.943C287.757 107.161 287.655 107.423 287.605 107.656C286.821 106.95 286.008 106.353 285.356 106.207C284.572 106.032 283.832 106.28 283.375 106.87C282.918 107.46 282.838 108.282 283.179 108.974C283.404 109.433 283.876 110.066 284.463 110.78C283.397 110.401 282.737 110.591 282.374 110.824C281.982 111.071 281.743 111.472 281.692 111.952C281.598 112.855 281.728 113.664 284.021 115.928C283.745 115.928 283.469 115.972 283.201 116.066C282.504 116.321 282.287 116.758 282.229 117.079C281.989 118.353 283.825 120.181 285.849 121.965C286.313 122.38 286.814 122.809 287.336 123.253C289.055 124.717 291 126.384 292.204 127.957C293.829 130.098 303.949 135.763 306.133 135.763H306.148C306.786 135.749 307.345 135.719 307.838 135.69H307.969C307.969 135.69 308.063 135.676 308.077 135.676C308.854 135.632 309.47 135.596 309.732 135.727C309.964 135.836 310.406 136.178 310.907 136.637C310.972 136.702 311.066 136.746 311.161 136.746H311.168C311.371 136.746 311.523 136.586 311.523 136.382C311.523 136.266 311.473 136.164 311.386 136.098C310.979 135.727 310.413 135.253 310.043 135.071C309.615 134.853 308.984 134.889 308.027 134.948C307.969 134.948 307.918 134.948 307.903 134.955H307.787C307.308 134.991 306.75 135.02 306.126 135.035H306.111C304.378 135.035 294.373 129.639 292.763 127.52C291.508 125.882 289.534 124.193 287.786 122.7C287.271 122.256 286.77 121.833 286.306 121.418C285.327 120.552 282.729 118.266 282.925 117.217C282.94 117.144 282.983 116.926 283.44 116.758C284.993 116.19 287.111 118.302 287.8 119.168C287.866 119.256 287.975 119.307 288.083 119.307C288.577 119.307 290.231 120.654 291.479 121.906C291.544 121.972 291.638 122.016 291.732 122.016H291.747C292.458 122.016 294.337 122.904 295.28 123.392C295.07 123.785 294.961 124.062 294.946 124.098C294.867 124.28 294.961 124.499 295.142 124.571C295.186 124.593 295.237 124.6 295.28 124.6C295.425 124.6 295.556 124.513 295.614 124.375C295.628 124.346 296.738 121.688 298.624 120.639C298.624 120.639 298.624 120.639 298.632 120.632C298.683 120.603 298.726 120.567 298.755 120.516C298.755 120.516 298.755 120.501 298.762 120.494C298.762 120.494 298.77 120.494 298.77 120.486C298.784 120.457 300.097 117.843 301.679 117.428C301.875 117.377 301.991 117.181 301.94 116.984C301.889 116.787 301.693 116.671 301.497 116.722C301.12 116.824 300.765 117.013 300.431 117.253C300.416 117.232 300.402 117.21 300.38 117.188C300.075 116.933 296.956 114.982 294.671 114.006C294.293 113.642 291.943 111.414 290.325 110.627C290.071 110.307 289.244 109.302 288.272 108.326C288.272 108.29 288.286 108.253 288.272 108.217C288.272 108.217 288.207 107.729 288.461 107.467C288.613 107.307 288.874 107.241 289.237 107.285C290.717 107.438 292.53 109.593 293.212 110.409L293.379 110.605C293.408 110.642 293.452 110.671 293.495 110.693C293.517 110.707 295.846 111.88 297.623 113.503C297.761 113.591 301.026 115.681 301.693 116.045C302.462 116.467 303.587 117.173 304.559 117.931C303.891 119.183 301.592 121.688 300.699 122.598C300.562 122.744 300.562 122.969 300.699 123.115C300.772 123.181 300.859 123.217 300.953 123.217C301.048 123.217 301.142 123.181 301.214 123.108C301.345 122.969 304.182 120.035 305.125 118.382C306.286 119.329 307.388 120.217 308.019 120.865C308.092 120.938 308.186 120.974 308.281 120.974C308.375 120.974 308.462 120.938 308.534 120.872C308.68 120.734 308.68 120.501 308.534 120.355C308.397 120.217 308.244 120.071 308.077 119.918C308.788 119.984 309.695 120.181 310.29 120.348C310.486 120.399 310.682 120.29 310.74 120.093C310.791 119.897 310.682 119.7 310.486 119.642C310.268 119.583 308.52 119.11 307.461 119.168C307.374 118.579 307.214 117.421 307.127 116.824C307.113 116.744 307.076 116.664 307.011 116.613C307.004 116.605 306.075 115.71 305.393 113.088C304.936 111.333 304.958 110.016 305.444 109.273C305.727 108.843 306.162 108.588 306.786 108.501C308.128 108.304 309.021 110.955 309.739 113.088C309.942 113.685 310.131 114.253 310.326 114.734C311.153 116.831 312.314 118.513 313.083 119.627L313.388 120.071C314.041 121.033 315.463 125.336 315.325 126.501C315.136 128.052 314.853 129.013 314.65 129.552C314.578 129.741 314.672 129.952 314.861 130.025C314.904 130.04 314.948 130.047 314.991 130.047C315.136 130.047 315.274 129.96 315.332 129.814C315.644 128.991 315.891 127.877 316.05 126.596C316.21 125.256 314.723 120.749 313.997 119.671L314.012 119.634ZM295.665 122.744C294.932 122.365 292.93 121.375 291.914 121.28C291.312 120.683 289.353 118.804 288.294 118.586C287.953 118.178 286.777 116.867 285.399 116.249C285.385 116.219 285.37 116.19 285.341 116.168C282.287 113.314 282.352 112.659 282.417 112.018C282.439 111.836 282.512 111.596 282.766 111.435C283.092 111.232 283.614 111.239 284.238 111.465C285.152 111.792 286.676 113.365 287.59 114.399C287.612 114.428 287.634 114.45 287.655 114.479C287.837 114.683 287.989 114.865 288.105 115.011C288.141 115.054 288.192 115.091 288.25 115.12C290.071 115.863 292.393 117.414 292.422 117.435C292.451 117.457 292.487 117.472 292.516 117.479C293.749 117.85 296.644 119.598 297.797 120.312C296.862 120.989 296.143 121.957 295.665 122.744ZM289.97 111.232C291.587 111.989 294.214 114.537 294.243 114.559C294.272 114.588 294.315 114.617 294.351 114.632C296.564 115.564 299.517 117.414 299.909 117.705C299.169 118.418 298.61 119.307 298.342 119.787C297.326 119.154 294.199 117.246 292.777 116.795C292.436 116.569 290.361 115.215 288.613 114.479C288.533 114.384 288.388 114.217 288.199 113.991C287.793 113.511 287.343 112.994 286.886 112.477C285.588 110.991 284.246 109.455 283.839 108.639C283.622 108.202 283.665 107.685 283.955 107.314C284.238 106.95 284.695 106.804 285.21 106.914C286.487 107.198 288.99 110.052 289.839 111.122C289.875 111.166 289.919 111.202 289.97 111.224V111.232Z" fill="black"/>
<path d="M309.533 115.965C309.018 116.249 307.995 116.336 307.639 116.344C307.436 116.344 307.284 116.518 307.291 116.722C307.291 116.919 307.458 117.072 307.654 117.072H307.668C307.726 117.072 309.112 117.021 309.888 116.606C310.062 116.511 310.128 116.285 310.033 116.111C309.939 115.936 309.714 115.87 309.54 115.965H309.533Z" fill="black"/>
<path d="M309.954 126.879C310.063 126.879 310.164 126.828 310.237 126.741C310.36 126.581 310.331 126.355 310.179 126.231C307.959 124.484 307.328 120.887 307.32 120.85C307.284 120.654 307.103 120.515 306.899 120.552C306.704 120.588 306.566 120.77 306.602 120.974C306.631 121.134 307.291 124.877 309.729 126.799C309.794 126.85 309.874 126.879 309.954 126.879Z" fill="black"/>
<path d="M303.059 128.14C301.26 127.091 299.533 126.705 299.461 126.691C299.265 126.647 299.069 126.771 299.033 126.967C298.989 127.164 299.113 127.36 299.308 127.397C299.323 127.397 301.093 127.797 302.827 128.839C302.914 128.89 303.023 128.904 303.117 128.875C303.153 128.868 306.817 127.783 310.074 129.195C310.118 129.217 310.169 129.225 310.22 129.225C310.357 129.225 310.495 129.144 310.553 129.006C310.633 128.824 310.553 128.606 310.365 128.525C307.209 127.157 303.828 127.928 303.059 128.132V128.14Z" fill="black"/>
<path d="M414.336 173.891C414.336 173.891 404.121 174.925 403.331 175.223C402.54 175.522 402.482 189.058 403.331 190.333C404.179 191.607 413.429 190.82 414.336 190.879C414.336 190.879 417.514 188.243 417.296 182.476C417.086 176.709 414.518 174.189 414.336 173.891Z" fill="#586BF8"/>
<path d="M392.756 115.049C392.669 115.02 383.855 112.223 378.595 105.845C378.486 105.714 378.305 105.677 378.152 105.75C377.884 105.881 371.638 109.012 369.838 114.393C368.264 119.119 369.41 124.355 369.751 125.687C367.836 126.517 365.74 127.755 362.069 132.219C358.637 136.384 353.225 141.597 349.257 142.588C346.086 143.389 345.448 145.071 345.325 145.857C345.02 145.857 344.556 145.872 344.07 146.003C343.743 145.202 342.597 143.236 338.708 140.702C336.779 139.442 335.357 137.673 333.978 135.969C331.896 133.391 329.937 130.944 326.615 131.024C325.875 131.039 325.091 131.177 324.279 131.432C321.616 128.672 319.237 126.444 318.039 126.692C316.552 126.998 315.355 128.585 315.304 128.651C315.21 128.774 315.21 128.942 315.29 129.073C315.5 129.393 316.501 130.238 316.98 130.631C316.531 131.585 315.529 132.612 314.477 133.515L313.658 134.126C312.627 134.898 311.844 135.473 311.169 135.903C310.879 135.67 310.4 135.284 310.103 135.088C309.602 134.76 308.304 134.906 307.941 134.949C307.839 134.949 307.535 134.971 306.961 135.765C306.795 135.99 305.968 137.17 306.163 137.942C306.301 138.51 308.768 141.139 310.727 143.17C310.197 143.978 309.805 144.685 309.631 145.18C308.659 147.969 309.929 151.304 313.89 156.321C316.871 160.092 332.404 178.857 345.23 178.027C355.489 177.35 363.723 171.525 366.197 169.588C365.631 172.777 363.766 183 362.613 186.226C361.379 189.663 358.137 198.699 361.539 201.67C361.423 202.733 360.879 207.83 360.719 209.178C360.69 209.418 360.799 209.665 361.046 209.949C363.121 212.294 375.744 217.843 387.917 217.843C388.106 217.843 388.266 217.697 388.28 217.508C388.331 216.896 388.607 213.386 388.991 208.18H388.258C387.925 212.826 387.671 216.088 387.584 217.114C374.54 217.005 361.706 210.685 361.437 209.265C361.583 208.078 362.018 203.986 362.199 202.304C363.926 203.84 370.013 208.231 385.639 211.012C385.661 211.012 385.683 211.012 385.705 211.012C385.879 211.012 386.031 210.889 386.06 210.714C386.096 210.517 385.966 210.328 385.77 210.292C367.307 207.008 362.25 201.335 362.199 201.277C362.192 201.262 362.177 201.262 362.163 201.248C362.156 201.248 362.156 201.233 362.148 201.226C358.898 198.721 362.098 189.823 363.302 186.474C364.688 182.607 366.98 169.369 367.082 168.758C368.576 160.69 369.817 145.362 369.831 145.209C369.846 145.005 369.701 144.83 369.497 144.816C369.294 144.801 369.12 144.947 369.106 145.151C369.091 145.304 367.872 160.442 366.392 168.495C365.42 169.318 356.57 176.556 345.187 177.299C332.716 178.122 317.401 159.59 314.456 155.869C310.669 151.071 309.435 147.947 310.313 145.427C310.458 145.02 310.792 144.408 311.242 143.709C311.423 143.898 311.597 144.073 311.764 144.248C311.67 144.284 311.59 144.364 311.561 144.466C311.503 144.656 311.605 144.859 311.8 144.918C312.214 145.049 312.722 145.122 313.309 145.122C313.36 145.122 313.425 145.114 313.476 145.114C312.49 146.84 313.28 148.799 313.324 148.893C313.382 149.032 313.52 149.119 313.658 149.119C313.701 149.119 313.752 149.112 313.795 149.09C313.977 149.01 314.064 148.799 313.991 148.617C313.984 148.595 313.15 146.527 314.419 145.041C315.442 144.896 316.61 144.561 317.902 143.949C317.909 145.755 319.287 147.845 320.078 148.755C320.151 148.835 320.252 148.879 320.354 148.879C320.441 148.879 320.521 148.85 320.593 148.791C320.746 148.66 320.76 148.427 320.629 148.274C319.766 147.27 318.46 145.122 318.649 143.614C318.649 143.6 318.649 143.578 318.649 143.563C319.353 143.185 320.078 142.726 320.833 142.173C321.021 142.041 321.203 141.91 321.398 141.765C322.951 140.607 323.981 139.158 324.663 137.796C324.714 137.796 324.757 137.774 324.801 137.745C326.68 136.624 329.756 139.151 329.792 139.173C329.857 139.231 329.945 139.26 330.024 139.26C330.126 139.26 330.235 139.216 330.307 139.129C330.438 138.976 330.416 138.743 330.257 138.619C330.126 138.51 327.355 136.245 325.113 136.85C325.41 136.143 325.621 135.488 325.773 134.92C325.846 134.913 325.918 134.884 325.976 134.833C327.289 133.609 328.668 134.483 328.726 134.52C328.893 134.629 329.118 134.578 329.226 134.41C329.335 134.243 329.292 134.017 329.125 133.908C328.552 133.529 327.246 133.122 325.998 133.901C326.085 133.427 326.107 133.114 326.114 133.063C326.129 132.867 325.976 132.692 325.78 132.677C325.701 132.677 325.621 132.699 325.555 132.75L325.396 132.583C325.222 132.401 325.048 132.211 324.873 132.029C325.49 131.862 326.092 131.774 326.658 131.76C329.633 131.694 331.396 133.893 333.441 136.435C334.849 138.182 336.314 139.995 338.338 141.321C343.047 144.393 343.504 146.512 343.504 146.527C343.504 146.527 343.504 146.534 343.504 146.541V146.556C344.236 149.389 344.135 155.112 344.135 155.17C344.135 155.374 344.287 155.534 344.49 155.541C344.686 155.541 344.846 155.381 344.853 155.185C344.853 154.952 344.947 149.716 344.273 146.709C344.947 146.534 345.564 146.6 345.615 146.607C349.453 147.299 352.122 156.284 352.151 156.372C352.195 156.532 352.34 156.634 352.5 156.634C352.536 156.634 352.565 156.634 352.601 156.619C352.797 156.561 352.906 156.357 352.848 156.168C352.739 155.789 350.156 147.109 346.05 145.966C346.144 145.398 346.66 144.007 349.438 143.301C353.573 142.267 359.13 136.937 362.627 132.685C363.607 131.498 364.463 130.551 365.232 129.779C365.471 131.257 366.204 134.672 368.141 136.806C368.213 136.886 368.308 136.923 368.409 136.923C368.496 136.923 368.583 136.893 368.656 136.828C368.801 136.689 368.816 136.464 368.678 136.311C366.617 134.039 365.993 130.027 365.877 129.153C367.517 127.624 368.75 126.925 369.897 126.415C370.15 127.85 371.231 132.335 375.338 137.17C377.811 140.083 380.946 141.918 383.238 143.257C384.674 144.102 385.813 144.765 386.314 145.391C386.387 145.478 386.488 145.529 386.597 145.529C386.677 145.529 386.757 145.5 386.822 145.449C386.974 145.325 387.003 145.092 386.88 144.94C386.292 144.211 385.11 143.512 383.601 142.639C381.352 141.328 378.276 139.522 375.889 136.704C371.159 131.134 370.549 125.913 370.542 125.862C370.542 125.855 370.542 125.84 370.535 125.833C370.535 125.818 370.535 125.811 370.535 125.796C370.52 125.738 368.816 119.753 370.535 114.626C372.044 110.119 377.057 107.177 378.232 106.537C378.892 107.316 379.611 108.044 380.358 108.721C376.477 111.35 373.691 113.287 373.778 118.682C373.937 127.966 378.283 134.738 387.061 139.384C387.112 139.413 387.17 139.427 387.228 139.427C387.359 139.427 387.482 139.355 387.547 139.231C387.642 139.056 387.576 138.83 387.395 138.736C378.871 134.221 374.648 127.66 374.503 118.66C374.416 113.607 376.984 111.867 380.873 109.238L380.916 109.209C383.173 111.153 385.632 112.624 387.707 113.68C383.136 115.304 376.622 120.073 376.331 120.284C376.172 120.401 376.136 120.634 376.252 120.794C376.324 120.888 376.433 120.939 376.542 120.939C376.614 120.939 376.694 120.918 376.752 120.867C376.825 120.816 384.188 115.427 388.636 114.131C390.166 114.859 391.407 115.333 392.053 115.566C388.49 120.532 386.778 134.243 390.079 139.959C390.703 141.037 390.986 144.619 391.044 149.68C391.32 149.673 391.566 149.825 391.748 149.84C391.683 144.532 391.378 140.753 390.703 139.588C387.511 134.061 389.332 119.964 392.923 115.609C393.003 115.515 393.025 115.391 392.988 115.274C392.952 115.158 392.865 115.063 392.749 115.034L392.756 115.049ZM325.207 133.456C325.142 133.973 324.873 135.685 323.938 137.534C323.292 138.757 322.363 140.039 321.014 141.109C320.992 141.131 320.97 141.146 320.941 141.168C317.249 143.92 314.325 144.561 312.773 144.233C310.407 141.83 307.049 138.277 306.853 137.76C306.729 137.272 307.723 135.808 307.999 135.67C308.739 135.575 309.53 135.583 309.697 135.692C309.9 135.823 310.219 136.071 310.487 136.282C309.798 136.639 309.181 136.813 308.463 136.813C308.26 136.813 308.1 136.973 308.1 137.177C308.1 137.381 308.26 137.541 308.463 137.541C309.45 137.541 310.255 137.272 311.198 136.719C311.256 136.719 311.314 136.711 311.365 136.682C311.488 136.602 313.259 135.51 314.934 134.075C318.163 131.665 318.272 128.993 318.272 128.876C318.272 128.68 318.119 128.512 317.923 128.505C317.706 128.483 317.561 128.658 317.546 128.855C317.546 128.862 317.524 129.291 317.292 129.939C316.806 129.532 316.327 129.109 316.066 128.855C316.429 128.439 317.263 127.588 318.185 127.398C319.258 127.172 323.169 131.301 324.844 133.063L325.207 133.449V133.456Z" fill="black"/>
<path d="M466.575 159.298C462.099 144.75 457.173 136.573 455.25 133.718C455.243 133.704 455.236 133.689 455.221 133.682C454.982 133.332 454.793 133.063 454.656 132.874C455.526 132.218 457.441 130.048 455.192 124.638C453.966 121.689 454.184 119.155 454.38 116.92C454.605 114.335 454.801 112.107 452.777 110.06C449.019 106.267 445.166 103.98 440.647 102.859C440.509 102.83 440.371 102.874 440.284 102.983C440.219 103.063 433.319 111.277 421.291 115.245C421.189 115.281 421.11 115.354 421.066 115.449C421.023 115.544 421.03 115.66 421.081 115.755C421.131 115.857 426.224 126.473 411.983 141.946C411.918 142.005 411.018 142.922 409.865 148.908C409.843 149.031 410.532 149.199 410.583 148.944C411.628 143.497 412.426 142.536 412.491 142.471C412.846 142.085 413.187 141.699 413.521 141.32C417.272 137.752 423.714 133.187 429.953 128.774C437.955 123.109 445.507 117.757 446.813 114.91C448.845 110.468 444.782 108.524 441.198 106.813C440.487 106.471 439.754 106.121 439.08 105.764C438.905 105.67 438.681 105.735 438.586 105.917C438.492 106.092 438.557 106.318 438.739 106.412C439.428 106.784 440.168 107.133 440.886 107.476C444.484 109.194 447.887 110.818 446.153 114.611C444.934 117.284 437.106 122.825 429.54 128.184C424.78 131.556 419.905 135.007 416.176 138.058C425.158 126 422.669 117.692 421.908 115.82C425.114 114.728 427.936 113.344 430.381 111.903C435.888 114.335 440.741 118.048 440.784 118.085C440.85 118.136 440.93 118.158 441.002 118.158C441.111 118.158 441.22 118.107 441.292 118.012C441.416 117.852 441.387 117.626 441.227 117.502C441.176 117.466 436.533 113.912 431.143 111.444C436.649 108.051 439.979 104.454 440.705 103.631C444.999 104.738 448.678 106.951 452.276 110.585C454.061 112.391 453.894 114.364 453.669 116.869C453.466 119.184 453.234 121.813 454.532 124.929C456.665 130.056 454.815 131.883 454.184 132.335C452.283 130.638 449.28 128.432 447.466 127.434C448.801 127.26 449.998 127.318 450.977 127.718C451.159 127.791 451.376 127.704 451.449 127.514C451.522 127.325 451.434 127.114 451.246 127.041C449.882 126.488 448.17 126.51 446.24 126.925C446.204 126.925 446.175 126.932 446.138 126.946C435.191 129.378 417.381 144.786 416.496 145.551C416.343 145.682 416.329 145.915 416.459 146.068C416.532 146.148 416.633 146.192 416.735 146.192C416.822 146.192 416.902 146.163 416.974 146.104C417.192 145.915 435.474 130.099 446.226 127.66C447.444 128.039 451.507 130.9 453.872 133.041C453.894 133.063 453.93 133.114 453.981 133.187C453.074 132.997 451.855 132.99 450.419 133.398C447.952 134.112 444.397 136.187 441.459 142.056C436.635 151.667 436.584 161.672 436.584 161.774C436.584 161.847 436.606 161.905 436.642 161.964C435.888 163.58 435.692 164.84 435.713 165.735C434.952 165.976 434.088 166.165 433.015 166.252C432.18 166.318 431.172 166.376 430.047 166.442C424.135 166.777 415.204 167.286 412.658 170.301C411.918 171.175 411.374 172.42 410.989 173.876C407.891 174.211 403.727 174.684 403.19 174.888C402.973 174.976 402.871 175.201 402.813 175.398C402.146 177.495 402.153 189.233 403.023 190.544C403.466 191.206 405.243 191.432 408.073 191.432C409.255 191.432 410.641 191.388 412.172 191.323C412.418 191.883 412.687 192.357 412.97 192.728C414.914 195.24 418.585 196.063 423.453 196.063C427.566 196.063 432.529 195.481 438.02 194.825C441.35 194.432 444.789 194.024 448.387 193.704C449.004 195.786 450.636 204.371 449.526 207.007C448.714 208.93 445.848 209.891 445.819 209.898C432.122 214.806 408.196 212.68 407.957 212.658C407.761 212.643 407.579 212.789 407.565 212.985C407.55 213.182 407.696 213.364 407.891 213.379C408 213.386 413.26 213.859 420.239 213.859C428.132 213.859 438.238 213.255 445.616 210.728C445.747 212.439 445.899 215.833 445.935 216.75C435.372 222.109 409.226 219.743 406.012 219.43C406.012 218.243 406.027 213.896 406.172 207.495C405.976 207.546 405.722 207.684 405.447 207.634C405.28 215.039 405.287 219.663 405.287 219.765C405.287 219.947 405.425 220.107 405.613 220.129C406.223 220.194 413.79 220.988 422.575 220.988C431.361 220.988 440.915 220.231 446.479 217.296C446.603 217.231 446.683 217.1 446.675 216.961C446.668 216.765 446.479 212.396 446.327 210.495C447.125 210.189 449.41 209.163 450.201 207.291C451.369 204.532 449.824 196.1 449.135 193.646C451.239 193.478 459.763 192.488 465.03 187.172C470.398 181.755 472.161 177.488 466.568 159.298H466.575ZM403.633 190.129C402.958 189.116 402.886 176.854 403.531 175.536C404.402 175.311 410.351 174.655 414.167 174.269C414.167 174.269 414.181 174.284 414.181 174.291C415.879 176.396 416.808 179.155 416.931 182.49C417.112 187.434 414.711 190.019 414.196 190.515C413.942 190.536 413.456 190.536 412.709 190.573C410.597 190.667 404.184 190.966 403.633 190.136V190.129ZM448.641 192.947C448.641 192.947 448.641 192.947 448.634 192.947C444.92 193.274 441.379 193.689 437.955 194.097C426.188 195.488 416.895 196.587 413.557 192.277C413.347 192.007 413.151 191.665 412.962 191.286C413.63 191.257 414.152 191.235 414.312 191.243C414.399 191.243 414.493 191.221 414.566 191.163C414.602 191.133 414.827 190.937 415.146 190.573C415.509 191.876 416.532 192.692 417.069 193.034C417.098 193.056 417.134 193.078 417.17 193.092C417.214 193.107 417.257 193.114 417.301 193.114C417.439 193.114 417.569 193.041 417.627 192.917C417.714 192.75 417.62 192.524 417.46 192.422C416.96 192.109 415.821 191.228 415.748 189.786C415.806 189.706 415.857 189.626 415.915 189.539C417.011 190.908 418.716 191.177 419.738 191.177C420.021 191.177 420.254 191.155 420.406 191.133C420.42 191.133 420.442 191.133 420.457 191.133C420.522 191.119 420.558 191.104 420.58 191.097C420.74 191.017 420.819 190.835 420.769 190.66C420.718 190.493 420.536 190.383 420.362 190.405C420.355 190.405 420.341 190.405 420.333 190.405C420.079 190.442 417.635 190.711 416.372 188.934C416.358 188.905 416.329 188.891 416.307 188.876C417.069 187.449 417.78 185.337 417.671 182.468C417.54 178.973 416.561 176.068 414.762 173.84C414.711 173.774 414.675 173.731 414.653 173.701C414.653 173.701 414.646 173.701 414.638 173.694C414.638 173.694 414.638 173.68 414.624 173.672C414.058 172.937 413.391 172.835 413.318 172.828C413.122 172.806 412.941 172.944 412.919 173.141C412.897 173.337 413.028 173.519 413.224 173.548C413.231 173.548 413.318 173.57 413.434 173.621C412.992 173.665 412.418 173.723 411.765 173.796C412.114 172.565 412.592 171.517 413.216 170.767C415.56 167.985 424.302 167.49 430.091 167.163C431.223 167.097 432.238 167.039 433.073 166.973C435.561 166.777 437.034 166.048 438.463 165.349C440.066 164.563 441.735 163.748 444.963 163.58C446.886 163.478 450.056 164.432 450.085 164.439C450.274 164.497 450.477 164.388 450.535 164.199C450.593 164.01 450.484 163.806 450.295 163.747C450.158 163.704 446.973 162.75 444.927 162.859C441.546 163.034 439.82 163.886 438.144 164.701C437.585 164.978 437.034 165.24 436.439 165.481C436.468 164.163 437.005 162.087 439.188 159.218C441.517 156.16 442.127 153.073 442.156 152.942C442.192 152.745 442.069 152.556 441.865 152.512C441.67 152.476 441.481 152.599 441.437 152.803C441.437 152.832 440.828 155.854 438.608 158.774C438.107 159.43 437.694 160.048 437.346 160.631C437.513 157.769 438.303 149.956 442.098 142.391C444.927 136.755 448.286 134.774 450.615 134.104C452.407 133.587 453.93 133.777 454.685 134.199C456.593 137.046 461.453 145.136 465.879 159.524C471.646 178.282 469.252 181.893 464.515 186.67C458.798 192.437 448.736 192.961 448.634 192.961L448.641 192.947Z" fill="black"/>
<path d="M387.827 144.436C387.827 144.436 387.762 144.436 387.733 144.436C387.16 144.414 386.528 144.203 385.955 143.839C385.375 143.475 384.911 142.994 384.649 142.484C384.352 141.917 384.33 141.37 384.591 140.948C384.853 140.526 385.353 140.307 385.992 140.336C386.565 140.358 387.196 140.569 387.769 140.934C388.349 141.298 388.814 141.778 389.075 142.288C389.372 142.856 389.394 143.402 389.133 143.824C388.879 144.225 388.422 144.443 387.82 144.443L387.827 144.436ZM385.905 141.057C385.571 141.057 385.317 141.159 385.208 141.334C385.092 141.523 385.121 141.815 385.288 142.142C385.491 142.528 385.876 142.921 386.34 143.22C386.804 143.511 387.326 143.693 387.762 143.708C388.132 143.722 388.407 143.62 388.524 143.431C388.64 143.242 388.611 142.951 388.444 142.623C388.241 142.237 387.856 141.844 387.392 141.545C386.927 141.254 386.412 141.072 385.97 141.057C385.948 141.057 385.926 141.057 385.905 141.057Z" fill="black"/>
<path d="M384.557 149.992L387.633 149.868C387.633 149.868 389.128 144.145 388.431 142.099C388.431 142.099 387.27 141.036 385.478 140.97C385.478 140.97 385.674 145.398 384.557 150V149.992Z" fill="white"/>
<path d="M384.558 150.363C384.449 150.363 384.347 150.312 384.275 150.232C384.202 150.145 384.173 150.028 384.202 149.912C385.29 145.419 385.116 141.028 385.109 140.985C385.109 140.883 385.145 140.788 385.21 140.715C385.276 140.642 385.37 140.599 385.479 140.606C387.387 140.672 388.613 141.786 388.664 141.829C388.707 141.873 388.744 141.924 388.765 141.982C389.491 144.109 388.04 149.73 387.975 149.963C387.931 150.116 387.8 150.225 387.641 150.232L384.565 150.356C384.565 150.356 384.558 150.356 384.55 150.356L384.558 150.363ZM385.849 141.371C385.863 142.536 385.834 145.994 385.015 149.621L387.343 149.526C387.619 148.419 388.62 144.065 388.112 142.317C387.873 142.128 387.039 141.524 385.842 141.371H385.849Z" fill="black"/>
<path d="M414.678 145.274C414.577 145.274 414.483 145.274 414.388 145.259C413.75 145.194 413.286 144.91 413.082 144.451C412.879 144 412.974 143.461 413.351 142.937C413.685 142.471 414.214 142.063 414.838 141.779C415.462 141.495 416.115 141.378 416.688 141.437C417.326 141.502 417.791 141.786 417.994 142.245C418.386 143.126 417.617 144.291 416.238 144.91C415.716 145.143 415.172 145.267 414.678 145.267V145.274ZM416.405 142.157C416.013 142.157 415.564 142.259 415.143 142.449C414.642 142.674 414.207 143.009 413.953 143.366C413.735 143.665 413.67 143.956 413.757 144.153C413.844 144.357 414.113 144.495 414.475 144.531C414.911 144.575 415.447 144.473 415.948 144.247C417 143.774 417.53 142.966 417.334 142.543C417.247 142.34 416.985 142.201 416.616 142.165C416.55 142.165 416.478 142.157 416.405 142.157Z" fill="black"/>
<path d="M416.408 148.674L413.571 148.813C413.571 148.813 413.637 144.932 414.021 142.849C414.021 142.849 415.291 141.8 417.076 141.99C417.076 141.99 416.539 144.116 416.408 148.674Z" fill="white"/>
<path d="M413.57 149.176C413.475 149.176 413.388 149.139 413.316 149.074C413.243 149.001 413.207 148.906 413.207 148.804C413.207 148.644 413.272 144.865 413.664 142.775C413.679 142.688 413.722 142.615 413.787 142.564C413.845 142.52 415.195 141.421 417.11 141.625C417.212 141.639 417.306 141.69 417.371 141.778C417.437 141.865 417.451 141.974 417.429 142.076C417.429 142.098 416.9 144.224 416.769 148.681C416.769 148.87 416.617 149.023 416.421 149.03L413.584 149.169H413.57V149.176ZM414.353 143.052C414.063 144.72 413.969 147.428 413.94 148.433L416.051 148.331C416.167 145.091 416.472 143.139 416.631 142.338C415.492 142.338 414.636 142.863 414.353 143.059V143.052Z" fill="black"/>
<path d="M377.097 71.1547C377.097 71.1547 372.563 66.662 370.597 61.5358C367.797 54.2178 372.338 52.7542 374.798 52.3173C376.336 52.0406 381.225 51.8804 386.427 54.5455C386.427 54.5455 379.375 63.4945 377.097 71.1547Z" fill="#B1AEA9"/>
<path d="M377.88 68.3297C378.119 68.2569 382.538 59.8758 382.538 59.8758C381.137 58.4705 379.476 57.1306 377.024 56.5918C370.364 55.1355 371.583 59.5554 372.185 61.7908C372.911 64.4923 376.494 68.7375 377.88 68.3297Z" fill="#423F47"/>
<path d="M380.941 62.3583C379.215 64.9942 377.96 66.5889 377.096 71.1544C376.037 76.7613 376.538 83.2637 371.031 85.4773C371.031 85.4773 371.945 86.4821 372.765 86.9554C372.765 86.9554 371.967 88.4263 370.183 88.8559C370.183 88.8559 370.161 88.754 370.183 88.9433C370.756 93.538 374.274 101.73 378.613 106.419C384.953 113.271 394.384 117.778 407.704 117.778C424.093 117.778 436.571 108.618 442.128 101.424C448.585 93.0647 449.949 88.6957 451.878 84.0064C451.878 84.0064 447.584 84.4142 446.691 82.8268C446.691 82.8268 441.004 65.1981 426.646 55.652C418.18 50.016 392.984 43.9869 380.934 62.3656L380.941 62.3583Z" fill="#EEE4D9"/>
<path d="M384.062 95.0021C384.062 95.0021 387.755 93.8734 389.032 89.8613C390.301 85.8564 387.798 75.9025 383.446 75.8079C381.327 75.7642 379.339 77.104 377.344 81.5093C376.234 83.9559 373.615 90.8297 370.503 90.5021C370.503 90.5021 371.258 94.587 373.993 99.7205C376.546 104.505 377.642 105.255 377.642 105.255C375.262 99.0652 377.148 95.3953 379.484 94.5142C381.211 93.8661 382.829 94.4341 384.062 95.0021Z" fill="#423F47"/>
<path d="M392.652 94.1359C392.652 94.1359 396.083 92.2864 397.404 88.2014C399.878 80.5194 400.044 79.449 402.62 76.6019C405.195 73.7548 410.709 72.1019 417.499 74.6432C424.283 77.1844 428.244 80.6213 433.453 83.0679C438.654 85.5073 443.696 87.5679 451.118 86.017C451.118 86.017 447.897 94.034 444.596 98.199C442.782 100.493 439.358 105.692 432.314 110.316C432.314 110.316 432.72 107.803 431.886 102.786C431.102 98.0825 427.874 96.1383 425.407 95.301C420.329 93.5825 416.36 95.7233 411.543 95.5267C407.713 95.3665 403.57 93.0073 401.329 93.3641C398.768 93.7718 396.584 94.4199 394.081 96.5607C394.081 96.5607 393.102 94.1796 392.659 94.1286L392.652 94.1359Z" fill="#423F47"/>
<path d="M392.906 97.1568C392.304 97.6519 388.517 96.698 383.628 94.9068C374.559 91.5864 376.3 103.535 377.642 105.261C384.397 113.963 396.265 118.346 409.404 117.734C416.528 117.4 426.409 114.647 432.307 110.322C432.307 110.322 433.069 102.276 429.695 98.0014C424.646 91.6228 414.221 96.6179 409.513 95.2927C403.165 93.5087 399.32 91.8995 392.906 97.1568Z" fill="white"/>
<path d="M414.336 90.2616C415.272 89.6645 416.737 88.4412 416.737 85.98C416.737 83.4606 415.351 80.9921 412.544 79.6887C409.917 78.4727 405.383 80.5334 405.398 86.0091C405.398 88.2591 406.718 90.8514 409.439 91.5067C411.456 91.9873 413.639 90.7057 414.336 90.2543V90.2616Z" fill="#FFF5A3"/>
<path d="M387.246 91.4855C388.181 90.8884 388.95 89.3811 389.023 87.619C389.103 85.7549 388.37 83.4321 386.143 82.3253C383.553 81.0364 379.512 82.551 379.091 88.0122C378.917 90.2549 380.1 92.1699 382.827 92.8253C384.844 93.3059 386.549 91.9369 387.246 91.4928V91.4855Z" fill="#FFF5A3"/>
<path d="M388.575 87.9845C388.58 86.1065 387.344 84.5805 385.813 84.5762C384.283 84.572 383.038 86.0909 383.033 87.969C383.027 89.847 384.264 91.3729 385.794 91.3772C387.325 91.3815 388.57 89.8625 388.575 87.9845Z" fill="black"/>
<path d="M415.127 86.1987C415.249 84.2279 414.051 82.5495 412.451 82.4499C410.852 82.3503 409.456 83.8672 409.334 85.838C409.212 87.8087 410.41 89.4871 412.01 89.5867C413.61 89.6863 415.005 88.1694 415.127 86.1987Z" fill="black"/>
<path d="M389.022 93.1528C387.209 93.1819 384.981 93.4586 383.821 94.4343C382.529 95.5265 382.457 98.3372 383.821 99.7936C385.025 101.075 386.795 101.337 389.378 101.053C391.96 100.769 393.259 99.9683 393.912 98.796C394.666 97.427 394.55 95.2644 393.208 94.1503C391.866 93.0362 390.292 93.1309 389.022 93.1455V93.1528Z" fill="black"/>
<path d="M394.894 106.441C392.899 106.441 391.673 106.019 391.586 105.99C391.397 105.924 391.296 105.713 391.368 105.524C391.434 105.335 391.644 105.233 391.833 105.298C391.869 105.313 395.213 106.449 399.813 104.854C404.405 103.267 405.972 100.594 405.987 100.565C406.088 100.39 406.306 100.325 406.48 100.427C406.654 100.529 406.712 100.747 406.618 100.922C406.552 101.038 404.92 103.849 400.052 105.538C398.057 106.23 396.294 106.434 394.901 106.434L394.894 106.441Z" fill="black"/>
<path d="M386.646 60.8223C386.646 60.8223 383.178 60.0869 379.841 63.6767C379.841 63.6767 380.682 56.8757 388.264 52.5796C388.264 52.5796 387.284 52.0335 387.045 50.5262C387.045 50.5262 387.487 52.2228 397.419 49.1791C401.003 48.0796 409.854 45.116 419.945 49.798C421.628 50.5772 425.938 52.7689 426.808 52.4121L424.284 54.6111C424.284 54.6111 430.472 48.764 436.573 47.0456C441.622 45.6257 445.061 46.4485 446.403 50.9048C447.695 55.1937 446.454 62.3879 445.09 66.8223C443.726 71.2568 443.255 72.1816 443.255 72.1816C443.255 72.1816 444.314 77.002 450.945 80.5335C450.945 80.5335 449.088 82.3175 446.266 82.8127C446.266 82.8127 441.136 81.1525 436.065 76.3466C431.741 72.2544 427.2 66.3709 422.615 63.0869C415.767 58.1718 406.205 58.3247 401.605 62.934C401.605 62.934 399.697 61.9073 399.552 59.1913C399.552 59.1913 393.306 61.6816 391.05 65.9486C391.05 65.9486 387.821 64.4995 386.653 60.8078L386.646 60.8223Z" fill="#B1AEA9"/>
<path d="M441.903 67.4122C441.388 68.0894 438.051 70.1865 434.496 68.2277C430.107 65.803 429.759 63.5748 430.767 60.218C431.572 57.5238 434.808 52.9583 437.333 51.5748C443.993 47.9267 444.841 53.1549 445.124 55.4558C445.342 57.2253 445.697 62.4389 441.903 67.4122Z" fill="#423F47"/>
<path d="M401.569 71.461C401.569 71.461 401.548 71.461 401.533 71.461C401.33 71.4464 401.185 71.2498 401.207 71.0532C401.243 70.6163 401.997 68.3882 413.17 67.66C413.373 67.6455 413.54 67.7984 413.554 68.0023C413.569 68.2061 413.416 68.3736 413.213 68.3882C402.6 69.0799 401.932 71.1261 401.925 71.1479C401.91 71.3372 401.751 71.4683 401.569 71.4683V71.461Z" fill="black"/>
<path d="M387.682 72.6837C387.58 72.6837 387.486 72.64 387.421 72.5453L387.363 72.4579C386.804 71.5623 384.294 71.4968 379.905 72.2613C379.709 72.2977 379.52 72.1594 379.484 71.9628C379.448 71.7662 379.586 71.5769 379.781 71.5405C386.884 70.3099 387.624 71.504 387.979 72.072C388.095 72.2395 388.074 72.4871 387.907 72.6036C387.834 72.6545 387.754 72.6764 387.682 72.6764V72.6837Z" fill="black"/>
<path d="M387.854 95.3587C387.854 95.3587 390.836 95.0748 391.467 96.116C392.098 97.1573 391.641 94.8053 389.849 94.5359C388.057 94.2665 386.969 95.0529 387.861 95.3514L387.854 95.3587Z" fill="white"/>
<path d="M410.711 91.8639C412.06 91.8639 413.497 91.4416 414.773 90.4659C416.87 88.8566 417.523 86.8979 416.826 84.2911C416.086 81.5241 413.91 78.8518 410.689 79.0993C406.779 79.4052 405.582 82.6892 405.248 84.0872C404.675 86.4829 405.212 88.813 406.677 90.313C407.606 91.2668 409.086 91.8639 410.703 91.8639H410.711ZM405.966 84.2547C406.264 83.0095 407.323 80.0896 410.754 79.8202C410.878 79.8129 410.994 79.8057 411.11 79.8057C413.714 79.8057 415.506 82.1066 416.137 84.4731C416.754 86.7887 416.203 88.4562 414.338 89.8761C411.842 91.7838 408.694 91.3178 407.207 89.796C405.915 88.4707 405.451 86.4028 405.966 84.2474V84.2547Z" fill="black"/>
<path d="M424.711 54.3198C424.849 54.4654 425.081 54.4654 425.226 54.3198C425.27 54.2761 430.043 49.6159 436.261 47.4169C440.991 45.7421 444.582 46.8708 445.88 50.4387C446.954 53.3878 447.092 62.8611 442.601 72.4291C442.514 72.6111 442.594 72.8296 442.775 72.9169C442.826 72.9388 442.877 72.9533 442.928 72.9533C443.066 72.9533 443.196 72.8732 443.254 72.7422C448.108 62.4096 447.556 52.929 446.555 50.1912C445.126 46.2591 441.085 44.9411 436.007 46.7324C429.637 48.9897 424.754 53.7518 424.704 53.8028C424.559 53.9412 424.559 54.1742 424.704 54.3198H424.711Z" fill="black"/>
<path d="M443.354 51.5387C443.485 51.3858 443.478 51.1601 443.325 51.0217C442.433 50.2207 439.277 49.4707 435.693 52.4489C433.343 54.4004 428.17 59.5557 430.92 65.1844C430.985 65.3154 431.108 65.3882 431.246 65.3882C431.297 65.3882 431.355 65.3737 431.406 65.3518C431.587 65.2645 431.66 65.046 431.573 64.864C429.048 59.7013 433.938 54.8518 436.158 53.0096C439.451 50.2717 442.208 50.9926 442.847 51.5605C442.999 51.6989 443.224 51.6843 443.362 51.5314L443.354 51.5387Z" fill="black"/>
<path d="M442.82 59.592C442.899 59.4099 442.82 59.1915 442.638 59.1114C436.733 56.4609 432.866 62.7958 432.83 62.8614C432.728 63.0361 432.786 63.2546 432.953 63.3638C433.011 63.4002 433.077 63.4148 433.142 63.4148C433.265 63.4148 433.388 63.3492 433.454 63.24C433.599 62.9997 437.03 57.3929 442.348 59.7813C442.529 59.8614 442.747 59.7813 442.827 59.5992L442.82 59.592Z" fill="black"/>
<path d="M434.894 63.8446C434.894 63.8446 437.063 62.5485 438.456 63.8009C438.529 63.8664 438.616 63.8956 438.696 63.8956C438.797 63.8956 438.892 63.8519 438.964 63.7718C439.095 63.6189 439.087 63.3931 438.935 63.2548C437.143 61.6383 434.618 63.1528 434.517 63.2111C434.343 63.313 434.292 63.5388 434.394 63.7135C434.495 63.881 434.72 63.9393 434.894 63.8373V63.8446Z" fill="black"/>
<path d="M434.534 68.2491C434.534 68.2491 436.007 69.1811 437.886 69.1811C439.119 69.1811 440.541 68.7879 441.869 67.4918C442.014 67.3535 442.014 67.1205 441.869 66.9748C441.731 66.8292 441.499 66.8292 441.354 66.9748C438.423 69.8438 435.056 67.7394 434.919 67.6447C434.752 67.5355 434.527 67.5865 434.418 67.754C434.309 67.9214 434.36 68.1472 434.527 68.2564L434.534 68.2491Z" fill="black"/>
<path d="M422.294 50.9562C422.294 50.9562 422.352 50.9562 422.381 50.9489C422.577 50.9052 422.693 50.7086 422.65 50.512C422.374 49.3616 422.933 48.8446 422.962 48.8154C423.114 48.6844 423.136 48.4586 423.005 48.3057C422.875 48.1528 422.65 48.131 422.497 48.2548C422.461 48.2839 421.562 49.0557 421.946 50.6722C421.982 50.8397 422.135 50.9489 422.302 50.9489L422.294 50.9562Z" fill="black"/>
<path d="M423.673 51.9824C423.709 51.997 423.753 52.0043 423.789 52.0043C423.942 52.0043 424.079 51.9096 424.13 51.7567C424.13 51.7422 424.718 50.0383 426.756 49.8999C426.96 49.8854 427.105 49.7106 427.09 49.514C427.076 49.3101 426.902 49.1645 426.706 49.179C424.195 49.3538 423.477 51.4436 423.441 51.531C423.376 51.7203 423.477 51.9242 423.673 51.9897V51.9824Z" fill="black"/>
<path d="M389.337 53.1334C389.337 53.1334 389.358 53.1334 389.366 53.1334C389.554 53.1334 389.714 52.9877 389.728 52.7984C389.743 52.5945 389.598 52.4198 389.395 52.4052C388.386 52.3178 387.886 51.7499 387.639 51.2547C389.489 51.7717 393.261 50.7159 399.754 48.9028C407.357 46.7765 414.394 47.3081 419.567 50.41C419.741 50.512 419.959 50.4537 420.068 50.2863C420.169 50.1115 420.111 49.8931 419.944 49.7838C414.605 46.5799 407.365 46.012 399.566 48.1964C392.826 50.0824 388.372 51.3275 387.312 50.2644C387.204 50.1552 387.044 50.1261 386.906 50.1916C386.768 50.2571 386.681 50.4028 386.696 50.5557C386.768 51.3712 387.414 52.9659 389.344 53.1334H389.337Z" fill="black"/>
<path d="M419.495 60.5097C419.313 60.4224 419.096 60.5097 419.016 60.6845C418.929 60.8665 419.016 61.085 419.19 61.1651C423.412 63.1238 426.648 66.7136 430.072 70.5146C433.895 74.7525 437.849 79.136 443.544 81.6481C443.595 81.67 443.638 81.6773 443.689 81.6773C443.827 81.6773 443.965 81.5972 444.023 81.4588C444.103 81.2768 444.023 81.0583 443.834 80.9782C438.284 78.5243 434.381 74.1991 430.609 70.0195C427.134 66.1675 423.855 62.5267 419.495 60.5025V60.5097Z" fill="black"/>
<path d="M452.161 83.7737C452.082 83.6717 451.958 83.6208 451.835 83.6353C451.806 83.6353 449.02 83.9557 447.279 83.031C448.295 82.7251 450.072 82.0188 451.327 80.6499C451.414 80.5552 451.443 80.4169 451.407 80.2858C451.363 80.162 451.262 80.0674 451.131 80.0455C451.095 80.0382 447.323 79.2591 444.276 73.7324C444.181 73.5576 443.956 73.4921 443.782 73.5868C443.608 73.6814 443.543 73.9071 443.637 74.0819C446.14 78.6256 449.085 80.1183 450.362 80.5698C448.701 82.0334 446.372 82.5067 446.35 82.514C446.213 82.5431 446.104 82.6378 446.067 82.7761C446.031 82.9145 446.067 83.0528 446.176 83.1475C447.605 84.429 450.181 84.4581 451.342 84.3999C451.175 84.8441 451.008 85.2737 450.834 85.7106C450.137 85.9072 447.098 86.6062 441.831 85.645C436.673 84.7057 431.928 81.9242 427.336 79.2445C421.873 76.0479 416.707 73.0261 411.063 73.0261C402.887 73.0261 399.833 78.1741 397.758 85.9072C395.836 93.0868 391.664 94.1426 391.621 94.1499C391.425 94.1936 391.301 94.3902 391.345 94.5868C391.381 94.7543 391.533 94.8708 391.7 94.8708C391.729 94.8708 391.751 94.8708 391.78 94.8635C391.969 94.8198 396.409 93.7421 398.462 86.0965C400.45 78.6839 403.351 73.7542 411.063 73.7542C416.512 73.7542 421.59 76.7251 426.966 79.8708C431.609 82.5868 436.411 85.3975 441.693 86.3586C446.285 87.196 449.209 86.8174 450.486 86.5407C446.379 96.4582 440.293 104.279 432.697 109.572C432.777 107.097 432.682 100.703 429.955 97.7397C425.994 93.4436 420.748 94.1354 415.191 94.8708C414.712 94.9363 414.226 94.9946 413.74 95.0601C410.664 95.446 408.575 94.7397 406.551 94.0553C404.752 93.4436 403.061 92.8684 400.841 93.0868C396.394 93.5237 393.296 96.7567 393.166 96.8951C393.028 97.0407 393.035 97.2737 393.18 97.4121C393.325 97.5504 393.558 97.5431 393.695 97.3975C393.724 97.3684 396.742 94.2227 400.914 93.815C402.974 93.6111 404.599 94.1645 406.319 94.747C408.415 95.4606 410.592 96.196 413.827 95.7883C414.313 95.73 414.799 95.6645 415.278 95.5989C420.64 94.8926 425.711 94.2227 429.418 98.2422C432.211 101.271 432.015 108.582 431.95 110.097C427.466 113.082 422.475 115.201 417.063 116.373C403.337 119.351 388.138 115.696 380.1 107.49C379.316 106.696 378.605 105.881 377.945 105.058C376.632 102.087 376.19 96.9315 378.816 95.2713C381.355 93.662 383.756 95.2421 383.858 95.3077C384.025 95.4169 384.25 95.3732 384.359 95.2057C384.467 95.0383 384.424 94.8125 384.264 94.7033C384.148 94.6232 381.37 92.781 378.424 94.6523C376.008 96.1888 375.805 100.07 376.574 103.237C373.179 98.3878 371.626 93.5528 370.966 90.8951C371.888 90.8222 373.774 90.1378 375.624 86.1766C375.958 85.463 376.277 84.7421 376.596 84.0212C378.518 79.696 380.332 75.6038 383.989 76.2518C386.078 76.6232 388.109 80.0892 388.726 84.3125C388.74 84.4072 388.748 84.5018 388.762 84.5965C387.855 82.7324 385.955 81.2543 383.735 81.5018C381.42 81.7494 379.382 84.0868 378.932 86.1038C378.395 88.514 378.888 90.7567 380.209 91.9582C380.811 92.5043 382.189 93.196 383.793 93.196C384.837 93.196 385.984 92.9048 387.072 92.0892C387.413 91.8344 387.696 91.5577 387.964 91.2664C387.471 92.2494 386.767 93.065 385.78 93.5601C385.599 93.6475 385.527 93.8659 385.621 94.048C385.686 94.1718 385.809 94.2519 385.947 94.2519C386.005 94.2519 386.056 94.2373 386.107 94.2154C389.393 92.5625 389.981 87.9679 389.437 84.2179C388.864 80.2785 386.847 76.0334 384.105 75.5455C379.882 74.7955 377.96 79.1353 375.921 83.7373C375.602 84.4509 375.283 85.1717 374.956 85.878C373.128 89.7883 371.372 90.1742 370.785 90.1887C370.683 89.7373 370.618 89.3805 370.574 89.1475C372.258 88.645 373.027 87.2106 373.063 87.145C373.106 87.0577 373.121 86.9484 373.085 86.8538C373.048 86.7591 372.983 86.679 372.889 86.6426C372.221 86.3514 371.801 85.9509 371.568 85.6742C375.791 83.8829 376.465 78.6839 377.249 72.6838L377.285 72.3999C378.054 66.6256 379.324 64.9217 379.353 64.8926C379.476 64.7397 379.462 64.5139 379.309 64.3829C379.157 64.2518 378.932 64.2664 378.794 64.4193C378.743 64.4775 377.662 65.7955 376.857 70.3829C370.85 63.5091 370.139 59.7955 370.139 57.5819C370.139 54.378 372.316 52.6595 376.429 52.6086C376.502 52.6086 376.567 52.6086 376.632 52.6086C380.325 52.6086 383.764 53.8391 385.425 54.5309C384.271 55.4775 382.85 56.81 381.682 58.4557C380.383 57.4726 379.019 56.7736 377.612 56.3877C376.335 56.0382 373.977 55.6304 372.504 56.861C372.352 56.9921 372.33 57.2178 372.461 57.3707C372.591 57.5236 372.816 57.5455 372.969 57.4144C374.231 56.3586 376.502 56.8319 377.416 57.0794C378.743 57.4435 380.035 58.1134 381.275 59.0527C380.622 60.0649 380.071 61.179 379.737 62.3804C378.054 62.6426 377.379 63.9241 377.263 64.5795C377.227 64.7761 377.358 64.9654 377.554 65.0018C377.575 65.0018 377.597 65.0018 377.619 65.0018C377.786 65.0018 377.938 64.878 377.974 64.7105C377.982 64.6596 378.243 63.5163 379.563 63.1668C379.534 63.3197 379.491 63.4727 379.469 63.6329C379.447 63.793 379.534 63.9532 379.679 64.0188C379.73 64.0406 379.773 64.0479 379.824 64.0479C379.933 64.0479 380.035 64.0042 380.1 63.9168C380.129 63.8877 382.639 60.9095 386.368 61.179C386.716 62.0163 388.087 64.929 390.852 66.2906C390.902 66.3125 390.953 66.327 391.011 66.327C391.055 66.327 391.091 66.327 391.134 66.3052C391.229 66.2761 391.301 66.2032 391.345 66.1159C391.359 66.0795 393.144 62.4751 399.253 59.7226C399.448 60.5964 400.014 62.4605 401.4 63.2615C401.545 63.3416 401.719 63.3197 401.835 63.2032C401.893 63.1523 407.436 57.7858 416.367 60.1595C416.555 60.2105 416.758 60.094 416.809 59.8974C416.86 59.7008 416.744 59.5042 416.548 59.4532C408.219 57.2396 402.684 61.4921 401.538 62.4824C400.217 61.5066 399.876 59.1692 399.876 59.1474C399.862 59.0382 399.797 58.9362 399.695 58.878C399.593 58.8197 399.477 58.8125 399.376 58.8634C393.71 61.3027 391.475 64.4411 390.866 65.4678C388.167 63.9532 386.97 60.7275 386.963 60.6911C386.963 60.6765 386.941 60.662 386.934 60.6474C386.919 60.6256 386.912 60.5964 386.89 60.5819C386.876 60.56 386.854 60.5527 386.832 60.5382C386.818 60.5236 386.796 60.5091 386.782 60.5018C386.76 60.4872 386.731 60.4872 386.702 60.4799C386.687 60.4799 386.673 60.4654 386.651 60.4654C386.651 60.4654 386.644 60.4654 386.636 60.4654C386.636 60.4654 386.637 60.4654 386.629 60.4654C383.756 60.1814 381.565 61.594 380.419 62.577C380.731 61.4775 381.239 60.4581 381.841 59.5115C381.977 59.2979 382.112 59.094 382.247 58.8998C384.562 55.6668 387.899 53.5988 387.95 53.5697C388.124 53.4678 388.175 53.2421 388.073 53.0673C387.971 52.8925 387.746 52.8416 387.572 52.9435C387.493 52.9945 386.898 53.3586 386.071 53.9921C384.525 53.3003 380.659 51.7857 376.407 51.8586C371.888 51.9168 369.399 53.9411 369.399 57.56C369.399 59.9338 370.161 63.9387 376.69 71.2858C376.639 71.6062 376.596 71.9338 376.545 72.2834L376.509 72.5673C375.733 78.5309 375.065 83.679 370.872 85.1353C370.77 85.1717 370.698 85.2446 370.654 85.3392C370.618 85.4339 370.618 85.5431 370.662 85.6378C370.683 85.6742 371.09 86.4897 372.192 87.0941C371.873 87.5237 371.169 88.2664 370.067 88.4921C369.878 88.5285 369.755 88.7033 369.776 88.8999C369.776 88.9217 369.864 89.5261 370.096 90.531C370.096 90.5528 370.103 90.5747 370.11 90.5892C370.879 93.9169 373.237 101.555 379.541 107.992C385.838 114.422 396.423 118.121 407.32 118.121C410.613 118.121 413.936 117.786 417.179 117.08C422.714 115.878 427.815 113.708 432.392 110.65C432.443 110.628 432.494 110.599 432.53 110.555C440.67 105.072 447.127 96.7786 451.385 86.1766C451.385 86.162 451.392 86.1547 451.4 86.1402C451.668 85.4776 451.929 84.8004 452.176 84.1159C452.22 83.9994 452.198 83.8611 452.118 83.7664L452.161 83.7737ZM386.651 91.4921C384.199 93.3271 381.435 92.0747 380.702 91.4048C379.578 90.3781 379.171 88.4048 379.65 86.2494C380.035 84.5164 381.841 82.4266 383.822 82.2154C383.952 82.2009 384.076 82.1936 384.206 82.1936C386.419 82.1936 388.254 84.2761 388.574 86.3004C388.922 88.5649 388.298 90.2616 386.658 91.4921H386.651Z" fill="black"/>
<path d="M374.797 62.7225C374.884 62.7225 374.964 62.6861 375.029 62.6351C375.61 62.1982 377.148 61.2371 379.005 61.7104C379.201 61.7613 379.396 61.6375 379.447 61.4482C379.498 61.2516 379.382 61.055 379.186 61.004C377.024 60.4579 375.254 61.5574 374.594 62.0599C374.5 62.1327 374.434 62.2346 374.434 62.3584C374.434 62.5623 374.601 62.7225 374.797 62.7225Z" fill="black"/>
</g>
<defs>
<clipPath id="clip0_40000002_74884">
<rect width="470" height="224" fill="white"/>
</clipPath>
</defs>
</svg>
