<svg width="32" height="32" viewBox="0 0 32 32" fill="none" xmlns="http://www.w3.org/2000/svg">
<path d="M19.9998 4V9.33333C19.9998 9.68696 20.1403 10.0261 20.3904 10.2761C20.6404 10.5262 20.9795 10.6667 21.3332 10.6667H26.6665M19.9998 4H14.6665C13.9593 4 13.281 4.28095 12.7809 4.78105C12.2808 5.28115 11.9998 5.95942 11.9998 6.66667V20C11.9998 20.7072 12.2808 21.3855 12.7809 21.8856C13.281 22.3857 13.9593 22.6667 14.6665 22.6667H23.9998C24.7071 22.6667 25.3854 22.3857 25.8855 21.8856C26.3856 21.3855 26.6665 20.7072 26.6665 20V10.6667M19.9998 4L26.6665 10.6667M21.3332 22.6667V25.3333C21.3332 26.0406 21.0522 26.7189 20.5521 27.219C20.052 27.719 19.3737 28 18.6665 28H9.33317C8.62593 28 7.94765 27.719 7.44755 27.219C6.94746 26.7189 6.6665 26.0406 6.6665 25.3333V12C6.6665 11.2928 6.94746 10.6145 7.44755 10.1144C7.94765 9.61428 8.62593 9.33333 9.33317 9.33333H11.9998" stroke="#5A37E8" stroke-width="3" stroke-linecap="round" stroke-linejoin="round"/>
</svg>
