<svg width="32" height="32" viewBox="0 0 32 32" fill="none" xmlns="http://www.w3.org/2000/svg">
<path d="M25.2003 9.33334C26.4062 11.3349 26.9215 13.6771 26.6669 16V17.3333C26.6654 18.7372 27.0333 20.1167 27.7336 21.3333M10.6669 14.6667C10.6669 13.2522 11.2288 11.8956 12.229 10.8954C13.2292 9.89524 14.5858 9.33334 16.0002 9.33334C17.4147 9.33334 18.7713 9.89524 19.7715 10.8954C20.7717 11.8956 21.3336 13.2522 21.3336 14.6667V16C21.3336 18.8849 22.2693 21.6921 24.0002 24M16.0003 14.6667V17.3333C15.996 21.1459 17.1593 24.8683 19.3336 28M10.6669 20C10.9932 22.7864 11.8055 25.4941 13.0669 28M6.53357 25.3333C5.6339 22.3071 5.22869 19.1554 5.33357 16V14.6667C5.32846 12.7918 5.81761 10.9487 6.75171 9.32313C7.68582 7.69754 9.0319 6.34688 10.6543 5.40724C12.2767 4.4676 14.1181 3.97218 15.993 3.97091C17.8678 3.96964 19.7099 4.46256 21.3336 5.39999" stroke="#5A37E8" stroke-width="3" stroke-linecap="round" stroke-linejoin="round"/>
</svg>
