<svg width="208" height="168" viewBox="0 0 208 168" fill="none" xmlns="http://www.w3.org/2000/svg">
<g clip-path="url(#clip0_40000002_74262)">
<path d="M169.829 52.7129C169.829 52.7129 193.692 46.8162 205.298 69.6659C212.956 84.7427 199.343 104.979 174.236 104.979C174.236 104.979 104.791 115.086 56.9087 104.979C56.9087 104.979 30.2317 112.529 12.077 104.979C-6.07775 97.4295 -0.470976 81.2806 13.0974 76.1768C13.0974 76.1768 6.52627 58.8664 20.846 46.8162C35.1545 34.7659 45.0224 38.9763 45.0224 38.9763C45.0224 38.9763 46.5138 13.0442 68.4923 4.15448C93.3415 -5.8967 106.495 7.62773 111.373 14.1833C111.373 14.1833 119.615 6.71195 129.606 12.6198C138.42 17.8241 135.987 28.2997 133.957 30.5668C133.957 30.5668 165.018 19.8008 169.818 52.7017L169.829 52.7129Z" fill="#F9F9F9"/>
<path d="M108.469 109.993C91.0988 109.993 72.7871 108.888 56.92 105.549C54.823 106.118 29.3234 112.752 11.8527 105.493C4.10418 102.265 -0.100901 97.1838 2.0486e-05 91.1642C0.112156 84.8878 5.06854 78.7789 12.4022 75.8418C11.449 72.8152 7.44581 57.3699 20.4872 46.3806C32.8893 35.9385 41.9835 37.4686 44.5402 38.2168C45 33.9171 48.3192 11.7152 68.3017 3.64073C91.8726 -5.88556 105.374 5.41644 111.496 13.3904C113.436 11.905 121.061 6.91295 129.92 12.1507C134.406 14.8087 135.863 18.6505 136.289 21.409C136.805 24.7036 136.11 27.7747 135.235 29.6175C139.059 28.5788 149.734 26.4458 158.548 31.7729C164.839 35.57 168.797 42.3936 170.323 52.0428C174.146 51.328 195.183 48.4579 205.825 69.409C209.177 76.0205 208.684 83.7375 204.445 90.5947C198.67 99.9534 187.39 105.537 174.258 105.537C173.855 105.604 143.04 109.993 108.502 109.993H108.469ZM56.9087 104.421C56.9087 104.421 56.9872 104.421 57.0209 104.432C104.252 114.394 173.451 104.521 174.146 104.432C186.963 104.432 197.885 99.0377 203.459 90.0139C207.484 83.503 207.966 76.1768 204.793 69.9227C193.535 47.7431 170.199 53.2043 169.964 53.2601C169.807 53.3048 169.65 53.2601 169.515 53.1819C169.381 53.0926 169.291 52.9586 169.268 52.8022C167.867 43.1866 164.054 36.4411 157.943 32.7445C147.694 26.5351 134.282 31.0693 134.148 31.114C133.912 31.2033 133.643 31.114 133.497 30.9018C133.351 30.6896 133.374 30.4104 133.542 30.2205C134.596 29.0367 135.751 25.3848 135.157 21.5989C134.764 19.0749 133.43 15.557 129.315 13.1224C119.783 7.48252 111.821 14.5407 111.743 14.6077C111.631 14.7082 111.474 14.764 111.306 14.7529C111.149 14.7417 111.003 14.6524 110.913 14.5295C105.161 6.80127 92.0296 -4.74643 68.6942 4.67935C47.31 13.3234 45.5831 38.7529 45.5719 39.0097C45.5719 39.1884 45.4597 39.356 45.3027 39.4565C45.1457 39.557 44.9551 39.5681 44.7869 39.5011C44.6972 39.4565 35.0311 35.5923 21.1936 47.2517C7.3561 58.8999 13.546 75.8194 13.6133 75.9869C13.7254 76.2773 13.5796 76.6012 13.2881 76.7017C6.1114 79.3932 1.21108 85.2229 1.11016 91.1866C1.00924 96.7036 4.97883 101.416 12.2788 104.454C30.0411 111.847 56.4826 104.51 56.7405 104.432C56.7854 104.421 56.8415 104.409 56.8975 104.409L56.9087 104.421Z" fill="black"/>
<path d="M49.4405 65.2992C49.1602 65.3327 48.9022 65.154 48.835 64.8748C48.8237 64.819 47.5678 59.2908 52.4906 55.9069C56.5274 53.1261 61.1474 53.8743 62.6837 54.2429C62.7622 54.0084 62.8407 53.718 62.9192 53.4165C63.8387 50.1666 65.745 43.3988 73.8748 42.4495C84.2025 41.2322 88.43 48.5919 88.4748 48.6701C88.6206 48.9381 88.5309 49.2731 88.2618 49.4295C87.9927 49.5858 87.6562 49.4853 87.4993 49.2173C87.3423 48.9381 83.5745 42.4383 74.0206 43.5663C66.6309 44.4374 64.9264 50.4793 64.0181 53.7292C63.8499 54.3211 63.7153 54.7901 63.5808 55.1363C63.4686 55.4044 63.1771 55.5495 62.8967 55.4602C62.8407 55.4379 57.5142 53.8408 53.141 56.845C48.8462 59.7934 49.9339 64.5844 49.9451 64.6403C50.0124 64.9418 49.833 65.2433 49.5302 65.3104C49.5078 65.3104 49.4853 65.3104 49.4629 65.3215L49.4405 65.2992Z" fill="black"/>
<path d="M125.311 167.43C153.521 167.43 176.389 144.655 176.389 116.56C176.389 88.4654 153.521 65.6901 125.311 65.6901C97.1019 65.6901 74.2336 88.4654 74.2336 116.56C74.2336 144.655 97.1019 167.43 125.311 167.43Z" fill="#8D76EE"/>
<path d="M125.311 168C96.8402 168 73.673 144.927 73.673 116.571C73.673 88.2159 96.8402 65.1428 125.311 65.1428C153.783 65.1428 176.95 88.2159 176.95 116.571C176.95 144.927 153.783 168 125.311 168ZM125.311 66.2596C97.4569 66.2596 74.7943 88.8301 74.7943 116.571C74.7943 144.313 97.4569 166.883 125.311 166.883C153.166 166.883 175.828 144.313 175.828 116.571C175.828 88.8301 153.166 66.2596 125.311 66.2596Z" fill="black"/>
<path d="M125.311 156.162C147.272 156.162 165.075 138.432 165.075 116.56C165.075 94.6888 147.272 76.9585 125.311 76.9585C103.351 76.9585 85.5481 94.6888 85.5481 116.56C85.5481 138.432 103.351 156.162 125.311 156.162Z" fill="#F1F1E8"/>
<path d="M125.311 76.4113C103.075 76.4113 84.9874 94.4252 84.9874 116.571C84.9874 138.717 103.075 156.731 125.311 156.731C147.548 156.731 165.635 138.717 165.635 116.571C165.635 94.4252 147.548 76.4113 125.311 76.4113ZM125.311 155.603C103.692 155.603 86.1088 138.092 86.1088 116.56C86.1088 95.0283 103.692 77.5169 125.311 77.5169C146.931 77.5169 164.514 95.0283 164.514 116.56C164.514 138.092 146.931 155.603 125.311 155.603Z" fill="black"/>
<path d="M126.646 80.912H123.977C123.686 80.912 123.45 81.147 123.45 81.4369V90.0027C123.45 90.2926 123.686 90.5276 123.977 90.5276H126.646C126.937 90.5276 127.173 90.2926 127.173 90.0027V81.4369C127.173 81.147 126.937 80.912 126.646 80.912Z" fill="black"/>
<path d="M98.6343 114.706H90.0335C89.7425 114.706 89.5065 114.941 89.5065 115.231V117.889C89.5065 118.179 89.7425 118.414 90.0335 118.414H98.6343C98.9254 118.414 99.1614 118.179 99.1614 117.889V115.231C99.1614 114.941 98.9254 114.706 98.6343 114.706Z" fill="black"/>
<path d="M126.646 142.604H123.977C123.686 142.604 123.45 142.839 123.45 143.129V151.695C123.45 151.985 123.686 152.22 123.977 152.22H126.646C126.937 152.22 127.173 151.985 127.173 151.695V143.129C127.173 142.839 126.937 142.604 126.646 142.604Z" fill="black"/>
<path d="M160.589 114.706H151.988C151.697 114.706 151.461 114.941 151.461 115.231V117.889C151.461 118.179 151.697 118.414 151.988 118.414H160.589C160.88 118.414 161.116 118.179 161.116 117.889V115.231C161.116 114.941 160.88 114.706 160.589 114.706Z" fill="black"/>
<path d="M124.796 117.99H139.945V119.799L149.701 116.996C150.127 116.873 150.127 116.281 149.701 116.158L139.945 113.344V115.142H124.796" fill="black"/>
<path d="M125.311 118.425C126.339 118.425 127.173 117.595 127.173 116.571C127.173 115.548 126.339 114.718 125.311 114.718C124.283 114.718 123.45 115.548 123.45 116.571C123.45 117.595 124.283 118.425 125.311 118.425Z" fill="black"/>
<path d="M123.708 116.56H126.926V105.571H128.989L125.782 94.671C125.648 94.2019 124.986 94.2019 124.852 94.671L121.645 105.571H123.708V116.56Z" fill="black"/>
</g>
<defs>
<clipPath id="clip0_40000002_74262">
<rect width="208" height="168" fill="white"/>
</clipPath>
</defs>
</svg>
