<svg width="1416" height="6" viewBox="0 0 1416 6" fill="none" xmlns="http://www.w3.org/2000/svg">
<path d="M1.99891 3.6393C1.38035 3.6393 0.878906 4.14074 0.878906 4.7593C0.878906 5.37786 1.38035 5.8793 1.99891 5.8793V3.6393ZM1.99891 5.8793C4.02228 5.8793 5.05861 4.64332 5.78179 3.81683C6.52861 2.96332 6.96228 2.5193 7.87891 2.5193V0.279297C5.85553 0.279297 4.8192 1.51528 4.09602 2.34177C3.3492 3.19528 2.91553 3.6393 1.99891 3.6393V5.8793Z" fill="white"/>
<path d="M7.87891 2.5193C8.79553 2.5193 9.2292 2.96332 9.97602 3.81683C10.6992 4.64332 11.7355 5.8793 13.7589 5.8793V3.6393C12.8423 3.6393 12.4086 3.19528 11.6618 2.34177C10.9386 1.51528 9.90228 0.279297 7.87891 0.279297V2.5193Z" fill="white"/>
<path d="M13.7589 5.8793C15.7823 5.8793 16.8186 4.64332 17.5418 3.81683C18.2886 2.96332 18.7223 2.5193 19.6389 2.5193V0.279297C17.6155 0.279297 16.5792 1.51528 15.856 2.34177C15.1092 3.19528 14.6755 3.6393 13.7589 3.6393V5.8793Z" fill="white"/>
<path d="M19.6389 2.5193C20.5555 2.5193 20.9892 2.96332 21.736 3.81683C22.4592 4.64332 23.4955 5.8793 25.5189 5.8793V3.6393C24.6023 3.6393 24.1686 3.19528 23.4218 2.34177C22.6986 1.51528 21.6623 0.279297 19.6389 0.279297V2.5193Z" fill="white"/>
<path d="M25.5189 5.8793C27.5423 5.8793 28.5786 4.64332 29.3018 3.81683C30.0486 2.96332 30.4823 2.5193 31.3989 2.5193V0.279297C29.3755 0.279297 28.3392 1.51528 27.616 2.34177C26.8692 3.19528 26.4355 3.6393 25.5189 3.6393V5.8793Z" fill="white"/>
<path d="M31.3989 2.5193C32.3155 2.5193 32.7492 2.96332 33.496 3.81683C34.2192 4.64332 35.2555 5.8793 37.2789 5.8793V3.6393C36.3623 3.6393 35.9286 3.19528 35.1818 2.34177C34.4586 1.51528 33.4223 0.279297 31.3989 0.279297V2.5193Z" fill="white"/>
<path d="M37.2789 5.8793C39.3023 5.8793 40.3386 4.64332 41.0618 3.81683C41.8086 2.96332 42.2423 2.5193 43.1589 2.5193V0.279297C41.1355 0.279297 40.0992 1.51528 39.376 2.34177C38.6292 3.19528 38.1955 3.6393 37.2789 3.6393V5.8793Z" fill="white"/>
<path d="M43.1589 2.5193C44.0755 2.5193 44.5092 2.96332 45.256 3.81683C45.9792 4.64332 47.0155 5.8793 49.0389 5.8793V3.6393C48.1223 3.6393 47.6886 3.19528 46.9418 2.34177C46.2186 1.51528 45.1823 0.279297 43.1589 0.279297V2.5193Z" fill="white"/>
<path d="M49.0389 5.8793C51.0623 5.8793 52.0986 4.64332 52.8218 3.81683C53.5686 2.96332 54.0023 2.5193 54.9189 2.5193V0.279297C52.8955 0.279297 51.8592 1.51528 51.136 2.34177C50.3892 3.19528 49.9555 3.6393 49.0389 3.6393V5.8793Z" fill="white"/>
<path d="M54.9189 2.5193C55.8355 2.5193 56.2692 2.96332 57.016 3.81683C57.7392 4.64332 58.7755 5.8793 60.7989 5.8793V3.6393C59.8823 3.6393 59.4486 3.19528 58.7018 2.34177C57.9786 1.51528 56.9423 0.279297 54.9189 0.279297V2.5193Z" fill="white"/>
<path d="M60.7989 5.8793C62.8223 5.8793 63.8586 4.64332 64.5818 3.81683C65.3286 2.96331 65.7623 2.5193 66.6789 2.5193V0.279297C64.6555 0.279297 63.6192 1.51528 62.896 2.34177C62.1492 3.19528 61.7155 3.6393 60.7989 3.6393V5.8793Z" fill="white"/>
<path d="M66.6789 2.5193C67.5955 2.5193 68.0292 2.96332 68.776 3.81683C69.4992 4.64332 70.5355 5.8793 72.5589 5.8793V3.6393C71.6423 3.6393 71.2086 3.19528 70.4618 2.34177C69.7386 1.51528 68.7023 0.279297 66.6789 0.279297V2.5193Z" fill="white"/>
<path d="M72.5589 5.8793C74.5823 5.8793 75.6186 4.64332 76.3418 3.81683C77.0886 2.96332 77.5223 2.5193 78.4389 2.5193V0.279297C76.4156 0.279297 75.3792 1.51528 74.656 2.34177C73.9092 3.19528 73.4755 3.6393 72.5589 3.6393V5.8793Z" fill="white"/>
<path d="M78.4389 2.5193C79.3556 2.5193 79.7892 2.96332 80.536 3.81683C81.2592 4.64332 82.2956 5.8793 84.3189 5.8793V3.6393C83.4023 3.6393 82.9686 3.19528 82.2218 2.34177C81.4986 1.51528 80.4623 0.279297 78.4389 0.279297V2.5193Z" fill="white"/>
<path d="M84.3189 5.8793C86.3423 5.8793 87.3786 4.64332 88.1018 3.81683C88.8486 2.96332 89.2823 2.5193 90.1989 2.5193V0.279297C88.1756 0.279297 87.1392 1.51528 86.416 2.34177C85.6692 3.19528 85.2356 3.6393 84.3189 3.6393V5.8793Z" fill="white"/>
<path d="M90.1989 2.5193C91.1156 2.5193 91.5492 2.96332 92.2961 3.81683C93.0192 4.64332 94.0556 5.8793 96.0789 5.8793V3.6393C95.1623 3.6393 94.7286 3.19528 93.9818 2.34177C93.2586 1.51528 92.2223 0.279297 90.1989 0.279297V2.5193Z" fill="white"/>
<path d="M96.0789 5.8793C98.1023 5.8793 99.1387 4.64332 99.8618 3.81683C100.609 2.96332 101.042 2.5193 101.959 2.5193V0.279297C99.9356 0.279297 98.8992 1.51528 98.1761 2.34177C97.4292 3.19528 96.9956 3.6393 96.0789 3.6393V5.8793Z" fill="white"/>
<path d="M101.959 2.5193C102.876 2.5193 103.309 2.96332 104.056 3.81683C104.779 4.64332 105.816 5.8793 107.839 5.8793V3.6393C106.922 3.6393 106.489 3.19528 105.742 2.34177C105.019 1.51528 103.982 0.279297 101.959 0.279297V2.5193Z" fill="white"/>
<path d="M107.839 5.8793C109.862 5.8793 110.899 4.64332 111.622 3.81683C112.369 2.96332 112.802 2.5193 113.719 2.5193V0.279297C111.696 0.279297 110.659 1.51528 109.936 2.34177C109.189 3.19528 108.756 3.6393 107.839 3.6393V5.8793Z" fill="white"/>
<path d="M113.719 2.5193C114.636 2.5193 115.069 2.96332 115.816 3.81683C116.539 4.64332 117.576 5.8793 119.599 5.8793V3.6393C118.682 3.6393 118.249 3.19528 117.502 2.34177C116.779 1.51528 115.742 0.279297 113.719 0.279297V2.5193Z" fill="white"/>
<path d="M119.599 5.8793C121.622 5.8793 122.659 4.64332 123.382 3.81683C124.129 2.96332 124.562 2.5193 125.479 2.5193V0.279297C123.456 0.279297 122.419 1.51528 121.696 2.34177C120.949 3.19528 120.516 3.6393 119.599 3.6393V5.8793Z" fill="white"/>
<path d="M125.479 2.5193C126.396 2.5193 126.829 2.96332 127.576 3.81683C128.299 4.64332 129.336 5.8793 131.359 5.8793V3.6393C130.442 3.6393 130.009 3.19528 129.262 2.34177C128.539 1.51528 127.502 0.279297 125.479 0.279297V2.5193Z" fill="white"/>
<path d="M131.359 5.8793C133.382 5.8793 134.419 4.64332 135.142 3.81683C135.889 2.96332 136.322 2.5193 137.239 2.5193V0.279297C135.216 0.279297 134.179 1.51528 133.456 2.34177C132.709 3.19528 132.276 3.6393 131.359 3.6393V5.8793Z" fill="white"/>
<path d="M137.239 2.5193C138.156 2.5193 138.589 2.96332 139.336 3.81683C140.059 4.64332 141.096 5.8793 143.119 5.8793V3.6393C142.202 3.6393 141.769 3.19528 141.022 2.34177C140.299 1.51528 139.262 0.279297 137.239 0.279297V2.5193Z" fill="white"/>
<path d="M143.119 5.8793C145.142 5.8793 146.179 4.64332 146.902 3.81683C147.649 2.96332 148.082 2.5193 148.999 2.5193V0.279297C146.976 0.279297 145.939 1.51528 145.216 2.34177C144.469 3.19528 144.036 3.6393 143.119 3.6393V5.8793Z" fill="white"/>
<path d="M148.999 2.5193C149.916 2.5193 150.349 2.96332 151.096 3.81683C151.819 4.64332 152.856 5.8793 154.879 5.8793V3.6393C153.962 3.6393 153.529 3.19528 152.782 2.34177C152.059 1.51528 151.022 0.279297 148.999 0.279297V2.5193Z" fill="white"/>
<path d="M154.879 5.8793C156.902 5.8793 157.939 4.64332 158.662 3.81683C159.409 2.96332 159.842 2.5193 160.759 2.5193V0.279297C158.736 0.279297 157.699 1.51528 156.976 2.34177C156.229 3.19528 155.796 3.6393 154.879 3.6393V5.8793Z" fill="white"/>
<path d="M160.759 2.5193C161.676 2.5193 162.109 2.96332 162.856 3.81683C163.579 4.64332 164.616 5.8793 166.639 5.8793V3.6393C165.722 3.6393 165.289 3.19528 164.542 2.34177C163.819 1.51528 162.782 0.279297 160.759 0.279297V2.5193Z" fill="white"/>
<path d="M166.639 5.8793C168.662 5.8793 169.699 4.64332 170.422 3.81683C171.169 2.96332 171.602 2.5193 172.519 2.5193V0.279297C170.496 0.279297 169.459 1.51528 168.736 2.34177C167.989 3.19528 167.556 3.6393 166.639 3.6393V5.8793Z" fill="white"/>
<path d="M172.519 2.5193C173.436 2.5193 173.869 2.96332 174.616 3.81683C175.339 4.64332 176.376 5.8793 178.399 5.8793V3.6393C177.482 3.6393 177.049 3.19528 176.302 2.34177C175.579 1.51528 174.542 0.279297 172.519 0.279297V2.5193Z" fill="white"/>
<path d="M178.399 5.8793C180.422 5.8793 181.459 4.64332 182.182 3.81683C182.929 2.96332 183.362 2.5193 184.279 2.5193V0.279297C182.256 0.279297 181.219 1.51528 180.496 2.34177C179.749 3.19528 179.316 3.6393 178.399 3.6393V5.8793Z" fill="white"/>
<path d="M184.279 2.5193C185.196 2.5193 185.629 2.96332 186.376 3.81683C187.099 4.64332 188.136 5.8793 190.159 5.8793V3.6393C189.242 3.6393 188.809 3.19528 188.062 2.34177C187.339 1.51528 186.302 0.279297 184.279 0.279297V2.5193Z" fill="white"/>
<path d="M190.159 5.8793C192.182 5.8793 193.219 4.64332 193.942 3.81683C194.689 2.96332 195.122 2.5193 196.039 2.5193V0.279297C194.016 0.279297 192.979 1.51528 192.256 2.34177C191.509 3.19528 191.076 3.6393 190.159 3.6393V5.8793Z" fill="white"/>
<path d="M196.039 2.5193C196.956 2.5193 197.389 2.96332 198.136 3.81683C198.859 4.64332 199.896 5.8793 201.919 5.8793V3.6393C201.002 3.6393 200.569 3.19528 199.822 2.34177C199.099 1.51528 198.062 0.279297 196.039 0.279297V2.5193Z" fill="white"/>
<path d="M201.919 5.8793C203.942 5.8793 204.979 4.64332 205.702 3.81683C206.449 2.96332 206.882 2.5193 207.799 2.5193V0.279297C205.776 0.279297 204.739 1.51528 204.016 2.34177C203.269 3.19528 202.836 3.6393 201.919 3.6393V5.8793Z" fill="white"/>
<path d="M207.799 2.5193C208.716 2.5193 209.149 2.96332 209.896 3.81683C210.619 4.64332 211.656 5.8793 213.679 5.8793V3.6393C212.762 3.6393 212.329 3.19528 211.582 2.34177C210.859 1.51528 209.822 0.279297 207.799 0.279297V2.5193Z" fill="white"/>
<path d="M213.679 5.8793C215.702 5.8793 216.739 4.64332 217.462 3.81683C218.209 2.96332 218.642 2.5193 219.559 2.5193V0.279297C217.536 0.279297 216.499 1.51528 215.776 2.34177C215.029 3.19528 214.596 3.6393 213.679 3.6393V5.8793Z" fill="white"/>
<path d="M219.559 2.5193C220.476 2.5193 220.909 2.96332 221.656 3.81683C222.379 4.64332 223.416 5.8793 225.439 5.8793V3.6393C224.522 3.6393 224.089 3.19528 223.342 2.34177C222.619 1.51528 221.582 0.279297 219.559 0.279297V2.5193Z" fill="white"/>
<path d="M225.439 5.8793C227.462 5.8793 228.499 4.64332 229.222 3.81683C229.969 2.96332 230.402 2.5193 231.319 2.5193V0.279297C229.296 0.279297 228.259 1.51528 227.536 2.34177C226.789 3.19528 226.356 3.6393 225.439 3.6393V5.8793Z" fill="white"/>
<path d="M231.319 2.5193C232.236 2.5193 232.669 2.96332 233.416 3.81683C234.139 4.64332 235.176 5.8793 237.199 5.8793V3.6393C236.282 3.6393 235.849 3.19528 235.102 2.34177C234.379 1.51528 233.342 0.279297 231.319 0.279297V2.5193Z" fill="white"/>
<path d="M237.199 5.8793C239.222 5.8793 240.259 4.64332 240.982 3.81683C241.729 2.96332 242.162 2.5193 243.079 2.5193V0.279297C241.056 0.279297 240.019 1.51528 239.296 2.34177C238.549 3.19528 238.116 3.6393 237.199 3.6393V5.8793Z" fill="white"/>
<path d="M243.079 2.5193C243.996 2.5193 244.429 2.96332 245.176 3.81683C245.899 4.64332 246.936 5.8793 248.959 5.8793V3.6393C248.042 3.6393 247.609 3.19528 246.862 2.34177C246.139 1.51528 245.102 0.279297 243.079 0.279297V2.5193Z" fill="white"/>
<path d="M248.959 5.8793C250.982 5.8793 252.019 4.64332 252.742 3.81683C253.489 2.96332 253.922 2.5193 254.839 2.5193V0.279297C252.816 0.279297 251.779 1.51528 251.056 2.34177C250.309 3.19528 249.876 3.6393 248.959 3.6393V5.8793Z" fill="white"/>
<path d="M254.839 2.5193C255.756 2.5193 256.189 2.96332 256.936 3.81683C257.659 4.64331 258.696 5.8793 260.719 5.8793V3.6393C259.802 3.6393 259.369 3.19529 258.622 2.34177C257.899 1.51528 256.862 0.279297 254.839 0.279297V2.5193Z" fill="white"/>
<path d="M260.719 5.8793C262.742 5.8793 263.779 4.64332 264.502 3.81683C265.249 2.96332 265.682 2.5193 266.599 2.5193V0.279297C264.576 0.279297 263.539 1.51528 262.816 2.34177C262.069 3.19528 261.636 3.6393 260.719 3.6393V5.8793Z" fill="white"/>
<path d="M266.599 2.5193C267.516 2.5193 267.949 2.96332 268.696 3.81683C269.419 4.64332 270.456 5.8793 272.479 5.8793V3.6393C271.562 3.6393 271.129 3.19528 270.382 2.34177C269.659 1.51528 268.622 0.279297 266.599 0.279297V2.5193Z" fill="white"/>
<path d="M272.479 5.8793C274.502 5.8793 275.539 4.64332 276.262 3.81683C277.009 2.96332 277.442 2.5193 278.359 2.5193V0.279297C276.336 0.279297 275.299 1.51528 274.576 2.34177C273.829 3.19528 273.396 3.6393 272.479 3.6393V5.8793Z" fill="white"/>
<path d="M278.359 2.5193C279.276 2.5193 279.709 2.96332 280.456 3.81683C281.179 4.64332 282.216 5.8793 284.239 5.8793V3.6393C283.322 3.6393 282.889 3.19528 282.142 2.34177C281.419 1.51528 280.382 0.279297 278.359 0.279297V2.5193Z" fill="white"/>
<path d="M284.239 5.8793C286.262 5.8793 287.299 4.64332 288.022 3.81683C288.769 2.96332 289.202 2.5193 290.119 2.5193V0.279297C288.096 0.279297 287.059 1.51528 286.336 2.34177C285.589 3.19528 285.156 3.6393 284.239 3.6393V5.8793Z" fill="white"/>
<path d="M290.119 2.5193C291.036 2.5193 291.469 2.96332 292.216 3.81683C292.939 4.64332 293.976 5.8793 295.999 5.8793V3.6393C295.082 3.6393 294.649 3.19528 293.902 2.34177C293.179 1.51528 292.142 0.279297 290.119 0.279297V2.5193Z" fill="white"/>
<path d="M295.999 5.8793C298.022 5.8793 299.059 4.64332 299.782 3.81683C300.529 2.96332 300.962 2.5193 301.879 2.5193V0.279297C299.856 0.279297 298.819 1.51528 298.096 2.34177C297.349 3.19528 296.916 3.6393 295.999 3.6393V5.8793Z" fill="white"/>
<path d="M301.879 2.5193C302.796 2.5193 303.229 2.96332 303.976 3.81683C304.699 4.64332 305.736 5.8793 307.759 5.8793V3.6393C306.842 3.6393 306.409 3.19528 305.662 2.34177C304.939 1.51528 303.902 0.279297 301.879 0.279297V2.5193Z" fill="white"/>
<path d="M307.759 5.8793C309.782 5.8793 310.819 4.64332 311.542 3.81683C312.289 2.96332 312.722 2.5193 313.639 2.5193V0.279297C311.616 0.279297 310.579 1.51528 309.856 2.34177C309.109 3.19528 308.676 3.6393 307.759 3.6393V5.8793Z" fill="white"/>
<path d="M313.639 2.5193C314.556 2.5193 314.989 2.96332 315.736 3.81683C316.459 4.64332 317.496 5.8793 319.519 5.8793V3.6393C318.602 3.6393 318.169 3.19528 317.422 2.34177C316.699 1.51528 315.662 0.279297 313.639 0.279297V2.5193Z" fill="white"/>
<path d="M319.519 5.8793C321.542 5.8793 322.579 4.64332 323.302 3.81683C324.049 2.96332 324.482 2.5193 325.399 2.5193V0.279297C323.376 0.279297 322.339 1.51528 321.616 2.34177C320.869 3.19528 320.436 3.6393 319.519 3.6393V5.8793Z" fill="white"/>
<path d="M325.399 2.5193C326.316 2.5193 326.749 2.96332 327.496 3.81683C328.219 4.64332 329.256 5.8793 331.279 5.8793V3.6393C330.362 3.6393 329.929 3.19528 329.182 2.34177C328.459 1.51528 327.422 0.279297 325.399 0.279297V2.5193Z" fill="white"/>
<path d="M331.279 5.8793C333.302 5.8793 334.339 4.64332 335.062 3.81683C335.809 2.96332 336.242 2.5193 337.159 2.5193V0.279297C335.136 0.279297 334.099 1.51528 333.376 2.34177C332.629 3.19528 332.196 3.6393 331.279 3.6393V5.8793Z" fill="white"/>
<path d="M337.159 2.5193C338.076 2.5193 338.509 2.96332 339.256 3.81683C339.979 4.64332 341.016 5.8793 343.039 5.8793V3.6393C342.122 3.6393 341.689 3.19528 340.942 2.34177C340.219 1.51528 339.182 0.279297 337.159 0.279297V2.5193Z" fill="white"/>
<path d="M343.039 5.8793C345.062 5.8793 346.099 4.64332 346.822 3.81683C347.569 2.96332 348.003 2.5193 348.919 2.5193V0.279297C346.896 0.279297 345.859 1.51528 345.136 2.34177C344.389 3.19528 343.956 3.6393 343.039 3.6393V5.8793Z" fill="white"/>
<path d="M348.919 2.5193C349.836 2.5193 350.269 2.96332 351.016 3.81683C351.739 4.64332 352.776 5.8793 354.799 5.8793V3.6393C353.883 3.6393 353.449 3.19528 352.702 2.34177C351.979 1.51528 350.943 0.279297 348.919 0.279297V2.5193ZM354.799 5.8793C355.418 5.8793 355.919 5.37786 355.919 4.7593C355.919 4.14074 355.418 3.6393 354.799 3.6393V5.8793Z" fill="white"/>
<path d="M355.038 3.6393C354.419 3.6393 353.918 4.14074 353.918 4.7593C353.918 5.37786 354.419 5.8793 355.038 5.8793V3.6393ZM355.038 5.8793C357.061 5.8793 358.098 4.64332 358.821 3.81683C359.568 2.96332 360.001 2.5193 360.918 2.5193V0.279297C358.895 0.279297 357.858 1.51528 357.135 2.34177C356.388 3.19528 355.955 3.6393 355.038 3.6393V5.8793Z" fill="white"/>
<path d="M360.918 2.5193C361.835 2.5193 362.268 2.96332 363.015 3.81683C363.738 4.64332 364.775 5.8793 366.798 5.8793V3.6393C365.881 3.6393 365.448 3.19528 364.701 2.34177C363.978 1.51528 362.941 0.279297 360.918 0.279297V2.5193Z" fill="white"/>
<path d="M366.798 5.8793C368.821 5.8793 369.858 4.64332 370.581 3.81683C371.328 2.96332 371.761 2.5193 372.678 2.5193V0.279297C370.655 0.279297 369.618 1.51528 368.895 2.34177C368.148 3.19528 367.715 3.6393 366.798 3.6393V5.8793Z" fill="white"/>
<path d="M372.678 2.5193C373.595 2.5193 374.028 2.96332 374.775 3.81683C375.498 4.64332 376.535 5.8793 378.558 5.8793V3.6393C377.641 3.6393 377.208 3.19528 376.461 2.34177C375.738 1.51528 374.701 0.279297 372.678 0.279297V2.5193Z" fill="white"/>
<path d="M378.558 5.8793C380.581 5.8793 381.618 4.64332 382.341 3.81683C383.088 2.96332 383.521 2.5193 384.438 2.5193V0.279297C382.415 0.279297 381.378 1.51528 380.655 2.34177C379.908 3.19528 379.475 3.6393 378.558 3.6393V5.8793Z" fill="white"/>
<path d="M384.438 2.5193C385.355 2.5193 385.788 2.96332 386.535 3.81683C387.258 4.64332 388.295 5.8793 390.318 5.8793V3.6393C389.401 3.6393 388.968 3.19528 388.221 2.34177C387.498 1.51528 386.461 0.279297 384.438 0.279297V2.5193Z" fill="white"/>
<path d="M390.318 5.8793C392.341 5.8793 393.378 4.64332 394.101 3.81683C394.848 2.96332 395.281 2.5193 396.198 2.5193V0.279297C394.175 0.279297 393.138 1.51528 392.415 2.34177C391.668 3.19528 391.235 3.6393 390.318 3.6393V5.8793Z" fill="white"/>
<path d="M396.198 2.5193C397.115 2.5193 397.548 2.96332 398.295 3.81683C399.018 4.64332 400.055 5.8793 402.078 5.8793V3.6393C401.161 3.6393 400.728 3.19528 399.981 2.34177C399.258 1.51528 398.221 0.279297 396.198 0.279297V2.5193Z" fill="white"/>
<path d="M402.078 5.8793C404.101 5.8793 405.138 4.64332 405.861 3.81683C406.608 2.96332 407.041 2.5193 407.958 2.5193V0.279297C405.935 0.279297 404.898 1.51528 404.175 2.34177C403.428 3.19528 402.995 3.6393 402.078 3.6393V5.8793Z" fill="white"/>
<path d="M407.958 2.5193C408.875 2.5193 409.308 2.96332 410.055 3.81683C410.778 4.64332 411.815 5.8793 413.838 5.8793V3.6393C412.921 3.6393 412.488 3.19528 411.741 2.34177C411.018 1.51528 409.981 0.279297 407.958 0.279297V2.5193Z" fill="white"/>
<path d="M413.838 5.8793C415.861 5.8793 416.898 4.64332 417.621 3.81683C418.368 2.96331 418.801 2.5193 419.718 2.5193V0.279297C417.695 0.279297 416.658 1.51528 415.935 2.34177C415.188 3.19528 414.755 3.6393 413.838 3.6393V5.8793Z" fill="white"/>
<path d="M419.718 2.5193C420.635 2.5193 421.068 2.96332 421.815 3.81683C422.538 4.64332 423.575 5.8793 425.598 5.8793V3.6393C424.681 3.6393 424.248 3.19528 423.501 2.34177C422.778 1.51528 421.741 0.279297 419.718 0.279297V2.5193Z" fill="white"/>
<path d="M425.598 5.8793C427.621 5.8793 428.658 4.64332 429.381 3.81683C430.128 2.96332 430.561 2.5193 431.478 2.5193V0.279297C429.455 0.279297 428.418 1.51528 427.695 2.34177C426.948 3.19528 426.515 3.6393 425.598 3.6393V5.8793Z" fill="white"/>
<path d="M431.478 2.5193C432.395 2.5193 432.828 2.96332 433.575 3.81683C434.298 4.64332 435.335 5.8793 437.358 5.8793V3.6393C436.441 3.6393 436.008 3.19528 435.261 2.34177C434.538 1.51528 433.501 0.279297 431.478 0.279297V2.5193Z" fill="white"/>
<path d="M437.358 5.8793C439.381 5.8793 440.418 4.64332 441.141 3.81683C441.888 2.96332 442.321 2.5193 443.238 2.5193V0.279297C441.215 0.279297 440.178 1.51528 439.455 2.34177C438.708 3.19528 438.275 3.6393 437.358 3.6393V5.8793Z" fill="white"/>
<path d="M443.238 2.5193C444.155 2.5193 444.588 2.96332 445.335 3.81683C446.058 4.64332 447.095 5.8793 449.118 5.8793V3.6393C448.201 3.6393 447.768 3.19528 447.021 2.34177C446.298 1.51528 445.261 0.279297 443.238 0.279297V2.5193Z" fill="white"/>
<path d="M449.118 5.8793C451.141 5.8793 452.178 4.64332 452.901 3.81683C453.648 2.96332 454.081 2.5193 454.998 2.5193V0.279297C452.975 0.279297 451.938 1.51528 451.215 2.34177C450.468 3.19528 450.035 3.6393 449.118 3.6393V5.8793Z" fill="white"/>
<path d="M454.998 2.5193C455.915 2.5193 456.348 2.96332 457.095 3.81683C457.818 4.64332 458.855 5.8793 460.878 5.8793V3.6393C459.961 3.6393 459.528 3.19528 458.781 2.34177C458.058 1.51528 457.021 0.279297 454.998 0.279297V2.5193Z" fill="white"/>
<path d="M460.878 5.8793C462.901 5.8793 463.938 4.64332 464.661 3.81683C465.408 2.96332 465.841 2.5193 466.758 2.5193V0.279297C464.735 0.279297 463.698 1.51528 462.975 2.34177C462.228 3.19528 461.795 3.6393 460.878 3.6393V5.8793Z" fill="white"/>
<path d="M466.758 2.5193C467.675 2.5193 468.108 2.96332 468.855 3.81683C469.578 4.64332 470.615 5.8793 472.638 5.8793V3.6393C471.721 3.6393 471.288 3.19528 470.541 2.34177C469.818 1.51528 468.781 0.279297 466.758 0.279297V2.5193Z" fill="white"/>
<path d="M472.638 5.8793C474.661 5.8793 475.698 4.64332 476.421 3.81683C477.168 2.96332 477.601 2.5193 478.518 2.5193V0.279297C476.495 0.279297 475.458 1.51528 474.735 2.34177C473.988 3.19528 473.555 3.6393 472.638 3.6393V5.8793Z" fill="white"/>
<path d="M478.518 2.5193C479.435 2.5193 479.868 2.96332 480.615 3.81683C481.338 4.64332 482.375 5.8793 484.398 5.8793V3.6393C483.481 3.6393 483.048 3.19528 482.301 2.34177C481.578 1.51528 480.541 0.279297 478.518 0.279297V2.5193Z" fill="white"/>
<path d="M484.398 5.8793C486.421 5.8793 487.458 4.64332 488.181 3.81683C488.928 2.96332 489.361 2.5193 490.278 2.5193V0.279297C488.255 0.279297 487.218 1.51528 486.495 2.34177C485.748 3.19528 485.315 3.6393 484.398 3.6393V5.8793Z" fill="white"/>
<path d="M490.278 2.5193C491.195 2.5193 491.628 2.96332 492.375 3.81683C493.098 4.64332 494.135 5.8793 496.158 5.8793V3.6393C495.241 3.6393 494.808 3.19528 494.061 2.34177C493.338 1.51528 492.301 0.279297 490.278 0.279297V2.5193Z" fill="white"/>
<path d="M496.158 5.8793C498.181 5.8793 499.218 4.64332 499.941 3.81683C500.688 2.96332 501.121 2.5193 502.038 2.5193V0.279297C500.015 0.279297 498.978 1.51528 498.255 2.34177C497.508 3.19528 497.075 3.6393 496.158 3.6393V5.8793Z" fill="white"/>
<path d="M502.038 2.5193C502.955 2.5193 503.388 2.96332 504.135 3.81683C504.858 4.64332 505.895 5.8793 507.918 5.8793V3.6393C507.001 3.6393 506.568 3.19528 505.821 2.34177C505.098 1.51528 504.061 0.279297 502.038 0.279297V2.5193Z" fill="white"/>
<path d="M507.918 5.8793C509.941 5.8793 510.978 4.64332 511.701 3.81683C512.448 2.96332 512.881 2.5193 513.798 2.5193V0.279297C511.775 0.279297 510.738 1.51528 510.015 2.34177C509.268 3.19528 508.835 3.6393 507.918 3.6393V5.8793Z" fill="white"/>
<path d="M513.798 2.5193C514.715 2.5193 515.148 2.96332 515.895 3.81683C516.618 4.64332 517.655 5.8793 519.678 5.8793V3.6393C518.761 3.6393 518.328 3.19528 517.581 2.34177C516.858 1.51528 515.821 0.279297 513.798 0.279297V2.5193Z" fill="white"/>
<path d="M519.678 5.8793C521.701 5.8793 522.738 4.64332 523.461 3.81683C524.208 2.96332 524.641 2.5193 525.558 2.5193V0.279297C523.535 0.279297 522.498 1.51528 521.775 2.34177C521.028 3.19528 520.595 3.6393 519.678 3.6393V5.8793Z" fill="white"/>
<path d="M525.558 2.5193C526.475 2.5193 526.908 2.96332 527.655 3.81683C528.378 4.64332 529.415 5.8793 531.438 5.8793V3.6393C530.521 3.6393 530.088 3.19528 529.341 2.34177C528.618 1.51528 527.581 0.279297 525.558 0.279297V2.5193Z" fill="white"/>
<path d="M531.438 5.8793C533.461 5.8793 534.498 4.64332 535.221 3.81683C535.968 2.96332 536.401 2.5193 537.318 2.5193V0.279297C535.295 0.279297 534.258 1.51528 533.535 2.34177C532.788 3.19528 532.355 3.6393 531.438 3.6393V5.8793Z" fill="white"/>
<path d="M537.318 2.5193C538.235 2.5193 538.668 2.96332 539.415 3.81683C540.138 4.64332 541.175 5.8793 543.198 5.8793V3.6393C542.281 3.6393 541.848 3.19528 541.101 2.34177C540.378 1.51528 539.341 0.279297 537.318 0.279297V2.5193Z" fill="white"/>
<path d="M543.198 5.8793C545.221 5.8793 546.258 4.64332 546.981 3.81683C547.728 2.96332 548.161 2.5193 549.078 2.5193V0.279297C547.055 0.279297 546.018 1.51528 545.295 2.34177C544.548 3.19528 544.115 3.6393 543.198 3.6393V5.8793Z" fill="white"/>
<path d="M549.078 2.5193C549.995 2.5193 550.428 2.96332 551.175 3.81683C551.898 4.64332 552.935 5.8793 554.958 5.8793V3.6393C554.041 3.6393 553.608 3.19528 552.861 2.34177C552.138 1.51528 551.101 0.279297 549.078 0.279297V2.5193Z" fill="white"/>
<path d="M554.958 5.8793C556.981 5.8793 558.018 4.64332 558.741 3.81683C559.488 2.96332 559.921 2.5193 560.838 2.5193V0.279297C558.815 0.279297 557.778 1.51528 557.055 2.34177C556.308 3.19528 555.875 3.6393 554.958 3.6393V5.8793Z" fill="white"/>
<path d="M560.838 2.5193C561.755 2.5193 562.188 2.96332 562.935 3.81683C563.658 4.64332 564.695 5.8793 566.718 5.8793V3.6393C565.801 3.6393 565.368 3.19528 564.621 2.34177C563.898 1.51528 562.861 0.279297 560.838 0.279297V2.5193Z" fill="white"/>
<path d="M566.718 5.8793C568.741 5.8793 569.778 4.64332 570.501 3.81683C571.248 2.96332 571.681 2.5193 572.598 2.5193V0.279297C570.575 0.279297 569.538 1.51528 568.815 2.34177C568.068 3.19528 567.635 3.6393 566.718 3.6393V5.8793Z" fill="white"/>
<path d="M572.598 2.5193C573.515 2.5193 573.948 2.96332 574.695 3.81683C575.418 4.64332 576.455 5.8793 578.478 5.8793V3.6393C577.561 3.6393 577.128 3.19528 576.381 2.34177C575.658 1.51528 574.621 0.279297 572.598 0.279297V2.5193Z" fill="white"/>
<path d="M578.478 5.8793C580.501 5.8793 581.538 4.64332 582.261 3.81683C583.008 2.96332 583.441 2.5193 584.358 2.5193V0.279297C582.335 0.279297 581.298 1.51528 580.575 2.34177C579.828 3.19528 579.395 3.6393 578.478 3.6393V5.8793Z" fill="white"/>
<path d="M584.358 2.5193C585.275 2.5193 585.708 2.96332 586.455 3.81683C587.178 4.64332 588.215 5.8793 590.238 5.8793V3.6393C589.321 3.6393 588.888 3.19528 588.141 2.34177C587.418 1.51528 586.381 0.279297 584.358 0.279297V2.5193Z" fill="white"/>
<path d="M590.238 5.8793C592.261 5.8793 593.298 4.64332 594.021 3.81683C594.768 2.96332 595.201 2.5193 596.118 2.5193V0.279297C594.095 0.279297 593.058 1.51528 592.335 2.34177C591.588 3.19528 591.155 3.6393 590.238 3.6393V5.8793Z" fill="white"/>
<path d="M596.118 2.5193C597.035 2.5193 597.468 2.96332 598.215 3.81683C598.938 4.64332 599.975 5.8793 601.998 5.8793V3.6393C601.081 3.6393 600.648 3.19528 599.901 2.34177C599.178 1.51528 598.141 0.279297 596.118 0.279297V2.5193Z" fill="white"/>
<path d="M601.998 5.8793C604.021 5.8793 605.058 4.64332 605.781 3.81683C606.528 2.96332 606.962 2.5193 607.878 2.5193V0.279297C605.855 0.279297 604.818 1.51528 604.095 2.34177C603.348 3.19528 602.915 3.6393 601.998 3.6393V5.8793Z" fill="white"/>
<path d="M607.878 2.5193C608.795 2.5193 609.228 2.96332 609.975 3.81683C610.698 4.64331 611.735 5.8793 613.758 5.8793V3.6393C612.842 3.6393 612.408 3.19529 611.661 2.34177C610.938 1.51528 609.902 0.279297 607.878 0.279297V2.5193Z" fill="white"/>
<path d="M613.758 5.8793C615.781 5.8793 616.818 4.64332 617.541 3.81683C618.288 2.96332 618.721 2.5193 619.638 2.5193V0.279297C617.615 0.279297 616.578 1.51528 615.855 2.34177C615.108 3.19528 614.675 3.6393 613.758 3.6393V5.8793Z" fill="white"/>
<path d="M619.638 2.5193C620.555 2.5193 620.988 2.96332 621.735 3.81683C622.458 4.64332 623.495 5.8793 625.518 5.8793V3.6393C624.602 3.6393 624.168 3.19528 623.421 2.34177C622.698 1.51528 621.661 0.279297 619.638 0.279297V2.5193Z" fill="white"/>
<path d="M625.518 5.8793C627.542 5.8793 628.578 4.64332 629.301 3.81683C630.048 2.96332 630.482 2.5193 631.398 2.5193V0.279297C629.375 0.279297 628.338 1.51528 627.615 2.34177C626.868 3.19528 626.435 3.6393 625.518 3.6393V5.8793Z" fill="white"/>
<path d="M631.398 2.5193C632.315 2.5193 632.748 2.96332 633.495 3.81683C634.218 4.64332 635.255 5.8793 637.278 5.8793V3.6393C636.362 3.6393 635.928 3.19528 635.181 2.34177C634.458 1.51528 633.422 0.279297 631.398 0.279297V2.5193Z" fill="white"/>
<path d="M637.278 5.8793C639.302 5.8793 640.338 4.64332 641.061 3.81683C641.808 2.96332 642.242 2.5193 643.158 2.5193V0.279297C641.135 0.279297 640.098 1.51528 639.375 2.34177C638.628 3.19528 638.195 3.6393 637.278 3.6393V5.8793Z" fill="white"/>
<path d="M643.158 2.5193C644.075 2.5193 644.508 2.96332 645.255 3.81683C645.978 4.64332 647.015 5.8793 649.038 5.8793V3.6393C648.122 3.6393 647.688 3.19528 646.941 2.34177C646.218 1.51528 645.182 0.279297 643.158 0.279297V2.5193Z" fill="white"/>
<path d="M649.038 5.8793C651.062 5.8793 652.098 4.64332 652.821 3.81683C653.568 2.96332 654.002 2.5193 654.918 2.5193V0.279297C652.895 0.279297 651.858 1.51528 651.135 2.34177C650.388 3.19528 649.955 3.6393 649.038 3.6393V5.8793Z" fill="white"/>
<path d="M654.918 2.5193C655.835 2.5193 656.268 2.96332 657.015 3.81683C657.738 4.64332 658.775 5.8793 660.798 5.8793V3.6393C659.882 3.6393 659.448 3.19528 658.701 2.34177C657.978 1.51528 656.942 0.279297 654.918 0.279297V2.5193Z" fill="white"/>
<path d="M660.798 5.8793C662.822 5.8793 663.858 4.64332 664.581 3.81683C665.328 2.96332 665.762 2.5193 666.678 2.5193V0.279297C664.655 0.279297 663.618 1.51528 662.895 2.34177C662.148 3.19528 661.715 3.6393 660.798 3.6393V5.8793Z" fill="white"/>
<path d="M666.678 2.5193C667.595 2.5193 668.028 2.96332 668.775 3.81683C669.498 4.64332 670.535 5.8793 672.558 5.8793V3.6393C671.642 3.6393 671.208 3.19528 670.461 2.34177C669.738 1.51528 668.702 0.279297 666.678 0.279297V2.5193Z" fill="white"/>
<path d="M672.558 5.8793C674.582 5.8793 675.618 4.64332 676.341 3.81683C677.088 2.96332 677.522 2.5193 678.438 2.5193V0.279297C676.415 0.279297 675.378 1.51528 674.655 2.34177C673.908 3.19528 673.475 3.6393 672.558 3.6393V5.8793Z" fill="white"/>
<path d="M678.438 2.5193C679.355 2.5193 679.788 2.96332 680.535 3.81683C681.258 4.64332 682.295 5.8793 684.318 5.8793V3.6393C683.402 3.6393 682.968 3.19528 682.221 2.34177C681.498 1.51528 680.462 0.279297 678.438 0.279297V2.5193Z" fill="white"/>
<path d="M684.318 5.8793C686.342 5.8793 687.378 4.64332 688.101 3.81683C688.848 2.96332 689.282 2.5193 690.198 2.5193V0.279297C688.175 0.279297 687.138 1.51528 686.415 2.34177C685.668 3.19528 685.235 3.6393 684.318 3.6393V5.8793Z" fill="white"/>
<path d="M690.198 2.5193C691.115 2.5193 691.548 2.96332 692.295 3.81683C693.018 4.64332 694.055 5.8793 696.078 5.8793V3.6393C695.162 3.6393 694.728 3.19528 693.981 2.34177C693.258 1.51528 692.222 0.279297 690.198 0.279297V2.5193Z" fill="white"/>
<path d="M696.078 5.8793C698.102 5.8793 699.138 4.64332 699.861 3.81683C700.608 2.96332 701.042 2.5193 701.958 2.5193V0.279297C699.935 0.279297 698.898 1.51528 698.175 2.34177C697.428 3.19528 696.995 3.6393 696.078 3.6393V5.8793Z" fill="white"/>
<path d="M701.958 2.5193C702.875 2.5193 703.308 2.96332 704.055 3.81683C704.778 4.64332 705.815 5.8793 707.838 5.8793V3.6393C706.922 3.6393 706.488 3.19528 705.741 2.34177C705.018 1.51528 703.982 0.279297 701.958 0.279297V2.5193ZM707.838 5.8793C708.457 5.8793 708.958 5.37786 708.958 4.7593C708.958 4.14074 708.457 3.6393 707.838 3.6393V5.8793Z" fill="white"/>
<path d="M708.081 3.6393C707.462 3.6393 706.961 4.14074 706.961 4.7593C706.961 5.37786 707.462 5.8793 708.081 5.8793V3.6393ZM708.081 5.8793C710.104 5.8793 711.141 4.64332 711.864 3.81683C712.611 2.96332 713.044 2.5193 713.961 2.5193V0.279297C711.938 0.279297 710.901 1.51528 710.178 2.34177C709.431 3.19528 708.998 3.6393 708.081 3.6393V5.8793Z" fill="white"/>
<path d="M713.961 2.5193C714.878 2.5193 715.311 2.96332 716.058 3.81683C716.781 4.64332 717.818 5.8793 719.841 5.8793V3.6393C718.924 3.6393 718.491 3.19528 717.744 2.34177C717.021 1.51528 715.984 0.279297 713.961 0.279297V2.5193Z" fill="white"/>
<path d="M719.841 5.8793C721.864 5.8793 722.901 4.64332 723.624 3.81683C724.371 2.96332 724.804 2.5193 725.721 2.5193V0.279297C723.698 0.279297 722.661 1.51528 721.938 2.34177C721.191 3.19528 720.758 3.6393 719.841 3.6393V5.8793Z" fill="white"/>
<path d="M725.721 2.5193C726.638 2.5193 727.071 2.96332 727.818 3.81683C728.541 4.64332 729.578 5.8793 731.601 5.8793V3.6393C730.684 3.6393 730.251 3.19528 729.504 2.34177C728.781 1.51528 727.744 0.279297 725.721 0.279297V2.5193Z" fill="white"/>
<path d="M731.601 5.8793C733.624 5.8793 734.661 4.64332 735.384 3.81683C736.131 2.96332 736.564 2.5193 737.481 2.5193V0.279297C735.458 0.279297 734.421 1.51528 733.698 2.34177C732.951 3.19528 732.518 3.6393 731.601 3.6393V5.8793Z" fill="white"/>
<path d="M737.481 2.5193C738.398 2.5193 738.831 2.96332 739.578 3.81683C740.301 4.64332 741.338 5.8793 743.361 5.8793V3.6393C742.444 3.6393 742.011 3.19528 741.264 2.34177C740.541 1.51528 739.504 0.279297 737.481 0.279297V2.5193Z" fill="white"/>
<path d="M743.361 5.8793C745.384 5.8793 746.421 4.64332 747.144 3.81683C747.891 2.96332 748.324 2.5193 749.241 2.5193V0.279297C747.218 0.279297 746.181 1.51528 745.458 2.34177C744.711 3.19528 744.278 3.6393 743.361 3.6393V5.8793Z" fill="white"/>
<path d="M749.241 2.5193C750.158 2.5193 750.591 2.96332 751.338 3.81683C752.061 4.64332 753.098 5.8793 755.121 5.8793V3.6393C754.204 3.6393 753.771 3.19528 753.024 2.34177C752.301 1.51528 751.264 0.279297 749.241 0.279297V2.5193Z" fill="white"/>
<path d="M755.121 5.8793C757.144 5.8793 758.181 4.64332 758.904 3.81683C759.651 2.96332 760.084 2.5193 761.001 2.5193V0.279297C758.978 0.279297 757.941 1.51528 757.218 2.34177C756.471 3.19528 756.038 3.6393 755.121 3.6393V5.8793Z" fill="white"/>
<path d="M761.001 2.5193C761.918 2.5193 762.351 2.96332 763.098 3.81683C763.821 4.64332 764.858 5.8793 766.881 5.8793V3.6393C765.964 3.6393 765.531 3.19528 764.784 2.34177C764.061 1.51528 763.024 0.279297 761.001 0.279297V2.5193Z" fill="white"/>
<path d="M766.881 5.8793C768.904 5.8793 769.941 4.64332 770.664 3.81683C771.411 2.96331 771.844 2.5193 772.761 2.5193V0.279297C770.738 0.279297 769.701 1.51528 768.978 2.34177C768.231 3.19528 767.798 3.6393 766.881 3.6393V5.8793Z" fill="white"/>
<path d="M772.761 2.5193C773.678 2.5193 774.111 2.96332 774.858 3.81683C775.581 4.64332 776.618 5.8793 778.641 5.8793V3.6393C777.724 3.6393 777.291 3.19528 776.544 2.34177C775.821 1.51528 774.784 0.279297 772.761 0.279297V2.5193Z" fill="white"/>
<path d="M778.641 5.8793C780.664 5.8793 781.701 4.64332 782.424 3.81683C783.171 2.96332 783.604 2.5193 784.521 2.5193V0.279297C782.498 0.279297 781.461 1.51528 780.738 2.34177C779.991 3.19528 779.558 3.6393 778.641 3.6393V5.8793Z" fill="white"/>
<path d="M784.521 2.5193C785.438 2.5193 785.871 2.96332 786.618 3.81683C787.341 4.64332 788.378 5.8793 790.401 5.8793V3.6393C789.484 3.6393 789.051 3.19528 788.304 2.34177C787.581 1.51528 786.544 0.279297 784.521 0.279297V2.5193Z" fill="white"/>
<path d="M790.401 5.8793C792.424 5.8793 793.461 4.64332 794.184 3.81683C794.931 2.96332 795.364 2.5193 796.281 2.5193V0.279297C794.258 0.279297 793.221 1.51528 792.498 2.34177C791.751 3.19528 791.318 3.6393 790.401 3.6393V5.8793Z" fill="white"/>
<path d="M796.281 2.5193C797.198 2.5193 797.631 2.96332 798.378 3.81683C799.101 4.64332 800.138 5.8793 802.161 5.8793V3.6393C801.244 3.6393 800.811 3.19528 800.064 2.34177C799.341 1.51528 798.304 0.279297 796.281 0.279297V2.5193Z" fill="white"/>
<path d="M802.161 5.8793C804.184 5.8793 805.221 4.64332 805.944 3.81683C806.691 2.96332 807.124 2.5193 808.041 2.5193V0.279297C806.018 0.279297 804.981 1.51528 804.258 2.34177C803.511 3.19528 803.078 3.6393 802.161 3.6393V5.8793Z" fill="white"/>
<path d="M808.041 2.5193C808.958 2.5193 809.391 2.96332 810.138 3.81683C810.861 4.64332 811.898 5.8793 813.921 5.8793V3.6393C813.004 3.6393 812.571 3.19528 811.824 2.34177C811.101 1.51528 810.064 0.279297 808.041 0.279297V2.5193Z" fill="white"/>
<path d="M813.921 5.8793C815.944 5.8793 816.981 4.64332 817.704 3.81683C818.451 2.96332 818.884 2.5193 819.801 2.5193V0.279297C817.778 0.279297 816.741 1.51528 816.018 2.34177C815.271 3.19528 814.838 3.6393 813.921 3.6393V5.8793Z" fill="white"/>
<path d="M819.801 2.5193C820.718 2.5193 821.151 2.96332 821.898 3.81683C822.621 4.64332 823.658 5.8793 825.681 5.8793V3.6393C824.764 3.6393 824.331 3.19528 823.584 2.34177C822.861 1.51528 821.824 0.279297 819.801 0.279297V2.5193Z" fill="white"/>
<path d="M825.681 5.8793C827.704 5.8793 828.741 4.64332 829.464 3.81683C830.211 2.96332 830.644 2.5193 831.561 2.5193V0.279297C829.538 0.279297 828.501 1.51528 827.778 2.34177C827.031 3.19528 826.598 3.6393 825.681 3.6393V5.8793Z" fill="white"/>
<path d="M831.561 2.5193C832.478 2.5193 832.911 2.96332 833.658 3.81683C834.381 4.64332 835.418 5.8793 837.441 5.8793V3.6393C836.524 3.6393 836.091 3.19528 835.344 2.34177C834.621 1.51528 833.584 0.279297 831.561 0.279297V2.5193Z" fill="white"/>
<path d="M837.441 5.8793C839.464 5.8793 840.501 4.64332 841.224 3.81683C841.971 2.96332 842.404 2.5193 843.321 2.5193V0.279297C841.298 0.279297 840.261 1.51528 839.538 2.34177C838.791 3.19528 838.358 3.6393 837.441 3.6393V5.8793Z" fill="white"/>
<path d="M843.321 2.5193C844.238 2.5193 844.671 2.96332 845.418 3.81683C846.141 4.64332 847.178 5.8793 849.201 5.8793V3.6393C848.284 3.6393 847.851 3.19528 847.104 2.34177C846.381 1.51528 845.344 0.279297 843.321 0.279297V2.5193Z" fill="white"/>
<path d="M849.201 5.8793C851.224 5.8793 852.261 4.64332 852.984 3.81683C853.731 2.96332 854.164 2.5193 855.081 2.5193V0.279297C853.058 0.279297 852.021 1.51528 851.298 2.34177C850.551 3.19528 850.118 3.6393 849.201 3.6393V5.8793Z" fill="white"/>
<path d="M855.081 2.5193C855.998 2.5193 856.431 2.96332 857.178 3.81683C857.901 4.64332 858.938 5.8793 860.961 5.8793V3.6393C860.044 3.6393 859.611 3.19528 858.864 2.34177C858.141 1.51528 857.104 0.279297 855.081 0.279297V2.5193Z" fill="white"/>
<path d="M860.961 5.8793C862.984 5.8793 864.021 4.64332 864.744 3.81683C865.491 2.96332 865.924 2.5193 866.841 2.5193V0.279297C864.818 0.279297 863.781 1.51528 863.058 2.34177C862.311 3.19528 861.878 3.6393 860.961 3.6393V5.8793Z" fill="white"/>
<path d="M866.841 2.5193C867.758 2.5193 868.191 2.96332 868.938 3.81683C869.661 4.64332 870.698 5.8793 872.721 5.8793V3.6393C871.804 3.6393 871.371 3.19528 870.624 2.34177C869.901 1.51528 868.864 0.279297 866.841 0.279297V2.5193Z" fill="white"/>
<path d="M872.721 5.8793C874.744 5.8793 875.781 4.64332 876.504 3.81683C877.251 2.96332 877.684 2.5193 878.601 2.5193V0.279297C876.578 0.279297 875.541 1.51528 874.818 2.34177C874.071 3.19528 873.638 3.6393 872.721 3.6393V5.8793Z" fill="white"/>
<path d="M878.601 2.5193C879.518 2.5193 879.951 2.96332 880.698 3.81683C881.421 4.64332 882.458 5.8793 884.481 5.8793V3.6393C883.564 3.6393 883.131 3.19528 882.384 2.34177C881.661 1.51528 880.624 0.279297 878.601 0.279297V2.5193Z" fill="white"/>
<path d="M884.481 5.8793C886.504 5.8793 887.541 4.64332 888.264 3.81683C889.011 2.96332 889.444 2.5193 890.361 2.5193V0.279297C888.338 0.279297 887.301 1.51528 886.578 2.34177C885.831 3.19528 885.398 3.6393 884.481 3.6393V5.8793Z" fill="white"/>
<path d="M890.361 2.5193C891.278 2.5193 891.711 2.96332 892.458 3.81683C893.181 4.64332 894.218 5.8793 896.241 5.8793V3.6393C895.324 3.6393 894.891 3.19528 894.144 2.34177C893.421 1.51528 892.384 0.279297 890.361 0.279297V2.5193Z" fill="white"/>
<path d="M896.241 5.8793C898.264 5.8793 899.301 4.64332 900.024 3.81683C900.771 2.96332 901.204 2.5193 902.121 2.5193V0.279297C900.098 0.279297 899.061 1.51528 898.338 2.34177C897.591 3.19528 897.158 3.6393 896.241 3.6393V5.8793Z" fill="white"/>
<path d="M902.121 2.5193C903.038 2.5193 903.471 2.96332 904.218 3.81683C904.941 4.64332 905.978 5.8793 908.001 5.8793V3.6393C907.084 3.6393 906.651 3.19528 905.904 2.34177C905.181 1.51528 904.144 0.279297 902.121 0.279297V2.5193Z" fill="white"/>
<path d="M908.001 5.8793C910.024 5.8793 911.061 4.64332 911.784 3.81683C912.531 2.96332 912.964 2.5193 913.881 2.5193V0.279297C911.858 0.279297 910.821 1.51528 910.098 2.34177C909.351 3.19528 908.918 3.6393 908.001 3.6393V5.8793Z" fill="white"/>
<path d="M913.881 2.5193C914.798 2.5193 915.231 2.96332 915.978 3.81683C916.701 4.64332 917.738 5.8793 919.761 5.8793V3.6393C918.844 3.6393 918.411 3.19528 917.664 2.34177C916.941 1.51528 915.904 0.279297 913.881 0.279297V2.5193Z" fill="white"/>
<path d="M919.761 5.8793C921.784 5.8793 922.821 4.64332 923.544 3.81683C924.291 2.96332 924.724 2.5193 925.641 2.5193V0.279297C923.618 0.279297 922.581 1.51528 921.858 2.34177C921.111 3.19528 920.678 3.6393 919.761 3.6393V5.8793Z" fill="white"/>
<path d="M925.641 2.5193C926.558 2.5193 926.991 2.96332 927.738 3.81683C928.461 4.64332 929.498 5.8793 931.521 5.8793V3.6393C930.604 3.6393 930.171 3.19528 929.424 2.34177C928.701 1.51528 927.664 0.279297 925.641 0.279297V2.5193Z" fill="white"/>
<path d="M931.521 5.8793C933.544 5.8793 934.581 4.64332 935.304 3.81683C936.051 2.96332 936.484 2.5193 937.401 2.5193V0.279297C935.378 0.279297 934.341 1.51528 933.618 2.34177C932.871 3.19528 932.438 3.6393 931.521 3.6393V5.8793Z" fill="white"/>
<path d="M937.401 2.5193C938.318 2.5193 938.751 2.96332 939.498 3.81683C940.221 4.64332 941.258 5.8793 943.281 5.8793V3.6393C942.364 3.6393 941.931 3.19528 941.184 2.34177C940.461 1.51528 939.424 0.279297 937.401 0.279297V2.5193Z" fill="white"/>
<path d="M943.281 5.8793C945.304 5.8793 946.341 4.64332 947.064 3.81683C947.811 2.96332 948.244 2.5193 949.161 2.5193V0.279297C947.138 0.279297 946.101 1.51528 945.378 2.34177C944.631 3.19528 944.198 3.6393 943.281 3.6393V5.8793Z" fill="white"/>
<path d="M949.161 2.5193C950.078 2.5193 950.511 2.96332 951.258 3.81683C951.981 4.64332 953.018 5.8793 955.041 5.8793V3.6393C954.124 3.6393 953.691 3.19528 952.944 2.34177C952.221 1.51528 951.184 0.279297 949.161 0.279297V2.5193Z" fill="white"/>
<path d="M955.041 5.8793C957.064 5.8793 958.101 4.64332 958.824 3.81683C959.571 2.96332 960.004 2.5193 960.921 2.5193V0.279297C958.898 0.279297 957.861 1.51528 957.138 2.34177C956.391 3.19528 955.958 3.6393 955.041 3.6393V5.8793Z" fill="white"/>
<path d="M960.921 2.5193C961.838 2.5193 962.271 2.96332 963.018 3.81683C963.741 4.64331 964.778 5.8793 966.801 5.8793V3.6393C965.884 3.6393 965.451 3.19529 964.704 2.34177C963.981 1.51528 962.944 0.279297 960.921 0.279297V2.5193Z" fill="white"/>
<path d="M966.801 5.8793C968.824 5.8793 969.861 4.64332 970.584 3.81683C971.331 2.96332 971.764 2.5193 972.681 2.5193V0.279297C970.658 0.279297 969.621 1.51528 968.898 2.34177C968.151 3.19528 967.718 3.6393 966.801 3.6393V5.8793Z" fill="white"/>
<path d="M972.681 2.5193C973.598 2.5193 974.031 2.96332 974.778 3.81683C975.501 4.64332 976.538 5.8793 978.561 5.8793V3.6393C977.644 3.6393 977.211 3.19528 976.464 2.34177C975.741 1.51528 974.704 0.279297 972.681 0.279297V2.5193Z" fill="white"/>
<path d="M978.561 5.8793C980.584 5.8793 981.621 4.64332 982.344 3.81683C983.091 2.96332 983.524 2.5193 984.441 2.5193V0.279297C982.418 0.279297 981.381 1.51528 980.658 2.34177C979.911 3.19528 979.478 3.6393 978.561 3.6393V5.8793Z" fill="white"/>
<path d="M984.441 2.5193C985.358 2.5193 985.791 2.96332 986.538 3.81683C987.261 4.64332 988.298 5.8793 990.321 5.8793V3.6393C989.404 3.6393 988.971 3.19528 988.224 2.34177C987.501 1.51528 986.464 0.279297 984.441 0.279297V2.5193Z" fill="white"/>
<path d="M990.321 5.8793C992.344 5.8793 993.381 4.64332 994.104 3.81683C994.851 2.96332 995.284 2.5193 996.201 2.5193V0.279297C994.178 0.279297 993.141 1.51528 992.418 2.34177C991.671 3.19528 991.238 3.6393 990.321 3.6393V5.8793Z" fill="white"/>
<path d="M996.201 2.5193C997.118 2.5193 997.551 2.96332 998.298 3.81683C999.021 4.64332 1000.06 5.8793 1002.08 5.8793V3.6393C1001.16 3.6393 1000.73 3.19528 999.984 2.34177C999.261 1.51528 998.224 0.279297 996.201 0.279297V2.5193Z" fill="white"/>
<path d="M1002.08 5.8793C1004.1 5.8793 1005.14 4.64332 1005.86 3.81683C1006.61 2.96332 1007.04 2.5193 1007.96 2.5193V0.279297C1005.94 0.279297 1004.9 1.51528 1004.18 2.34177C1003.43 3.19528 1003 3.6393 1002.08 3.6393V5.8793Z" fill="white"/>
<path d="M1007.96 2.5193C1008.88 2.5193 1009.31 2.96332 1010.06 3.81683C1010.78 4.64332 1011.82 5.8793 1013.84 5.8793V3.6393C1012.92 3.6393 1012.49 3.19528 1011.74 2.34177C1011.02 1.51528 1009.98 0.279297 1007.96 0.279297V2.5193Z" fill="white"/>
<path d="M1013.84 5.8793C1015.86 5.8793 1016.9 4.64332 1017.62 3.81683C1018.37 2.96332 1018.8 2.5193 1019.72 2.5193V0.279297C1017.7 0.279297 1016.66 1.51528 1015.94 2.34177C1015.19 3.19528 1014.76 3.6393 1013.84 3.6393V5.8793Z" fill="white"/>
<path d="M1019.72 2.5193C1020.64 2.5193 1021.07 2.96332 1021.82 3.81683C1022.54 4.64332 1023.58 5.8793 1025.6 5.8793V3.6393C1024.68 3.6393 1024.25 3.19528 1023.5 2.34177C1022.78 1.51528 1021.74 0.279297 1019.72 0.279297V2.5193Z" fill="white"/>
<path d="M1025.6 5.8793C1027.62 5.8793 1028.66 4.64332 1029.38 3.81683C1030.13 2.96332 1030.56 2.5193 1031.48 2.5193V0.279297C1029.46 0.279297 1028.42 1.51528 1027.7 2.34177C1026.95 3.19528 1026.52 3.6393 1025.6 3.6393V5.8793Z" fill="white"/>
<path d="M1031.48 2.5193C1032.4 2.5193 1032.83 2.96332 1033.58 3.81683C1034.3 4.64332 1035.34 5.8793 1037.36 5.8793V3.6393C1036.44 3.6393 1036.01 3.19528 1035.26 2.34177C1034.54 1.51528 1033.5 0.279297 1031.48 0.279297V2.5193Z" fill="white"/>
<path d="M1037.36 5.8793C1039.38 5.8793 1040.42 4.64332 1041.14 3.81683C1041.89 2.96332 1042.32 2.5193 1043.24 2.5193V0.279297C1041.22 0.279297 1040.18 1.51528 1039.46 2.34177C1038.71 3.19528 1038.28 3.6393 1037.36 3.6393V5.8793Z" fill="white"/>
<path d="M1043.24 2.5193C1044.16 2.5193 1044.59 2.96332 1045.34 3.81683C1046.06 4.64332 1047.1 5.8793 1049.12 5.8793V3.6393C1048.2 3.6393 1047.77 3.19528 1047.02 2.34177C1046.3 1.51528 1045.26 0.279297 1043.24 0.279297V2.5193Z" fill="white"/>
<path d="M1049.12 5.8793C1051.14 5.8793 1052.18 4.64332 1052.9 3.81683C1053.65 2.96332 1054.08 2.5193 1055 2.5193V0.279297C1052.98 0.279297 1051.94 1.51528 1051.22 2.34177C1050.47 3.19528 1050.04 3.6393 1049.12 3.6393V5.8793Z" fill="white"/>
<path d="M1055 2.5193C1055.92 2.5193 1056.35 2.96332 1057.1 3.81683C1057.82 4.64332 1058.86 5.8793 1060.88 5.8793V3.6393C1059.96 3.6393 1059.53 3.19528 1058.78 2.34177C1058.06 1.51528 1057.02 0.279297 1055 0.279297V2.5193ZM1060.88 5.8793C1061.5 5.8793 1062 5.37786 1062 4.7593C1062 4.14074 1061.5 3.6393 1060.88 3.6393V5.8793Z" fill="white"/>
<path d="M1061.12 3.6393C1060.5 3.6393 1060 4.14074 1060 4.7593C1060 5.37786 1060.5 5.8793 1061.12 5.8793V3.6393ZM1061.12 5.8793C1063.14 5.8793 1064.18 4.64332 1064.9 3.81683C1065.65 2.96332 1066.08 2.5193 1067 2.5193V0.279297C1064.98 0.279297 1063.94 1.51528 1063.22 2.34177C1062.47 3.19528 1062.04 3.6393 1061.12 3.6393V5.8793Z" fill="white"/>
<path d="M1067 2.5193C1067.92 2.5193 1068.35 2.96332 1069.1 3.81683C1069.82 4.64332 1070.86 5.8793 1072.88 5.8793V3.6393C1071.96 3.6393 1071.53 3.19528 1070.78 2.34177C1070.06 1.51528 1069.02 0.279297 1067 0.279297V2.5193Z" fill="white"/>
<path d="M1072.88 5.8793C1074.9 5.8793 1075.94 4.64332 1076.66 3.81683C1077.41 2.96332 1077.84 2.5193 1078.76 2.5193V0.279297C1076.74 0.279297 1075.7 1.51528 1074.98 2.34177C1074.23 3.19528 1073.8 3.6393 1072.88 3.6393V5.8793Z" fill="white"/>
<path d="M1078.76 2.5193C1079.68 2.5193 1080.11 2.96332 1080.86 3.81683C1081.58 4.64332 1082.62 5.8793 1084.64 5.8793V3.6393C1083.72 3.6393 1083.29 3.19528 1082.54 2.34177C1081.82 1.51528 1080.78 0.279297 1078.76 0.279297V2.5193Z" fill="white"/>
<path d="M1084.64 5.8793C1086.66 5.8793 1087.7 4.64332 1088.42 3.81683C1089.17 2.96332 1089.6 2.5193 1090.52 2.5193V0.279297C1088.5 0.279297 1087.46 1.51528 1086.74 2.34177C1085.99 3.19528 1085.56 3.6393 1084.64 3.6393V5.8793Z" fill="white"/>
<path d="M1090.52 2.5193C1091.44 2.5193 1091.87 2.96332 1092.62 3.81683C1093.34 4.64332 1094.38 5.8793 1096.4 5.8793V3.6393C1095.48 3.6393 1095.05 3.19528 1094.3 2.34177C1093.58 1.51528 1092.54 0.279297 1090.52 0.279297V2.5193Z" fill="white"/>
<path d="M1096.4 5.8793C1098.42 5.8793 1099.46 4.64332 1100.18 3.81683C1100.93 2.96332 1101.36 2.5193 1102.28 2.5193V0.279297C1100.26 0.279297 1099.22 1.51528 1098.5 2.34177C1097.75 3.19528 1097.32 3.6393 1096.4 3.6393V5.8793Z" fill="white"/>
<path d="M1102.28 2.5193C1103.2 2.5193 1103.63 2.96332 1104.38 3.81683C1105.1 4.64332 1106.14 5.8793 1108.16 5.8793V3.6393C1107.24 3.6393 1106.81 3.19528 1106.06 2.34177C1105.34 1.51528 1104.3 0.279297 1102.28 0.279297V2.5193Z" fill="white"/>
<path d="M1108.16 5.8793C1110.18 5.8793 1111.22 4.64332 1111.94 3.81683C1112.69 2.96332 1113.12 2.5193 1114.04 2.5193V0.279297C1112.02 0.279297 1110.98 1.51528 1110.26 2.34177C1109.51 3.19528 1109.08 3.6393 1108.16 3.6393V5.8793Z" fill="white"/>
<path d="M1114.04 2.5193C1114.96 2.5193 1115.39 2.96332 1116.14 3.81683C1116.86 4.64332 1117.9 5.8793 1119.92 5.8793V3.6393C1119 3.6393 1118.57 3.19528 1117.82 2.34177C1117.1 1.51528 1116.06 0.279297 1114.04 0.279297V2.5193Z" fill="white"/>
<path d="M1119.92 5.8793C1121.94 5.8793 1122.98 4.64332 1123.7 3.81683C1124.45 2.96331 1124.88 2.5193 1125.8 2.5193V0.279297C1123.78 0.279297 1122.74 1.51528 1122.02 2.34177C1121.27 3.19528 1120.84 3.6393 1119.92 3.6393V5.8793Z" fill="white"/>
<path d="M1125.8 2.5193C1126.72 2.5193 1127.15 2.96332 1127.9 3.81683C1128.62 4.64332 1129.66 5.8793 1131.68 5.8793V3.6393C1130.76 3.6393 1130.33 3.19528 1129.58 2.34177C1128.86 1.51528 1127.82 0.279297 1125.8 0.279297V2.5193Z" fill="white"/>
<path d="M1131.68 5.8793C1133.7 5.8793 1134.74 4.64332 1135.46 3.81683C1136.21 2.96332 1136.64 2.5193 1137.56 2.5193V0.279297C1135.54 0.279297 1134.5 1.51528 1133.78 2.34177C1133.03 3.19528 1132.6 3.6393 1131.68 3.6393V5.8793Z" fill="white"/>
<path d="M1137.56 2.5193C1138.48 2.5193 1138.91 2.96332 1139.66 3.81683C1140.38 4.64332 1141.42 5.8793 1143.44 5.8793V3.6393C1142.52 3.6393 1142.09 3.19528 1141.34 2.34177C1140.62 1.51528 1139.58 0.279297 1137.56 0.279297V2.5193Z" fill="white"/>
<path d="M1143.44 5.8793C1145.46 5.8793 1146.5 4.64332 1147.22 3.81683C1147.97 2.96332 1148.4 2.5193 1149.32 2.5193V0.279297C1147.3 0.279297 1146.26 1.51528 1145.54 2.34177C1144.79 3.19528 1144.36 3.6393 1143.44 3.6393V5.8793Z" fill="white"/>
<path d="M1149.32 2.5193C1150.24 2.5193 1150.67 2.96332 1151.42 3.81683C1152.14 4.64332 1153.18 5.8793 1155.2 5.8793V3.6393C1154.28 3.6393 1153.85 3.19528 1153.1 2.34177C1152.38 1.51528 1151.34 0.279297 1149.32 0.279297V2.5193Z" fill="white"/>
<path d="M1155.2 5.8793C1157.22 5.8793 1158.26 4.64332 1158.98 3.81683C1159.73 2.96332 1160.16 2.5193 1161.08 2.5193V0.279297C1159.06 0.279297 1158.02 1.51528 1157.3 2.34177C1156.55 3.19528 1156.12 3.6393 1155.2 3.6393V5.8793Z" fill="white"/>
<path d="M1161.08 2.5193C1162 2.5193 1162.43 2.96332 1163.18 3.81683C1163.9 4.64332 1164.94 5.8793 1166.96 5.8793V3.6393C1166.04 3.6393 1165.61 3.19528 1164.86 2.34177C1164.14 1.51528 1163.1 0.279297 1161.08 0.279297V2.5193Z" fill="white"/>
<path d="M1166.96 5.8793C1168.98 5.8793 1170.02 4.64332 1170.74 3.81683C1171.49 2.96332 1171.92 2.5193 1172.84 2.5193V0.279297C1170.82 0.279297 1169.78 1.51528 1169.06 2.34177C1168.31 3.19528 1167.88 3.6393 1166.96 3.6393V5.8793Z" fill="white"/>
<path d="M1172.84 2.5193C1173.76 2.5193 1174.19 2.96332 1174.94 3.81683C1175.66 4.64332 1176.7 5.8793 1178.72 5.8793V3.6393C1177.8 3.6393 1177.37 3.19528 1176.62 2.34177C1175.9 1.51528 1174.86 0.279297 1172.84 0.279297V2.5193Z" fill="white"/>
<path d="M1178.72 5.8793C1180.74 5.8793 1181.78 4.64332 1182.5 3.81683C1183.25 2.96332 1183.68 2.5193 1184.6 2.5193V0.279297C1182.58 0.279297 1181.54 1.51528 1180.82 2.34177C1180.07 3.19528 1179.64 3.6393 1178.72 3.6393V5.8793Z" fill="white"/>
<path d="M1184.6 2.5193C1185.52 2.5193 1185.95 2.96332 1186.7 3.81683C1187.42 4.64332 1188.46 5.8793 1190.48 5.8793V3.6393C1189.56 3.6393 1189.13 3.19528 1188.38 2.34177C1187.66 1.51528 1186.62 0.279297 1184.6 0.279297V2.5193Z" fill="white"/>
<path d="M1190.48 5.8793C1192.5 5.8793 1193.54 4.64332 1194.26 3.81683C1195.01 2.96332 1195.44 2.5193 1196.36 2.5193V0.279297C1194.34 0.279297 1193.3 1.51528 1192.58 2.34177C1191.83 3.19528 1191.4 3.6393 1190.48 3.6393V5.8793Z" fill="white"/>
<path d="M1196.36 2.5193C1197.28 2.5193 1197.71 2.96332 1198.46 3.81683C1199.18 4.64332 1200.22 5.8793 1202.24 5.8793V3.6393C1201.32 3.6393 1200.89 3.19528 1200.14 2.34177C1199.42 1.51528 1198.38 0.279297 1196.36 0.279297V2.5193Z" fill="white"/>
<path d="M1202.24 5.8793C1204.26 5.8793 1205.3 4.64332 1206.02 3.81683C1206.77 2.96332 1207.2 2.5193 1208.12 2.5193V0.279297C1206.1 0.279297 1205.06 1.51528 1204.34 2.34177C1203.59 3.19528 1203.16 3.6393 1202.24 3.6393V5.8793Z" fill="white"/>
<path d="M1208.12 2.5193C1209.04 2.5193 1209.47 2.96332 1210.22 3.81683C1210.94 4.64332 1211.98 5.8793 1214 5.8793V3.6393C1213.08 3.6393 1212.65 3.19528 1211.9 2.34177C1211.18 1.51528 1210.14 0.279297 1208.12 0.279297V2.5193Z" fill="white"/>
<path d="M1214 5.8793C1216.02 5.8793 1217.06 4.64332 1217.78 3.81683C1218.53 2.96332 1218.96 2.5193 1219.88 2.5193V0.279297C1217.86 0.279297 1216.82 1.51528 1216.1 2.34177C1215.35 3.19528 1214.92 3.6393 1214 3.6393V5.8793Z" fill="white"/>
<path d="M1219.88 2.5193C1220.8 2.5193 1221.23 2.96332 1221.98 3.81683C1222.7 4.64332 1223.74 5.8793 1225.76 5.8793V3.6393C1224.84 3.6393 1224.41 3.19528 1223.66 2.34177C1222.94 1.51528 1221.9 0.279297 1219.88 0.279297V2.5193Z" fill="white"/>
<path d="M1225.76 5.8793C1227.78 5.8793 1228.82 4.64332 1229.54 3.81683C1230.29 2.96332 1230.72 2.5193 1231.64 2.5193V0.279297C1229.62 0.279297 1228.58 1.51528 1227.86 2.34177C1227.11 3.19528 1226.68 3.6393 1225.76 3.6393V5.8793Z" fill="white"/>
<path d="M1231.64 2.5193C1232.56 2.5193 1232.99 2.96332 1233.74 3.81683C1234.46 4.64332 1235.5 5.8793 1237.52 5.8793V3.6393C1236.6 3.6393 1236.17 3.19528 1235.42 2.34177C1234.7 1.51528 1233.66 0.279297 1231.64 0.279297V2.5193Z" fill="white"/>
<path d="M1237.52 5.8793C1239.54 5.8793 1240.58 4.64332 1241.3 3.81683C1242.05 2.96332 1242.48 2.5193 1243.4 2.5193V0.279297C1241.38 0.279297 1240.34 1.51528 1239.62 2.34177C1238.87 3.19528 1238.44 3.6393 1237.52 3.6393V5.8793Z" fill="white"/>
<path d="M1243.4 2.5193C1244.32 2.5193 1244.75 2.96332 1245.5 3.81683C1246.22 4.64332 1247.26 5.8793 1249.28 5.8793V3.6393C1248.36 3.6393 1247.93 3.19528 1247.18 2.34177C1246.46 1.51528 1245.42 0.279297 1243.4 0.279297V2.5193Z" fill="white"/>
<path d="M1249.28 5.8793C1251.3 5.8793 1252.34 4.64332 1253.06 3.81683C1253.81 2.96332 1254.24 2.5193 1255.16 2.5193V0.279297C1253.14 0.279297 1252.1 1.51528 1251.38 2.34177C1250.63 3.19528 1250.2 3.6393 1249.28 3.6393V5.8793Z" fill="white"/>
<path d="M1255.16 2.5193C1256.08 2.5193 1256.51 2.96332 1257.26 3.81683C1257.98 4.64332 1259.02 5.8793 1261.04 5.8793V3.6393C1260.12 3.6393 1259.69 3.19528 1258.94 2.34177C1258.22 1.51528 1257.18 0.279297 1255.16 0.279297V2.5193Z" fill="white"/>
<path d="M1261.04 5.8793C1263.06 5.8793 1264.1 4.64332 1264.82 3.81683C1265.57 2.96332 1266 2.5193 1266.92 2.5193V0.279297C1264.9 0.279297 1263.86 1.51528 1263.14 2.34177C1262.39 3.19528 1261.96 3.6393 1261.04 3.6393V5.8793Z" fill="white"/>
<path d="M1266.92 2.5193C1267.84 2.5193 1268.27 2.96332 1269.02 3.81683C1269.74 4.64332 1270.78 5.8793 1272.8 5.8793V3.6393C1271.88 3.6393 1271.45 3.19528 1270.7 2.34177C1269.98 1.51528 1268.94 0.279297 1266.92 0.279297V2.5193Z" fill="white"/>
<path d="M1272.8 5.8793C1274.82 5.8793 1275.86 4.64332 1276.58 3.81683C1277.33 2.96332 1277.76 2.5193 1278.68 2.5193V0.279297C1276.66 0.279297 1275.62 1.51528 1274.9 2.34177C1274.15 3.19528 1273.72 3.6393 1272.8 3.6393V5.8793Z" fill="white"/>
<path d="M1278.68 2.5193C1279.6 2.5193 1280.03 2.96332 1280.78 3.81683C1281.5 4.64332 1282.54 5.8793 1284.56 5.8793V3.6393C1283.64 3.6393 1283.21 3.19528 1282.46 2.34177C1281.74 1.51528 1280.7 0.279297 1278.68 0.279297V2.5193Z" fill="white"/>
<path d="M1284.56 5.8793C1286.58 5.8793 1287.62 4.64332 1288.34 3.81683C1289.09 2.96332 1289.52 2.5193 1290.44 2.5193V0.279297C1288.42 0.279297 1287.38 1.51528 1286.66 2.34177C1285.91 3.19528 1285.48 3.6393 1284.56 3.6393V5.8793Z" fill="white"/>
<path d="M1290.44 2.5193C1291.36 2.5193 1291.79 2.96332 1292.54 3.81683C1293.26 4.64332 1294.3 5.8793 1296.32 5.8793V3.6393C1295.4 3.6393 1294.97 3.19528 1294.22 2.34177C1293.5 1.51528 1292.46 0.279297 1290.44 0.279297V2.5193Z" fill="white"/>
<path d="M1296.32 5.8793C1298.34 5.8793 1299.38 4.64332 1300.1 3.81683C1300.85 2.96332 1301.28 2.5193 1302.2 2.5193V0.279297C1300.18 0.279297 1299.14 1.51528 1298.42 2.34177C1297.67 3.19528 1297.24 3.6393 1296.32 3.6393V5.8793Z" fill="white"/>
<path d="M1302.2 2.5193C1303.12 2.5193 1303.55 2.96332 1304.3 3.81683C1305.02 4.64332 1306.06 5.8793 1308.08 5.8793V3.6393C1307.16 3.6393 1306.73 3.19528 1305.98 2.34177C1305.26 1.51528 1304.22 0.279297 1302.2 0.279297V2.5193Z" fill="white"/>
<path d="M1308.08 5.8793C1310.1 5.8793 1311.14 4.64332 1311.86 3.81683C1312.61 2.96332 1313.04 2.5193 1313.96 2.5193V0.279297C1311.94 0.279297 1310.9 1.51528 1310.18 2.34177C1309.43 3.19528 1309 3.6393 1308.08 3.6393V5.8793Z" fill="white"/>
<path d="M1313.96 2.5193C1314.88 2.5193 1315.31 2.96332 1316.06 3.81683C1316.78 4.64331 1317.82 5.8793 1319.84 5.8793V3.6393C1318.92 3.6393 1318.49 3.19529 1317.74 2.34177C1317.02 1.51528 1315.98 0.279297 1313.96 0.279297V2.5193Z" fill="white"/>
<path d="M1319.84 5.8793C1321.86 5.8793 1322.9 4.64332 1323.62 3.81683C1324.37 2.96332 1324.8 2.5193 1325.72 2.5193V0.279297C1323.7 0.279297 1322.66 1.51528 1321.94 2.34177C1321.19 3.19528 1320.76 3.6393 1319.84 3.6393V5.8793Z" fill="white"/>
<path d="M1325.72 2.5193C1326.64 2.5193 1327.07 2.96332 1327.82 3.81683C1328.54 4.64332 1329.58 5.8793 1331.6 5.8793V3.6393C1330.68 3.6393 1330.25 3.19528 1329.5 2.34177C1328.78 1.51528 1327.74 0.279297 1325.72 0.279297V2.5193Z" fill="white"/>
<path d="M1331.6 5.8793C1333.62 5.8793 1334.66 4.64332 1335.38 3.81683C1336.13 2.96332 1336.56 2.5193 1337.48 2.5193V0.279297C1335.46 0.279297 1334.42 1.51528 1333.7 2.34177C1332.95 3.19528 1332.52 3.6393 1331.6 3.6393V5.8793Z" fill="white"/>
<path d="M1337.48 2.5193C1338.4 2.5193 1338.83 2.96332 1339.58 3.81683C1340.3 4.64332 1341.34 5.8793 1343.36 5.8793V3.6393C1342.44 3.6393 1342.01 3.19528 1341.26 2.34177C1340.54 1.51528 1339.5 0.279297 1337.48 0.279297V2.5193Z" fill="white"/>
<path d="M1343.36 5.8793C1345.38 5.8793 1346.42 4.64332 1347.14 3.81683C1347.89 2.96332 1348.32 2.5193 1349.24 2.5193V0.279297C1347.22 0.279297 1346.18 1.51528 1345.46 2.34177C1344.71 3.19528 1344.28 3.6393 1343.36 3.6393V5.8793Z" fill="white"/>
<path d="M1349.24 2.5193C1350.16 2.5193 1350.59 2.96332 1351.34 3.81683C1352.06 4.64332 1353.1 5.8793 1355.12 5.8793V3.6393C1354.2 3.6393 1353.77 3.19528 1353.02 2.34177C1352.3 1.51528 1351.26 0.279297 1349.24 0.279297V2.5193Z" fill="white"/>
<path d="M1355.12 5.8793C1357.14 5.8793 1358.18 4.64332 1358.9 3.81683C1359.65 2.96332 1360.08 2.5193 1361 2.5193V0.279297C1358.98 0.279297 1357.94 1.51528 1357.22 2.34177C1356.47 3.19528 1356.04 3.6393 1355.12 3.6393V5.8793Z" fill="white"/>
<path d="M1361 2.5193C1361.92 2.5193 1362.35 2.96332 1363.1 3.81683C1363.82 4.64332 1364.86 5.8793 1366.88 5.8793V3.6393C1365.96 3.6393 1365.53 3.19528 1364.78 2.34177C1364.06 1.51528 1363.02 0.279297 1361 0.279297V2.5193Z" fill="white"/>
<path d="M1366.88 5.8793C1368.9 5.8793 1369.94 4.64332 1370.66 3.81683C1371.41 2.96332 1371.84 2.5193 1372.76 2.5193V0.279297C1370.74 0.279297 1369.7 1.51528 1368.98 2.34177C1368.23 3.19528 1367.8 3.6393 1366.88 3.6393V5.8793Z" fill="white"/>
<path d="M1372.76 2.5193C1373.68 2.5193 1374.11 2.96332 1374.86 3.81683C1375.58 4.64332 1376.62 5.8793 1378.64 5.8793V3.6393C1377.72 3.6393 1377.29 3.19528 1376.54 2.34177C1375.82 1.51528 1374.78 0.279297 1372.76 0.279297V2.5193Z" fill="white"/>
<path d="M1378.64 5.8793C1380.66 5.8793 1381.7 4.64332 1382.42 3.81683C1383.17 2.96332 1383.6 2.5193 1384.52 2.5193V0.279297C1382.5 0.279297 1381.46 1.51528 1380.74 2.34177C1379.99 3.19528 1379.56 3.6393 1378.64 3.6393V5.8793Z" fill="white"/>
<path d="M1384.52 2.5193C1385.44 2.5193 1385.87 2.96332 1386.62 3.81683C1387.34 4.64332 1388.38 5.8793 1390.4 5.8793V3.6393C1389.48 3.6393 1389.05 3.19528 1388.3 2.34177C1387.58 1.51528 1386.54 0.279297 1384.52 0.279297V2.5193Z" fill="white"/>
<path d="M1390.4 5.8793C1392.42 5.8793 1393.46 4.64332 1394.18 3.81683C1394.93 2.96332 1395.36 2.5193 1396.28 2.5193V0.279297C1394.26 0.279297 1393.22 1.51528 1392.5 2.34177C1391.75 3.19528 1391.32 3.6393 1390.4 3.6393V5.8793Z" fill="white"/>
<path d="M1396.28 2.5193C1397.2 2.5193 1397.63 2.96332 1398.38 3.81683C1399.1 4.64332 1400.14 5.8793 1402.16 5.8793V3.6393C1401.24 3.6393 1400.81 3.19528 1400.06 2.34177C1399.34 1.51528 1398.3 0.279297 1396.28 0.279297V2.5193Z" fill="white"/>
<path d="M1402.16 5.8793C1404.18 5.8793 1405.22 4.64332 1405.94 3.81683C1406.69 2.96332 1407.12 2.5193 1408.04 2.5193V0.279297C1406.02 0.279297 1404.98 1.51528 1404.26 2.34177C1403.51 3.19528 1403.08 3.6393 1402.16 3.6393V5.8793Z" fill="white"/>
<path d="M1408.04 2.5193C1408.96 2.5193 1409.39 2.96332 1410.14 3.81683C1410.86 4.64332 1411.9 5.8793 1413.92 5.8793V3.6393C1413 3.6393 1412.57 3.19528 1411.82 2.34177C1411.1 1.51528 1410.06 0.279297 1408.04 0.279297V2.5193ZM1413.92 5.8793C1414.54 5.8793 1415.04 5.37786 1415.04 4.7593C1415.04 4.14074 1414.54 3.6393 1413.92 3.6393V5.8793Z" fill="white"/>
</svg>
